<?xml version="1.0" encoding="utf-8"?>
<!-- Generator: Adobe Illustrator 23.0.2, SVG Export Plug-In . SVG Version: 6.00 Build 0)  -->
<svg version="1.1" id="Layer_1" xmlns="http://www.w3.org/2000/svg" xmlns:xlink="http://www.w3.org/1999/xlink" x="0px" y="0px"
	 viewBox="0 0 305 463" style="enable-background:new 0 0 305 463;" xml:space="preserve">
<style type="text/css">
	.st0{fill:#FFFFFF;stroke:#000000;stroke-width:2;stroke-linecap:round;}
	.st1{fill:#FF0000;stroke:#FF0000;stroke-width:1.44;stroke-miterlimit:10;}
	.st2{fill:#FF0000;}
</style>
<title>6</title>
<path class="st0" d="M24.1,1h257c12.7,0,23,10.2,23,22.9c0,0,0,0,0,0.1v415c0,12.7-10.3,23-23,23c0,0,0,0-0.1,0h-257
	c-12.7,0-23-10.2-23-22.9c0,0,0,0,0-0.1v-415C1,11.3,11.3,1,24.1,1C24,1,24,1,24.1,1L24.1,1z"/>
<path class="st1" d="M32.6,22.7L32.6,22.7c1.5,0,3,0.4,4.3,1.2l0,0c1.4,0.9,2.5,2.1,3.2,3.6l0,0c0.8,1.7,1.2,3.6,1.2,5.6l0,0
	c0,2.1-0.4,4.2-1.4,6l0,0c-0.9,1.6-2.2,3-3.8,3.8l0,0c-1.6,0.9-3.5,1.3-5.3,1.3l0,0c-2.8,0.1-5.6-1.2-7.2-3.6l0,0
	c-1.7-2.4-2.6-5.7-2.6-10l0,0c-0.1-3.9,0.8-7.9,2.6-11.4l0,0c1.5-2.8,3.6-5.3,6.3-7.1l0,0c2.2-1.6,4.8-2.6,7.4-3.2l0,0l0.2,1l0,0
	c-1.9,0.6-3.6,1.5-5.2,2.6l0,0c-1.7,1.3-3.2,3-4.1,5l0,0c-1.3,2.8-2.1,5.9-2.3,9l0,0c0.7-1.3,1.7-2.3,3-3l0,0
	C30,23,31.3,22.7,32.6,22.7z M31.2,43.4L31.2,43.4c1.6,0,3.1-1,3.9-2.4l0,0c1-1.6,1.5-4.1,1.5-7.5l0,0c0-3.3-0.5-5.6-1.4-7.1l0,0
	c-0.7-1.4-2.2-2.2-3.7-2.3l0,0c-1.2,0-2.3,0.4-3.3,1l0,0c-1.2,0.7-2,1.8-2.5,3.1l0,0c0,0.5,0,1.3,0,2.4l0,0c0,4.6,0.5,7.9,1.6,9.8
	l0,0C28.4,42.5,29.7,43.4,31.2,43.4L31.2,43.4z"/>
<path class="st1" d="M272.4,440.3L272.4,440.3c-1.5,0-3-0.4-4.3-1.2l0,0c-1.4-0.9-2.5-2.1-3.2-3.6l0,0c-0.8-1.7-1.2-3.6-1.2-5.6l0,0
	c0-2.1,0.4-4.2,1.4-6l0,0c0.9-1.6,2.2-3,3.9-3.9l0,0c1.6-0.9,3.5-1.3,5.3-1.3l0,0c2.8-0.1,5.6,1.2,7.2,3.6l0,0
	c1.7,2.4,2.6,5.7,2.6,10l0,0c0.1,3.9-0.8,7.9-2.6,11.4l0,0c-1.5,2.8-3.6,5.3-6.3,7.1l0,0c-2.2,1.6-4.8,2.7-7.5,3.2l0,0l-0.2-1l0,0
	c1.9-0.6,3.6-1.5,5.2-2.6l0,0c1.7-1.3,3.2-3,4.1-5l0,0c1.3-2.8,2.1-5.9,2.3-9l0,0c-0.7,1.3-1.7,2.3-3,3l0,0
	C275,440,273.7,440.3,272.4,440.3z M273.8,419.6L273.8,419.6c-1.6,0-3.1,1-3.9,2.4l0,0c-1,1.6-1.5,4.1-1.5,7.5l0,0
	c0,3.3,0.5,5.6,1.4,7.1l0,0c0.7,1.4,2.2,2.2,3.7,2.3l0,0c1.2,0,2.3-0.4,3.3-1l0,0c1.2-0.7,2-1.8,2.5-3.1l0,0c0-0.5,0-1.3,0-2.4l0,0
	c0-4.6-0.5-7.9-1.6-9.8l0,0C276.7,420.5,275.3,419.6,273.8,419.6L273.8,419.6z"/>
<g id="layer1">
	<path id="path2417" class="st2" d="M29.9,89.8c-1-1-2-1.9-3.1-2.7c-1.8-1.3-3.5-2.7-5.2-4.2c-2.3-1.9-3.7-4.8-3.6-7.8
		c-0.1-1,0.1-2.1,0.5-3c0.7-1.5,1.8-2.7,3.2-3.4c0.9-0.5,2-0.8,3.1-0.7c1.1-0.1,2.2,0.2,3.1,0.7c1.2,0.7,2.2,1.8,2.7,3.1l0.2,0.6
		l0.4-0.9c2.2-4.9,9.4-4.8,11.9,0.1c0.8,2.2,0.9,4.6,0.2,6.8c-0.9,2.5-2.6,4.4-6.6,7.2c-2.1,1.5-4,3.2-5.8,5.1
		C30.7,91.4,30.9,91,29.9,89.8z"/>
</g>
<path class="st2" d="M275.1,373.2c1,1,2,1.9,3.1,2.7c1.8,1.3,3.5,2.7,5.2,4.2c2.3,1.9,3.7,4.8,3.6,7.8c0.1,1-0.1,2.1-0.5,3
	c-0.7,1.5-1.8,2.7-3.2,3.4c-0.9,0.5-2,0.8-3.1,0.7c-1.1,0.1-2.2-0.2-3.1-0.7c-1.2-0.7-2.2-1.8-2.7-3.1l-0.2-0.6l-0.4,0.9
	c-2.2,4.9-9.4,4.8-11.9-0.1c-0.8-2.2-0.9-4.6-0.2-6.8c0.9-2.5,2.6-4.4,6.6-7.2c2.1-1.5,4-3.2,5.8-5.1
	C274.3,371.6,274.1,372,275.1,373.2z"/>
<path class="st2" d="M87.1,361.6c1.8,1.8,3.7,3.5,5.7,5c6.2,4.7,7.1,5.4,9.6,7.7c4.7,4.3,6.6,8.6,6.6,14.4c0,2.9-0.2,4-1,5.6
	c-1.2,2.7-3.3,4.9-5.9,6.3c-1.7,1-3.7,1.5-5.7,1.3c-3.2,0-3.8-0.4-5.7-1.4c-2.3-1.2-4.6-3.9-5.1-5.8l-0.3-1.2l-0.7,1.6
	c-4.1,9.1-17.4,8.9-21.9-0.2c-1.5-2.9-1.6-9.1-0.3-12.6c1.7-4.6,4.9-8,12.2-13.4c4.8-3.5,10.2-8.8,10.6-9.5S85.1,359.5,87.1,361.6z"
	/>
<path class="st2" d="M82.9,102.4c-1.8-1.8-3.7-3.5-5.7-5c-6.2-4.7-7.1-5.4-9.6-7.7C63,85.4,61,81.1,61,75.2c0-2.9,0.2-3.9,1-5.6
	c1.2-2.7,3.3-4.9,5.9-6.3c1.7-1,3.7-1.5,5.7-1.3c3.2,0,3.8,0.4,5.7,1.4c2.3,1.2,4.6,3.9,5.1,5.8l0.3,1.2l0.7-1.6
	c4.1-9.1,17.4-8.9,21.9,0.2c1.5,2.9,1.6,9.1,0.3,12.6c-1.7,4.6-4.9,8-12.2,13.4c-4.8,3.5-10.2,8.8-10.6,9.5S84.9,104.5,82.9,102.4z"
	/>
<path class="st2" d="M222.1,360.6c1.8,1.8,3.7,3.5,5.7,5c6.2,4.7,7.1,5.4,9.6,7.7c4.7,4.3,6.6,8.6,6.6,14.4c0,2.9-0.2,4-1,5.6
	c-1.2,2.7-3.3,4.9-5.9,6.3c-1.7,1-3.7,1.5-5.7,1.3c-3.2,0-3.8-0.4-5.7-1.4c-2.3-1.2-4.6-3.9-5.1-5.8l-0.3-1.2l-0.7,1.6
	c-4.1,9.1-17.4,8.9-22-0.2c-1.5-2.9-1.6-9.1-0.3-12.6c1.7-4.6,4.9-8,12.2-13.4c4.8-3.5,10.2-8.8,10.6-9.5S220.1,358.5,222.1,360.6z"
	/>
<path class="st2" d="M217.9,250.4c-1.8-1.8-3.7-3.5-5.7-5c-6.2-4.7-7.1-5.4-9.6-7.7c-4.7-4.3-6.6-8.6-6.6-14.4c0-2.9,0.2-4,1-5.6
	c1.2-2.7,3.3-4.9,5.9-6.3c1.7-1,3.7-1.5,5.7-1.3c3.2,0,3.8,0.4,5.7,1.4c2.3,1.2,4.6,3.9,5.1,5.8l0.3,1.2l0.7-1.6
	c4.1-9.1,17.4-8.9,22,0.2c1.5,2.9,1.6,9.1,0.3,12.6c-1.7,4.6-4.9,8-12.2,13.4c-4.8,3.5-10.2,8.8-10.6,9.5S219.9,252.5,217.9,250.4z"
	/>
<path class="st2" d="M217.9,101.4c-1.8-1.8-3.7-3.5-5.7-5c-6.2-4.7-7.1-5.4-9.6-7.7c-4.7-4.3-6.6-8.6-6.6-14.4c0-2.9,0.2-3.9,1-5.6
	c1.2-2.7,3.3-4.9,5.9-6.3c1.7-1,3.7-1.5,5.7-1.3c3.2,0,3.8,0.4,5.7,1.4c2.3,1.2,4.6,3.9,5.1,5.8l0.3,1.2l0.7-1.6
	c4.1-9.1,17.4-8.9,22,0.2c1.5,2.9,1.6,9.1,0.3,12.6c-1.7,4.6-4.9,8-12.2,13.4c-4.8,3.5-10.2,8.8-10.6,9.5S219.9,103.5,217.9,101.4z"
	/>
<path class="st2" d="M82.9,250.4c-1.8-1.8-3.7-3.5-5.7-5c-6.2-4.7-7.1-5.4-9.6-7.7c-4.7-4.3-6.6-8.6-6.6-14.4c0-2.9,0.2-4,1-5.6
	c1.2-2.7,3.3-4.9,5.9-6.3c1.7-1,3.7-1.5,5.7-1.3c3.2,0,3.8,0.4,5.7,1.4c2.3,1.2,4.6,3.9,5.1,5.8l0.3,1.2l0.7-1.6
	c4.1-9.1,17.4-8.9,21.9,0.2c1.5,2.9,1.6,9.1,0.3,12.6c-1.7,4.6-4.9,8-12.2,13.4c-4.8,3.5-10.2,8.8-10.6,9.5S84.9,252.5,82.9,250.4z"
	/>
</svg>
