<svg id="Layer_1" data-name="Layer 1" xmlns="http://www.w3.org/2000/svg" viewBox="0 0 305 463"><defs><style>.cls-1{fill:#fff;stroke:#000;stroke-linecap:round;stroke-width:2px;}.cls-2,.cls-3{fill:red;}.cls-2{stroke:red;stroke-miterlimit:10;stroke-width:1.44px;}</style></defs><title>Ace</title><path class="cls-1" d="M175.05,79H432a23,23,0,0,1,23.05,23V517A23,23,0,0,1,432,540H175.05A23,23,0,0,1,152,517V102.05a23,23,0,0,1,23.05-23Z" transform="translate(-151 -78)"/><path class="cls-2" d="M193.81,117.65h0c.77,2,1.87,3,3.31,3.06h0v1h0q-1.92-.15-5.13-.15h0q-4.11,0-6.13.15h0v-1h0a7.62,7.62,0,0,0,2.61-.46h0a1.3,1.3,0,0,0,.79-1.31h0a6.65,6.65,0,0,0-.57-2.25h0l-2.92-7.85H174.18l-2,5.07h0a12.46,12.46,0,0,0-1,3.93h0a2.39,2.39,0,0,0,1,2.15h0a6.06,6.06,0,0,0,3.14.72h0v1h0c-1.82-.1-3.66-.15-5.51-.15h0a35.69,35.69,0,0,0-3.59.15h0v-1h0q2.4-.57,3.78-4.17h0l11.25-29h.77Zm-19.24-9.77h10.82L180,93.56Z" transform="translate(-151 -78)"/><path class="cls-2" d="M413.19,501.35h0c-.77-2-1.87-3-3.31-3.06h0v-1h0q1.92.15,5.13.15h0q4.11,0,6.13-.15h0v1h0a7.62,7.62,0,0,0-2.61.46h0a1.3,1.3,0,0,0-.79,1.31h0a6.65,6.65,0,0,0,.57,2.25h0l2.92,7.85h11.59l2-5.07h0a12.46,12.46,0,0,0,1-3.93h0a2.39,2.39,0,0,0-1-2.15h0a6.06,6.06,0,0,0-3.14-.72h0v-1h0c1.82.1,3.66.15,5.51.15h0a35.69,35.69,0,0,0,3.59-.15h0v1h0q-2.4.57-3.78,4.17h0l-11.25,29h-.77Zm19.24,9.77H421.61L427,525.44Z" transform="translate(-151 -78)"/><g id="layer1"><path id="path2417" class="cls-3" d="M297.45,375c-3.52-3.95-12.33-11.65-19.56-17.11-21.44-16.19-24.35-18.53-33.06-26.54-16-14.78-22.85-29.62-22.83-49.75,0-9.82.68-13.6,3.43-19.4,4.67-9.82,11.55-17.12,20.34-21.59,6.22-3.16,9.29-4.56,19.69-4.62,10.88-.06,13.17,1.21,19.56,4.72,7.79,4.28,15.81,13.42,17.46,19.92l1,4,2.52-5.53c14.26-31.21,59.79-30.75,75.63.78,5,10,5.58,31.36,1.12,43.39-5.81,15.69-16.73,27.65-42,46-16.56,12-35.3,30.22-36.6,32.77C302.7,385,304.14,382.53,297.45,375Z" transform="translate(-151 -78)"/></g><path class="cls-3" d="M180.85,167.84a27.24,27.24,0,0,0-3.07-2.69,52.61,52.61,0,0,1-5.19-4.17,9.82,9.82,0,0,1-3.59-7.81,6,6,0,0,1,.54-3,7.08,7.08,0,0,1,3.19-3.39,5.42,5.42,0,0,1,3.1-.73,4.77,4.77,0,0,1,3.07.74,6.25,6.25,0,0,1,2.74,3.13l.16.63.4-.86c2.24-4.91,9.39-4.83,11.88.12a10.6,10.6,0,0,1,.17,6.81c-.91,2.47-2.62,4.35-6.59,7.23a37.68,37.68,0,0,0-5.75,5.14C181.68,169.41,181.9,169,180.85,167.84Z" transform="translate(-151 -78)"/><path class="cls-3" d="M426.15,451.16a27.24,27.24,0,0,0,3.07,2.69,52.61,52.61,0,0,1,5.19,4.17,9.82,9.82,0,0,1,3.59,7.81,6,6,0,0,1-.54,3.05,7.08,7.08,0,0,1-3.19,3.39,5.42,5.42,0,0,1-3.1.73,4.77,4.77,0,0,1-3.07-.74,6.25,6.25,0,0,1-2.74-3.13l-.16-.63-.4.86c-2.24,4.91-9.39,4.83-11.88-.12a10.6,10.6,0,0,1-.17-6.81c.91-2.47,2.62-4.35,6.59-7.23a37.68,37.68,0,0,0,5.75-5.14C425.32,449.59,425.1,450,426.15,451.16Z" transform="translate(-151 -78)"/></svg>