<?xml version="1.0" encoding="utf-8"?>
<!-- Generator: Adobe Illustrator 23.0.3, SVG Export Plug-In . SVG Version: 6.00 Build 0)  -->
<svg version="1.1" id="Layer_1" xmlns="http://www.w3.org/2000/svg" xmlns:xlink="http://www.w3.org/1999/xlink" x="0px" y="0px"
	 viewBox="0 0 305 463" style="enable-background:new 0 0 305 463;" xml:space="preserve">
<style type="text/css">
	.st0{fill:#FFFFFF;stroke:#000000;stroke-width:2;stroke-linecap:round;}
	.st1{fill:#FF0000;}
	.st2{enable-background:new    ;}
</style>
<title>Ace</title>
<path class="st0" d="M24.1,1h257c12.7,0,23,10.2,23,22.9c0,0,0,0,0,0.1v415c0,12.7-10.3,23-23,23c0,0,0,0-0.1,0H24
	c-12.7,0-23-10.2-23-22.9c0,0,0,0,0-0.1V24C1,11.3,11.3,1,24.1,1C24,1,24,1,24.1,1L24.1,1z"/>
<g id="layer1">
	<path id="path2417" class="st1" d="M146.5,297c-3.5-4-12.3-11.6-19.6-17.1c-21.4-16.2-24.4-18.5-33.1-26.5
		c-16-14.8-22.9-29.6-22.8-49.8c0-9.8,0.7-13.6,3.4-19.4c4.7-9.8,11.6-17.1,20.3-21.6c6.2-3.2,9.3-4.6,19.7-4.6
		c10.9-0.1,13.2,1.2,19.6,4.7c7.8,4.3,15.8,13.4,17.5,19.9l1,4l2.5-5.5c14.3-31.2,59.8-30.8,75.6,0.8c5,10,5.6,31.4,1.1,43.4
		c-5.8,15.7-16.7,27.6-42,46c-16.6,12-35.3,30.2-36.6,32.8C151.7,307,153.1,304.5,146.5,297z"/>
</g>
<path class="st1" d="M29.9,89.8c-1-1-2-1.9-3.1-2.7c-1.8-1.3-3.5-2.7-5.2-4.2c-2.3-1.9-3.7-4.8-3.6-7.8c-0.1-1,0.1-2.1,0.5-3
	c0.7-1.5,1.8-2.7,3.2-3.4c0.9-0.5,2-0.8,3.1-0.7c1.1-0.1,2.2,0.2,3.1,0.7c1.2,0.7,2.2,1.8,2.7,3.1l0.2,0.6l0.4-0.9
	c2.2-4.9,9.4-4.8,11.9,0.1c0.8,2.2,0.9,4.6,0.2,6.8c-0.9,2.5-2.6,4.4-6.6,7.2c-2.1,1.5-4,3.2-5.8,5.1C30.7,91.4,30.9,91,29.9,89.8z"
	/>
<path class="st1" d="M275.1,373.2c1,1,2,1.9,3.1,2.7c1.8,1.3,3.5,2.7,5.2,4.2c2.3,1.9,3.7,4.8,3.6,7.8c0.1,1-0.1,2.1-0.5,3
	c-0.7,1.5-1.8,2.7-3.2,3.4c-0.9,0.5-2,0.8-3.1,0.7c-1.1,0.1-2.2-0.2-3.1-0.7c-1.2-0.7-2.2-1.8-2.7-3.1l-0.2-0.6l-0.4,0.9
	c-2.2,4.9-9.4,4.8-11.9-0.1c-0.8-2.2-0.9-4.6-0.2-6.8c0.9-2.5,2.6-4.4,6.6-7.2c2.1-1.5,4-3.2,5.8-5.1
	C274.3,371.6,274.1,372,275.1,373.2z"/>
<g class="st2">
	<path class="st1" d="M20.2,57.4V31.8c0-3.4,1-6.3,3-8.5c2.1-2.3,4.9-3.5,8.2-3.5c3.3,0,6.1,1.2,8.2,3.5c2,2.1,3,5,3,8.5v23.5
		l-4.2,2.2h-0.2V40.5H24.7v14.7l-4.2,2.2H20.2z M24.7,36.2h13.6v-4.4c0-2.1-0.5-3.9-1.6-5.2c-1.3-1.6-3.1-2.5-5.2-2.5
		s-3.9,0.8-5.2,2.5c-1.1,1.3-1.6,3.1-1.6,5.2V36.2z"/>
</g>
<g class="st2">
	<path class="st1" d="M284.8,405.7v25.6c0,3.4-1,6.3-3,8.5c-2.1,2.3-4.9,3.5-8.2,3.5c-3.3,0-6.1-1.2-8.2-3.5c-2-2.1-3-5-3-8.5v-23.5
		l4.2-2.2h0.2v16.9h13.6v-14.7l4.2-2.2H284.8z M280.3,426.9h-13.6v4.4c0,2.1,0.5,3.9,1.6,5.2c1.3,1.6,3.1,2.5,5.2,2.5
		s3.9-0.8,5.2-2.5c1.1-1.3,1.6-3.1,1.6-5.2V426.9z"/>
</g>
</svg>
