<svg id="Layer_1" data-name="Layer 1" xmlns="http://www.w3.org/2000/svg" viewBox="0 0 305 463"><defs><style>.cls-1{fill:#fff;stroke:#000;stroke-linecap:round;stroke-width:2px;}.cls-2,.cls-3,.cls-4{fill:red;}.cls-2,.cls-3{stroke:red;stroke-miterlimit:10;}.cls-2{stroke-width:1.44px;}.cls-3{stroke-width:3.42px;}</style></defs><title>Jack</title><path class="cls-1" d="M142.05,69H399a23,23,0,0,1,23.05,23V507A23,23,0,0,1,399,530H142.05A23,23,0,0,1,119,507V92.05a23,23,0,0,1,23.05-23Z" transform="translate(-118 -68)"/><path class="cls-2" d="M140.71,120.67v-.91h0a5.77,5.77,0,0,0,4.95-2.49h0c1.07-1.6,1.61-4.29,1.61-8.09h0V82.85h0a8.73,8.73,0,0,0-.29-2.64h0a1.72,1.72,0,0,0-1.08-1.1h0a9.38,9.38,0,0,0-2.51-.38h0v-1h0c1.34.1,3.35.14,6,.14h0c2.62,0,4.68,0,6.18-.14h0v1h0a9.54,9.54,0,0,0-2.52.38h0a1.72,1.72,0,0,0-1.07,1.1h0a8.73,8.73,0,0,0-.29,2.64h0v17.52h0q0,4.06-.14,7.2h0a28.48,28.48,0,0,1-.67,5.29h0a10.22,10.22,0,0,1-3.52,5.65h0a10.25,10.25,0,0,1-6.68,2.16Z" transform="translate(-118 -68)"/><path class="cls-2" d="M400.29,478.33v.91h0a5.77,5.77,0,0,0-5,2.49h0c-1.07,1.6-1.61,4.29-1.61,8.09h0v26.33h0a8.73,8.73,0,0,0,.29,2.64h0a1.72,1.72,0,0,0,1.08,1.1h0a9.38,9.38,0,0,0,2.51.38h0v1h0c-1.34-.1-3.35-.14-6-.14h0c-2.62,0-4.68,0-6.18.14h0v-1h0a9.54,9.54,0,0,0,2.52-.38h0a1.72,1.72,0,0,0,1.07-1.1h0a8.73,8.73,0,0,0,.29-2.64h0V498.63h0q0-4.06.14-7.2h0a28.48,28.48,0,0,1,.67-5.29h0a10.22,10.22,0,0,1,3.52-5.65h0a10.25,10.25,0,0,1,6.68-2.16Z" transform="translate(-118 -68)"/><path class="cls-3" d="M249.72,272.74v-2.16h0q8-.22,11.79-5.92h0q3.81-5.7,3.81-19.25h0V182.78h0a20.44,20.44,0,0,0-.68-6.26h0a4.1,4.1,0,0,0-2.56-2.62h0a22.44,22.44,0,0,0-6-.91h0v-2.28h0q4.78.34,14.35.34h0q9.33,0,14.69-.34h0V173h0a22.37,22.37,0,0,0-6,.91h0a4.08,4.08,0,0,0-2.56,2.62h0a20.37,20.37,0,0,0-.69,6.26h0v41.68h0q0,9.67-.34,17.14h0A67.52,67.52,0,0,1,274,254.18h0a24.32,24.32,0,0,1-8.37,13.44h0q-6.33,5.11-15.89,5.12Z" transform="translate(-118 -68)"/><path class="cls-3" d="M291.28,326.26v2.16h0q-8,.22-11.79,5.92h0q-3.81,5.7-3.81,19.25h0v62.63h0a20.44,20.44,0,0,0,.68,6.26h0a4.1,4.1,0,0,0,2.56,2.62h0a22.44,22.44,0,0,0,6,.91h0v2.28h0q-4.78-.35-14.35-.34h0q-9.33,0-14.69.34h0V426h0a22.37,22.37,0,0,0,6-.91h0a4.08,4.08,0,0,0,2.56-2.62h0a20.37,20.37,0,0,0,.69-6.26h0V374.54h0q0-9.68.34-17.14h0A67.52,67.52,0,0,1,267,344.82h0a24.32,24.32,0,0,1,8.37-13.44h0q6.33-5.11,15.89-5.12Z" transform="translate(-118 -68)"/><g id="layer1"><path id="path2417" class="cls-4" d="M147.85,157.84a27.24,27.24,0,0,0-3.07-2.69,52.61,52.61,0,0,1-5.19-4.17,9.82,9.82,0,0,1-3.59-7.81,6,6,0,0,1,.54-3,7.08,7.08,0,0,1,3.19-3.39,5.42,5.42,0,0,1,3.1-.73,4.77,4.77,0,0,1,3.07.74,6.25,6.25,0,0,1,2.74,3.13l.16.63.4-.86c2.24-4.91,9.39-4.83,11.88.12a10.6,10.6,0,0,1,.17,6.81c-.91,2.47-2.62,4.35-6.59,7.23a37.68,37.68,0,0,0-5.75,5.14C148.68,159.41,148.9,159,147.85,157.84Z" transform="translate(-118 -68)"/></g><path class="cls-4" d="M393.15,441.16a27.24,27.24,0,0,0,3.07,2.69,52.61,52.61,0,0,1,5.19,4.17,9.82,9.82,0,0,1,3.59,7.81,6,6,0,0,1-.54,3.05,7.08,7.08,0,0,1-3.19,3.39,5.42,5.42,0,0,1-3.1.73,4.77,4.77,0,0,1-3.07-.74,6.25,6.25,0,0,1-2.74-3.13l-.16-.63-.4.86c-2.24,4.91-9.39,4.83-11.88-.12a10.6,10.6,0,0,1-.17-6.81c.91-2.47,2.62-4.35,6.59-7.23a37.68,37.68,0,0,0,5.75-5.14C392.32,439.59,392.1,440,393.15,441.16Z" transform="translate(-118 -68)"/></svg>