<?xml version="1.0" encoding="utf-8"?>
<!-- Generator: Adobe Illustrator 23.0.2, SVG Export Plug-In . SVG Version: 6.00 Build 0)  -->
<svg version="1.1" id="Layer_1" xmlns="http://www.w3.org/2000/svg" xmlns:xlink="http://www.w3.org/1999/xlink" x="0px" y="0px"
	 viewBox="0 0 305 463" style="enable-background:new 0 0 305 463;" xml:space="preserve">
<style type="text/css">
	.st0{fill:#FFFFFF;stroke:#000000;stroke-width:2;stroke-linecap:round;}
	.st1{fill:#FF0000;stroke:#FF0000;stroke-width:1.44;stroke-miterlimit:10;}
	.st2{fill:#FF0000;stroke:#FF0000;stroke-width:3.42;stroke-miterlimit:10;}
	.st3{fill:#FF0000;}
</style>
<title>King</title>
<path class="st0" d="M24.1,1h257c12.7,0,23,10.2,23,22.9c0,0,0,0,0,0.1v415c0,12.7-10.3,23-23,23c0,0,0,0-0.1,0h-257
	c-12.7,0-23-10.2-23-22.9c0,0,0,0,0-0.1v-415C1,11.3,11.3,1,24.1,1C24,1,24,1,24.1,1L24.1,1z"/>
<path class="st1" d="M42.8,38.8L42.8,38.8c0.5,0.7,1.1,1.4,1.8,1.9l0,0c0.7,0.5,1.6,0.8,2.4,1l0,0v1l0,0c-1.5-0.1-3.4-0.2-5.8-0.2
	l0,0c-1.7,0-3.4,0-4.9,0.2l0,0v-1l0,0c0.6,0,1.1-0.1,1.7-0.3l0,0c0.3-0.1,0.5-0.4,0.5-0.7l0,0c0-0.4-0.2-0.8-0.5-1.2l0,0L31,29l0,0
	c-0.6-1-1.4-2-2.3-2.8l0,0c-0.8-0.5-1.7-0.7-2.7-0.7l0,0v12.1l0,0c0,0.9,0.1,1.8,0.3,2.6l0,0c0.2,0.5,0.6,0.9,1.1,1.1l0,0
	c0.8,0.2,1.7,0.4,2.5,0.4l0,0v1l0,0c-1.5-0.1-3.5-0.1-6.1-0.2l0,0c-2.7,0-4.8,0.1-6.1,0.2l0,0v-1l0,0c0.8,0,1.7-0.1,2.5-0.4l0,0
	c0.5-0.2,0.9-0.6,1.1-1.1l0,0c0.2-0.9,0.3-1.8,0.3-2.6l0,0V13.8l0,0c0-0.9-0.1-1.8-0.3-2.6l0,0c-0.2-0.5-0.6-0.9-1.1-1.1l0,0
	c-0.8-0.2-1.7-0.4-2.5-0.4l0,0v-1l0,0C19,8.8,21,8.9,23.8,8.9l0,0c2.6,0,4.6,0,6.1-0.1l0,0v1l0,0c-0.9,0-1.7,0.1-2.5,0.4l0,0
	c-0.5,0.2-0.9,0.6-1.1,1.1l0,0C26,12.1,25.9,13,26,13.8l0,0v10.7l0,0c2.1,0,4.2-1,5.5-2.7l0,0l4.6-5.8l0,0c1.6-2,2.4-3.5,2.4-4.6
	l0,0c0-1.1-1-1.7-3-1.7l0,0v-1l0,0c1.8,0.1,3.7,0.1,5.5,0.1l0,0c1.8,0,3.1,0,4.1-0.1l0,0v1l0,0c-1.1,0.1-2.1,0.5-3,1l0,0
	c-1,0.6-2,1.5-2.7,2.5l0,0l-7.8,10L42.8,38.8z"/>
<path class="st1" d="M262.2,422.2L262.2,422.2c-0.5-0.7-1.1-1.4-1.8-1.9l0,0c-0.7-0.5-1.6-0.8-2.4-1l0,0v-1l0,0
	c1.5,0.1,3.5,0.1,5.8,0.1l0,0c1.7,0,3.4,0,4.9-0.1l0,0v1l0,0c-0.6,0-1.1,0.1-1.7,0.3l0,0c-0.3,0.1-0.5,0.4-0.5,0.7l0,0
	c0,0.4,0.2,0.8,0.5,1.1l0,0l7,10.5l0,0c0.6,1,1.4,2,2.3,2.8l0,0c0.8,0.5,1.7,0.7,2.7,0.7l0,0v-12.1l0,0c0-0.9-0.1-1.8-0.3-2.6l0,0
	c-0.2-0.5-0.6-0.9-1.1-1.1l0,0c-0.8-0.2-1.7-0.4-2.5-0.4l0,0v-1l0,0c1.5,0.1,3.5,0.1,6.1,0.1l0,0c2.8,0,4.8,0,6.1-0.1l0,0v1l0,0
	c-0.8,0-1.7,0.1-2.5,0.4l0,0c-0.5,0.2-0.9,0.6-1.1,1.1l0,0c-0.2,0.9-0.3,1.8-0.3,2.6l0,0v23.7l0,0c0,0.9,0.1,1.8,0.3,2.6l0,0
	c0.2,0.5,0.6,0.9,1.1,1.1l0,0c0.8,0.2,1.7,0.4,2.5,0.4l0,0v1l0,0c-1.3-0.1-3.4-0.1-6.1-0.1l0,0c-2.5,0-4.6,0-6.1,0.1l0,0v-1l0,0
	c0.9,0,1.7-0.1,2.5-0.4l0,0c0.5-0.2,0.9-0.6,1.1-1.1l0,0c0.2-0.9,0.3-1.8,0.3-2.6l0,0v-10.7l0,0c-2.1,0-4.2,1-5.5,2.7l0,0l-4.6,5.9
	l0,0c-1.6,2-2.4,3.5-2.4,4.6l0,0c0,1.1,1,1.7,3,1.7l0,0v1l0,0c-1.8-0.1-3.7-0.1-5.5-0.1l0,0c-1.8,0-3.1,0-4.1,0.1l0,0v-1l0,0
	c1.1-0.1,2.1-0.5,3-1l0,0c1-0.6,2-1.5,2.7-2.5l0,0l7.8-10L262.2,422.2z"/>
<path class="st2" d="M179.8,173.1L179.8,173.1c1.1,1.7,2.6,3.3,4.3,4.5l0,0c1.7,1.2,3.7,2,5.8,2.4l0,0v2.3l0,0
	c-3.6-0.2-8.2-0.3-13.7-0.3l0,0c-4.1,0-8,0.1-11.7,0.3l0,0v-2.3l0,0c1.4,0,2.7-0.2,4-0.7l0,0c0.7-0.2,1.2-0.9,1.3-1.7l0,0
	c-0.1-1-0.5-2-1.1-2.7l0,0l-16.6-25.1l0,0c-2.2-3.3-4.1-5.5-5.6-6.6l0,0c-1.9-1.1-4.1-1.7-6.4-1.8l0,0v28.7l0,0
	c-0.1,2.1,0.1,4.2,0.7,6.3l0,0c0.4,1.2,1.3,2.2,2.6,2.6l0,0c1.9,0.6,4,0.9,6,0.9l0,0v2.3l0,0c-3.5-0.2-8.3-0.3-14.5-0.3l0,0
	c-6.5,0-11.4,0.1-14.6,0.3l0,0v-2.3l0,0c2,0,4.1-0.3,6-0.9l0,0c1.2-0.4,2.2-1.4,2.6-2.6l0,0c0.5-2,0.8-4.2,0.7-6.3l0,0v-56.5l0,0
	c0.1-2.1-0.1-4.2-0.7-6.3l0,0c-0.4-1.2-1.3-2.2-2.6-2.6l0,0c-1.9-0.6-4-0.9-6-0.9l0,0v-2.3l0,0c3.2,0.2,8,0.3,14.6,0.3l0,0
	c6.1,0,10.9-0.1,14.5-0.3l0,0v2.3l0,0c-2,0-4.1,0.3-6,0.9l0,0c-1.2,0.4-2.2,1.4-2.6,2.6l0,0c-0.5,2-0.8,4.2-0.7,6.3l0,0v25.5l0,0
	c5.5-0.2,9.9-2.4,13-6.4l0,0l10.9-13.9l0,0c3.9-4.8,5.8-8.4,5.8-10.9l0,0c0-2.7-2.4-4-7.1-4.1l0,0v-2.3l0,0
	c4.3,0.2,8.7,0.3,13.1,0.3l0,0c4.2,0,7.4-0.1,9.7-0.3l0,0v2.3l0,0c-2.5,0.4-4.9,1.2-7.1,2.4l0,0c-2.5,1.5-4.7,3.5-6.4,5.9l0,0
	l-18.6,23.8L179.8,173.1z"/>
<path class="st2" d="M125.2,287.9L125.2,287.9c-1.1-1.7-2.6-3.3-4.3-4.5l0,0c-1.7-1.2-3.7-2-5.8-2.5l0,0v-2.3l0,0
	c3.7,0.2,8.2,0.3,13.7,0.3l0,0c4.1,0,8-0.1,11.7-0.3l0,0v2.3l0,0c-1.4,0-2.7,0.2-4,0.7l0,0c-0.7,0.2-1.2,0.9-1.3,1.7l0,0
	c0.1,1,0.5,2,1.1,2.7l0,0l16.6,25l0,0c2.2,3.3,4.1,5.5,5.6,6.5l0,0c1.9,1.1,4.1,1.7,6.4,1.8l0,0v-28.7l0,0c0.1-2.1-0.1-4.2-0.7-6.3
	l0,0c-0.4-1.2-1.3-2.2-2.6-2.6l0,0c-1.9-0.6-4-0.9-6-0.9l0,0v-2.3l0,0c3.5,0.2,8.3,0.3,14.5,0.3l0,0c6.5,0,11.4-0.1,14.6-0.3l0,0
	v2.3l0,0c-2,0-4.1,0.3-6,0.9l0,0c-1.2,0.4-2.2,1.4-2.6,2.6l0,0c-0.5,2-0.8,4.2-0.7,6.3l0,0v56.5l0,0c-0.1,2.1,0.1,4.2,0.7,6.3l0,0
	c0.4,1.2,1.3,2.2,2.6,2.6l0,0c1.9,0.6,4,0.9,6,0.9l0,0v2.3l0,0c-3.2-0.2-8-0.3-14.6-0.3l0,0c-6.1,0-10.9,0.1-14.5,0.3l0,0V357l0,0
	c2,0,4.1-0.3,6-0.9l0,0c1.2-0.4,2.2-1.4,2.6-2.6l0,0c0.5-2,0.8-4.2,0.7-6.3l0,0v-25.5l0,0c-5.5,0.2-9.9,2.4-13,6.4l0,0L141.2,342
	l0,0c-3.9,4.8-5.8,8.4-5.8,10.9l0,0c0,2.7,2.4,4,7.1,4.1l0,0v2.3l0,0c-4.3-0.2-8.7-0.3-13.1-0.3l0,0c-4.2,0-7.4,0.1-9.7,0.3l0,0V357
	l0,0c2.5-0.4,4.9-1.2,7.1-2.5l0,0c2.5-1.5,4.7-3.5,6.4-5.9l0,0l18.6-23.8L125.2,287.9z"/>
<g id="layer1">
	<path id="path2417" class="st3" d="M29.9,89.8c-1-1-2-1.9-3.1-2.7c-1.8-1.3-3.5-2.7-5.2-4.2c-2.3-1.9-3.7-4.8-3.6-7.8
		c-0.1-1,0.1-2.1,0.5-3c0.7-1.5,1.8-2.7,3.2-3.4c0.9-0.5,2-0.8,3.1-0.7c1.1-0.1,2.2,0.2,3.1,0.7c1.2,0.7,2.2,1.8,2.7,3.1l0.2,0.6
		l0.4-0.9c2.2-4.9,9.4-4.8,11.9,0.1c0.8,2.2,0.9,4.6,0.2,6.8c-0.9,2.5-2.6,4.4-6.6,7.2c-2.1,1.5-4,3.2-5.8,5.1
		C30.7,91.4,30.9,91,29.9,89.8z"/>
</g>
<path class="st3" d="M275.1,373.2c1,1,2,1.9,3.1,2.7c1.8,1.3,3.5,2.7,5.2,4.2c2.3,1.9,3.7,4.8,3.6,7.8c0.1,1-0.1,2.1-0.5,3
	c-0.7,1.5-1.8,2.7-3.2,3.4c-0.9,0.5-2,0.8-3.1,0.7c-1.1,0.1-2.2-0.2-3.1-0.7c-1.2-0.7-2.2-1.8-2.7-3.1l-0.2-0.6l-0.4,0.9
	c-2.2,4.9-9.4,4.8-11.9-0.1c-0.8-2.2-0.9-4.6-0.2-6.8c0.9-2.5,2.6-4.4,6.6-7.2c2.1-1.5,4-3.2,5.8-5.1
	C274.3,371.6,274.1,372,275.1,373.2z"/>
</svg>
