<?xml version="1.0" encoding="utf-8"?>
<!-- Generator: Adobe Illustrator 23.0.3, SVG Export Plug-In . SVG Version: 6.00 Build 0)  -->
<svg version="1.1" id="Layer_1" xmlns="http://www.w3.org/2000/svg" xmlns:xlink="http://www.w3.org/1999/xlink" x="0px" y="0px"
	 viewBox="0 0 305 463" style="enable-background:new 0 0 305 463;" xml:space="preserve">
<style type="text/css">
	.st0{fill:#FFFFFF;stroke:#000000;stroke-width:2;stroke-linecap:round;}
	.st1{fill:#FF0000;}
	.st2{enable-background:new    ;}
</style>
<title>King</title>
<path class="st0" d="M24.1,1h257c12.7,0,23,10.2,23,22.9c0,0,0,0,0,0.1v415c0,12.7-10.3,23-23,23c0,0,0,0-0.1,0H24
	c-12.7,0-23-10.2-23-22.9c0,0,0,0,0-0.1V24C1,11.3,11.3,1,24.1,1C24,1,24,1,24.1,1L24.1,1z"/>
<g id="layer1">
	<path id="path2417" class="st1" d="M29.9,89.8c-1-1-2-1.9-3.1-2.7c-1.8-1.3-3.5-2.7-5.2-4.2c-2.3-1.9-3.7-4.8-3.6-7.8
		c-0.1-1,0.1-2.1,0.5-3c0.7-1.5,1.8-2.7,3.2-3.4c0.9-0.5,2-0.8,3.1-0.7c1.1-0.1,2.2,0.2,3.1,0.7c1.2,0.7,2.2,1.8,2.7,3.1l0.2,0.6
		l0.4-0.9c2.2-4.9,9.4-4.8,11.9,0.1c0.8,2.2,0.9,4.6,0.2,6.8c-0.9,2.5-2.6,4.4-6.6,7.2c-2.1,1.5-4,3.2-5.8,5.1
		C30.7,91.4,30.9,91,29.9,89.8z"/>
</g>
<path class="st1" d="M275.1,373.2c1,1,2,1.9,3.1,2.7c1.8,1.3,3.5,2.7,5.2,4.2c2.3,1.9,3.7,4.8,3.6,7.8c0.1,1-0.1,2.1-0.5,3
	c-0.7,1.5-1.8,2.7-3.2,3.4c-0.9,0.5-2,0.8-3.1,0.7c-1.1,0.1-2.2-0.2-3.1-0.7c-1.2-0.7-2.2-1.8-2.7-3.1l-0.2-0.6l-0.4,0.9
	c-2.2,4.9-9.4,4.8-11.9-0.1c-0.8-2.2-0.9-4.6-0.2-6.8c0.9-2.5,2.6-4.4,6.6-7.2c2.1-1.5,4-3.2,5.8-5.1
	C274.3,371.6,274.1,372,275.1,373.2z"/>
<g class="st2">
	<path class="st1" d="M20.8,57.4V21.5l4.2-2.2h0.2v18l12.1-18h0.2l3.9,2l-9.9,14.2c3.4,0.1,6.1,1.1,8.1,3.2c2,2.1,3,4.9,3,8.5v8
		l-4.2,2.2h-0.2V47.2c0-2.1-0.5-3.9-1.6-5.2c-1.3-1.6-2.9-2.5-4.9-2.5c-1.9,0-3.6,0.8-4.9,2.5c-1.1,1.4-1.6,3.1-1.6,5.2v8L21,57.4
		H20.8z"/>
</g>
<g class="st2">
	<path class="st1" d="M284.2,405.7v35.9l-4.2,2.2h-0.2v-18l-12.1,18h-0.2l-3.9-2l9.9-14.2c-3.4-0.1-6.1-1.2-8.1-3.2
		c-2-2.1-3-4.9-3-8.5v-8l4.2-2.2h0.2v10.2c0,2.1,0.5,3.9,1.6,5.2c1.3,1.6,2.9,2.5,4.9,2.5c1.9,0,3.6-0.8,4.9-2.5
		c1.1-1.4,1.6-3.1,1.6-5.2v-8l4.2-2.2H284.2z"/>
</g>
<g class="st2">
	<path class="st1" d="M119.8,210.8v-108l12.7-6.5h0.7v54.2l36.4-54.2h0.7l11.8,6l-30,42.7c10.3,0.2,18.3,3.5,24.2,9.6
		c6,6.3,9,14.9,9,25.6v24.1l-12.7,6.5h-0.7v-30.5c0-6.4-1.6-11.6-4.8-15.6c-4-4.9-8.8-7.4-14.6-7.4s-10.7,2.5-14.6,7.4
		c-3.2,4.1-4.8,9.3-4.8,15.6v24.1l-12.7,6.5h-0.6C119.8,210.9,119.8,210.8,119.8,210.8z"/>
</g>
<g class="st2">
	<path class="st1" d="M185.3,250.1v108l-12.7,6.5h-0.7v-54.2l-36.4,54.2h-0.7l-11.8-6l29.9-42.8c-10.3-0.2-18.3-3.5-24.2-9.6
		c-6-6.3-9-14.9-9-25.6v-24.1l12.7-6.5h0.7v30.5c0,6.4,1.6,11.6,4.8,15.6c4,4.9,8.8,7.4,14.6,7.4s10.7-2.5,14.6-7.4
		c3.2-4.1,4.8-9.3,4.8-15.6v-24.1l12.7-6.5h0.7V250.1z"/>
</g>
</svg>
