<svg id="Layer_1" data-name="Layer 1" xmlns="http://www.w3.org/2000/svg" viewBox="0 0 305 463"><defs><style>.cls-1{fill:#fff;stroke-linecap:round;stroke-width:2px;}.cls-1,.cls-2,.cls-3{stroke:#000;}.cls-2,.cls-3{stroke-miterlimit:10;}.cls-2{stroke-width:1.46px;}.cls-3{stroke-width:3.43px;}</style></defs><title>Queen</title><path class="cls-1" d="M104.05,107H361A23,23,0,0,1,384,130.05V545A23,23,0,0,1,361,568H104.05a23,23,0,0,1-23-23V130.05a23,23,0,0,1,23-23.05Z" transform="translate(-80 -106)"/><path class="cls-2" d="M129.59,151.23l.73.29h0a11.86,11.86,0,0,1-3.06,5.54h0a9.34,9.34,0,0,1-6.56,2.19h0a14.16,14.16,0,0,1-4.38-.68h0a52.71,52.71,0,0,1-5.4-2.14h0q-3.6-1.55-5.88-2.33h0l-1.17-.34h0a12.37,12.37,0,0,1-4,.73h0c-1.5,0-2.24-.33-2.24-1h0c0-.68.87-1,2.62-1h0a18.61,18.61,0,0,1,3.65.39h0a25.11,25.11,0,0,0,3.6-1.36h0c.84-.39,1.47-.66,1.9-.83h0a14.24,14.24,0,0,1-7.18-2.57h0a14.32,14.32,0,0,1-4.71-6h0a22,22,0,0,1-1.68-8.92h0a21.8,21.8,0,0,1,2-9.48h0a15.19,15.19,0,0,1,5.49-6.42h0a14.42,14.42,0,0,1,8-2.29h0a15.46,15.46,0,0,1,8.1,2.09h0a14,14,0,0,1,5.4,6.06h0a21.49,21.49,0,0,1,1.92,9.46h0a22.26,22.26,0,0,1-1.75,9h0A15.54,15.54,0,0,1,120,148h0a14,14,0,0,1-7.24,2.74h0v.05h0a11.69,11.69,0,0,0-2,.42h0c-.57.17-1.32.46-2.26.85h0a24.58,24.58,0,0,1-2.92,1.12h0q5.4,1.06,9.17,1.7h0a39.16,39.16,0,0,0,6.25.63h0a12.43,12.43,0,0,0,5.47-1h0A6.87,6.87,0,0,0,129.59,151.23ZM100.66,133h0a25.23,25.23,0,0,0,1.44,8.89h0a14.18,14.18,0,0,0,3.86,5.94h0a8.17,8.17,0,0,0,5.45,2.09h0a7.82,7.82,0,0,0,5.47-2.17h0a14,14,0,0,0,3.65-6.05h0a28.53,28.53,0,0,0,1.28-8.9h0a25.29,25.29,0,0,0-1.43-8.9h0a14.19,14.19,0,0,0-3.87-5.93h0a8.14,8.14,0,0,0-5.44-2.09h0A7.84,7.84,0,0,0,105.6,118h0A14.05,14.05,0,0,0,102,124.1h0a28.23,28.23,0,0,0-1.29,8.9Z" transform="translate(-80 -106)"/><path class="cls-2" d="M335.41,525.77l-.73-.29h0a11.86,11.86,0,0,1,3.06-5.54h0a9.34,9.34,0,0,1,6.56-2.19h0a14.16,14.16,0,0,1,4.38.68h0a52.71,52.71,0,0,1,5.4,2.14h0q3.6,1.54,5.88,2.33h0l1.17.34h0a12.37,12.37,0,0,1,4-.73h0c1.5,0,2.24.33,2.24,1h0c0,.68-.87,1-2.62,1h0a18.61,18.61,0,0,1-3.65-.39h0a25.11,25.11,0,0,0-3.6,1.36h0c-.84.39-1.47.66-1.9.83h0a14.24,14.24,0,0,1,7.18,2.57h0a14.32,14.32,0,0,1,4.71,6h0a22,22,0,0,1,1.68,8.92h0a21.8,21.8,0,0,1-2,9.48h0a15.19,15.19,0,0,1-5.49,6.42h0a14.42,14.42,0,0,1-8,2.29h0a15.46,15.46,0,0,1-8.1-2.09h0a14,14,0,0,1-5.4-6.06h0a21.49,21.49,0,0,1-1.92-9.46h0a22.26,22.26,0,0,1,1.75-9h0a15.54,15.54,0,0,1,4.92-6.32h0a14,14,0,0,1,7.24-2.74h0v0h0a11.69,11.69,0,0,0,2-.42h0c.57-.17,1.32-.46,2.26-.85h0a24.58,24.58,0,0,1,2.92-1.12h0q-5.4-1.07-9.17-1.7h0a39.16,39.16,0,0,0-6.25-.63h0a12.43,12.43,0,0,0-5.47,1h0A6.87,6.87,0,0,0,335.41,525.77ZM364.34,544h0a25.23,25.23,0,0,0-1.44-8.89h0a14.18,14.18,0,0,0-3.86-5.94h0a8.17,8.17,0,0,0-5.45-2.09h0a7.82,7.82,0,0,0-5.47,2.17h0a14,14,0,0,0-3.65,6h0a28.53,28.53,0,0,0-1.28,8.9h0a25.29,25.29,0,0,0,1.43,8.9h0a14.19,14.19,0,0,0,3.87,5.93h0a8.14,8.14,0,0,0,5.44,2.09h0A7.84,7.84,0,0,0,359.4,559h0a14.05,14.05,0,0,0,3.65-6.06h0a28.23,28.23,0,0,0,1.29-8.9Z" transform="translate(-80 -106)"/><path class="cls-3" d="M275.89,291.63l1.71.69h0q-2.52,8.69-7.2,13h0q-5.61,5.14-15.44,5.14h0a33.73,33.73,0,0,1-10.3-1.6h0a125.38,125.38,0,0,1-12.69-5h0q-8.47-3.66-13.84-5.49h0l-2.75-.8h0a28.84,28.84,0,0,1-9.49,1.71h0q-5.26,0-5.26-2.28h0q0-2.42,6.17-2.41h0a43.89,43.89,0,0,1,8.58.92h0a61.94,61.94,0,0,0,8.47-3.2h0c2-.92,3.46-1.57,4.46-1.95h0a33.65,33.65,0,0,1-16.87-6.06h0a33.59,33.59,0,0,1-11.1-14.12h0a51.85,51.85,0,0,1-3.94-21h0A51.28,51.28,0,0,1,201,226.89h0A35.86,35.86,0,0,1,214,211.8h0a33.79,33.79,0,0,1,18.82-5.38h0a36.21,36.21,0,0,1,19,4.92h0a32.88,32.88,0,0,1,12.7,14.24h0Q269,234.9,269,247.83h0A52.08,52.08,0,0,1,264.91,269h0a36.52,36.52,0,0,1-11.56,14.87h0a33.13,33.13,0,0,1-17,6.46h0v.12h0a27.17,27.17,0,0,0-4.74,1h0q-2,.63-5.32,2h0a56.51,56.51,0,0,1-6.87,2.63h0q12.7,2.52,21.56,4h0a91.07,91.07,0,0,0,14.7,1.49h0c5.42,0,9.7-.78,12.87-2.34h0A16.33,16.33,0,0,0,275.89,291.63Zm-68.06-42.89h0a59.62,59.62,0,0,0,3.38,20.93h0q3.38,9,9.09,13.95h0a19.14,19.14,0,0,0,12.81,4.92h0A18.43,18.43,0,0,0,246,283.45h0q5.53-5.08,8.57-14.24h0a66.17,66.17,0,0,0,3-20.93h0a59.66,59.66,0,0,0-3.38-20.93h0q-3.37-9-9.09-13.95h0a19.14,19.14,0,0,0-12.81-4.92h0a18.47,18.47,0,0,0-12.87,5.09h0q-5.55,5.09-8.58,14.24h0a66.51,66.51,0,0,0-3,20.93Z" transform="translate(-80 -106)"/><path class="cls-3" d="M190.11,383.37l-1.71-.69h0q2.52-8.69,7.2-13h0q5.61-5.14,15.44-5.14h0a33.73,33.73,0,0,1,10.3,1.6h0a125.38,125.38,0,0,1,12.69,5h0q8.47,3.66,13.84,5.49h0l2.75.8h0a28.84,28.84,0,0,1,9.49-1.71h0q5.26,0,5.26,2.28h0q0,2.42-6.17,2.41h0a43.89,43.89,0,0,1-8.58-.92h0a61.94,61.94,0,0,0-8.47,3.2h0c-2,.92-3.46,1.57-4.46,1.95h0a33.65,33.65,0,0,1,16.87,6.06h0a33.59,33.59,0,0,1,11.1,14.12h0a51.85,51.85,0,0,1,3.94,21h0A51.28,51.28,0,0,1,265,448.11h0a35.86,35.86,0,0,1-12.92,15.09h0a33.79,33.79,0,0,1-18.82,5.38h0a36.21,36.21,0,0,1-19-4.92h0a32.88,32.88,0,0,1-12.7-14.24h0Q197,440.1,197,427.17h0A52.08,52.08,0,0,1,201.09,406h0a36.52,36.52,0,0,1,11.56-14.87h0a33.13,33.13,0,0,1,17-6.46h0v-.12h0a27.17,27.17,0,0,0,4.74-1h0q2-.63,5.32-2h0a56.51,56.51,0,0,1,6.87-2.63h0q-12.7-2.52-21.56-4h0a91.07,91.07,0,0,0-14.7-1.49h0c-5.42,0-9.7.78-12.87,2.34h0A16.33,16.33,0,0,0,190.11,383.37Zm68.06,42.89h0a59.62,59.62,0,0,0-3.38-20.93h0q-3.37-9-9.09-13.95h0a19.14,19.14,0,0,0-12.81-4.92h0A18.43,18.43,0,0,0,220,391.55h0q-5.53,5.08-8.57,14.24h0a66.17,66.17,0,0,0-3,20.93h0a59.66,59.66,0,0,0,3.38,20.93h0q3.38,9,9.09,14h0a19.14,19.14,0,0,0,12.81,4.92h0a18.47,18.47,0,0,0,12.87-5.09h0q5.55-5.08,8.58-14.24h0a66.51,66.51,0,0,0,3-20.93Z" transform="translate(-80 -106)"/><path d="M345.4,493.48c5.29,3.94,7.12,7.08,8.35,9.52h0c1.24-2.44,3.07-5.58,8.36-9.52,9-6.7.53-16.06-6.94-10.91A9.24,9.24,0,0,1,359,476v-1H348.51v1a9.22,9.22,0,0,1,3.83,6.53C344.87,477.42,336.38,486.78,345.4,493.48Z" transform="translate(-80 -106)"/><path d="M119.6,181.52c-5.29-3.94-7.12-7.08-8.35-9.52h0c-1.24,2.44-3.07,5.58-8.36,9.52-9,6.7-.53,16.06,6.94,10.91A9.24,9.24,0,0,1,106,199v1h10.49v-1a9.22,9.22,0,0,1-3.83-6.53C120.13,197.58,128.62,188.22,119.6,181.52Z" transform="translate(-80 -106)"/></svg>