<svg id="Layer_1" data-name="Layer 1" xmlns="http://www.w3.org/2000/svg" viewBox="0 0 305 463"><defs><style>.cls-1{fill:#fff;stroke-linecap:round;stroke-width:2px;}.cls-1,.cls-2,.cls-3{stroke:#000;}.cls-2,.cls-3{stroke-miterlimit:10;}.cls-2{stroke-width:1.46px;}.cls-3{stroke-width:3.43px;}</style></defs><title>King</title><path class="cls-1" d="M78.05,35H335a23,23,0,0,1,23.05,23V473A23,23,0,0,1,335,496H78.05A23,23,0,0,1,55,473V58.05a23,23,0,0,1,23-23Z" transform="translate(-54 -34)"/><path class="cls-2" d="M97,74.17h0a7.48,7.48,0,0,0,1.82,1.92h0a6.93,6.93,0,0,0,2.46,1h0v1h0C99.69,78,97.74,78,95.41,78h0c-1.75,0-3.42,0-5,.14h0v-1h0a4.83,4.83,0,0,0,1.7-.29h0a.79.79,0,0,0,.54-.73h0A2.09,2.09,0,0,0,92.15,75h0l-7.1-10.7h0a10.32,10.32,0,0,0-2.38-2.79h0A5.42,5.42,0,0,0,80,60.7h0V73h0a8.59,8.59,0,0,0,.29,2.67h0a1.74,1.74,0,0,0,1.09,1.12h0a10.19,10.19,0,0,0,2.56.39h0v1h0c-1.5-.1-3.55-.14-6.18-.14h0c-2.79,0-4.86,0-6.22.14h0v-1h0A10.18,10.18,0,0,0,74,76.75h0a1.74,1.74,0,0,0,1.09-1.12h0a8.52,8.52,0,0,0,.3-2.67h0V48.84h0a8.64,8.64,0,0,0-.3-2.68h0A1.72,1.72,0,0,0,74,45.05h0a9.32,9.32,0,0,0-2.55-.39h0v-1h0q2,.15,6.22.15h0q3.89,0,6.18-.15h0v1h0a9.34,9.34,0,0,0-2.56.39h0a1.72,1.72,0,0,0-1.09,1.11h0A8.71,8.71,0,0,0,80,48.84h0V59.73h0A7,7,0,0,0,85.49,57h0l4.67-5.93h0c1.65-2,2.48-3.6,2.48-4.67h0c0-1.14-1-1.72-3-1.75h0v-1h0c1.85.1,3.72.15,5.6.15h0c1.78,0,3.16,0,4.13-.15h0v1h0a8.75,8.75,0,0,0-3,1h0a9.52,9.52,0,0,0-2.72,2.51h0L85.69,58.37Z" transform="translate(-54 -34)"/><path class="cls-2" d="M316,458.83h0a7.48,7.48,0,0,0-1.82-1.92h0a6.93,6.93,0,0,0-2.46-1.05h0v-1h0c1.56.1,3.51.14,5.84.14h0c1.75,0,3.42,0,5-.14h0v1h0a4.83,4.83,0,0,0-1.7.29h0a.79.79,0,0,0-.54.73h0a2.09,2.09,0,0,0,.49,1.17h0l7.1,10.7h0a10.32,10.32,0,0,0,2.38,2.79h0a5.42,5.42,0,0,0,2.72.76h0V460h0a8.59,8.59,0,0,0-.29-2.67h0a1.74,1.74,0,0,0-1.09-1.12h0a10.19,10.19,0,0,0-2.56-.39h0v-1h0c1.5.1,3.55.14,6.18.14h0c2.79,0,4.86,0,6.22-.14h0v1h0a10.18,10.18,0,0,0-2.55.39h0a1.74,1.74,0,0,0-1.09,1.12h0a8.52,8.52,0,0,0-.3,2.67h0v24.12h0a8.64,8.64,0,0,0,.3,2.68h0A1.72,1.72,0,0,0,339,488h0a9.32,9.32,0,0,0,2.55.39h0v1h0q-2-.15-6.22-.15h0q-3.89,0-6.18.15h0v-1h0a9.34,9.34,0,0,0,2.56-.39h0a1.72,1.72,0,0,0,1.09-1.11h0a8.71,8.71,0,0,0,.29-2.68h0V473.27h0a7,7,0,0,0-5.54,2.72h0l-4.67,5.93h0c-1.65,2.05-2.48,3.6-2.48,4.67h0c0,1.14,1,1.72,3,1.75h0v1h0c-1.85-.1-3.72-.15-5.6-.15h0c-1.78,0-3.16.05-4.13.15h0v-1h0a8.75,8.75,0,0,0,3-1h0a9.52,9.52,0,0,0,2.72-2.51h0l7.92-10.16Z" transform="translate(-54 -34)"/><path class="cls-3" d="M233.63,207.74h0a17.36,17.36,0,0,0,4.28,4.51h0a16.24,16.24,0,0,0,5.78,2.46h0V217h0q-5.49-.34-13.72-.34h0q-6.18,0-11.79.34h0v-2.29h0a11.46,11.46,0,0,0,4-.68h0a1.85,1.85,0,0,0,1.26-1.72h0a5,5,0,0,0-1.15-2.74h0L205.6,184.4h0q-3.32-5-5.6-6.57h0a12.75,12.75,0,0,0-6.41-1.78h0v28.83h0a20.59,20.59,0,0,0,.69,6.29h0a4.15,4.15,0,0,0,2.57,2.63h0a22.64,22.64,0,0,0,6,.91h0V217h0q-5.27-.34-14.53-.34h0q-9.83,0-14.64.34h0v-2.29h0a22.64,22.64,0,0,0,6-.91h0a4.13,4.13,0,0,0,2.57-2.63h0a20.59,20.59,0,0,0,.69-6.29h0V148.15h0a20.51,20.51,0,0,0-.69-6.29h0a4.08,4.08,0,0,0-2.57-2.63h0a22.56,22.56,0,0,0-6-.92h0V136h0q4.81.34,14.64.35h0q9.15,0,14.53-.35h0v2.29h0a22.56,22.56,0,0,0-6,.92h0a4.11,4.11,0,0,0-2.57,2.63h0a20.51,20.51,0,0,0-.69,6.29h0v25.62h0q8.35-.35,13-6.41h0l11-14h0q5.83-7.22,5.84-11h0q0-4-7.1-4.12h0V136h0q6.53.34,13.16.35h0q6.28,0,9.72-.35h0v2.29h0a20.3,20.3,0,0,0-7.09,2.46h0a22.26,22.26,0,0,0-6.41,5.89h0l-18.64,23.9Z" transform="translate(-54 -34)"/><path class="cls-3" d="M179.37,323.26h0a17.36,17.36,0,0,0-4.28-4.51h0a16.24,16.24,0,0,0-5.78-2.46h0V314h0q5.49.35,13.72.34h0q6.18,0,11.79-.34h0v2.29h0a11.46,11.46,0,0,0-4,.68h0a1.85,1.85,0,0,0-1.26,1.72h0a5,5,0,0,0,1.15,2.74h0l16.7,25.17h0q3.32,5,5.6,6.57h0a12.75,12.75,0,0,0,6.41,1.78h0V326.12h0a20.59,20.59,0,0,0-.69-6.29h0a4.15,4.15,0,0,0-2.57-2.63h0a22.64,22.64,0,0,0-6-.91h0V314h0q5.27.35,14.53.34h0q9.83,0,14.64-.34h0v2.29h0a22.64,22.64,0,0,0-6,.91h0a4.13,4.13,0,0,0-2.57,2.63h0a20.59,20.59,0,0,0-.69,6.29h0v56.73h0a20.51,20.51,0,0,0,.69,6.29h0a4.08,4.08,0,0,0,2.57,2.63h0a22.56,22.56,0,0,0,6,.92h0V395h0q-4.81-.35-14.64-.35h0q-9.15,0-14.53.35h0v-2.29h0a22.56,22.56,0,0,0,6-.92h0a4.11,4.11,0,0,0,2.57-2.63h0a20.51,20.51,0,0,0,.69-6.29h0V357.23h0q-8.35.34-13,6.41h0l-11,13.95h0q-5.83,7.21-5.84,11h0q0,4,7.1,4.12h0V395h0q-6.53-.35-13.16-.35h0q-6.28,0-9.72.35h0v-2.29h0a20.3,20.3,0,0,0,7.09-2.46h0a22.26,22.26,0,0,0,6.41-5.89h0l18.64-23.9Z" transform="translate(-54 -34)"/><path d="M319.4,421.48c5.29,3.94,7.12,7.08,8.35,9.52h0c1.24-2.44,3.07-5.58,8.36-9.52,9-6.7.53-16.06-6.94-10.91A9.24,9.24,0,0,1,333,404v-1H322.51v1a9.22,9.22,0,0,1,3.83,6.53C318.87,405.42,310.38,414.78,319.4,421.48Z" transform="translate(-54 -34)"/><path d="M93.6,109.52c-5.29-3.94-7.12-7.08-8.35-9.52h0c-1.24,2.44-3.07,5.58-8.36,9.52-9,6.7-.53,16.06,6.94,10.91A9.24,9.24,0,0,1,80,127v1H90.49v-1a9.22,9.22,0,0,1-3.83-6.53C94.13,125.58,102.62,116.22,93.6,109.52Z" transform="translate(-54 -34)"/></svg>