<svg id="Layer_1" data-name="Layer 1" xmlns="http://www.w3.org/2000/svg" viewBox="0 0 305 463"><defs><style>.cls-1{fill:#fff;stroke-linecap:round;stroke-width:2px;}.cls-1,.cls-2{stroke:#000;}.cls-2{stroke-miterlimit:10;stroke-width:1.44px;}</style></defs><title>2</title><path class="cls-1" d="M123.05,96H380a23,23,0,0,1,23.05,23V534A23,23,0,0,1,380,557H123.05a23,23,0,0,1-23-23V119.05a23,23,0,0,1,23-23Z" transform="translate(-99 -95)"/><path class="cls-2" d="M130.6,113.72h0a8.09,8.09,0,0,1,5.28,1.58h0a5.48,5.48,0,0,1,1.92,4.47h0a7.68,7.68,0,0,1-1,3.81h0a16.59,16.59,0,0,1-2.5,3.39h0q-1.46,1.53-3.86,3.69h0c-1.31,1.22-2.29,2.14-2.93,2.76h0a15.5,15.5,0,0,0-1.73,2h9.75a6.64,6.64,0,0,0,1.94-.22h0a1.4,1.4,0,0,0,.89-.72h0a5.36,5.36,0,0,0,.38-1.51h.82q0,4.41.19,6.38h0a54.91,54.91,0,0,0-7.15-.24H121.34v-.81h0c.54-.58,1.47-1.49,2.78-2.74h0c1.82-1.7,3.34-3.22,4.56-4.58h0a21.49,21.49,0,0,0,3.14-4.64h0a12,12,0,0,0,1.32-5.52h0q0-5.17-4.8-5.18h0q-3.93,0-6.43,4.51h0l-.77-.43h0a11.52,11.52,0,0,1,3.56-4.3h0a9.68,9.68,0,0,1,5.9-1.7Z" transform="translate(-99 -95)"/><path class="cls-2" d="M372.4,539.28h0a8.09,8.09,0,0,1-5.28-1.58h0a5.48,5.48,0,0,1-1.92-4.47h0a7.68,7.68,0,0,1,1-3.81h0a16.59,16.59,0,0,1,2.5-3.39h0q1.45-1.53,3.86-3.69h0c1.31-1.22,2.29-2.14,2.93-2.76h0a15.5,15.5,0,0,0,1.73-2H367.5a6.64,6.64,0,0,0-1.94.22h0a1.4,1.4,0,0,0-.89.72h0a5.36,5.36,0,0,0-.38,1.51h-.82q0-4.41-.19-6.38h0a54.91,54.91,0,0,0,7.15.24h11.23v.81h0c-.54.58-1.47,1.49-2.78,2.74h0c-1.82,1.7-3.34,3.22-4.56,4.58h0a21.49,21.49,0,0,0-3.14,4.64h0a12,12,0,0,0-1.32,5.52h0q0,5.18,4.8,5.18h0q3.93,0,6.43-4.51h0l.77.43h0a11.52,11.52,0,0,1-3.56,4.3h0a9.68,9.68,0,0,1-5.9,1.7Z" transform="translate(-99 -95)"/><path d="M364.4,482.48c5.29,3.94,7.12,7.08,8.35,9.52h0c1.24-2.44,3.07-5.58,8.36-9.52,9-6.7.53-16.06-6.94-10.91A9.24,9.24,0,0,1,378,465v-1H367.51v1a9.22,9.22,0,0,1,3.83,6.53C363.87,466.42,355.38,475.78,364.4,482.48Z" transform="translate(-99 -95)"/><path d="M138.6,170.52c-5.29-3.94-7.12-7.08-8.35-9.52h0c-1.24,2.44-3.07,5.58-8.36,9.52-9,6.7-.53,16.06,6.94,10.91A9.24,9.24,0,0,1,125,188v1h10.49v-1a9.22,9.22,0,0,1-3.83-6.53C139.13,186.58,147.62,177.22,138.6,170.52Z" transform="translate(-99 -95)"/><path d="M265.61,244.53C257,238.11,254,233,252,229h0c-2,4-5,9.11-13.63,15.53-14.72,10.94-.86,26.2,11.32,17.8-.79,5.22-3.5,9-6.25,10.65v1.69h17.12V273c-2.75-1.63-5.46-5.43-6.25-10.65C266.47,270.73,280.33,255.47,265.61,244.53Z" transform="translate(-99 -95)"/><path d="M238.39,408.47C247,414.89,250,420,252,424h0c2-4,5-9.11,13.63-15.53,14.72-10.94.86-26.2-11.32-17.8.79-5.22,3.5-9,6.25-10.65v-1.69H243.46V380c2.75,1.63,5.46,5.43,6.25,10.65C237.53,382.27,223.67,397.53,238.39,408.47Z" transform="translate(-99 -95)"/></svg>