<?xml version="1.0" encoding="utf-8"?>
<!-- Generator: Adobe Illustrator 23.0.2, SVG Export Plug-In . SVG Version: 6.00 Build 0)  -->
<svg version="1.1" id="Layer_1" xmlns="http://www.w3.org/2000/svg" xmlns:xlink="http://www.w3.org/1999/xlink" x="0px" y="0px"
	 viewBox="0 0 305 463" style="enable-background:new 0 0 305 463;" xml:space="preserve">
<style type="text/css">
	.st0{fill:#FFFFFF;stroke:#000000;stroke-width:2;stroke-linecap:round;}
	.st1{stroke:#000000;stroke-width:1.46;stroke-miterlimit:10;}
</style>
<title>9</title>
<path class="st0" d="M24.1,1h257c12.7,0,23,10.2,23,22.9c0,0,0,0,0,0.1v415c0,12.7-10.3,23-23,23c0,0,0,0-0.1,0H24
	c-12.7,0-23-10.2-23-22.9c0,0,0,0,0-0.1V24C1,11.3,11.3,1,24.1,1C24,1,24,1,24.1,1L24.1,1z"/>
<path class="st1" d="M31.3,18.4L31.3,18.4c2.8-0.1,5.6,1.1,7.3,3.4l0,0c1.8,2.3,2.6,5.4,2.6,9.5l0,0c0.1,3.7-0.8,7.3-2.6,10.5l0,0
	c-1.6,2.7-3.7,5-6.4,6.6l0,0c-2.3,1.5-4.8,2.5-7.5,2.9l0,0l-0.2-1l0,0c2.8-0.8,5.4-2.2,7.5-4.2l0,0c2.1-1.9,3.4-5.1,4.1-9.4l0,0
	c-0.7,1.2-1.7,2.2-3,2.8l0,0c-1.2,0.5-2.4,0.8-3.7,0.8l0,0c-1.5,0-3.1-0.4-4.3-1.3l0,0c-1.4-0.9-2.5-2.2-3.2-3.7l0,0
	c-0.8-1.8-1.3-3.7-1.2-5.7l0,0c-0.1-2.1,0.4-4.2,1.4-6.1l0,0c0.9-1.6,2.2-3,3.9-3.9l0,0C27.5,18.8,29.4,18.4,31.3,18.4z M30.6,39
	L30.6,39c1.2,0,2.3-0.3,3.3-0.9l0,0c1.1-0.7,2-1.7,2.4-3l0,0c0.1-1.2,0.2-2.5,0.2-3.8l0,0c0-4.3-0.6-7.4-1.7-9.2l0,0
	c-1.1-1.8-2.4-2.7-4-2.8l0,0c-1.7,0-3.2,1-3.9,2.5l0,0c-1,1.6-1.6,4.2-1.6,7.6l0,0c0,3.3,0.5,5.7,1.5,7.2l0,0
	C27.5,38.1,29,38.9,30.6,39L30.6,39z"/>
<path class="st1" d="M273.7,446.6L273.7,446.6c-2.8,0.1-5.6-1.1-7.3-3.4l0,0c-1.7-2.2-2.6-5.4-2.6-9.5l0,0
	c-0.1-3.7,0.8-7.3,2.6-10.5l0,0c1.6-2.7,3.7-5,6.4-6.6l0,0c2.3-1.5,4.8-2.5,7.5-2.9l0,0l0.2,1l0,0c-2.8,0.8-5.4,2.2-7.5,4.2l0,0
	c-2.1,1.9-3.4,5.1-4.1,9.4l0,0c0.7-1.2,1.7-2.2,3-2.8l0,0c1.2-0.5,2.4-0.8,3.7-0.9l0,0c1.5,0,3.1,0.4,4.3,1.2l0,0
	c1.4,0.9,2.5,2.2,3.2,3.7l0,0c0.8,1.8,1.3,3.7,1.2,5.7l0,0c0.1,2.1-0.4,4.2-1.4,6.1l0,0c-0.9,1.6-2.2,3-3.9,3.9l0,0
	C277.5,446.2,275.6,446.6,273.7,446.6z M274.5,426L274.5,426c-1.2,0-2.3,0.3-3.3,0.9l0,0c-1.1,0.7-2,1.7-2.5,3l0,0
	c-0.1,1.2-0.2,2.5-0.2,3.8l0,0c0,4.3,0.6,7.4,1.7,9.2l0,0c1.1,1.8,2.4,2.8,4,2.8l0,0c1.7,0,3.2-1,3.9-2.5l0,0c1-1.7,1.6-4.2,1.6-7.6
	l0,0c0-3.3-0.5-5.7-1.5-7.2l0,0C277.5,427,276,426.1,274.5,426L274.5,426z"/>
<path d="M265.4,387.5c5.3,3.9,7.1,7.1,8.4,9.5l0,0c1.2-2.4,3.1-5.6,8.4-9.5c9-6.7,0.5-16.1-6.9-10.9c0.3-2.6,1.7-5,3.8-6.6v-1h-10.5
	v1c2.2,1.5,3.5,3.9,3.8,6.5C264.9,371.4,256.4,380.8,265.4,387.5z"/>
<path d="M39.6,75.5c-5.3-3.9-7.1-7.1-8.4-9.5l0,0c-1.2,2.4-3.1,5.6-8.4,9.5c-9,6.7-0.5,16.1,6.9,10.9c-0.3,2.6-1.7,5-3.8,6.6v1h10.5
	v-1c-2.2-1.5-3.5-3.9-3.8-6.5C40.1,91.6,48.6,82.2,39.6,75.5z"/>
<path d="M94.6,75.5C86,69.1,83,64,81,60l0,0c-2,4-5,9.1-13.6,15.5c-14.7,10.9-0.9,26.2,11.3,17.8c-0.8,5.2-3.5,9-6.3,10.6v1.7h17.1
	V104c-2.8-1.6-5.5-5.4-6.3-10.6C95.5,101.7,109.3,86.5,94.6,75.5z"/>
<path d="M67.4,387.5C76,393.9,79,399,81,403l0,0c2-4,5-9.1,13.6-15.5c14.7-10.9,0.9-26.2-11.3-17.8c0.8-5.2,3.5-9,6.3-10.6v-1.7
	H72.5v1.7c2.8,1.6,5.5,5.4,6.3,10.6C66.5,361.3,52.7,376.5,67.4,387.5z"/>
<path d="M94.6,174.5C86,168.1,83,163,81,159l0,0c-2,4-5,9.1-13.6,15.5c-14.7,10.9-0.9,26.2,11.3,17.8c-0.8,5.2-3.5,9-6.3,10.6v1.7
	h17.1V203c-2.8-1.6-5.5-5.4-6.3-10.6C95.5,200.7,109.3,185.5,94.6,174.5z"/>
<path d="M67.4,288.5C76,294.9,79,300,81,304l0,0c2-4,5-9.1,13.6-15.5c14.7-10.9,0.9-26.2-11.3-17.8c0.8-5.2,3.5-9,6.3-10.6v-1.7
	H72.5v1.7c2.8,1.6,5.5,5.4,6.3,10.6C66.5,262.3,52.7,277.5,67.4,288.5z"/>
<path d="M238.6,75.5C230,69.1,227,64,225,60l0,0c-2,4-5,9.1-13.6,15.5c-14.7,10.9-0.9,26.2,11.3,17.8c-0.8,5.2-3.5,9-6.3,10.6v1.7
	h17.1V104c-2.8-1.6-5.5-5.4-6.3-10.6C239.5,101.7,253.3,86.5,238.6,75.5z"/>
<path d="M211.4,387.5C220,393.9,223,399,225,403l0,0c2-4,5-9.1,13.6-15.5c14.7-10.9,0.9-26.2-11.3-17.8c0.8-5.2,3.5-9,6.3-10.6v-1.7
	h-17.1v1.7c2.8,1.6,5.5,5.4,6.3,10.6C210.5,361.3,196.7,376.5,211.4,387.5z"/>
<path d="M238.6,174.5C230,168.1,227,163,225,159l0,0c-2,4-5,9.1-13.6,15.5c-14.7,10.9-0.9,26.2,11.3,17.8c-0.8,5.2-3.5,9-6.3,10.6
	v1.7h17.1V203c-2.8-1.6-5.5-5.4-6.3-10.6C239.5,200.7,253.3,185.5,238.6,174.5z"/>
<path d="M211.4,288.5C220,294.9,223,300,225,304l0,0c2-4,5-9.1,13.6-15.5c14.7-10.9,0.9-26.2-11.3-17.8c0.8-5.2,3.5-9,6.3-10.6v-1.7
	h-17.1v1.7c2.8,1.6,5.5,5.4,6.3,10.6C210.5,262.3,196.7,277.5,211.4,288.5z"/>
<path d="M166.6,226.5C158,220.1,155,215,153,211l0,0c-2,4-5,9.1-13.6,15.5c-14.7,10.9-0.9,26.2,11.3,17.8c-0.8,5.2-3.5,9-6.3,10.6
	v1.7h17.1V255c-2.8-1.6-5.5-5.4-6.3-10.6C167.5,252.7,181.3,237.5,166.6,226.5z"/>
</svg>
