<svg id="Layer_1" data-name="Layer 1" xmlns="http://www.w3.org/2000/svg" viewBox="0 0 305 463"><defs><style>.cls-1{fill:#fff;stroke-linecap:round;stroke-width:2px;}.cls-1,.cls-2{stroke:#000;}.cls-2{stroke-miterlimit:10;stroke-width:1.46px;}</style></defs><title>10</title><path class="cls-1" d="M236.05,70H493a23,23,0,0,1,23.05,23V508A23,23,0,0,1,493,531H236.05A23,23,0,0,1,213,508V93.05a23,23,0,0,1,23.05-23Z" transform="translate(-212 -69)"/><path class="cls-2" d="M232,87.53V108.1h0a3.91,3.91,0,0,0,1,3.14h0a5.86,5.86,0,0,0,3.63.85h0v1h0q-5.25-.19-6.71-.19h0q-1.37,0-6.32.14h0l-1.17,0v-1h0a6.84,6.84,0,0,0,3.86-.88h0a3.48,3.48,0,0,0,1.29-3.11h0V96.34h0a9.08,9.08,0,0,0-.48-3.43h0a2.57,2.57,0,0,0-1.63-1.46h0a12.61,12.61,0,0,0-3.53-.37h0V90h0a29.69,29.69,0,0,0,5.86-.63h0A11.44,11.44,0,0,0,232,87.53Zm20.52-.14h0A11.78,11.78,0,0,1,258.57,89h0a10.9,10.9,0,0,1,4.18,4.5h0a14.45,14.45,0,0,1,1.51,6.71h0a15.21,15.21,0,0,1-1.56,7h0a12.15,12.15,0,0,1-4.35,4.87h0a11.73,11.73,0,0,1-6.4,1.77h0a11.6,11.6,0,0,1-6-1.58h0a11,11,0,0,1-4.2-4.5h0a14.31,14.31,0,0,1-1.53-6.76h0A15.33,15.33,0,0,1,241.72,94h0a11.89,11.89,0,0,1,4.33-4.87h0A11.77,11.77,0,0,1,252.49,87.39Zm-.44.87h0a5.39,5.39,0,0,0-3.72,1.49h0a9.72,9.72,0,0,0-2.53,4.32h0a22.5,22.5,0,0,0-.9,6.74h0c0,4.12.7,7.16,2.09,9.14h0a6.36,6.36,0,0,0,5.4,3h0a5.33,5.33,0,0,0,3.72-1.51h0a9.85,9.85,0,0,0,2.53-4.35h0a22.45,22.45,0,0,0,.9-6.74h0q0-6.12-2.09-9.09h0a6.35,6.35,0,0,0-5.4-3Z" transform="translate(-212 -69)"/><path class="cls-2" d="M497,515.47V494.9h0a3.91,3.91,0,0,0-1-3.14h0a5.86,5.86,0,0,0-3.63-.85h0v-1h0q5.25.19,6.71.19h0q1.37,0,6.32-.14h0l1.17-.05v1h0a6.84,6.84,0,0,0-3.86.88h0a3.48,3.48,0,0,0-1.29,3.11h0v11.76h0a9.08,9.08,0,0,0,.48,3.43h0a2.57,2.57,0,0,0,1.63,1.46h0a12.61,12.61,0,0,0,3.53.37h0V513h0a29.69,29.69,0,0,0-5.86.63h0A11.44,11.44,0,0,0,497,515.47Zm-20.52.14h0a11.78,11.78,0,0,1-6.08-1.58h0a10.9,10.9,0,0,1-4.18-4.5h0a14.45,14.45,0,0,1-1.51-6.71h0a15.21,15.21,0,0,1,1.56-7h0a12.15,12.15,0,0,1,4.35-4.87h0a11.73,11.73,0,0,1,6.4-1.77h0a11.6,11.6,0,0,1,6,1.58h0a11,11,0,0,1,4.2,4.5h0a14.31,14.31,0,0,1,1.53,6.76h0a15.33,15.33,0,0,1-1.53,6.92h0a11.89,11.89,0,0,1-4.33,4.87h0A11.77,11.77,0,0,1,476.51,515.61Zm.44-.87h0a5.39,5.39,0,0,0,3.72-1.49h0a9.72,9.72,0,0,0,2.53-4.32h0a22.5,22.5,0,0,0,.9-6.74h0c0-4.12-.7-7.16-2.09-9.14h0a6.36,6.36,0,0,0-5.4-3h0a5.33,5.33,0,0,0-3.72,1.51h0a9.85,9.85,0,0,0-2.53,4.35h0a22.45,22.45,0,0,0-.9,6.74h0q0,6.12,2.09,9.09h0a6.35,6.35,0,0,0,5.4,3Z" transform="translate(-212 -69)"/><path d="M477.4,456.48c5.29,3.94,7.12,7.08,8.35,9.52h0c1.24-2.44,3.07-5.58,8.36-9.52,9-6.7.53-16.06-6.94-10.91A9.24,9.24,0,0,1,491,439v-1H480.51v1a9.22,9.22,0,0,1,3.83,6.53C476.87,440.42,468.38,449.78,477.4,456.48Z" transform="translate(-212 -69)"/><path d="M251.6,144.52c-5.29-3.94-7.12-7.08-8.35-9.52h0c-1.24,2.44-3.07,5.58-8.36,9.52-9,6.7-.53,16.06,6.94,10.91A9.24,9.24,0,0,1,238,162v1h10.49v-1a9.22,9.22,0,0,1-3.83-6.53C252.13,160.58,260.62,151.22,251.6,144.52Z" transform="translate(-212 -69)"/><path d="M378.61,197.53C370,191.11,367,186,365,182h0c-2,4-5,9.11-13.63,15.53-14.72,10.94-.86,26.2,11.32,17.8-.79,5.22-3.5,9-6.25,10.65v1.69h17.12V226c-2.75-1.63-5.46-5.43-6.25-10.65C379.47,223.73,393.33,208.47,378.61,197.53Z" transform="translate(-212 -69)"/><path d="M351.39,403.47C360,409.89,363,415,365,419h0c2-4,5-9.11,13.63-15.53,14.72-10.94.86-26.2-11.32-17.8.79-5.22,3.5-9,6.25-10.65v-1.69H356.46V375c2.75,1.63,5.46,5.43,6.25,10.65C350.53,377.27,336.67,392.53,351.39,403.47Z" transform="translate(-212 -69)"/><path d="M306.61,144.53C298,138.11,295,133,293,129h0c-2,4-5,9.11-13.63,15.53-14.72,10.94-.86,26.2,11.32,17.8-.79,5.22-3.5,9-6.25,10.65v1.69h17.12V173c-2.75-1.63-5.46-5.43-6.25-10.65C307.47,170.73,321.33,155.47,306.61,144.53Z" transform="translate(-212 -69)"/><path d="M279.39,456.47C288,462.89,291,468,293,472h0c2-4,5-9.11,13.63-15.53,14.72-10.94.86-26.2-11.32-17.8.79-5.22,3.5-9,6.25-10.65v-1.69H284.46V428c2.75,1.63,5.46,5.43,6.25,10.65C278.53,430.27,264.67,445.53,279.39,456.47Z" transform="translate(-212 -69)"/><path d="M306.61,243.53C298,237.11,295,232,293,228h0c-2,4-5,9.11-13.63,15.53-14.72,10.94-.86,26.2,11.32,17.8-.79,5.22-3.5,9-6.25,10.65v1.69h17.12V272c-2.75-1.63-5.46-5.43-6.25-10.65C307.47,269.73,321.33,254.47,306.61,243.53Z" transform="translate(-212 -69)"/><path d="M279.39,357.47C288,363.89,291,369,293,373h0c2-4,5-9.11,13.63-15.53,14.72-10.94.86-26.2-11.32-17.8.79-5.22,3.5-9,6.25-10.65v-1.69H284.46V329c2.75,1.63,5.46,5.43,6.25,10.65C278.53,331.27,264.67,346.53,279.39,357.47Z" transform="translate(-212 -69)"/><path d="M450.61,144.53C442,138.11,439,133,437,129h0c-2,4-5,9.11-13.63,15.53-14.72,10.94-.86,26.2,11.32,17.8-.79,5.22-3.5,9-6.25,10.65v1.69h17.12V173c-2.75-1.63-5.46-5.43-6.25-10.65C451.47,170.73,465.33,155.47,450.61,144.53Z" transform="translate(-212 -69)"/><path d="M423.39,456.47C432,462.89,435,468,437,472h0c2-4,5-9.11,13.63-15.53,14.72-10.94.86-26.2-11.32-17.8.79-5.22,3.5-9,6.25-10.65v-1.69H428.46V428c2.75,1.63,5.46,5.43,6.25,10.65C422.53,430.27,408.67,445.53,423.39,456.47Z" transform="translate(-212 -69)"/><path d="M450.61,243.53C442,237.11,439,232,437,228h0c-2,4-5,9.11-13.63,15.53-14.72,10.94-.86,26.2,11.32,17.8-.79,5.22-3.5,9-6.25,10.65v1.69h17.12V272c-2.75-1.63-5.46-5.43-6.25-10.65C451.47,269.73,465.33,254.47,450.61,243.53Z" transform="translate(-212 -69)"/><path d="M423.39,357.47C432,363.89,435,369,437,373h0c2-4,5-9.11,13.63-15.53,14.72-10.94.86-26.2-11.32-17.8.79-5.22,3.5-9,6.25-10.65v-1.69H428.46V329c2.75,1.63,5.46,5.43,6.25,10.65C422.53,331.27,408.67,346.53,423.39,357.47Z" transform="translate(-212 -69)"/></svg>