<?xml version="1.0" encoding="utf-8"?>
<!-- Generator: Adobe Illustrator 23.0.3, SVG Export Plug-In . SVG Version: 6.00 Build 0)  -->
<svg version="1.1" id="Layer_1" xmlns="http://www.w3.org/2000/svg" xmlns:xlink="http://www.w3.org/1999/xlink" x="0px" y="0px"
	 viewBox="0 0 305 463" style="enable-background:new 0 0 305 463;" xml:space="preserve">
<style type="text/css">
	.st0{fill:#FFFFFF;stroke:#000000;stroke-width:2;stroke-linecap:round;}
	.st1{enable-background:new    ;}
</style>
<title>2</title>
<path class="st0" d="M24.1,1h257c12.7,0,23,10.2,23,22.9c0,0,0,0,0,0.1v415c0,12.7-10.3,23-23,23c0,0,0,0-0.1,0H24
	c-12.7,0-23-10.3-23-23V24C1.1,11.3,11.3,1.1,24.1,1L24.1,1z"/>
<path d="M265.4,387.5c5.3,3.9,7.1,7.1,8.4,9.5l0,0c1.2-2.4,3.1-5.6,8.4-9.5c9-6.7,0.5-16.1-6.9-10.9c0.3-2.6,1.7-5,3.8-6.6v-1h-10.5
	v1c2.2,1.5,3.5,3.9,3.8,6.5C264.9,371.4,256.4,380.8,265.4,387.5z"/>
<path d="M39.6,75.5c-5.3-3.9-7.1-7.1-8.4-9.5l0,0c-1.2,2.4-3.1,5.6-8.4,9.5c-9,6.7-0.5,16.1,6.9,10.9c-0.3,2.6-1.7,5-3.8,6.6v1h10.5
	v-1c-2.2-1.5-3.5-3.9-3.8-6.5C40.1,91.6,48.6,82.2,39.6,75.5z"/>
<path d="M166.6,149.5C158,143.1,155,138,153,134l0,0c-2,4-5,9.1-13.6,15.5c-14.7,10.9-0.9,26.2,11.3,17.8c-0.8,5.2-3.5,9-6.3,10.6
	v1.7h17.1V178c-2.8-1.6-5.5-5.4-6.3-10.6C167.5,175.7,181.3,160.5,166.6,149.5z"/>
<path d="M139.4,313.5C148,319.9,151,325,153,329l0,0c2-4,5-9.1,13.6-15.5c14.7-10.9,0.9-26.2-11.3-17.8c0.8-5.2,3.5-9,6.3-10.6v-1.7
	h-17.1v1.7c2.8,1.6,5.5,5.4,6.3,10.6C138.5,287.3,124.7,302.5,139.4,313.5z"/>
<g class="st1">
	<path d="M20,56.4v-0.2l1.8-4.1L32.4,41c3.8-3.7,5.6-6.9,5.6-9.5c0-2-0.5-3.6-1.5-4.9c-1.3-1.6-3-2.5-5.2-2.5
		c-2.1,0-3.8,0.8-5.2,2.5c-1.1,1.3-1.6,2.9-1.6,4.8c0,1.1,0.3,2.1,0.9,3.2l-3.7,1.9h-0.2c-0.9-1.7-1.4-3.6-1.4-5.7
		c0-2.7,1-5.3,3-7.5c2-2.3,4.8-3.5,8.2-3.5s6.2,1.2,8.2,3.5c2,2.3,3,5,3,8.3c0,3.6-2,7.4-6,11.3l-9.5,9.1h15.6v0.2l-1.8,4.1H20z"/>
</g>
<g class="st1">
	<path d="M285,406.6v0.2l-1.8,4.1l-10.7,11.1c-3.8,3.7-5.6,6.9-5.6,9.5c0,2,0.5,3.6,1.5,4.9c1.3,1.6,3,2.5,5.2,2.5
		c2.1,0,3.8-0.8,5.2-2.5c1.1-1.3,1.6-2.9,1.6-4.8c0-1.1-0.3-2.1-0.9-3.2l3.7-1.9h0.2c0.9,1.7,1.4,3.6,1.4,5.7c0,2.7-1,5.3-3,7.5
		c-2,2.3-4.8,3.5-8.2,3.5s-6.2-1.2-8.2-3.5c-2-2.3-3-5-3-8.3c0-3.6,2-7.4,6-11.3l9.5-9.1h-15.6v-0.2l1.8-4.1H285z"/>
</g>
</svg>
