<?xml version="1.0" encoding="utf-8"?>
<!-- Generator: Adobe Illustrator 23.0.2, SVG Export Plug-In . SVG Version: 6.00 Build 0)  -->
<svg version="1.1" id="Layer_1" xmlns="http://www.w3.org/2000/svg" xmlns:xlink="http://www.w3.org/1999/xlink" x="0px" y="0px"
	 viewBox="0 0 305 463" style="enable-background:new 0 0 305 463;" xml:space="preserve">
<style type="text/css">
	.st0{fill:#FFFFFF;stroke:#000000;stroke-width:2;stroke-linecap:round;}
	.st1{stroke:#000000;stroke-width:1.44;stroke-miterlimit:10;}
</style>
<title>3</title>
<path class="st0" d="M24.1,1h257c12.7,0,23,10.3,23,23c0,0,0,0,0,0.1v415c0,12.7-10.3,23-23,23h-257c-12.7,0-23-10.2-23-22.9
	c0,0,0,0,0-0.1v-415C1,11.3,11.2,1,23.9,1C24,1,24,1,24.1,1z"/>
<path class="st1" d="M30.8,14.7L30.8,14.7c1.8-0.1,3.5,0.4,5,1.5l0,0c1.3,0.9,2,2.4,1.9,4l0,0c0,1.8-0.8,3.5-2.1,4.7l0,0
	c-1.4,1.4-3.2,2.5-5.1,3.2l0,0c2.3,0,4.4,0.7,6.3,2l0,0c1.7,1.2,2.7,3.2,2.6,5.3l0,0c0,2.3-1,4.6-2.7,6.2l0,0
	c-1.9,1.9-4.2,3.4-6.8,4.3l0,0c-2.7,1-5.5,1.5-8.3,1.5l0,0v-0.9l0,0c2.2-0.1,4.4-0.5,6.4-1.4l0,0c1.9-0.8,3.6-2.1,4.9-3.8l0,0
	c1.3-1.7,1.9-3.8,1.9-5.9l0,0c0.1-1.7-0.4-3.3-1.4-4.7l0,0c-0.9-1.2-2.2-1.9-3.7-2l0,0l-1,0.4l0,0c-0.4,0.2-0.8,0.3-1.3,0.3l0,0
	c-0.5,0-0.8-0.2-0.8-0.6l0,0c0-0.3,0.1-0.5,0.4-0.7l0,0c0.3-0.2,0.6-0.3,0.9-0.2l0,0c0.3,0,0.5,0,0.8,0.1l0,0l0.9,0.1l0,0
	c1.2-0.8,2.1-1.9,2.8-3.2l0,0c0.6-1.1,0.9-2.4,0.9-3.7l0,0c0.1-1.2-0.3-2.4-1.1-3.3l0,0c-0.8-0.7-1.9-1.1-3.1-1.1l0,0
	c-1.3,0-2.6,0.4-3.6,1.1l0,0c-1.2,0.8-2.1,1.9-2.7,3.2l0,0L22,20.8l0,0C23.9,16.8,26.8,14.8,30.8,14.7L30.8,14.7z"/>
<path class="st1" d="M274.2,440.3L274.2,440.3c-1.8,0.1-3.5-0.4-5-1.5l0,0c-1.3-0.9-2-2.4-2-4l0,0c0-1.8,0.8-3.5,2.1-4.8l0,0
	c1.4-1.4,3.2-2.5,5.1-3.2l0,0c-2.3,0-4.4-0.7-6.3-2l0,0c-1.7-1.2-2.7-3.2-2.6-5.3l0,0c0-2.3,1-4.6,2.7-6.2l0,0
	c1.9-1.9,4.2-3.4,6.8-4.3l0,0c2.7-1,5.5-1.5,8.3-1.5l0,0v0.9l0,0c-2.2,0.1-4.4,0.5-6.4,1.4l0,0c-1.9,0.8-3.6,2.1-4.9,3.8l0,0
	c-1.3,1.7-1.9,3.8-1.9,5.9l0,0c-0.1,1.7,0.4,3.3,1.4,4.7l0,0c0.9,1.2,2.2,1.9,3.7,2l0,0l1-0.4l0,0c0.4-0.2,0.8-0.3,1.3-0.3l0,0
	c0.5,0,0.8,0.2,0.8,0.6l0,0c0,0.3-0.1,0.5-0.4,0.7l0,0c-0.3,0.2-0.6,0.3-0.9,0.2l0,0c-0.3,0-0.5,0-0.8-0.1l0,0l-0.9-0.1l0,0
	c-1.2,0.8-2.1,1.9-2.8,3.2l0,0c-0.6,1.1-0.9,2.4-0.9,3.7l0,0c-0.1,1.2,0.3,2.4,1.1,3.3l0,0c0.8,0.7,1.9,1.1,3.1,1.1l0,0
	c1.3,0,2.6-0.4,3.6-1.1l0,0c1.2-0.8,2.1-1.9,2.7-3.2l0,0l0.8,0.4l0,0C281.1,438.2,278.2,440.2,274.2,440.3L274.2,440.3z"/>
<path d="M265.4,387.5c5.3,3.9,7.1,7.1,8.4,9.5l0,0c1.2-2.4,3.1-5.6,8.4-9.5c9-6.7,0.5-16.1-6.9-10.9c0.3-2.6,1.7-5,3.8-6.6v-1h-10.5
	v1c2.2,1.5,3.5,3.9,3.8,6.5C264.9,371.4,256.4,380.8,265.4,387.5z"/>
<path d="M39.6,75.5c-5.3-3.9-7.1-7.1-8.4-9.5l0,0c-1.2,2.4-3.1,5.6-8.4,9.5c-9,6.7-0.5,16.1,6.9,10.9c-0.3,2.6-1.7,5-3.8,6.6v1h10.5
	v-1c-2.2-1.5-3.5-3.9-3.8-6.5C40.1,91.6,48.6,82.2,39.6,75.5z"/>
<path d="M166.6,71.5C158,65.1,155,60,153,56l0,0c-2,4-5,9.1-13.6,15.5c-14.7,10.9-0.9,26.2,11.3,17.8c-0.8,5.2-3.5,9-6.3,10.6v1.7
	h17.1V100c-2.8-1.6-5.5-5.4-6.3-10.6C167.5,97.7,181.3,82.5,166.6,71.5z"/>
<path d="M139.4,383.5C148,389.9,151,395,153,399l0,0c2-4,5-9.1,13.6-15.5c14.7-10.9,0.9-26.2-11.3-17.8c0.8-5.2,3.5-9,6.3-10.6v-1.7
	h-17.1v1.7c2.8,1.6,5.5,5.4,6.3,10.6C138.5,357.3,124.7,372.5,139.4,383.5z"/>
<path d="M166.6,224.5C158,218.1,155,213,153,209l0,0c-2,4-5,9.1-13.6,15.5c-14.7,10.9-0.9,26.2,11.3,17.8c-0.8,5.2-3.5,9-6.3,10.6
	v1.7h17.1V253c-2.8-1.6-5.5-5.4-6.3-10.6C167.5,250.7,181.3,235.5,166.6,224.5z"/>
</svg>
