<svg id="Layer_1" data-name="Layer 1" xmlns="http://www.w3.org/2000/svg" viewBox="0 0 305 463"><defs><style>.cls-1{fill:#fff;stroke-linecap:round;stroke-width:2px;}.cls-1,.cls-2{stroke:#000;}.cls-2{stroke-miterlimit:10;stroke-width:1.44px;}</style></defs><title>4</title><path class="cls-1" d="M177.05,94H434a23,23,0,0,1,23.05,23V532A23,23,0,0,1,434,555H177.05A23,23,0,0,1,154,532V117.05a23,23,0,0,1,23.05-23Z" transform="translate(-153 -93)"/><path class="cls-2" d="M193.76,134.76h0a41.86,41.86,0,0,0-4.8-.24h0v9.36h-3.84v-9.36H172.59v-1l15.6-21.79H189V131.3h.58a6.71,6.71,0,0,0,1.94-.21h0a1.46,1.46,0,0,0,.89-.72h0a5.36,5.36,0,0,0,.38-1.51h.82Q193.57,132.88,193.76,134.76Zm-18.33-3.46h9.69V117.58Z" transform="translate(-153 -93)"/><path class="cls-2" d="M417.24,514.24h0a41.86,41.86,0,0,0,4.8.24h0v-9.36h3.84v9.36h12.53v1l-15.6,21.79H422V517.7h-.58a6.71,6.71,0,0,0-1.94.21h0a1.46,1.46,0,0,0-.89.72h0a5.36,5.36,0,0,0-.38,1.51h-.82Q417.43,516.12,417.24,514.24Zm18.33,3.46h-9.69v13.72Z" transform="translate(-153 -93)"/><path d="M418.4,480.48c5.29,3.94,7.12,7.08,8.35,9.52h0c1.24-2.44,3.07-5.58,8.36-9.52,9-6.7.53-16.06-6.94-10.91A9.24,9.24,0,0,1,432,463v-1H421.51v1a9.22,9.22,0,0,1,3.83,6.53C417.87,464.42,409.38,473.78,418.4,480.48Z" transform="translate(-153 -93)"/><path d="M192.6,168.52c-5.29-3.94-7.12-7.08-8.35-9.52h0c-1.24,2.44-3.07,5.58-8.36,9.52-9,6.7-.53,16.06,6.94,10.91A9.24,9.24,0,0,1,179,186v1h10.49v-1a9.22,9.22,0,0,1-3.83-6.53C193.13,184.58,201.62,175.22,192.6,168.52Z" transform="translate(-153 -93)"/><path d="M391.61,242.53C383,236.11,380,231,378,227h0c-2,4-5,9.11-13.63,15.53-14.72,10.94-.86,26.2,11.32,17.8-.79,5.22-3.5,9-6.25,10.65v1.69h17.12V271c-2.75-1.63-5.46-5.43-6.25-10.65C392.47,268.73,406.33,253.47,391.61,242.53Z" transform="translate(-153 -93)"/><path d="M247.61,242.53C239,236.11,236,231,234,227h0c-2,4-5,9.11-13.63,15.53-14.72,10.94-.86,26.2,11.32,17.8-.79,5.22-3.5,9-6.25,10.65v1.69h17.12V271c-2.75-1.63-5.46-5.43-6.25-10.65C248.47,268.73,262.33,253.47,247.61,242.53Z" transform="translate(-153 -93)"/><path d="M220.39,406.47C229,412.89,232,418,234,422h0c2-4,5-9.11,13.63-15.53,14.72-10.94.86-26.2-11.32-17.8.79-5.22,3.5-9,6.25-10.65v-1.69H225.46V378c2.75,1.63,5.46,5.43,6.25,10.65C219.53,380.27,205.67,395.53,220.39,406.47Z" transform="translate(-153 -93)"/><path d="M364.39,406.47C373,412.89,376,418,378,422h0c2-4,5-9.11,13.63-15.53,14.72-10.94.86-26.2-11.32-17.8.79-5.22,3.5-9,6.25-10.65v-1.69H369.46V378c2.75,1.63,5.46,5.43,6.25,10.65C363.53,380.27,349.67,395.53,364.39,406.47Z" transform="translate(-153 -93)"/></svg>