<?xml version="1.0" encoding="utf-8"?>
<!-- Generator: Adobe Illustrator 23.0.3, SVG Export Plug-In . SVG Version: 6.00 Build 0)  -->
<svg version="1.1" id="Layer_1" xmlns="http://www.w3.org/2000/svg" xmlns:xlink="http://www.w3.org/1999/xlink" x="0px" y="0px"
	 viewBox="0 0 305 463" style="enable-background:new 0 0 305 463;" xml:space="preserve">
<style type="text/css">
	.st0{fill:#FFFFFF;stroke:#000000;stroke-width:2;stroke-linecap:round;}
	.st1{enable-background:new    ;}
</style>
<title>6</title>
<path class="st0" d="M24.1,1h257c12.7,0,23,10.2,23,22.9c0,0,0,0,0,0.1v415c0,12.7-10.3,23-23,23c0,0,0,0-0.1,0H24
	c-12.7,0-23-10.2-23-22.9c0,0,0,0,0-0.1V24C1,11.3,11.3,1,24.1,1C24,1,24,1,24.1,1L24.1,1z"/>
<path d="M265.4,387.5c5.3,3.9,7.1,7.1,8.4,9.5l0,0c1.2-2.4,3.1-5.6,8.4-9.5c9-6.7,0.5-16.1-6.9-10.9c0.3-2.6,1.7-5,3.8-6.6v-1h-10.5
	v1c2.2,1.5,3.5,3.9,3.8,6.5C264.9,371.4,256.4,380.8,265.4,387.5z"/>
<path d="M39.6,75.5c-5.3-3.9-7.1-7.1-8.4-9.5l0,0c-1.2,2.4-3.1,5.6-8.4,9.5c-9,6.7-0.5,16.1,6.9,10.9c-0.3,2.6-1.7,5-3.8,6.6v1h10.5
	v-1c-2.2-1.5-3.5-3.9-3.8-6.5C40.1,91.6,48.6,82.2,39.6,75.5z"/>
<path d="M94.6,75.5C86,69.1,83,64,81,60l0,0c-2,4-5,9.1-13.6,15.5c-14.7,10.9-0.9,26.2,11.3,17.8c-0.8,5.2-3.5,9-6.3,10.6v1.7h17.1
	V104c-2.8-1.6-5.5-5.4-6.3-10.6C95.5,101.7,109.3,86.5,94.6,75.5z"/>
<path d="M67.4,387.5C76,393.9,79,399,81,403l0,0c2-4,5-9.1,13.6-15.5c14.7-10.9,0.9-26.2-11.3-17.8c0.8-5.2,3.5-9,6.3-10.6v-1.7
	H72.5v1.7c2.8,1.6,5.5,5.4,6.3,10.6C66.5,361.3,52.7,376.5,67.4,387.5z"/>
<path d="M238.6,75.5C230,69.1,227,64,225,60l0,0c-2,4-5,9.1-13.6,15.5c-14.7,10.9-0.9,26.2,11.3,17.8c-0.8,5.2-3.5,9-6.3,10.6v1.7
	h17.1V104c-2.8-1.6-5.5-5.4-6.3-10.6C239.5,101.7,253.3,86.5,238.6,75.5z"/>
<path d="M211.4,387.5C220,393.9,223,399,225,403l0,0c2-4,5-9.1,13.6-15.5c14.7-10.9,0.9-26.2-11.3-17.8c0.8-5.2,3.5-9,6.3-10.6v-1.7
	h-17.1v1.7c2.8,1.6,5.5,5.4,6.3,10.6C210.5,361.3,196.7,376.5,211.4,387.5z"/>
<path d="M238.6,224.5C230,218.1,227,213,225,209l0,0c-2,4-5,9.1-13.6,15.5c-14.7,10.9-0.9,26.2,11.3,17.8c-0.8,5.2-3.5,9-6.3,10.6
	v1.7h17.1V253c-2.8-1.6-5.5-5.4-6.3-10.6C239.5,250.7,253.3,235.5,238.6,224.5z"/>
<path d="M94.6,224.5C86,218.1,83,213,81,209l0,0c-2,4-5,9.1-13.6,15.5c-14.7,10.9-0.9,26.2,11.3,17.8c-0.8,5.2-3.5,9-6.3,10.6v1.7
	h17.1V253c-2.8-1.6-5.5-5.4-6.3-10.6C95.5,250.7,109.3,235.5,94.6,224.5z"/>
<g class="st1">
	<path d="M42.1,29.7L38,31.8h-0.2c0-2.1-0.5-3.9-1.6-5.2c-1.3-1.6-2.9-2.5-4.7-2.5c-2.2,0-3.9,0.8-5.2,2.5c-1.1,1.3-1.6,3.1-1.6,5.2
		v4.5c1.9-1.9,4.2-2.8,6.8-2.8c3.5,0,6.2,1.2,8.2,3.5c2,2.3,3,5,3,8.3c0,3.3-1,6-3,8.3c-2,2.3-4.8,3.5-8.2,3.5s-6.2-1.2-8.2-3.5
		c-2-2.3-3-5-3-8.3V31.8c0-3.4,1-6.2,3-8.5c2-2.3,4.8-3.5,8.2-3.5c3.3,0,5.9,1.1,7.8,3.2C41.2,25.2,42.1,27.4,42.1,29.7z M31.5,37.7
		c-2.1,0-3.9,0.8-5.2,2.5c-1.1,1.3-1.6,3-1.6,5c0,2,0.5,3.6,1.6,5c1.3,1.6,3,2.5,5.2,2.5c2.1,0,3.8-0.8,5.2-2.5
		c1.1-1.3,1.6-2.9,1.6-5c0-2-0.5-3.7-1.6-5C35.3,38.5,33.6,37.7,31.5,37.7z"/>
</g>
<g class="st1">
	<path d="M262.9,433.4l4.1-2.1h0.2c0,2.1,0.5,3.9,1.6,5.2c1.3,1.6,2.9,2.5,4.7,2.5c2.2,0,3.9-0.8,5.2-2.5c1.1-1.3,1.6-3.1,1.6-5.2
		v-4.5c-1.9,1.9-4.2,2.8-6.8,2.8c-3.5,0-6.2-1.2-8.2-3.5c-2-2.3-3-5-3-8.3c0-3.3,1-6,3-8.3c2-2.3,4.8-3.5,8.2-3.5s6.2,1.2,8.2,3.5
		c2,2.3,3,5,3,8.3v13.4c0,3.4-1,6.2-3,8.5c-2,2.3-4.8,3.5-8.2,3.5c-3.3,0-5.9-1.1-7.8-3.2S262.9,435.7,262.9,433.4z M273.5,425.3
		c2.1,0,3.9-0.8,5.2-2.5c1.1-1.3,1.6-3,1.6-5c0-2-0.5-3.6-1.6-5c-1.3-1.6-3-2.5-5.2-2.5c-2.1,0-3.8,0.8-5.2,2.5
		c-1.1,1.3-1.6,2.9-1.6,5c0,2,0.5,3.7,1.6,5C269.7,424.5,271.4,425.3,273.5,425.3z"/>
</g>
</svg>
