<?xml version="1.0" encoding="utf-8"?>
<!-- Generator: Adobe Illustrator 23.0.3, SVG Export Plug-In . SVG Version: 6.00 Build 0)  -->
<svg version="1.1" id="Layer_1" xmlns="http://www.w3.org/2000/svg" xmlns:xlink="http://www.w3.org/1999/xlink" x="0px" y="0px"
	 viewBox="0 0 305 463" style="enable-background:new 0 0 305 463;" xml:space="preserve">
<style type="text/css">
	.st0{fill:#FFFFFF;stroke:#000000;stroke-width:2;stroke-linecap:round;}
	.st1{enable-background:new    ;}
</style>
<title>7</title>
<path class="st0" d="M24.1,1h257c12.7,0,23,10.2,23,22.9c0,0,0,0,0,0.1v415c0,12.7-10.3,23-23,23c0,0,0,0-0.1,0H24
	c-12.7,0-23-10.3-23-23V24C1.1,11.3,11.3,1.1,24.1,1L24.1,1z"/>
<path d="M265.4,387.5c5.3,3.9,7.1,7.1,8.4,9.5l0,0c1.2-2.4,3.1-5.6,8.4-9.5c9-6.7,0.5-16.1-6.9-10.9c0.3-2.6,1.7-5,3.8-6.6v-1h-10.5
	v1c2.2,1.5,3.5,3.9,3.8,6.5C264.9,371.4,256.4,380.8,265.4,387.5z"/>
<path d="M39.6,75.5c-5.3-3.9-7.1-7.1-8.4-9.5l0,0c-1.2,2.4-3.1,5.6-8.4,9.5c-9,6.7-0.5,16.1,6.9,10.9c-0.3,2.6-1.7,5-3.8,6.6v1h10.5
	v-1c-2.2-1.5-3.5-3.9-3.8-6.5C40.1,91.6,48.6,82.2,39.6,75.5z"/>
<path d="M94.6,75.5C86,69.1,83,64,81,60l0,0c-2,4-5,9.1-13.6,15.5c-14.7,10.9-0.9,26.2,11.3,17.8c-0.8,5.2-3.5,9-6.3,10.6v1.7h17.1
	V104c-2.8-1.6-5.5-5.4-6.3-10.6C95.5,101.7,109.3,86.5,94.6,75.5z"/>
<path d="M67.4,387.5C76,393.9,79,399,81,403l0,0c2-4,5-9.1,13.6-15.5c14.7-10.9,0.9-26.2-11.3-17.8c0.8-5.2,3.5-9,6.3-10.6v-1.7
	H72.5v1.7c2.8,1.6,5.5,5.4,6.3,10.6C66.5,361.3,52.7,376.5,67.4,387.5z"/>
<path d="M238.6,75.5C230,69.1,227,64,225,60l0,0c-2,4-5,9.1-13.6,15.5c-14.7,10.9-0.9,26.2,11.3,17.8c-0.8,5.2-3.5,9-6.3,10.6v1.7
	h17.1V104c-2.8-1.6-5.5-5.4-6.3-10.6C239.5,101.7,253.3,86.5,238.6,75.5z"/>
<path d="M211.4,387.5C220,393.9,223,399,225,403l0,0c2-4,5-9.1,13.6-15.5c14.7-10.9,0.9-26.2-11.3-17.8c0.8-5.2,3.5-9,6.3-10.6v-1.7
	h-17.1v1.7c2.8,1.6,5.5,5.4,6.3,10.6C210.5,361.3,196.7,376.5,211.4,387.5z"/>
<path d="M238.6,224.5C230,218.1,227,213,225,209l0,0c-2,4-5,9.1-13.6,15.5c-14.7,10.9-0.9,26.2,11.3,17.8c-0.8,5.2-3.5,9-6.3,10.6
	v1.7h17.1V253c-2.8-1.6-5.5-5.4-6.3-10.6C239.5,250.7,253.3,235.5,238.6,224.5z"/>
<path d="M94.6,224.5C86,218.1,83,213,81,209l0,0c-2,4-5,9.1-13.6,15.5c-14.7,10.9-0.9,26.2,11.3,17.8c-0.8,5.2-3.5,9-6.3,10.6v1.7
	h17.1V253c-2.8-1.6-5.5-5.4-6.3-10.6C95.5,250.7,109.3,235.5,94.6,224.5z"/>
<path d="M165.6,151.5C157,145.1,154,140,152,136l0,0c-2,4-5,9.1-13.6,15.5c-14.7,10.9-0.9,26.2,11.3,17.8c-0.8,5.2-3.5,9-6.3,10.6
	v1.7h17.1V180c-2.8-1.6-5.5-5.4-6.3-10.6C166.5,177.7,180.3,162.5,165.6,151.5z"/>
<g class="st1">
	<path d="M30.2,57.4h-0.2l-4.2-2L36,24.6H20.9v-0.2l1.8-4.1h19.5v0.3L30.2,57.4z"/>
</g>
<g class="st1">
	<path d="M274.8,405.7h0.2l4.2,2L269,438.4h15.1v0.2l-1.8,4.1h-19.5v-0.3L274.8,405.7z"/>
</g>
</svg>
