<?xml version="1.0" encoding="utf-8"?>
<!-- Generator: Adobe Illustrator 23.0.3, SVG Export Plug-In . SVG Version: 6.00 Build 0)  -->
<svg version="1.1" id="Layer_1" xmlns="http://www.w3.org/2000/svg" xmlns:xlink="http://www.w3.org/1999/xlink" x="0px" y="0px"
	 viewBox="0 0 305 463" style="enable-background:new 0 0 305 463;" xml:space="preserve">
<style type="text/css">
	.st0{fill:#FFFFFF;stroke:#000000;stroke-width:2;stroke-linecap:round;}
	.st1{enable-background:new    ;}
</style>
<title>Ace</title>
<path class="st0" d="M24.1,1h257c6.1-0.1,12,2.3,16.3,6.8c4.4,4.3,6.8,10.2,6.7,16.3v415c0,12.7-10.3,23-23,23h-257
	c-12.7,0-23-10.2-23-22.9c0,0,0,0,0-0.1V24C0.9,17.9,3.3,12,7.8,7.8C12,3.3,17.9,0.9,24.1,1z"/>
<path d="M204.8,204c-32.8-24.4-44.1-43.9-51.8-59l0,0c-7.7,15.1-19,34.6-51.8,59c-56,41.6-3.3,99.7,43,67.7
	c-3,19.8-13.3,34.3-23.8,40.5v6.4h65.1v-6.4c-10.5-6.2-20.8-20.7-23.8-40.5C208.1,303.7,260.8,245.6,204.8,204z"/>
<path d="M39.6,75.5c-5.3-3.9-7.1-7.1-8.3-9.5l0,0c-1.2,2.4-3.1,5.6-8.4,9.5c-9,6.7-0.5,16.1,6.9,10.9c-0.3,2.6-1.7,5-3.8,6.6v1h10.5
	v-1c-2.2-1.5-3.5-3.9-3.8-6.5C40.1,91.6,48.6,82.2,39.6,75.5z"/>
<path d="M265.4,387.5c5.3,3.9,7.1,7.1,8.4,9.5l0,0c1.2-2.4,3.1-5.6,8.4-9.5c9-6.7,0.5-16.1-6.9-10.9c0.3-2.6,1.7-5,3.8-6.6v-1h-10.5
	v1c2.2,1.5,3.5,3.9,3.8,6.5C264.9,371.4,256.4,380.8,265.4,387.5z"/>
<g class="st1">
	<path d="M20.2,57.4V31.8c0-3.4,1-6.3,3-8.5c2.1-2.3,4.9-3.5,8.2-3.5c3.3,0,6.1,1.2,8.2,3.5c2,2.1,3,5,3,8.5v23.5l-4.2,2.2h-0.2
		V40.5H24.7v14.7l-4.2,2.2H20.2z M24.7,36.2h13.6v-4.4c0-2.1-0.5-3.9-1.6-5.2c-1.3-1.6-3.1-2.5-5.2-2.5s-3.9,0.8-5.2,2.5
		c-1.1,1.3-1.6,3.1-1.6,5.2V36.2z"/>
</g>
<g class="st1">
	<path d="M284.8,405.7v25.6c0,3.4-1,6.3-3,8.5c-2.1,2.3-4.9,3.5-8.2,3.5c-3.3,0-6.1-1.2-8.2-3.5c-2-2.1-3-5-3-8.5v-23.5l4.2-2.2h0.2
		v16.9h13.6v-14.7l4.2-2.2H284.8z M280.3,426.9h-13.6v4.4c0,2.1,0.5,3.9,1.6,5.2c1.3,1.6,3.1,2.5,5.2,2.5s3.9-0.8,5.2-2.5
		c1.1-1.3,1.6-3.1,1.6-5.2V426.9z"/>
</g>
</svg>
