<?xml version="1.0" encoding="utf-8"?>
<!-- Generator: Adobe Illustrator 23.0.2, SVG Export Plug-In . SVG Version: 6.00 Build 0)  -->
<svg version="1.1" id="Layer_1" xmlns="http://www.w3.org/2000/svg" xmlns:xlink="http://www.w3.org/1999/xlink" x="0px" y="0px"
	 viewBox="0 0 305 463" style="enable-background:new 0 0 305 463;" xml:space="preserve">
<style type="text/css">
	.st0{fill:#FFFFFF;stroke:#000000;stroke-width:2;stroke-linecap:round;}
	.st1{stroke:#000000;stroke-width:1.46;stroke-miterlimit:10;}
</style>
<title>Ace</title>
<path class="st0" d="M24.1,1h257c6.1-0.1,12,2.3,16.3,6.8c4.4,4.3,6.8,10.2,6.7,16.3v415c0,12.7-10.3,23-23,23h-257
	c-12.7,0-23-10.2-23-22.9c0,0,0,0,0-0.1V24C0.9,17.9,3.3,12,7.8,7.8C12,3.3,17.9,0.9,24.1,1z"/>
<path d="M204.8,204c-32.8-24.4-44.1-43.9-51.8-59l0,0c-7.7,15.1-19,34.6-51.8,59c-56,41.6-3.3,99.7,43,67.7
	c-3,19.8-13.3,34.3-23.8,40.5v6.4h65.1v-6.4c-10.5-6.2-20.8-20.7-23.8-40.5C208.1,303.7,260.8,245.6,204.8,204z"/>
<path class="st1" d="M43,40L43,40c0.8,2,1.9,3,3.4,3.1l0,0v1l0,0c-1.3-0.1-3-0.1-5.2-0.1l0,0c-2.8,0-4.9,0-6.2,0.1l0,0v-1l0,0
	c0.9,0,1.8-0.2,2.7-0.5l0,0c0.5-0.2,0.9-0.8,0.8-1.3l0,0c-0.1-0.8-0.3-1.6-0.6-2.3l0,0l-3-8H23.1l-2,5.2l0,0c-0.5,1.3-0.9,2.6-1,4
	l0,0c-0.1,0.9,0.3,1.7,1,2.2l0,0c1,0.5,2.1,0.8,3.2,0.7l0,0v1l0,0C22.5,44,20.6,44,18.8,44l0,0c-1.5,0-2.7,0-3.7,0.1l0,0v-1l0,0
	c1.6-0.4,2.9-1.8,3.8-4.2l0,0L30.4,9.4h0.8L43,40z M23.5,30.1h11L29,15.6L23.5,30.1z"/>
<path class="st1" d="M262,425L262,425c-0.8-2-1.9-3-3.4-3.1l0,0v-1l0,0c1.3,0.1,3,0.1,5.2,0.1l0,0c2.8,0,4.9,0,6.2-0.1l0,0v1l0,0
	c-0.9,0-1.8,0.2-2.6,0.5l0,0c-0.5,0.2-0.9,0.8-0.8,1.3l0,0c0.1,0.8,0.3,1.6,0.6,2.3l0,0l3,8H282l2-5.1l0,0c0.5-1.3,0.9-2.6,1-4l0,0
	c0.1-0.9-0.3-1.7-1-2.2l0,0c-1-0.5-2.1-0.8-3.2-0.7l0,0v-1l0,0c1.8,0.1,3.7,0.1,5.6,0.1l0,0c1.5,0,2.7,0,3.6-0.1l0,0v1l0,0
	c-1.6,0.4-2.9,1.8-3.9,4.2l0,0l-11.4,29.5h-0.8L262,425z M281.5,434.9h-11l5.5,14.5L281.5,434.9z"/>
<path d="M39.6,75.5c-5.3-3.9-7.1-7.1-8.3-9.5l0,0c-1.2,2.4-3.1,5.6-8.4,9.5c-9,6.7-0.5,16.1,6.9,10.9c-0.3,2.6-1.7,5-3.8,6.6v1h10.5
	v-1c-2.2-1.5-3.5-3.9-3.8-6.5C40.1,91.6,48.6,82.2,39.6,75.5z"/>
<path d="M265.4,387.5c5.3,3.9,7.1,7.1,8.4,9.5l0,0c1.2-2.4,3.1-5.6,8.4-9.5c9-6.7,0.5-16.1-6.9-10.9c0.3-2.6,1.7-5,3.8-6.6v-1h-10.5
	v1c2.2,1.5,3.5,3.9,3.8,6.5C264.9,371.4,256.4,380.8,265.4,387.5z"/>
</svg>
