<?xml version="1.0" encoding="utf-8"?>
<!-- Generator: Adobe Illustrator 23.0.3, SVG Export Plug-In . SVG Version: 6.00 Build 0)  -->
<svg version="1.1" id="Layer_1" xmlns="http://www.w3.org/2000/svg" xmlns:xlink="http://www.w3.org/1999/xlink" x="0px" y="0px"
	 viewBox="0 0 305 463" style="enable-background:new 0 0 305 463;" xml:space="preserve">
<style type="text/css">
	.st0{fill:#FFFFFF;stroke:#000000;stroke-width:2;stroke-linecap:round;}
	.st1{enable-background:new    ;}
</style>
<title>Jack</title>
<path class="st0" d="M24.1,1h257c12.7,0,23,10.2,23,22.9c0,0,0,0,0,0.1v415c0,12.7-10.3,23-23,23c0,0,0,0-0.1,0H24
	c-12.7,0-23-10.3-23-23V24C1.1,11.3,11.3,1.1,24.1,1L24.1,1z"/>
<path d="M265.4,387.5c5.3,3.9,7.1,7.1,8.4,9.5l0,0c1.2-2.4,3.1-5.6,8.4-9.5c9-6.7,0.5-16.1-6.9-10.9c0.3-2.6,1.7-5,3.8-6.6v-1h-10.5
	v1c2.2,1.5,3.5,3.9,3.8,6.5C264.9,371.4,256.4,380.8,265.4,387.5z"/>
<path d="M39.6,75.5c-5.3-3.9-7.1-7.1-8.3-9.5l0,0c-1.2,2.4-3.1,5.6-8.4,9.5c-9,6.7-0.5,16.1,6.9,10.9c-0.3,2.6-1.7,5-3.8,6.6v1h10.5
	v-1c-2.2-1.5-3.5-3.9-3.8-6.5C40.1,91.6,48.6,82.2,39.6,75.5z"/>
<g class="st1">
	<path d="M18.9,45.4l4.2-2.2h0.2v1.7c0,2.1,0.5,3.9,1.6,5.2c1.3,1.6,3.1,2.5,5.2,2.5s3.9-0.8,5.2-2.5c1.1-1.3,1.6-3.1,1.6-5.2V24.6
		H24.2v-0.2l1.8-4.1h15.4v24.7c0,3.4-1,6.3-3,8.5c-2.1,2.3-4.9,3.5-8.2,3.5c-3.3,0-6.1-1.2-8.2-3.5C19.9,51.3,18.9,48.6,18.9,45.4z"
		/>
</g>
<g class="st1">
	<path d="M286.1,417.6l-4.2,2.2h-0.2v-1.7c0-2.1-0.5-3.9-1.6-5.2c-1.3-1.6-3.1-2.5-5.2-2.5s-3.9,0.8-5.2,2.5
		c-1.1,1.3-1.6,3.1-1.6,5.2v20.3h12.8v0.2l-1.8,4.1h-15.4v-24.7c0-3.4,1-6.3,3-8.5c2.1-2.3,4.9-3.5,8.2-3.5c3.3,0,6.1,1.2,8.2,3.5
		C285.1,411.7,286.1,414.4,286.1,417.6z"/>
</g>
<g class="st1">
	<path d="M118.7,174.2l12.7-6.5h0.7v5c0,6.4,1.6,11.6,4.8,15.6c4,4.9,9.2,7.4,15.6,7.4c6.4,0,11.6-2.5,15.6-7.4
		c3.2-4,4.8-9.2,4.8-15.6v-61h-38.4V111l5.4-12.4h46.4v74.1c0,10.4-3,18.9-9,25.6c-6.3,7-14.6,10.4-24.8,10.4
		c-10,0-18.3-3.5-24.8-10.4C121.7,191.9,118.7,183.8,118.7,174.2z"/>
</g>
<g class="st1">
	<path d="M186.3,286.8l-12.7,6.5h-0.7v-5c0-6.4-1.6-11.6-4.8-15.6c-4-4.9-9.2-7.4-15.6-7.4s-11.6,2.5-15.6,7.4
		c-3.2,4-4.8,9.2-4.8,15.6v61h38.4v0.7l-5.4,12.4h-46.4v-74.1c0-10.4,3-18.9,9-25.6c6.3-7,14.6-10.4,24.8-10.4
		c10,0,18.3,3.5,24.8,10.4C183.3,269.1,186.3,277.2,186.3,286.8z"/>
</g>
</svg>
