<svg id="Layer_1" data-name="Layer 1" xmlns="http://www.w3.org/2000/svg" viewBox="0 0 305 463"><defs><style>.cls-1{fill:#fff;stroke-linecap:round;stroke-width:2px;}.cls-1,.cls-2,.cls-3{stroke:#000;}.cls-2,.cls-3{stroke-miterlimit:10;}.cls-2{stroke-width:1.46px;}.cls-3{stroke-width:3.43px;}</style></defs><title>Jack</title><path class="cls-1" d="M115.05,91H372a23,23,0,0,1,23.05,23V529A23,23,0,0,1,372,552H115.05a23,23,0,0,1-23-23V114.05a23,23,0,0,1,23-23Z" transform="translate(-91 -90)"/><path class="cls-2" d="M113.25,143.25v-.92h0a5.85,5.85,0,0,0,5-2.53h0q1.64-2.43,1.63-8.22h0V104.84h0a9,9,0,0,0-.29-2.68h0a1.72,1.72,0,0,0-1.09-1.11h0a9.34,9.34,0,0,0-2.56-.39h0v-1h0c1.36.1,3.41.15,6.13.15h0q4,0,6.27-.15h0v1h0a9.25,9.25,0,0,0-2.55.39h0a1.7,1.7,0,0,0-1.09,1.11h0a8.64,8.64,0,0,0-.3,2.68h0v17.8h0q0,4.13-.14,7.31h0a29.36,29.36,0,0,1-.68,5.38h0a10.37,10.37,0,0,1-3.58,5.73h0a10.41,10.41,0,0,1-6.78,2.19Z" transform="translate(-91 -90)"/><path class="cls-2" d="M373.75,501.75v.92h0a5.85,5.85,0,0,0-5,2.53h0q-1.64,2.43-1.63,8.22h0v26.74h0a9,9,0,0,0,.29,2.68h0a1.72,1.72,0,0,0,1.09,1.11h0a9.34,9.34,0,0,0,2.56.39h0v1h0c-1.36-.1-3.41-.15-6.13-.15h0q-4,0-6.27.15h0v-1h0a9.25,9.25,0,0,0,2.55-.39h0a1.7,1.7,0,0,0,1.09-1.11h0a8.64,8.64,0,0,0,.3-2.68h0v-17.8h0q0-4.12.14-7.31h0a29.36,29.36,0,0,1,.68-5.38h0a10.37,10.37,0,0,1,3.58-5.73h0a10.41,10.41,0,0,1,6.78-2.19Z" transform="translate(-91 -90)"/><path d="M356.4,477.48c5.29,3.94,7.12,7.08,8.35,9.52h0c1.24-2.44,3.07-5.58,8.36-9.52,9-6.7.53-16.06-6.94-10.91A9.24,9.24,0,0,1,370,460v-1H359.51v1a9.22,9.22,0,0,1,3.83,6.53C355.87,461.42,347.38,470.78,356.4,477.48Z" transform="translate(-91 -90)"/><path class="cls-3" d="M263.51,348.5v2.17h0q-8,.22-11.84,5.95h0q-3.82,5.72-3.83,19.33h0v62.9h0a20.51,20.51,0,0,0,.69,6.29h0a4.06,4.06,0,0,0,2.57,2.63h0a22.54,22.54,0,0,0,6,.92h0V451h0q-4.8-.35-14.41-.35h0q-9.37,0-14.75.35h0v-2.29h0a22.47,22.47,0,0,0,6-.92h0a4.1,4.1,0,0,0,2.58-2.63h0a20.9,20.9,0,0,0,.68-6.29h0V397h0q0-9.72.35-17.21h0a67.08,67.08,0,0,1,1.6-12.64h0a24.38,24.38,0,0,1,8.4-13.5h0q6.36-5.14,16-5.14Z" transform="translate(-91 -90)"/><path class="cls-3" d="M222.49,294.5v-2.17h0q8-.22,11.84-5.95h0q3.82-5.72,3.83-19.33h0v-62.9h0a20.51,20.51,0,0,0-.69-6.29h0a4.06,4.06,0,0,0-2.57-2.63h0a22.54,22.54,0,0,0-6-.92h0V192h0q4.8.34,14.41.35h0q9.38,0,14.75-.35h0v2.29h0a22.47,22.47,0,0,0-6,.92h0a4.1,4.1,0,0,0-2.58,2.63h0a20.9,20.9,0,0,0-.68,6.29h0V246h0q0,9.72-.35,17.21h0a67.08,67.08,0,0,1-1.6,12.64h0a24.38,24.38,0,0,1-8.4,13.5h0q-6.36,5.14-16,5.14Z" transform="translate(-91 -90)"/><path d="M130.6,165.52c-5.29-3.94-7.12-7.08-8.35-9.52h0c-1.24,2.44-3.07,5.58-8.36,9.52-9,6.7-.53,16.06,6.94,10.91A9.24,9.24,0,0,1,117,183v1h10.49v-1a9.22,9.22,0,0,1-3.83-6.53C131.13,181.58,139.62,172.22,130.6,165.52Z" transform="translate(-91 -90)"/></svg>