<?xml version="1.0" encoding="utf-8"?>
<!-- Generator: Adobe Illustrator 23.0.3, SVG Export Plug-In . SVG Version: 6.00 Build 0)  -->
<svg version="1.1" id="Layer_1" xmlns="http://www.w3.org/2000/svg" xmlns:xlink="http://www.w3.org/1999/xlink" x="0px" y="0px"
	 viewBox="0 0 305 463" style="enable-background:new 0 0 305 463;" xml:space="preserve">
<style type="text/css">
	.st0{fill:#FFFFFF;stroke:#000000;stroke-width:2;stroke-linecap:round;}
	.st1{enable-background:new    ;}
</style>
<title>King</title>
<path class="st0" d="M24.1,1h257c12.7,0,23,10.2,23,22.9c0,0,0,0,0,0.1v415c0,12.7-10.3,23-23,23c0,0,0,0-0.1,0H24
	c-12.7,0-23-10.2-23-22.9c0,0,0,0,0-0.1V24C1,11.3,11.3,1,24.1,1L24.1,1z"/>
<path d="M265.4,387.5c5.3,3.9,7.1,7.1,8.4,9.5l0,0c1.2-2.4,3.1-5.6,8.4-9.5c9-6.7,0.5-16.1-6.9-10.9c0.3-2.6,1.7-5,3.8-6.6v-1h-10.5
	v1c2.2,1.5,3.5,3.9,3.8,6.5C264.9,371.4,256.4,380.8,265.4,387.5z"/>
<path d="M39.6,75.5c-5.3-3.9-7.1-7.1-8.3-9.5l0,0c-1.2,2.4-3.1,5.6-8.4,9.5c-9,6.7-0.5,16.1,6.9,10.9c-0.3,2.6-1.7,5-3.8,6.6v1h10.5
	v-1c-2.2-1.5-3.5-3.9-3.8-6.5C40.1,91.6,48.6,82.2,39.6,75.5z"/>
<g class="st1">
	<path d="M20.8,57.4V21.5l4.2-2.2h0.2v18l12.1-18h0.2l3.9,2l-9.9,14.2c3.4,0.1,6.1,1.1,8.1,3.2c2,2.1,3,4.9,3,8.5v8l-4.2,2.2h-0.2
		V47.2c0-2.1-0.5-3.9-1.6-5.2c-1.3-1.6-2.9-2.5-4.9-2.5c-1.9,0-3.6,0.8-4.9,2.5c-1.1,1.4-1.6,3.1-1.6,5.2v8L21,57.4H20.8z"/>
</g>
<g class="st1">
	<path d="M284.2,405.7v35.9l-4.2,2.2h-0.2v-18l-12.1,18h-0.2l-3.9-2l9.9-14.2c-3.4-0.1-6.1-1.2-8.1-3.2c-2-2.1-3-4.9-3-8.5v-8
		l4.2-2.2h0.2v10.2c0,2.1,0.5,3.9,1.6,5.2c1.3,1.6,2.9,2.5,4.9,2.5c1.9,0,3.6-0.8,4.9-2.5c1.1-1.4,1.6-3.1,1.6-5.2v-8l4.2-2.2H284.2
		z"/>
</g>
<g class="st1">
	<path d="M119.8,210.9v-108l12.7-6.5h0.7v54.2l36.4-54.2h0.7l11.8,6l-30,42.7c10.3,0.2,18.3,3.5,24.2,9.6c6,6.3,9,14.9,9,25.6v24.1
		l-12.7,6.5h-0.7v-30.5c0-6.4-1.6-11.6-4.8-15.6c-4-4.9-8.8-7.4-14.6-7.4s-10.7,2.5-14.6,7.4c-3.2,4.1-4.8,9.3-4.8,15.6v24.1
		l-12.7,6.5h-0.6V210.9z"/>
</g>
<g class="st1">
	<path d="M185.3,250.2v108l-12.7,6.5h-0.7v-54.2l-36.4,54.2h-0.7l-11.8-6l29.9-42.8c-10.3-0.2-18.3-3.5-24.2-9.6
		c-6-6.3-9-14.9-9-25.6v-24.1l12.7-6.5h0.7v30.5c0,6.4,1.6,11.6,4.8,15.6c4,4.9,8.8,7.4,14.6,7.4c5.8,0,10.7-2.5,14.6-7.4
		c3.2-4.1,4.8-9.3,4.8-15.6v-24.1l12.7-6.5h0.7V250.2z"/>
</g>
</svg>
