<svg id="Layer_1" data-name="Layer 1" xmlns="http://www.w3.org/2000/svg" viewBox="0 0 305 463"><defs><style>.cls-1{fill:#fff;stroke:#000;stroke-linecap:round;stroke-width:2px;}.cls-2,.cls-3,.cls-4{fill:red;}.cls-2,.cls-3{stroke:red;stroke-miterlimit:10;}.cls-2{stroke-width:1.44px;}.cls-3{stroke-width:3.42px;}</style></defs><title>Queen</title><path class="cls-1" d="M142.05,69H399a23,23,0,0,1,23.05,23V507A23,23,0,0,1,399,530H142.05A23,23,0,0,1,119,507V92.05a23,23,0,0,1,23.05-23Z" transform="translate(-118 -68)"/><path class="cls-2" d="M166.81,112.77l.72.29h0a11.67,11.67,0,0,1-3,5.45h0a9.17,9.17,0,0,1-6.46,2.16h0a14.32,14.32,0,0,1-4.31-.67h0a52.6,52.6,0,0,1-5.31-2.11h0q-3.56-1.53-5.8-2.3h0l-1.15-.33h0a12,12,0,0,1-4,.72h0c-1.47,0-2.2-.32-2.2-1h0c0-.67.86-1,2.58-1h0a18,18,0,0,1,3.59.39h0a26.45,26.45,0,0,0,3.55-1.34h0c.83-.39,1.45-.66,1.86-.82h0a14,14,0,0,1-7.06-2.54h0a14,14,0,0,1-4.64-5.91h0A21.66,21.66,0,0,1,133.54,95h0a21.37,21.37,0,0,1,1.94-9.34h0a15,15,0,0,1,5.41-6.32h0a14.15,14.15,0,0,1,7.87-2.25h0a15.18,15.18,0,0,1,8,2.06h0a13.75,13.75,0,0,1,5.32,6h0a21.18,21.18,0,0,1,1.89,9.31h0a21.75,21.75,0,0,1-1.73,8.88h0a15.28,15.28,0,0,1-4.83,6.23h0a13.92,13.92,0,0,1-7.13,2.7h0v.05h0a10.52,10.52,0,0,0-2,.41h0c-.56.17-1.3.45-2.23.83h0a23.09,23.09,0,0,1-2.87,1.1h0q5.31,1.07,9,1.68h0a38,38,0,0,0,6.16.62h0a12.2,12.2,0,0,0,5.38-1h0A6.72,6.72,0,0,0,166.81,112.77Zm-28.49-18h0a25.09,25.09,0,0,0,1.42,8.77h0a14,14,0,0,0,3.8,5.84h0a8.05,8.05,0,0,0,5.37,2.06h0a7.68,7.68,0,0,0,5.38-2.14h0a13.66,13.66,0,0,0,3.59-6h0a27.67,27.67,0,0,0,1.27-8.76h0a25,25,0,0,0-1.41-8.76h0A13.89,13.89,0,0,0,153.93,80h0A8,8,0,0,0,148.57,78h0a7.74,7.74,0,0,0-5.39,2.13h0a13.91,13.91,0,0,0-3.59,6h0a28,28,0,0,0-1.27,8.76Z" transform="translate(-118 -68)"/><path class="cls-2" d="M374.19,486.23l-.72-.29h0a11.67,11.67,0,0,1,3-5.45h0a9.17,9.17,0,0,1,6.46-2.16h0a14.32,14.32,0,0,1,4.31.67h0a52.6,52.6,0,0,1,5.31,2.11h0q3.56,1.53,5.8,2.3h0l1.15.33h0a12,12,0,0,1,4-.72h0c1.47,0,2.2.32,2.2,1h0c0,.67-.86,1-2.58,1h0a18,18,0,0,1-3.59-.39h0a26.45,26.45,0,0,0-3.55,1.34h0c-.83.39-1.45.66-1.86.82h0a14,14,0,0,1,7.06,2.54h0a14,14,0,0,1,4.64,5.91h0a21.66,21.66,0,0,1,1.65,8.78h0a21.37,21.37,0,0,1-1.94,9.34h0a15,15,0,0,1-5.41,6.32h0a14.15,14.15,0,0,1-7.87,2.25h0a15.18,15.18,0,0,1-8-2.06h0a13.75,13.75,0,0,1-5.32-6h0a21.18,21.18,0,0,1-1.89-9.31h0a21.75,21.75,0,0,1,1.73-8.88h0a15.28,15.28,0,0,1,4.83-6.23h0a13.92,13.92,0,0,1,7.13-2.7h0v-.05h0a10.52,10.52,0,0,0,2-.41h0c.56-.17,1.3-.45,2.23-.83h0a23.09,23.09,0,0,1,2.87-1.1h0q-5.31-1.06-9-1.68h0a38,38,0,0,0-6.16-.62h0a12.2,12.2,0,0,0-5.38,1h0A6.72,6.72,0,0,0,374.19,486.23Zm28.49,18h0a25.09,25.09,0,0,0-1.42-8.77h0a14,14,0,0,0-3.8-5.84h0a8.05,8.05,0,0,0-5.37-2.06h0a7.68,7.68,0,0,0-5.38,2.14h0a13.66,13.66,0,0,0-3.59,6h0a27.67,27.67,0,0,0-1.27,8.76h0a25,25,0,0,0,1.41,8.76h0a13.89,13.89,0,0,0,3.81,5.84h0a8,8,0,0,0,5.36,2.06h0a7.74,7.74,0,0,0,5.39-2.13h0a13.91,13.91,0,0,0,3.59-6h0a28,28,0,0,0,1.27-8.76Z" transform="translate(-118 -68)"/><path class="cls-3" d="M313.18,254l1.71.69h0q-2.5,8.66-7.18,13h0q-5.58,5.11-15.37,5.12h0a33.7,33.7,0,0,1-10.25-1.59h0a129.29,129.29,0,0,1-12.64-5h0q-8.43-3.64-13.78-5.47h0l-2.73-.8h0a28.66,28.66,0,0,1-9.45,1.71h0c-3.5,0-5.24-.76-5.24-2.28h0q0-2.39,6.15-2.39h0a44.23,44.23,0,0,1,8.54.91h0a60.78,60.78,0,0,0,8.43-3.18h0c2-.92,3.45-1.56,4.44-1.94h0a33.51,33.51,0,0,1-16.8-6h0a33.46,33.46,0,0,1-11-14.06h0A51.55,51.55,0,0,1,234,211.7h0a50.93,50.93,0,0,1,4.61-22.2h0a35.7,35.7,0,0,1,12.87-15h0a33.63,33.63,0,0,1,18.73-5.35h0a36.12,36.12,0,0,1,19,4.89h0a32.7,32.7,0,0,1,12.64,14.18h0q4.5,9.28,4.5,22.15h0a51.84,51.84,0,0,1-4.1,21.12h0a36.51,36.51,0,0,1-11.5,14.81h0a33.13,33.13,0,0,1-17,6.43h0v.11h0a27.23,27.23,0,0,0-4.73,1h0q-2,.63-5.29,2h0a55.44,55.44,0,0,1-6.84,2.62h0q12.65,2.5,21.47,4h0A91.18,91.18,0,0,0,293,263.86h0q8.09,0,12.81-2.33h0A16.25,16.25,0,0,0,313.18,254Zm-67.76-42.7h0a59.43,59.43,0,0,0,3.36,20.84h0q3.36,9,9.06,13.89h0a19,19,0,0,0,12.75,4.9h0a18.36,18.36,0,0,0,12.81-5.07h0q5.52-5.07,8.54-14.18h0a66.23,66.23,0,0,0,3-20.84h0A59.43,59.43,0,0,0,291.6,190h0q-3.36-9-9.05-13.89h0a19.1,19.1,0,0,0-12.76-4.89h0A18.35,18.35,0,0,0,257,176.23h0q-5.52,5.07-8.54,14.18h0a66.23,66.23,0,0,0-3,20.84Z" transform="translate(-118 -68)"/><path class="cls-3" d="M227.82,345.05l-1.71-.69h0q2.5-8.66,7.18-13h0q5.58-5.11,15.37-5.12h0a33.7,33.7,0,0,1,10.25,1.59h0a129.29,129.29,0,0,1,12.64,5h0q8.43,3.64,13.78,5.47h0l2.73.8h0a28.66,28.66,0,0,1,9.45-1.71h0c3.5,0,5.24.76,5.24,2.28h0q0,2.39-6.15,2.39h0a44.23,44.23,0,0,1-8.54-.91h0a60.78,60.78,0,0,0-8.43,3.18h0c-2,.92-3.45,1.56-4.44,1.94h0a33.51,33.51,0,0,1,16.8,6h0A33.46,33.46,0,0,1,303,366.4h0A51.55,51.55,0,0,1,307,387.3h0a50.93,50.93,0,0,1-4.61,22.2h0a35.7,35.7,0,0,1-12.87,15h0a33.63,33.63,0,0,1-18.73,5.35h0a36.12,36.12,0,0,1-19-4.89h0a32.7,32.7,0,0,1-12.64-14.18h0q-4.5-9.29-4.5-22.15h0a51.84,51.84,0,0,1,4.1-21.12h0a36.51,36.51,0,0,1,11.5-14.81h0a33.13,33.13,0,0,1,17-6.43h0v-.11h0a27.23,27.23,0,0,0,4.73-1h0q2-.63,5.29-2h0a55.44,55.44,0,0,1,6.84-2.62h0q-12.65-2.5-21.47-4h0A91.18,91.18,0,0,0,248,335.14h0q-8.08,0-12.81,2.33h0A16.25,16.25,0,0,0,227.82,345.05Zm67.76,42.7h0a59.43,59.43,0,0,0-3.36-20.84h0q-3.36-9-9.06-13.89h0a19,19,0,0,0-12.75-4.9h0a18.36,18.36,0,0,0-12.81,5.07h0q-5.52,5.07-8.54,14.18h0a66.23,66.23,0,0,0-3,20.84h0a59.43,59.43,0,0,0,3.36,20.84h0q3.36,9,9,13.89h0a19.1,19.1,0,0,0,12.76,4.89h0A18.35,18.35,0,0,0,284,422.77h0q5.52-5.07,8.54-14.18h0a66.23,66.23,0,0,0,3-20.84Z" transform="translate(-118 -68)"/><g id="layer1"><path id="path2417" class="cls-4" d="M147.85,157.84a27.24,27.24,0,0,0-3.07-2.69,52.61,52.61,0,0,1-5.19-4.17,9.82,9.82,0,0,1-3.59-7.81,6,6,0,0,1,.54-3,7.08,7.08,0,0,1,3.19-3.39,5.42,5.42,0,0,1,3.1-.73,4.77,4.77,0,0,1,3.07.74,6.25,6.25,0,0,1,2.74,3.13l.16.63.4-.86c2.24-4.91,9.39-4.83,11.88.12a10.6,10.6,0,0,1,.17,6.81c-.91,2.47-2.62,4.35-6.59,7.23a37.68,37.68,0,0,0-5.75,5.14C148.68,159.41,148.9,159,147.85,157.84Z" transform="translate(-118 -68)"/></g><path class="cls-4" d="M393.15,441.16a27.24,27.24,0,0,0,3.07,2.69,52.61,52.61,0,0,1,5.19,4.17,9.82,9.82,0,0,1,3.59,7.81,6,6,0,0,1-.54,3.05,7.08,7.08,0,0,1-3.19,3.39,5.42,5.42,0,0,1-3.1.73,4.77,4.77,0,0,1-3.07-.74,6.25,6.25,0,0,1-2.74-3.13l-.16-.63-.4.86c-2.24,4.91-9.39,4.83-11.88-.12a10.6,10.6,0,0,1-.17-6.81c.91-2.47,2.62-4.35,6.59-7.23a37.68,37.68,0,0,0,5.75-5.14C392.32,439.59,392.1,440,393.15,441.16Z" transform="translate(-118 -68)"/></svg>