<?xml version="1.0" encoding="UTF-8" standalone="no"?>
<!-- Created with Inkscape (http://www.inkscape.org/) -->

<svg
   xmlns:dc="http://purl.org/dc/elements/1.1/"
   xmlns:cc="http://creativecommons.org/ns#"
   xmlns:rdf="http://www.w3.org/1999/02/22-rdf-syntax-ns#"
   xmlns:svg="http://www.w3.org/2000/svg"
   xmlns="http://www.w3.org/2000/svg"
   xmlns:sodipodi="http://sodipodi.sourceforge.net/DTD/sodipodi-0.dtd"
   xmlns:inkscape="http://www.inkscape.org/namespaces/inkscape"
   width="127"
   height="175"
   viewBox="0 0 127 175"
   id="svg2"
   version="1.1"
   inkscape:version="0.91 r13725"
   sodipodi:docname="card diamond.svg">
  <defs
     id="defs4" />
  <sodipodi:namedview
     id="base"
     pagecolor="#ffffff"
     bordercolor="#666666"
     borderopacity="1.0"
     inkscape:pageopacity="0.0"
     inkscape:pageshadow="2"
     inkscape:zoom="3.404"
     inkscape:cx="191.84843"
     inkscape:cy="125"
     inkscape:document-units="px"
     inkscape:current-layer="layer1"
     showgrid="false"
     units="px"
     inkscape:window-width="1920"
     inkscape:window-height="1018"
     inkscape:window-x="1272"
     inkscape:window-y="-8"
     inkscape:window-maximized="1" />
  <metadata
     id="metadata7">
    <rdf:RDF>
      <cc:Work
         rdf:about="">
        <dc:format>image/svg+xml</dc:format>
        <dc:type
           rdf:resource="http://purl.org/dc/dcmitype/StillImage" />
        <dc:title></dc:title>
      </cc:Work>
    </rdf:RDF>
  </metadata>
  <g
     inkscape:label="Layer 1"
     inkscape:groupmode="layer"
     id="layer1"
     transform="translate(0,-877.36216)">
    <path
       style="fill:#ff0000;fill-opacity:1;stroke:none"
       d="M 59.617823,1026.4045 C 54.076551,1017.027 35.802458,991.8393 22.320951,974.99722 15.544428,966.53149 10,959.28947 10,958.90385 c 0,-0.38562 2.498012,-3.68932 5.551138,-7.34155 14.779126,-17.67921 34.688967,-44.7342 42.813135,-58.17773 2.491067,-4.12211 4.836029,-7.13807 5.211026,-6.70213 0.374997,0.43594 3.911379,5.74741 7.858624,11.80326 8.617724,13.22128 27.37269,38.4164 38.049687,51.11535 l 7.73836,9.2038 -7.73836,9.2038 c -14.035208,16.69312 -34.03523,44.26125 -44.489713,61.32495 l -1.855601,3.0286 -3.520473,-5.9577 z"
       id="path5878"
       inkscape:connector-curvature="0" />
  </g>
</svg>
