<svg id="Layer_1" data-name="Layer 1" xmlns="http://www.w3.org/2000/svg" viewBox="0 0 305 463"><defs><style>.cls-1{fill:#fff;stroke-linecap:round;stroke-width:2px;}.cls-1,.cls-2{stroke:#000;}.cls-2{stroke-miterlimit:10;stroke-width:1.44px;}</style></defs><title>2</title><path class="cls-1" d="M24.06,0H281a22.2,22.2,0,0,1,16.3,6.75A22.2,22.2,0,0,1,304,23.05V438A23,23,0,0,1,281,461H24.06a22.22,22.22,0,0,1-16.3-6.75A22.2,22.2,0,0,1,1,438V23.05A22.2,22.2,0,0,1,7.76,6.75,22.22,22.22,0,0,1,24.06,0Z" transform="translate(-0.01 1)"/><g id="layer1"><path id="path3211" d="M31.48,66a5.92,5.92,0,0,0-2.63,11.23c.59.29-.05,1-.48.55a5.92,5.92,0,1,0,1.49,4c0-.57.88-.63.88.14,0,1.22-1.16,7.67-1.79,8.9a12.6,12.6,0,0,1,2.53-.31,12.59,12.59,0,0,1,2.52.31,45.45,45.45,0,0,1-1.79-8.9c0-.77.88-.71.88-.14a5.92,5.92,0,1,0,1.49-4c-.43.49-1.07-.26-.48-.55A5.92,5.92,0,0,0,31.48,66Z" transform="translate(-0.01 1)"/></g><path class="cls-2" d="M31.7,17.67h0A8,8,0,0,1,37,19.25h0a5.46,5.46,0,0,1,1.92,4.46h0a7.78,7.78,0,0,1-1,3.8h0a16.85,16.85,0,0,1-2.49,3.38h0c-1,1-2.26,2.25-3.86,3.68h0c-1.3,1.22-2.28,2.13-2.92,2.76h0a16.05,16.05,0,0,0-1.72,2h9.72a6.71,6.71,0,0,0,1.94-.21h0a1.41,1.41,0,0,0,.88-.72h0a5.67,5.67,0,0,0,.39-1.51h.81q0,4.41.19,6.37h0A54.61,54.61,0,0,0,33.66,43H22.46v-.81h0c.54-.58,1.46-1.49,2.77-2.73h0c1.82-1.69,3.34-3.22,4.55-4.57h0a22,22,0,0,0,3.14-4.62h0a12.08,12.08,0,0,0,1.31-5.51h0q0-5.18-4.78-5.17h0q-3.93,0-6.42,4.5h0l-.77-.43h0a11.37,11.37,0,0,1,3.55-4.29h0a9.65,9.65,0,0,1,5.89-1.7Z" transform="translate(-0.01 1)"/><path d="M273.55,395a5.92,5.92,0,0,0,2.62-11.23c-.58-.29.06-1,.49-.55a5.92,5.92,0,1,0-1.49-4c0,.57-.89.63-.89-.14,0-1.22,1.17-7.67,1.8-8.9a10.44,10.44,0,0,1-5.05,0,45.45,45.45,0,0,1,1.79,8.9c0,.77-.88.71-.89.14a5.92,5.92,0,1,0-1.49,4c.44-.49,1.08.26.49.55A5.92,5.92,0,0,0,273.55,395Z" transform="translate(-0.01 1)"/><path class="cls-2" d="M273.33,443.33h0a8,8,0,0,1-5.26-1.58h0a5.46,5.46,0,0,1-1.92-4.46h0a7.68,7.68,0,0,1,1-3.8h0a16.85,16.85,0,0,1,2.49-3.38h0c1-1,2.26-2.25,3.85-3.68h0c1.31-1.22,2.29-2.13,2.92-2.76h0a15.34,15.34,0,0,0,1.73-2h-9.72a6.71,6.71,0,0,0-1.94.21h0a1.43,1.43,0,0,0-.89.72h0a5.73,5.73,0,0,0-.38,1.51h-.81c0-2.94-.07-5.06-.19-6.37h0a54.61,54.61,0,0,0,7.13.24h11.2v.81h0c-.54.58-1.47,1.49-2.77,2.73h0c-1.82,1.69-3.34,3.22-4.55,4.57h0a21.6,21.6,0,0,0-3.14,4.62h0a12,12,0,0,0-1.31,5.51h0q0,5.17,4.78,5.17h0q3.93,0,6.42-4.5h0l.76.43h0a11.44,11.44,0,0,1-3.54,4.29h0a9.65,9.65,0,0,1-5.89,1.7Z" transform="translate(-0.01 1)"/><path d="M153.05,326a10.1,10.1,0,0,0,4.47-19.16c-1-.49.09-1.78.83-.94a10.09,10.09,0,1,0-2.54-6.83c0,1-1.51,1.08-1.51-.23,0-2.08,2-13.09,3.06-15.19a17.47,17.47,0,0,1-8.62,0c1.07,2.1,3.06,13.11,3.06,15.19,0,1.31-1.5,1.21-1.51.23a10.1,10.1,0,1,0-2.54,6.83c.74-.84,1.83.45.83.94A10.1,10.1,0,0,0,153.05,326Z" transform="translate(-0.01 1)"/><path d="M153,135a10.1,10.1,0,0,0-4.47,19.16c1,.49-.1,1.78-.83.94a10.09,10.09,0,1,0,2.54,6.83c0-1,1.51-1.08,1.51.23,0,2.08-2,13.09-3.06,15.19a17.47,17.47,0,0,1,8.62,0c-1.07-2.1-3.06-13.11-3.06-15.19,0-1.31,1.5-1.21,1.51-.23a10.1,10.1,0,1,0,2.54-6.83c-.74.84-1.83-.45-.83-.94A10.1,10.1,0,0,0,153,135Z" transform="translate(-0.01 1)"/></svg>