<svg id="Layer_1" data-name="Layer 1" xmlns="http://www.w3.org/2000/svg" viewBox="0 0 305 463"><defs><style>.cls-1{fill:#fff;stroke-linecap:round;stroke-width:2px;}.cls-1,.cls-2{stroke:#000;}.cls-2{stroke-miterlimit:10;stroke-width:1.44px;}</style></defs><title>3</title><path class="cls-1" d="M192.05,65H449a23,23,0,0,1,23.05,23V503A23,23,0,0,1,449,526H192.05A23,23,0,0,1,169,503V88.05a23,23,0,0,1,23.05-23Z" transform="translate(-168 -64)"/><g id="layer1"><path id="path3211" d="M199.46,131a5.92,5.92,0,0,0-2.62,11.23c.59.29-.05,1-.49.55a5.92,5.92,0,1,0,1.49,4c0-.57.89-.63.89.14a45.45,45.45,0,0,1-1.79,8.9,10.44,10.44,0,0,1,5.05,0c-.63-1.23-1.8-7.68-1.8-8.9,0-.77.88-.71.89-.14a5.92,5.92,0,1,0,1.49-4c-.43.49-1.08-.26-.49-.55A5.92,5.92,0,0,0,199.46,131Z" transform="translate(-168 -64)"/></g><path class="cls-2" d="M198.87,82.67h0a7.9,7.9,0,0,1,4.95,1.49h0a4.73,4.73,0,0,1,1.94,4h0a6.56,6.56,0,0,1-2.08,4.74h0A13.1,13.1,0,0,1,198.63,96h0a11,11,0,0,1,6.27,2h0a6.19,6.19,0,0,1,2.59,5.32h0a8.62,8.62,0,0,1-2.66,6.17h0a17.78,17.78,0,0,1-6.75,4.24h0a23.78,23.78,0,0,1-8.31,1.51h0v-.86h0a17.36,17.36,0,0,0,6.42-1.41h0a12,12,0,0,0,4.88-3.79h0a9.46,9.46,0,0,0,1.87-5.86h0a7.59,7.59,0,0,0-1.39-4.67h0a4.92,4.92,0,0,0-3.69-2h0c-.13.06-.45.2-1,.4h0a3.65,3.65,0,0,1-1.27.31h0c-.51,0-.76-.2-.76-.62h0a.76.76,0,0,1,.36-.67h0a1.52,1.52,0,0,1,.88-.24h0a7.49,7.49,0,0,1,.79.07h0l.89.12h0a9.51,9.51,0,0,0,2.77-3.2h0a8,8,0,0,0,.91-3.69h0a4.31,4.31,0,0,0-1.1-3.26h0a4.24,4.24,0,0,0-3.06-1h0a6.43,6.43,0,0,0-3.64,1.08h0A8.29,8.29,0,0,0,190.92,89h0l-.81-.38h0q2.77-6,8.76-6Z" transform="translate(-168 -64)"/><path d="M441.54,460a5.92,5.92,0,0,0,2.62-11.23c-.59-.29,0-1,.49-.55a5.92,5.92,0,1,0-1.49-4c0,.57-.89.63-.89-.14a45.45,45.45,0,0,1,1.79-8.9,10.44,10.44,0,0,1-5.05,0c.63,1.23,1.8,7.68,1.8,8.9,0,.77-.88.71-.89.14a5.92,5.92,0,1,0-1.49,4c.43-.49,1.08.26.49.55A5.92,5.92,0,0,0,441.54,460Z" transform="translate(-168 -64)"/><path class="cls-2" d="M442.13,508.33h0a7.9,7.9,0,0,1-4.95-1.49h0a4.73,4.73,0,0,1-1.94-4h0a6.56,6.56,0,0,1,2.08-4.74h0a13.1,13.1,0,0,1,5.05-3.16h0a11,11,0,0,1-6.27-2h0a6.19,6.19,0,0,1-2.59-5.32h0a8.62,8.62,0,0,1,2.66-6.17h0a17.78,17.78,0,0,1,6.75-4.24h0a23.78,23.78,0,0,1,8.31-1.51h0v.86h0a17.36,17.36,0,0,0-6.42,1.41h0a12,12,0,0,0-4.88,3.79h0a9.46,9.46,0,0,0-1.87,5.86h0a7.59,7.59,0,0,0,1.39,4.67h0a4.92,4.92,0,0,0,3.69,2h0c.13-.06.45-.2,1-.4h0a3.65,3.65,0,0,1,1.27-.31h0c.51,0,.76.2.76.62h0a.76.76,0,0,1-.36.67h0a1.52,1.52,0,0,1-.88.24h0a7.49,7.49,0,0,1-.79-.07h0l-.89-.12h0a9.51,9.51,0,0,0-2.77,3.2h0a8,8,0,0,0-.91,3.69h0a4.31,4.31,0,0,0,1.1,3.26h0a4.24,4.24,0,0,0,3.06,1.05h0a6.43,6.43,0,0,0,3.64-1.08h0a8.29,8.29,0,0,0,2.73-3.18h0l.81.38h0q-2.77,6-8.76,6Z" transform="translate(-168 -64)"/><path d="M321,126a10.1,10.1,0,0,0-4.47,19.16c1,.49-.09,1.78-.83.94a10.09,10.09,0,1,0,2.54,6.83c0-1,1.52-1.08,1.52.23,0,2.08-2,13.09-3.06,15.19a17.43,17.43,0,0,1,8.61,0c-1.06-2.1-3.06-13.11-3.06-15.19,0-1.31,1.5-1.21,1.51-.23a10.12,10.12,0,1,0,2.55-6.83c-.74.84-1.84-.45-.83-.94A10.1,10.1,0,0,0,321,126Z" transform="translate(-168 -64)"/><path d="M321,465a10.1,10.1,0,0,0,4.47-19.16c-1-.49.09-1.78.83-.94a10.09,10.09,0,1,0-2.54-6.83c0,1-1.52,1.08-1.52-.23,0-2.08,2-13.09,3.06-15.19a17.43,17.43,0,0,1-8.61,0c1.06,2.1,3.06,13.11,3.06,15.19,0,1.31-1.5,1.21-1.51.23a10.12,10.12,0,1,0-2.55,6.83c.74-.84,1.84.45.83.94A10.1,10.1,0,0,0,321,465Z" transform="translate(-168 -64)"/><path d="M321,274a10.1,10.1,0,0,0-4.47,19.16c1,.49-.09,1.78-.83.94a10.09,10.09,0,1,0,2.54,6.83c0-1,1.52-1.08,1.52.23,0,2.08-2,13.09-3.06,15.19a17.43,17.43,0,0,1,8.61,0c-1.06-2.1-3.06-13.11-3.06-15.19,0-1.31,1.5-1.21,1.51-.23a10.12,10.12,0,1,0,2.55-6.83c-.74.84-1.84-.45-.83-.94A10.1,10.1,0,0,0,321,274Z" transform="translate(-168 -64)"/></svg>