<svg id="Layer_1" data-name="Layer 1" xmlns="http://www.w3.org/2000/svg" viewBox="0 0 305 463"><defs><style>.cls-1{fill:#fff;stroke-linecap:round;stroke-width:2px;}.cls-1,.cls-2{stroke:#000;}.cls-2{stroke-miterlimit:10;stroke-width:1.44px;}</style></defs><title>5</title><path class="cls-1" d="M147.05,80H404a23,23,0,0,1,23.05,23V518A23,23,0,0,1,404,541H147.05A23,23,0,0,1,124,518V103.05a23,23,0,0,1,23.05-23Z" transform="translate(-123 -79)"/><g id="layer1"><path id="path3211" d="M154.46,146a5.92,5.92,0,0,0-2.62,11.23c.59.29-.05,1-.49.55a5.92,5.92,0,1,0,1.49,4c0-.57.89-.63.89.14a45.45,45.45,0,0,1-1.79,8.9,10.44,10.44,0,0,1,5.05,0c-.63-1.23-1.8-7.68-1.8-8.9,0-.77.88-.71.89-.14a5.92,5.92,0,1,0,1.49-4c-.43.49-1.08-.26-.49-.55A5.92,5.92,0,0,0,154.46,146Z" transform="translate(-123 -79)"/></g><path class="cls-2" d="M160,95.62h0q0,4.88.19,7h0a47.9,47.9,0,0,0-6.65-.24h-5.08l-.57,9.24h0a17,17,0,0,1,2.58-1.06h0a10.58,10.58,0,0,1,3-.38h0c2.78,0,4.88.68,6.32,2h0a7,7,0,0,1,2.15,5.33h0a9.67,9.67,0,0,1-2.32,6.35h0a15.33,15.33,0,0,1-6,4.33h0a19.27,19.27,0,0,1-7.5,1.53h0v-.86h0a12.87,12.87,0,0,0,5.49-1.29h0a10.33,10.33,0,0,0,4.16-3.69h0a10.48,10.48,0,0,0,1.6-5.89h0a6.65,6.65,0,0,0-1.57-4.71h0a5.77,5.77,0,0,0-4.46-1.7h0a8.56,8.56,0,0,0-2,.19h0a16.21,16.21,0,0,0-2,.62h0l-.48-.29.91-14.26h0a13.59,13.59,0,0,0,2.58.19h5.41a6.31,6.31,0,0,0,1.94-.22h0a1.42,1.42,0,0,0,.89-.71h0a5.73,5.73,0,0,0,.38-1.51H160Z" transform="translate(-123 -79)"/><path d="M396.54,475a5.92,5.92,0,0,0,2.62-11.23c-.59-.29,0-1,.49-.55a5.92,5.92,0,1,0-1.49-4c0,.57-.89.63-.89-.14a45.45,45.45,0,0,1,1.79-8.9,10.44,10.44,0,0,1-5.05,0c.63,1.23,1.8,7.68,1.8,8.9,0,.77-.88.71-.89.14a5.92,5.92,0,1,0-1.49,4c.43-.49,1.08.26.49.55A5.92,5.92,0,0,0,396.54,475Z" transform="translate(-123 -79)"/><path class="cls-2" d="M391,525.38h0q0-4.87-.19-7h0a47.9,47.9,0,0,0,6.65.24h5.08l.57-9.24h0a17,17,0,0,1-2.58,1.06h0a10.58,10.58,0,0,1-3,.38h0c-2.78,0-4.88-.68-6.32-2h0a7,7,0,0,1-2.15-5.33h0a9.67,9.67,0,0,1,2.32-6.35h0a15.33,15.33,0,0,1,6-4.33h0a19.27,19.27,0,0,1,7.5-1.53h0v.86h0a12.87,12.87,0,0,0-5.49,1.29h0a10.33,10.33,0,0,0-4.16,3.69h0a10.48,10.48,0,0,0-1.6,5.89h0a6.65,6.65,0,0,0,1.57,4.71h0a5.77,5.77,0,0,0,4.46,1.7h0a8.56,8.56,0,0,0,2-.19h0a16.21,16.21,0,0,0,2-.62h0l.48.29-.91,14.26h0a13.59,13.59,0,0,0-2.58-.19h-5.41a6.31,6.31,0,0,0-1.94.22h0a1.42,1.42,0,0,0-.89.71h0a5.73,5.73,0,0,0-.38,1.51H391Z" transform="translate(-123 -79)"/><path d="M207,141a10.1,10.1,0,0,0-4.47,19.16c1,.49-.09,1.78-.83.94a10.09,10.09,0,1,0,2.54,6.83c0-1,1.52-1.08,1.52.23,0,2.08-2,13.09-3.06,15.19a17.43,17.43,0,0,1,8.61,0c-1.06-2.1-3.06-13.11-3.06-15.19,0-1.31,1.5-1.21,1.51-.23a10.12,10.12,0,1,0,2.55-6.83c-.74.84-1.84-.45-.83-.94A10.1,10.1,0,0,0,207,141Z" transform="translate(-123 -79)"/><path d="M207,480.35a10.1,10.1,0,0,0,4.48-19.16c-1-.49.09-1.78.83-.95a10.08,10.08,0,1,0-2.55-6.82c0,1-1.51,1.08-1.51-.24,0-2.07,2-13.08,3.06-15.18a17.43,17.43,0,0,1-8.61,0c1.06,2.1,3.06,13.11,3.06,15.18,0,1.32-1.51,1.22-1.52.24a10.11,10.11,0,1,0-2.54,6.82c.74-.83,1.84.46.83.95A10.1,10.1,0,0,0,207,480.35Z" transform="translate(-123 -79)"/><path d="M344,141a10.1,10.1,0,0,0-4.47,19.16c1,.49-.09,1.78-.83.94a10.09,10.09,0,1,0,2.54,6.83c0-1,1.52-1.08,1.52.23,0,2.08-2,13.09-3.06,15.19a17.43,17.43,0,0,1,8.61,0c-1.06-2.1-3.06-13.11-3.06-15.19,0-1.31,1.5-1.21,1.51-.23a10.12,10.12,0,1,0,2.55-6.83c-.74.84-1.84-.45-.83-.94A10.1,10.1,0,0,0,344,141Z" transform="translate(-123 -79)"/><path d="M344,480.35a10.1,10.1,0,0,0,4.48-19.16c-1-.49.09-1.78.83-.95a10.08,10.08,0,1,0-2.55-6.82c0,1-1.51,1.08-1.51-.24,0-2.07,2-13.08,3.06-15.18a17.43,17.43,0,0,1-8.61,0c1.06,2.1,3.06,13.11,3.06,15.18,0,1.32-1.51,1.22-1.52.24a10.11,10.11,0,1,0-2.54,6.82c.74-.83,1.84.46.83.95A10.1,10.1,0,0,0,344,480.35Z" transform="translate(-123 -79)"/><path d="M276,289a10.1,10.1,0,0,0-4.47,19.16c1,.49-.09,1.78-.83.94a10.09,10.09,0,1,0,2.54,6.83c0-1,1.52-1.08,1.52.23,0,2.08-2,13.09-3.06,15.19a17.43,17.43,0,0,1,8.61,0c-1.06-2.1-3.06-13.11-3.06-15.19,0-1.31,1.5-1.21,1.51-.23a10.12,10.12,0,1,0,2.55-6.83c-.74.84-1.84-.45-.83-.94A10.1,10.1,0,0,0,276,289Z" transform="translate(-123 -79)"/></svg>