<svg id="Layer_1" data-name="Layer 1" xmlns="http://www.w3.org/2000/svg" viewBox="0 0 305 463"><defs><style>.cls-1{fill:#fff;stroke-linecap:round;stroke-width:2px;}.cls-1,.cls-2{stroke:#000;}.cls-2{stroke-miterlimit:10;stroke-width:1.44px;}</style></defs><title>8</title><path class="cls-1" d="M81.05,65H338a23,23,0,0,1,23.05,23V503A23,23,0,0,1,338,526H81.05A23,23,0,0,1,58,503V88.05a23,23,0,0,1,23-23Z" transform="translate(-57 -64)"/><g id="layer1"><path id="path3211" d="M88.46,131a5.92,5.92,0,0,0-2.62,11.23c.59.29,0,1-.49.55a5.92,5.92,0,1,0,1.49,4c0-.57.89-.63.89.14a45.45,45.45,0,0,1-1.79,8.9,10.44,10.44,0,0,1,5,0c-.63-1.23-1.8-7.68-1.8-8.9,0-.77.88-.71.89-.14a5.92,5.92,0,1,0,1.49-4c-.43.49-1.08-.26-.49-.55A5.92,5.92,0,0,0,88.46,131Z" transform="translate(-57 -64)"/></g><path class="cls-2" d="M90.47,88.86h0c1.79,1.32,3.18,2.41,4.17,3.29h0a12.9,12.9,0,0,1,2.57,3.19h0a8.43,8.43,0,0,1,1.08,4.28h0A8.66,8.66,0,0,1,97,104.39h0a9,9,0,0,1-3.7,3.24h0a11.92,11.92,0,0,1-5.33,1.15h0a11.1,11.1,0,0,1-6.86-2.08h0a7,7,0,0,1-2.79-6h0a9.06,9.06,0,0,1,2.12-5.9h0A16.53,16.53,0,0,1,86,90.5h0a26.26,26.26,0,0,1-4.51-4.56h0a8.27,8.27,0,0,1-1.58-5h0A6.81,6.81,0,0,1,81,77h0a7.65,7.65,0,0,1,3.17-2.64h0a10.5,10.5,0,0,1,4.46-.93h0a9.09,9.09,0,0,1,5.67,1.72h0A5.78,5.78,0,0,1,96.56,80h0A7.88,7.88,0,0,1,95,84.78h0A17.28,17.28,0,0,1,90.47,88.86ZM88.11,74.32h0a4.19,4.19,0,0,0-3.24,1.39h0a5.39,5.39,0,0,0-1.27,3.75h0a7.26,7.26,0,0,0,1.56,4.68h0a25.65,25.65,0,0,0,4.59,4.2h0a10.12,10.12,0,0,0,3-7.68h0a7.94,7.94,0,0,0-1.2-4.61h0A3.9,3.9,0,0,0,88.11,74.32Zm.1,33.6h0a5.88,5.88,0,0,0,4.27-1.68h0a6.15,6.15,0,0,0,1.73-4.61h0a8,8,0,0,0-1-4h0a12.86,12.86,0,0,0-2.45-3.1h0c-.94-.86-2.3-2-4.06-3.41h0q-4.17,3-4.17,8.93h0a10.58,10.58,0,0,0,1.39,5.66h0a4.71,4.71,0,0,0,4.32,2.26Z" transform="translate(-57 -64)"/><path d="M330.54,460a5.92,5.92,0,0,0,2.62-11.23c-.59-.29,0-1,.49-.55a5.92,5.92,0,1,0-1.49-4c0,.57-.89.63-.89-.14a45.45,45.45,0,0,1,1.79-8.9,10.44,10.44,0,0,1-5.05,0c.63,1.23,1.8,7.68,1.8,8.9,0,.77-.88.71-.89.14a5.92,5.92,0,1,0-1.49,4c.43-.49,1.08.26.49.55A5.92,5.92,0,0,0,330.54,460Z" transform="translate(-57 -64)"/><path class="cls-2" d="M328.53,502.14h0c-1.79-1.32-3.18-2.41-4.17-3.29h0a12.9,12.9,0,0,1-2.57-3.19h0a8.43,8.43,0,0,1-1.08-4.28h0a8.66,8.66,0,0,1,1.34-4.77h0a9,9,0,0,1,3.7-3.24h0a11.92,11.92,0,0,1,5.33-1.15h0a11.1,11.1,0,0,1,6.86,2.08h0a7,7,0,0,1,2.79,6h0a9.06,9.06,0,0,1-2.12,5.9h0a16.53,16.53,0,0,1-5.56,4.32h0a26.26,26.26,0,0,1,4.51,4.56h0a8.27,8.27,0,0,1,1.58,5h0A6.81,6.81,0,0,1,338,514h0a7.65,7.65,0,0,1-3.17,2.64h0a10.5,10.5,0,0,1-4.46.93h0a9.09,9.09,0,0,1-5.67-1.72h0a5.78,5.78,0,0,1-2.25-4.85h0a7.88,7.88,0,0,1,1.58-4.75h0A17.28,17.28,0,0,1,328.53,502.14Zm2.36,14.54h0a4.19,4.19,0,0,0,3.24-1.39h0a5.39,5.39,0,0,0,1.27-3.75h0a7.26,7.26,0,0,0-1.56-4.68h0a25.65,25.65,0,0,0-4.59-4.2h0a10.12,10.12,0,0,0-3,7.68h0a7.94,7.94,0,0,0,1.2,4.61h0A3.9,3.9,0,0,0,330.89,516.68Zm-.1-33.6h0a5.88,5.88,0,0,0-4.27,1.68h0a6.15,6.15,0,0,0-1.73,4.61h0a8,8,0,0,0,1,4.05h0a12.86,12.86,0,0,0,2.45,3.1h0c.94.86,2.3,2,4.06,3.41h0q4.17-3,4.17-8.93h0a10.58,10.58,0,0,0-1.39-5.66h0a4.71,4.71,0,0,0-4.32-2.26Z" transform="translate(-57 -64)"/><path d="M141,126a10.1,10.1,0,0,0-4.47,19.16c1,.49-.09,1.78-.83.94a10.09,10.09,0,1,0,2.54,6.83c0-1,1.52-1.08,1.52.23,0,2.08-2,13.09-3.06,15.19a17.43,17.43,0,0,1,8.61,0c-1.06-2.1-3.06-13.11-3.06-15.19,0-1.31,1.5-1.21,1.51-.23a10.12,10.12,0,1,0,2.55-6.83c-.74.84-1.84-.45-.83-.94A10.1,10.1,0,0,0,141,126Z" transform="translate(-57 -64)"/><path d="M210,391a10.1,10.1,0,0,0,4.47-19.16c-1-.49.09-1.78.83-.94a10.09,10.09,0,1,0-2.54-6.83c0,1-1.52,1.08-1.52-.23,0-2.08,2-13.09,3.06-15.19a17.43,17.43,0,0,1-8.61,0c1.06,2.1,3.06,13.11,3.06,15.19,0,1.31-1.5,1.21-1.51.23a10.12,10.12,0,1,0-2.55,6.83c.74-.84,1.84.45.83.94A10.1,10.1,0,0,0,210,391Z" transform="translate(-57 -64)"/><path d="M141,465.35a10.1,10.1,0,0,0,4.48-19.16c-1-.49.09-1.78.83-.95a10.08,10.08,0,1,0-2.55-6.82c0,1-1.51,1.08-1.51-.24,0-2.07,2-13.08,3.06-15.18a17.43,17.43,0,0,1-8.61,0c1.06,2.1,3.06,13.11,3.06,15.18,0,1.32-1.51,1.22-1.52.24a10.11,10.11,0,1,0-2.54,6.82c.74-.83,1.84.46.83.95A10.1,10.1,0,0,0,141,465.35Z" transform="translate(-57 -64)"/><path d="M141,274a10.1,10.1,0,0,0-4.47,19.16c1,.49-.09,1.78-.83.94a10.09,10.09,0,1,0,2.54,6.83c0-1,1.52-1.08,1.52.23,0,2.08-2,13.09-3.06,15.19a17.43,17.43,0,0,1,8.61,0c-1.06-2.1-3.06-13.11-3.06-15.19,0-1.31,1.5-1.21,1.51-.23a10.12,10.12,0,1,0,2.55-6.83c-.74.84-1.84-.45-.83-.94A10.1,10.1,0,0,0,141,274Z" transform="translate(-57 -64)"/><path d="M278,126a10.1,10.1,0,0,0-4.47,19.16c1,.49-.09,1.78-.83.94a10.09,10.09,0,1,0,2.54,6.83c0-1,1.52-1.08,1.52.23,0,2.08-2,13.09-3.06,15.19a17.43,17.43,0,0,1,8.61,0c-1.06-2.1-3.06-13.11-3.06-15.19,0-1.31,1.5-1.21,1.51-.23a10.12,10.12,0,1,0,2.55-6.83c-.74.84-1.84-.45-.83-.94A10.1,10.1,0,0,0,278,126Z" transform="translate(-57 -64)"/><path d="M278,465.35a10.1,10.1,0,0,0,4.48-19.16c-1-.49.09-1.78.83-.95a10.08,10.08,0,1,0-2.55-6.82c0,1-1.51,1.08-1.51-.24,0-2.07,2-13.08,3.06-15.18a17.43,17.43,0,0,1-8.61,0c1.06,2.1,3.06,13.11,3.06,15.18,0,1.32-1.51,1.22-1.52.24a10.11,10.11,0,1,0-2.54,6.82c.74-.83,1.84.46.83.95A10.1,10.1,0,0,0,278,465.35Z" transform="translate(-57 -64)"/><path d="M278,274a10.1,10.1,0,0,0-4.47,19.16c1,.49-.09,1.78-.83.94a10.09,10.09,0,1,0,2.54,6.83c0-1,1.52-1.08,1.52.23,0,2.08-2,13.09-3.06,15.19a17.43,17.43,0,0,1,8.61,0c-1.06-2.1-3.06-13.11-3.06-15.19,0-1.31,1.5-1.21,1.51-.23a10.12,10.12,0,1,0,2.55-6.83c-.74.84-1.84-.45-.83-.94A10.1,10.1,0,0,0,278,274Z" transform="translate(-57 -64)"/><path d="M210,200a10.1,10.1,0,0,0-4.47,19.16c1,.49-.09,1.78-.83.94a10.09,10.09,0,1,0,2.54,6.83c0-1,1.52-1.08,1.52.23,0,2.08-2,13.09-3.06,15.19a17.43,17.43,0,0,1,8.61,0c-1.06-2.1-3.06-13.11-3.06-15.19,0-1.31,1.5-1.21,1.51-.23a10.12,10.12,0,1,0,2.55-6.83c-.74.84-1.84-.45-.83-.94A10.1,10.1,0,0,0,210,200Z" transform="translate(-57 -64)"/></svg>