<svg id="Layer_1" data-name="Layer 1" xmlns="http://www.w3.org/2000/svg" viewBox="0 0 305 463"><defs><style>.cls-1{fill:#fff;stroke-linecap:round;stroke-width:2px;}.cls-1,.cls-2{stroke:#000;}.cls-2{stroke-miterlimit:10;stroke-width:1.44px;}</style></defs><title>9</title><path class="cls-1" d="M104.05,37H361a23,23,0,0,1,23.05,23V475A23,23,0,0,1,361,498H104.05A23,23,0,0,1,81,475V60.05a23,23,0,0,1,23-23Z" transform="translate(-80 -36)"/><g id="layer1"><path id="path3211" d="M111.46,103a5.92,5.92,0,0,0-2.62,11.23c.59.29,0,1-.49.55a5.92,5.92,0,1,0,1.49,4c0-.57.89-.63.89.14a45.45,45.45,0,0,1-1.79,8.9,10.44,10.44,0,0,1,5,0c-.63-1.23-1.8-7.68-1.8-8.9,0-.77.88-.71.89-.14a5.92,5.92,0,1,0,1.49-4c-.43.49-1.08-.26-.49-.55A5.92,5.92,0,0,0,111.46,103Z" transform="translate(-80 -36)"/></g><path class="cls-2" d="M111.11,54.72h0a8.57,8.57,0,0,1,7.2,3.34h0q2.59,3.33,2.6,9.33h0a19.79,19.79,0,0,1-2.57,10.37h0a18.87,18.87,0,0,1-6.29,6.55h0a20.91,20.91,0,0,1-7.42,2.91h0l-.19-1h0a17.54,17.54,0,0,0,7.39-4.13h0q3-2.88,4-9.27h0a6.52,6.52,0,0,1-3,2.72h0a9,9,0,0,1-3.7.84h0a7.85,7.85,0,0,1-4.27-1.25h0a8.91,8.91,0,0,1-3.17-3.63h0a12.22,12.22,0,0,1-1.2-5.59h0A12.33,12.33,0,0,1,102,59.9h0A9.66,9.66,0,0,1,105.79,56h0A10.85,10.85,0,0,1,111.11,54.72ZM110.39,75h0a6.47,6.47,0,0,0,3.24-.91h0a5.64,5.64,0,0,0,2.43-2.93h0a29.87,29.87,0,0,0,.19-3.69h0q0-6.39-1.63-9.1h0q-1.64-2.72-4-2.71h0a4.51,4.51,0,0,0-3.88,2.45h0q-1.55,2.44-1.54,7.49h0q0,4.89,1.44,7.15h0A4.31,4.31,0,0,0,110.39,75Z" transform="translate(-80 -36)"/><path d="M353.54,432a5.92,5.92,0,0,0,2.62-11.23c-.59-.29,0-1,.49-.55a5.92,5.92,0,1,0-1.49-4c0,.57-.89.63-.89-.14a45.45,45.45,0,0,1,1.79-8.9,10.44,10.44,0,0,1-5.05,0c.63,1.23,1.8,7.68,1.8,8.9,0,.77-.88.71-.89.14a5.92,5.92,0,1,0-1.49,4c.43-.49,1.08.26.49.55A5.92,5.92,0,0,0,353.54,432Z" transform="translate(-80 -36)"/><path class="cls-2" d="M353.89,480.28h0a8.57,8.57,0,0,1-7.2-3.34h0q-2.6-3.33-2.6-9.33h0a19.79,19.79,0,0,1,2.57-10.37h0a18.87,18.87,0,0,1,6.29-6.55h0a20.91,20.91,0,0,1,7.42-2.91h0l.19,1h0a17.54,17.54,0,0,0-7.39,4.13h0q-3,2.88-4,9.27h0a6.52,6.52,0,0,1,3-2.72h0a9,9,0,0,1,3.7-.84h0a7.85,7.85,0,0,1,4.27,1.25h0a8.91,8.91,0,0,1,3.17,3.63h0a12.22,12.22,0,0,1,1.2,5.59h0A12.33,12.33,0,0,1,363,475.1h0a9.66,9.66,0,0,1-3.82,3.86h0A10.85,10.85,0,0,1,353.89,480.28Zm.72-20.3h0a6.47,6.47,0,0,0-3.24.91h0a5.64,5.64,0,0,0-2.43,2.93h0a29.87,29.87,0,0,0-.19,3.69h0q0,6.39,1.63,9.1h0q1.64,2.72,4,2.71h0a4.51,4.51,0,0,0,3.88-2.45h0q1.54-2.44,1.54-7.49h0q0-4.89-1.44-7.15h0a4.31,4.31,0,0,0-3.74-2.25Z" transform="translate(-80 -36)"/><path d="M164,98a10.1,10.1,0,0,0-4.47,19.16c1,.49-.09,1.78-.83.94a10.09,10.09,0,1,0,2.54,6.83c0-1,1.52-1.08,1.52.23,0,2.08-2,13.09-3.06,15.19a17.43,17.43,0,0,1,8.61,0c-1.06-2.1-3.06-13.11-3.06-15.19,0-1.31,1.5-1.21,1.51-.23a10.12,10.12,0,1,0,2.55-6.83c-.74.84-1.84-.45-.83-.94A10.1,10.1,0,0,0,164,98Z" transform="translate(-80 -36)"/><path d="M164,197a10.1,10.1,0,0,0-4.47,19.16c1,.49-.09,1.78-.83.94a10.09,10.09,0,1,0,2.54,6.83c0-1,1.52-1.08,1.52.23,0,2.08-2,13.09-3.06,15.19a17.43,17.43,0,0,1,8.61,0c-1.06-2.1-3.06-13.11-3.06-15.19,0-1.31,1.5-1.21,1.51-.23a10.12,10.12,0,1,0,2.55-6.83c-.74.84-1.84-.45-.83-.94A10.1,10.1,0,0,0,164,197Z" transform="translate(-80 -36)"/><path d="M164,437.35a10.1,10.1,0,0,0,4.48-19.16c-1-.49.09-1.78.83-.95a10.08,10.08,0,1,0-2.55-6.82c0,1-1.51,1.08-1.51-.24,0-2.07,2-13.08,3.06-15.18a17.43,17.43,0,0,1-8.61,0c1.06,2.1,3.06,13.11,3.06,15.18,0,1.32-1.51,1.22-1.52.24a10.11,10.11,0,1,0-2.54,6.82c.74-.83,1.84.46.83.95A10.1,10.1,0,0,0,164,437.35Z" transform="translate(-80 -36)"/><path d="M164,338.35a10.1,10.1,0,0,0,4.48-19.16c-1-.49.09-1.78.83-.95a10.08,10.08,0,1,0-2.55-6.82c0,1-1.51,1.08-1.51-.24,0-2.07,2-13.08,3.06-15.18a17.43,17.43,0,0,1-8.61,0c1.06,2.1,3.06,13.11,3.06,15.18,0,1.32-1.51,1.22-1.52.24a10.11,10.11,0,1,0-2.54,6.82c.74-.83,1.84.46.83.95A10.1,10.1,0,0,0,164,338.35Z" transform="translate(-80 -36)"/><path d="M233,247a10.1,10.1,0,0,0-4.47,19.16c1,.49-.09,1.78-.83.94a10.09,10.09,0,1,0,2.54,6.83c0-1,1.52-1.08,1.52.23,0,2.08-2,13.09-3.06,15.19a17.43,17.43,0,0,1,8.61,0c-1.06-2.1-3.06-13.11-3.06-15.19,0-1.31,1.5-1.21,1.51-.23a10.12,10.12,0,1,0,2.55-6.83c-.74.84-1.84-.45-.83-.94A10.1,10.1,0,0,0,233,247Z" transform="translate(-80 -36)"/><path d="M301,98a10.1,10.1,0,0,0-4.47,19.16c1,.49-.09,1.78-.83.94a10.09,10.09,0,1,0,2.54,6.83c0-1,1.52-1.08,1.52.23,0,2.08-2,13.09-3.06,15.19a17.43,17.43,0,0,1,8.61,0c-1.06-2.1-3.06-13.11-3.06-15.19,0-1.31,1.5-1.21,1.51-.23a10.12,10.12,0,1,0,2.55-6.83c-.74.84-1.84-.45-.83-.94A10.1,10.1,0,0,0,301,98Z" transform="translate(-80 -36)"/><path d="M301,197a10.1,10.1,0,0,0-4.47,19.16c1,.49-.09,1.78-.83.94a10.09,10.09,0,1,0,2.54,6.83c0-1,1.52-1.08,1.52.23,0,2.08-2,13.09-3.06,15.19a17.43,17.43,0,0,1,8.61,0c-1.06-2.1-3.06-13.11-3.06-15.19,0-1.31,1.5-1.21,1.51-.23a10.12,10.12,0,1,0,2.55-6.83c-.74.84-1.84-.45-.83-.94A10.1,10.1,0,0,0,301,197Z" transform="translate(-80 -36)"/><path d="M301,437.35a10.1,10.1,0,0,0,4.48-19.16c-1-.49.09-1.78.83-.95a10.08,10.08,0,1,0-2.55-6.82c0,1-1.51,1.08-1.51-.24,0-2.07,2-13.08,3.06-15.18a17.43,17.43,0,0,1-8.61,0c1.06,2.1,3.06,13.11,3.06,15.18,0,1.32-1.51,1.22-1.52.24a10.11,10.11,0,1,0-2.54,6.82c.74-.83,1.84.46.83.95A10.1,10.1,0,0,0,301,437.35Z" transform="translate(-80 -36)"/><path d="M301,338.35a10.1,10.1,0,0,0,4.48-19.16c-1-.49.09-1.78.83-.95a10.08,10.08,0,1,0-2.55-6.82c0,1-1.51,1.08-1.51-.24,0-2.07,2-13.08,3.06-15.18a17.43,17.43,0,0,1-8.61,0c1.06,2.1,3.06,13.11,3.06,15.18,0,1.32-1.51,1.22-1.52.24a10.11,10.11,0,1,0-2.54,6.82c.74-.83,1.84.46.83.95A10.1,10.1,0,0,0,301,338.35Z" transform="translate(-80 -36)"/></svg>