<?xml version="1.0" encoding="utf-8"?>
<!-- Generator: Adobe Illustrator 23.0.2, SVG Export Plug-In . SVG Version: 6.00 Build 0)  -->
<svg version="1.1" id="Layer_1" xmlns="http://www.w3.org/2000/svg" xmlns:xlink="http://www.w3.org/1999/xlink" x="0px" y="0px"
	 viewBox="0 0 305 463" style="enable-background:new 0 0 305 463;" xml:space="preserve">
<style type="text/css">
	.st0{fill:#FFFFFF;stroke:#000000;stroke-width:2;stroke-linecap:round;}
	.st1{fill:#FF0000;stroke:#FF0000;stroke-width:1.44;stroke-miterlimit:10;}
	.st2{fill:#FF0000;stroke:#FF0000;stroke-width:3.42;stroke-miterlimit:10;}
	.st3{fill:#FF0000;}
</style>
<title>Queen</title>
<path class="st0" d="M24,1h257c6.1-0.1,12,2.3,16.3,6.8c4.4,4.3,6.8,10.2,6.7,16.3v415c0,12.7-10.3,23-23,23H24
	c-12.7,0-23-10.2-23-22.9c0,0,0,0,0-0.1V24C0.9,17.9,3.3,12,7.8,7.8C12,3.3,17.9,0.9,24,1z"/>
<path class="st1" d="M48.8,45.1l0.7,0.3l0,0c-0.5,2.1-1.5,3.9-3,5.5l0,0c-1.8,1.5-4.1,2.3-6.5,2.2l0,0c-1.5,0-2.9-0.2-4.3-0.7l0,0
	c-1.8-0.6-3.6-1.3-5.3-2.1l0,0c-2.4-1-4.3-1.8-5.8-2.3l0,0l-1.2-0.3l0,0c-1.3,0.5-2.6,0.7-4,0.7l0,0c-1.5,0-2.2-0.3-2.2-1l0,0
	c0-0.7,0.9-1,2.6-1l0,0c1.2,0,2.4,0.1,3.6,0.4l0,0c1.2-0.3,2.4-0.8,3.5-1.3l0,0c0.8-0.4,1.5-0.7,1.9-0.8l0,0c-2.5-0.2-5-1.1-7-2.6
	l0,0c-2.1-1.5-3.7-3.6-4.6-5.9l0,0c-1.2-2.8-1.7-5.8-1.7-8.8l0,0c-0.1-3.2,0.6-6.4,1.9-9.3l0,0c1.2-2.6,3-4.8,5.4-6.3l0,0
	c2.3-1.5,5.1-2.3,7.9-2.3l0,0c2.8-0.1,5.6,0.6,8,2.1l0,0c2.3,1.4,4.2,3.5,5.3,6l0,0c1.3,2.9,2,6.1,1.9,9.3l0,0
	c0.1,3.1-0.5,6.1-1.7,8.9l0,0c-1,2.5-2.7,4.6-4.8,6.2l0,0c-2.1,1.6-4.5,2.5-7.1,2.7l0,0v0.1l0,0c-0.7,0.1-1.3,0.2-2,0.4l0,0
	c-0.6,0.2-1.3,0.4-2.2,0.8l0,0c-0.9,0.4-1.9,0.8-2.9,1.1l0,0c3.5,0.7,6.5,1.3,9,1.7l0,0c2,0.4,4.1,0.6,6.2,0.6l0,0
	c1.8,0.1,3.7-0.3,5.4-1l0,0C47.1,47.6,48.2,46.5,48.8,45.1z M20.3,27.2L20.3,27.2c-0.1,3,0.4,5.9,1.4,8.8l0,0
	c0.8,2.2,2.1,4.2,3.8,5.8l0,0c1.5,1.3,3.4,2.1,5.4,2.1l0,0c2,0,3.9-0.7,5.4-2.1l0,0c1.7-1.7,2.9-3.7,3.6-6l0,0
	c0.9-2.8,1.3-5.7,1.3-8.7l0,0c0.1-3-0.4-5.9-1.4-8.8l0,0C39,16,37.7,14,35.9,12.4l0,0c-1.5-1.3-3.4-2.1-5.4-2l0,0
	c-2,0-3.9,0.7-5.4,2.1l0,0c-1.7,1.7-2.9,3.7-3.6,6l0,0C20.7,21.3,20.3,24.3,20.3,27.2L20.3,27.2z"/>
<path class="st1" d="M256.2,417.9l-0.7-0.3l0,0c0.5-2.1,1.5-3.9,3-5.5l0,0c1.8-1.5,4.2-2.3,6.5-2.1l0,0c1.5,0,2.9,0.2,4.3,0.7l0,0
	c1.8,0.6,3.6,1.3,5.3,2.1l0,0c2.4,1,4.3,1.8,5.8,2.3l0,0l1.1,0.3l0,0c1.3-0.5,2.6-0.7,4-0.7l0,0c1.5,0,2.2,0.3,2.2,1l0,0
	c0,0.7-0.9,1-2.6,1l0,0c-1.2,0-2.4-0.1-3.6-0.4l0,0c-1.2,0.4-2.4,0.8-3.5,1.3l0,0c-0.8,0.4-1.5,0.7-1.9,0.8l0,0
	c2.5,0.2,5,1.1,7.1,2.5l0,0c2.1,1.5,3.7,3.6,4.6,5.9l0,0c1.2,2.8,1.7,5.8,1.6,8.8l0,0c0.1,3.2-0.6,6.4-1.9,9.3l0,0
	c-1.2,2.6-3,4.8-5.4,6.3l0,0c-2.3,1.5-5.1,2.3-7.9,2.3l0,0c-2.8,0.1-5.6-0.6-8-2.1l0,0c-2.3-1.4-4.2-3.5-5.3-6l0,0
	c-1.3-2.9-2-6.1-1.9-9.3l0,0c-0.1-3.1,0.5-6.1,1.7-8.9l0,0c1-2.5,2.7-4.6,4.8-6.2l0,0c2.1-1.6,4.5-2.5,7.1-2.7l0,0v0l0,0
	c0.7-0.1,1.3-0.2,2-0.4l0,0c0.6-0.2,1.3-0.5,2.2-0.8l0,0c0.9-0.4,1.9-0.8,2.9-1.1l0,0c-3.5-0.7-6.5-1.2-9-1.7l0,0
	c-2-0.4-4.1-0.6-6.2-0.6l0,0c-1.8-0.1-3.7,0.3-5.4,1l0,0C258,415.4,256.9,416.5,256.2,417.9z M284.7,435.9L284.7,435.9
	c0.1-3-0.4-5.9-1.4-8.8l0,0c-0.8-2.2-2.1-4.2-3.8-5.8l0,0c-1.5-1.3-3.4-2.1-5.4-2.1l0,0c-2,0-3.9,0.7-5.4,2.1l0,0
	c-1.7,1.7-2.9,3.7-3.6,6l0,0c-0.9,2.8-1.3,5.8-1.3,8.8l0,0c-0.1,3,0.4,5.9,1.4,8.8l0,0c0.8,2.2,2.1,4.3,3.8,5.9l0,0
	c1.5,1.3,3.4,2.1,5.4,2l0,0c2,0,3.9-0.7,5.4-2.1l0,0c1.7-1.7,2.9-3.7,3.6-6l0,0C284.3,441.8,284.7,438.9,284.7,435.9z"/>
<path class="st2" d="M195.2,185.6l1.7,0.7l0,0c-1.7,5.8-4.1,10.1-7.2,13l0,0c-3.7,3.4-8.8,5.1-15.4,5.1l0,0c-3.5,0-6.9-0.5-10.3-1.6
	l0,0c-4.3-1.4-8.5-3.1-12.6-5l0,0c-5.6-2.4-10.2-4.3-13.8-5.5l0,0l-2.7-0.8l0,0c-3,1.1-6.2,1.7-9.4,1.7l0,0c-3.5,0-5.2-0.8-5.2-2.3
	l0,0c0-1.6,2-2.4,6.1-2.4l0,0c2.9,0,5.7,0.3,8.5,0.9l0,0c2.9-0.9,5.7-1.9,8.4-3.2l0,0c2-0.9,3.5-1.6,4.4-1.9l0,0
	c-6-0.4-11.8-2.5-16.8-6l0,0c-4.9-3.6-8.7-8.5-11-14.1l0,0c-2.7-6.6-4.1-13.7-3.9-20.9l0,0c-0.2-7.7,1.4-15.2,4.6-22.2l0,0
	c2.8-6.1,7.3-11.3,12.9-15l0,0c5.6-3.6,12.1-5.4,18.7-5.3l0,0c6.7-0.2,13.2,1.5,19,4.9l0,0c5.5,3.4,9.9,8.3,12.6,14.2l0,0
	c3,6.2,4.5,13.6,4.5,22.1l0,0c0.1,7.2-1.3,14.4-4.1,21.1l0,0c-2.5,5.9-6.4,11-11.5,14.8l0,0c-5,3.7-10.8,5.9-17,6.4l0,0v0.1l0,0
	c-1.6,0.2-3.2,0.5-4.7,1l0,0c-1.3,0.4-3.1,1.1-5.3,2l0,0c-2.2,1-4.5,1.9-6.8,2.6l0,0c8.4,1.7,15.6,3,21.5,4l0,0
	c4.8,0.8,9.7,1.3,14.6,1.3l0,0c5.4,0,9.7-0.8,12.8-2.3l0,0C191,191.6,193.6,188.9,195.2,185.6z M127.4,142.9L127.4,142.9
	c-0.1,7.1,1,14.1,3.4,20.8l0,0c2.2,6,5.3,10.6,9.1,13.9l0,0c3.5,3.1,8,4.9,12.8,4.9l0,0c4.8,0,9.4-1.8,12.8-5.1l0,0
	c3.7-3.4,6.5-8.1,8.5-14.2l0,0c2.1-6.7,3.1-13.8,3-20.8l0,0c0.1-7.1-1-14.1-3.4-20.8l0,0c-2.2-6-5.2-10.6-9-13.9l0,0
	c-3.5-3.2-8-4.9-12.8-4.9l0,0c-4.8,0-9.4,1.8-12.8,5.1l0,0c-3.7,3.4-6.5,8.1-8.5,14.2l0,0C128.4,128.8,127.3,135.9,127.4,142.9
	L127.4,142.9z"/>
<path class="st2" d="M109.8,277.4l-1.7-0.7l0,0c1.7-5.8,4.1-10.1,7.2-13l0,0c3.7-3.4,8.8-5.1,15.4-5.1l0,0c3.5,0,6.9,0.5,10.3,1.6
	l0,0c4.3,1.4,8.5,3.1,12.6,5l0,0c5.6,2.4,10.2,4.3,13.8,5.5l0,0l2.7,0.8l0,0c3-1.1,6.2-1.7,9.4-1.7l0,0c3.5,0,5.2,0.8,5.2,2.3l0,0
	c0,1.6-2,2.4-6.1,2.4l0,0c-2.9,0-5.7-0.3-8.5-0.9l0,0c-2.9,0.9-5.7,1.9-8.4,3.2l0,0c-2,0.9-3.5,1.6-4.4,1.9l0,0
	c6,0.4,11.8,2.5,16.8,6l0,0c4.9,3.6,8.7,8.5,11,14.1l0,0c2.7,6.6,4.1,13.7,3.9,20.9l0,0c0.2,7.7-1.4,15.2-4.6,22.2l0,0
	c-2.8,6.1-7.3,11.3-12.9,15l0,0c-5.6,3.6-12.1,5.4-18.7,5.4l0,0c-6.7,0.2-13.2-1.5-19-4.9l0,0c-5.5-3.4-9.9-8.3-12.6-14.2l0,0
	c-3-6.2-4.5-13.6-4.5-22.1l0,0c-0.1-7.2,1.3-14.4,4.1-21.1l0,0c2.5-5.9,6.4-11,11.5-14.8l0,0c5-3.7,10.8-5.9,17-6.4l0,0v-0.1l0,0
	c1.6-0.2,3.2-0.5,4.7-1l0,0c1.3-0.4,3.1-1.1,5.3-2l0,0c2.2-1,4.5-1.9,6.8-2.6l0,0c-8.4-1.7-15.6-3-21.5-4l0,0
	c-4.8-0.8-9.7-1.3-14.6-1.3l0,0c-5.4,0-9.7,0.8-12.8,2.3l0,0C114,271.4,111.4,274.1,109.8,277.4z M177.6,320.1L177.6,320.1
	c0.1-7.1-1-14.1-3.4-20.8l0,0c-2.2-6-5.3-10.6-9.1-13.9l0,0c-3.5-3.1-8-4.9-12.8-4.9l0,0c-4.8,0-9.4,1.8-12.8,5.1l0,0
	c-3.7,3.4-6.5,8.1-8.5,14.2l0,0c-2.1,6.7-3.1,13.8-3,20.8l0,0c-0.1,7.1,1,14.1,3.4,20.8l0,0c2.2,6,5.2,10.6,9,13.9l0,0
	c3.5,3.2,8,4.9,12.8,4.9l0,0c4.8,0,9.4-1.8,12.8-5.1l0,0c3.7-3.4,6.5-8.1,8.5-14.2l0,0C176.6,334.2,177.7,327.1,177.6,320.1
	L177.6,320.1z"/>
<g id="layer1">
	<path id="path5878" class="st3" d="M30.3,94.8c-1.3-2.1-5.4-7.9-8.5-11.7c-1.5-1.9-2.8-3.6-2.8-3.7c0.4-0.6,0.8-1.2,1.3-1.7
		c3.5-4.2,6.8-8.6,9.7-13.2c0.6-0.9,1.1-1.6,1.2-1.5s0.9,1.3,1.8,2.7c2,3,6.2,8.7,8.7,11.6l1.8,2.1l-1.8,2.1
		c-3.7,4.4-7,9.1-10.1,13.9l-0.4,0.7L30.3,94.8z"/>
</g>
<path class="st3" d="M273.3,398.8c-1.3-2.1-5.4-7.9-8.5-11.7c-1.5-1.9-2.8-3.6-2.8-3.7c0.4-0.6,0.8-1.2,1.3-1.7
	c3.5-4.2,6.8-8.6,9.7-13.2c0.6-0.9,1.1-1.6,1.2-1.5s0.9,1.3,1.8,2.7c2,3,6.2,8.7,8.7,11.6l1.8,2.1l-1.8,2.1
	c-3.7,4.4-7,9.1-10.1,13.9l-0.4,0.7L273.3,398.8z"/>
</svg>
