<svg id="Layer_1" data-name="Layer 1" xmlns="http://www.w3.org/2000/svg" viewBox="0 0 305 463"><defs><style>.cls-1{fill:#fff;stroke:#000;stroke-linecap:round;stroke-width:2px;}.cls-2,.cls-3{fill:red;}.cls-2{stroke:red;stroke-miterlimit:10;stroke-width:1.44px;}</style></defs><title>5</title><path class="cls-1" d="M51.05,27H308a22.2,22.2,0,0,1,16.3,6.75A22.2,22.2,0,0,1,331,50.05V465A23,23,0,0,1,308,488H51.05A23,23,0,0,1,28,465V50.05a22.2,22.2,0,0,1,6.75-16.3A22.2,22.2,0,0,1,51.05,27Z" transform="translate(-27 -26)"/><path class="cls-2" d="M64,42.2h0q0,4.89.19,7h0A47.9,47.9,0,0,0,57.53,49H52.45l-.57,9.24h0a15.91,15.91,0,0,1,2.58-1h0a10.21,10.21,0,0,1,3-.39h0c2.78,0,4.88.68,6.32,2h0A7,7,0,0,1,66,64.13h0a9.66,9.66,0,0,1-2.32,6.34h0a15.23,15.23,0,0,1-6,4.33h0a19.29,19.29,0,0,1-7.5,1.54h0v-.87h0a12.87,12.87,0,0,0,5.49-1.29h0a10.33,10.33,0,0,0,4.16-3.69h0a10.45,10.45,0,0,0,1.6-5.88h0a6.68,6.68,0,0,0-1.57-4.72h0a5.81,5.81,0,0,0-4.46-1.7h0a8.56,8.56,0,0,0-2,.19h0a18.23,18.23,0,0,0-2,.62h0L51,58.72l.91-14.27h0a13.59,13.59,0,0,0,2.58.19h5.41a6.71,6.71,0,0,0,1.94-.21h0a1.46,1.46,0,0,0,.89-.72h0a5.73,5.73,0,0,0,.38-1.51H64Z" transform="translate(-27 -26)"/><path class="cls-2" d="M295,472.8h0q0-4.89-.19-7h0a47.9,47.9,0,0,0,6.65.24h5.08l.57-9.24h0a15.91,15.91,0,0,1-2.58,1.05h0a10.21,10.21,0,0,1-3,.39h0c-2.78,0-4.88-.68-6.32-2h0a7,7,0,0,1-2.15-5.34h0a9.66,9.66,0,0,1,2.32-6.34h0a15.23,15.23,0,0,1,6-4.33h0a19.29,19.29,0,0,1,7.5-1.54h0v.87h0a12.87,12.87,0,0,0-5.49,1.29h0a10.33,10.33,0,0,0-4.16,3.69h0a10.45,10.45,0,0,0-1.6,5.88h0a6.68,6.68,0,0,0,1.57,4.72h0a5.81,5.81,0,0,0,4.46,1.7h0a8.56,8.56,0,0,0,2-.19h0a18.23,18.23,0,0,0,2-.62h0l.48.28-.91,14.27h0a13.59,13.59,0,0,0-2.58-.19h-5.41a6.71,6.71,0,0,0-1.94.21h0a1.46,1.46,0,0,0-.89.72h0a5.73,5.73,0,0,0-.38,1.51H295Z" transform="translate(-27 -26)"/><g id="layer1"><path id="path5878" class="cls-3" d="M57.29,120.78c-1.27-2.13-5.42-7.86-8.49-11.69-1.54-1.93-2.8-3.58-2.8-3.66a12.1,12.1,0,0,1,1.26-1.67A138.41,138.41,0,0,0,57,90.52c.57-.93,1.1-1.62,1.19-1.52s.88,1.31,1.78,2.68c2,3,6.23,8.74,8.66,11.63l1.76,2.09-1.76,2.1a138.15,138.15,0,0,0-10.12,13.94l-.42.69Z" transform="translate(-27 -26)"/></g><path class="cls-3" d="M300.29,424.78c-1.27-2.13-5.42-7.86-8.49-11.69-1.54-1.93-2.8-3.58-2.8-3.66a12.1,12.1,0,0,1,1.26-1.67A138.41,138.41,0,0,0,300,394.52c.57-.93,1.1-1.62,1.19-1.52s.88,1.31,1.78,2.68c2,3,6.23,8.74,8.66,11.63l1.76,2.09-1.76,2.1a138.15,138.15,0,0,0-10.12,13.94l-.42.69Z" transform="translate(-27 -26)"/><path class="cls-3" d="M109.21,132.45c-1.92-3.25-8.26-12-12.94-17.82-2.35-2.94-4.27-5.45-4.27-5.58a18.2,18.2,0,0,1,1.93-2.55,210.67,210.67,0,0,0,14.84-20.18c.87-1.43,1.68-2.47,1.81-2.32s1.36,2,2.72,4.09c3,4.59,9.5,13.33,13.2,17.73l2.68,3.19-2.68,3.19a213.24,213.24,0,0,0-15.43,21.27l-.64,1.05Z" transform="translate(-27 -26)"/><path class="cls-3" d="M109.21,429.45c-1.92-3.25-8.26-12-12.94-17.82-2.35-2.94-4.27-5.45-4.27-5.58a18.2,18.2,0,0,1,1.93-2.55,210.67,210.67,0,0,0,14.84-20.18c.87-1.43,1.68-2.47,1.81-2.32s1.36,2,2.72,4.09c3,4.59,9.5,13.33,13.2,17.73l2.68,3.19-2.68,3.19a213.24,213.24,0,0,0-15.43,21.27l-.64,1Z" transform="translate(-27 -26)"/><path class="cls-3" d="M246.21,429.45c-1.92-3.25-8.26-12-12.94-17.82-2.35-2.94-4.27-5.45-4.27-5.58a18.2,18.2,0,0,1,1.93-2.55,210.67,210.67,0,0,0,14.84-20.18c.87-1.43,1.68-2.47,1.81-2.32s1.36,2,2.72,4.09c3,4.59,9.5,13.33,13.2,17.73l2.68,3.19-2.68,3.19a213.24,213.24,0,0,0-15.43,21.27l-.64,1Z" transform="translate(-27 -26)"/><path class="cls-3" d="M246.21,132.45c-1.92-3.25-8.26-12-12.94-17.82-2.35-2.94-4.27-5.45-4.27-5.58a18.2,18.2,0,0,1,1.93-2.55,210.67,210.67,0,0,0,14.84-20.18c.87-1.43,1.68-2.47,1.81-2.32s1.36,2,2.72,4.09c3,4.59,9.5,13.33,13.2,17.73l2.68,3.19-2.68,3.19a213.24,213.24,0,0,0-15.43,21.27l-.64,1.05Z" transform="translate(-27 -26)"/><path class="cls-3" d="M178.21,280.45c-1.92-3.25-8.26-12-12.94-17.82-2.35-2.94-4.27-5.45-4.27-5.58a18.2,18.2,0,0,1,1.93-2.55,210.67,210.67,0,0,0,14.84-20.18c.87-1.43,1.68-2.47,1.81-2.32s1.36,2,2.72,4.09c3,4.59,9.5,13.33,13.2,17.73l2.68,3.19-2.68,3.19a213.24,213.24,0,0,0-15.43,21.27l-.64,1Z" transform="translate(-27 -26)"/></svg>