<svg id="Layer_1" data-name="Layer 1" xmlns="http://www.w3.org/2000/svg" viewBox="0 0 305 463"><defs><style>.cls-1{fill:#fff;stroke:#000;stroke-linecap:round;stroke-width:2px;}.cls-2,.cls-3{fill:red;}.cls-2{stroke:red;stroke-miterlimit:10;stroke-width:1.44px;}</style></defs><title>7</title><path class="cls-1" d="M55.05,27H312a22.2,22.2,0,0,1,16.3,6.75A22.2,22.2,0,0,1,335,50.05V465A23,23,0,0,1,312,488H55.05A23,23,0,0,1,32,465V50.05a22.2,22.2,0,0,1,6.75-16.3A22.2,22.2,0,0,1,55.05,27Z" transform="translate(-31 -26)"/><path class="cls-2" d="M71.05,44.64v1h0q-.7,1.66-2.49,5.12h0c-1.24,2.39-2.25,4.46-3,6.2h0a35,35,0,0,0-2,6h0a30.09,30.09,0,0,0-.82,7.16h0c0,.64,0,1.41.1,2.3h0c.06.7.09,1.2.09,1.48h0a2.49,2.49,0,0,1-.62,1.78h0a2.14,2.14,0,0,1-1.63.67h0a1.86,1.86,0,0,1-1.6-.77h0a3.18,3.18,0,0,1-.55-1.92h0a24.18,24.18,0,0,1,1.12-7.27h0a39,39,0,0,1,2.73-6.63h0q1.61-3,4.19-7.3h0l2.25-3.79H57.51a6.6,6.6,0,0,0-1.94.22h0a1.4,1.4,0,0,0-.89.72h0a5.27,5.27,0,0,0-.38,1.51h-.82q0-4.74-.19-6.71h0a55.5,55.5,0,0,0,7.14.24H71.05Z" transform="translate(-31 -26)"/><path class="cls-2" d="M296,470.36v-1h0q.71-1.67,2.49-5.12h0c1.24-2.39,2.25-4.46,3-6.2h0a35,35,0,0,0,2-6h0a30.09,30.09,0,0,0,.82-7.16h0c0-.64,0-1.41-.1-2.3h0c-.06-.7-.09-1.2-.09-1.48h0a2.49,2.49,0,0,1,.62-1.78h0a2.14,2.14,0,0,1,1.63-.67h0a1.86,1.86,0,0,1,1.6.77h0a3.18,3.18,0,0,1,.55,1.92h0a24.18,24.18,0,0,1-1.12,7.27h0a39,39,0,0,1-2.73,6.63h0q-1.6,3-4.19,7.3h0l-2.25,3.79h11.34a6.6,6.6,0,0,0,1.94-.22h0a1.4,1.4,0,0,0,.89-.72h0a5.27,5.27,0,0,0,.38-1.51h.82q0,4.74.19,6.71h0a55.5,55.5,0,0,0-7.14-.24H296Z" transform="translate(-31 -26)"/><g id="layer1"><path id="path5878" class="cls-3" d="M61.29,120.78c-1.27-2.13-5.42-7.86-8.49-11.69-1.54-1.93-2.8-3.58-2.8-3.66a12.1,12.1,0,0,1,1.26-1.67A138.41,138.41,0,0,0,61,90.52c.57-.93,1.1-1.62,1.19-1.52s.88,1.31,1.78,2.68c2,3,6.23,8.74,8.66,11.63l1.76,2.09-1.76,2.1a138.15,138.15,0,0,0-10.12,13.94l-.42.69Z" transform="translate(-31 -26)"/></g><path class="cls-3" d="M304.29,424.78c-1.27-2.13-5.42-7.86-8.49-11.69-1.54-1.93-2.8-3.58-2.8-3.66a12.1,12.1,0,0,1,1.26-1.67A138.41,138.41,0,0,0,304,394.52c.57-.93,1.1-1.62,1.19-1.52s.88,1.31,1.78,2.68c2,3,6.23,8.74,8.66,11.63l1.76,2.09-1.76,2.1a138.15,138.15,0,0,0-10.12,13.94l-.42.69Z" transform="translate(-31 -26)"/><path class="cls-3" d="M113.21,132.45c-1.92-3.25-8.26-12-12.94-17.82-2.35-2.94-4.27-5.45-4.27-5.58a18.2,18.2,0,0,1,1.93-2.55,210.67,210.67,0,0,0,14.84-20.18c.87-1.43,1.68-2.47,1.81-2.32s1.36,2,2.72,4.09c3,4.59,9.5,13.33,13.2,17.73l2.68,3.19-2.68,3.19a213.24,213.24,0,0,0-15.43,21.27l-.64,1.05Z" transform="translate(-31 -26)"/><path class="cls-3" d="M182.21,206.45c-1.92-3.25-8.26-12-12.94-17.82-2.35-2.94-4.27-5.45-4.27-5.58a18.2,18.2,0,0,1,1.93-2.55,210.67,210.67,0,0,0,14.84-20.18c.87-1.43,1.68-2.47,1.81-2.32s1.36,2,2.72,4.09c3,4.59,9.5,13.33,13.2,17.73l2.68,3.19-2.68,3.19a213.24,213.24,0,0,0-15.43,21.27l-.64,1.05Z" transform="translate(-31 -26)"/><path class="cls-3" d="M113.21,280.45c-1.92-3.25-8.26-12-12.94-17.82-2.35-2.94-4.27-5.45-4.27-5.58a18.2,18.2,0,0,1,1.93-2.55,210.67,210.67,0,0,0,14.84-20.18c.87-1.43,1.68-2.47,1.81-2.32s1.36,2,2.72,4.09c3,4.59,9.5,13.33,13.2,17.73l2.68,3.19-2.68,3.19a213.24,213.24,0,0,0-15.43,21.27l-.64,1Z" transform="translate(-31 -26)"/><path class="cls-3" d="M113.21,429.45c-1.92-3.25-8.26-12-12.94-17.82-2.35-2.94-4.27-5.45-4.27-5.58a18.2,18.2,0,0,1,1.93-2.55,210.67,210.67,0,0,0,14.84-20.18c.87-1.43,1.68-2.47,1.81-2.32s1.36,2,2.72,4.09c3,4.59,9.5,13.33,13.2,17.73l2.68,3.19-2.68,3.19a213.24,213.24,0,0,0-15.43,21.27l-.64,1Z" transform="translate(-31 -26)"/><path class="cls-3" d="M250.21,429.45c-1.92-3.25-8.26-12-12.94-17.82-2.35-2.94-4.27-5.45-4.27-5.58a18.2,18.2,0,0,1,1.93-2.55,210.67,210.67,0,0,0,14.84-20.18c.87-1.43,1.68-2.47,1.81-2.32s1.36,2,2.72,4.09c3,4.59,9.5,13.33,13.2,17.73l2.68,3.19-2.68,3.19a213.24,213.24,0,0,0-15.43,21.27l-.64,1Z" transform="translate(-31 -26)"/><path class="cls-3" d="M250.21,280.45c-1.92-3.25-8.26-12-12.94-17.82-2.35-2.94-4.27-5.45-4.27-5.58a18.2,18.2,0,0,1,1.93-2.55,210.67,210.67,0,0,0,14.84-20.18c.87-1.43,1.68-2.47,1.81-2.32s1.36,2,2.72,4.09c3,4.59,9.5,13.33,13.2,17.73l2.68,3.19-2.68,3.19a213.24,213.24,0,0,0-15.43,21.27l-.64,1Z" transform="translate(-31 -26)"/><path class="cls-3" d="M250.21,132.45c-1.92-3.25-8.26-12-12.94-17.82-2.35-2.94-4.27-5.45-4.27-5.58a18.2,18.2,0,0,1,1.93-2.55,210.67,210.67,0,0,0,14.84-20.18c.87-1.43,1.68-2.47,1.81-2.32s1.36,2,2.72,4.09c3,4.59,9.5,13.33,13.2,17.73l2.68,3.19-2.68,3.19a213.24,213.24,0,0,0-15.43,21.27l-.64,1.05Z" transform="translate(-31 -26)"/></svg>