<svg id="Layer_1" data-name="Layer 1" xmlns="http://www.w3.org/2000/svg" viewBox="0 0 305 463"><defs><style>.cls-1{fill:#fff;stroke-linecap:round;stroke-width:2px;}.cls-1,.cls-2{stroke:#000;}.cls-2{stroke-miterlimit:10;stroke-width:1.44px;}</style></defs><title>10</title><path class="cls-1" d="M150.05,57H407a23,23,0,0,1,23.05,23V495A23,23,0,0,1,407,518H150.05A23,23,0,0,1,127,495V80.05a23,23,0,0,1,23.05-23Z" transform="translate(-126 -56)"/><g id="layer1"><path id="path3211" d="M157.46,123a5.92,5.92,0,0,0-2.62,11.23c.59.29-.05,1-.49.55a5.92,5.92,0,1,0,1.49,4c0-.57.89-.63.89.14a45.45,45.45,0,0,1-1.79,8.9,10.44,10.44,0,0,1,5.05,0c-.63-1.23-1.8-7.68-1.8-8.9,0-.77.88-.71.89-.14a5.92,5.92,0,1,0,1.49-4c-.43.49-1.08-.26-.49-.55A5.92,5.92,0,0,0,157.46,123Z" transform="translate(-126 -56)"/></g><path class="cls-2" d="M145.81,74.86V95.17h0a3.81,3.81,0,0,0,1,3.09h0a5.79,5.79,0,0,0,3.58.84h0v1h0q-5.19-.19-6.63-.19h0q-1.33,0-6.24.14h0l-1.15,0v-1h0a6.81,6.81,0,0,0,3.82-.86h0a3.44,3.44,0,0,0,1.27-3.07h0V83.55h0a8.86,8.86,0,0,0-.48-3.38h0a2.53,2.53,0,0,0-1.61-1.44h0a12.33,12.33,0,0,0-3.48-.36h0V77.31h0a29.85,29.85,0,0,0,5.79-.62h0A11.36,11.36,0,0,0,145.81,74.86Zm20.26-.14h0a11.57,11.57,0,0,1,6,1.56h0a10.73,10.73,0,0,1,4.12,4.44h0a14.13,14.13,0,0,1,1.49,6.62h0a15.14,15.14,0,0,1-1.53,6.89h0a12,12,0,0,1-4.3,4.8h0a11.49,11.49,0,0,1-6.31,1.75h0a11.46,11.46,0,0,1-5.95-1.56h0a11,11,0,0,1-4.16-4.44h0a14.23,14.23,0,0,1-1.51-6.67h0a15.27,15.27,0,0,1,1.51-6.84h0a11.79,11.79,0,0,1,4.28-4.8h0A11.59,11.59,0,0,1,166.07,74.72Zm-.44.86h0A5.29,5.29,0,0,0,162,77.05h0a9.49,9.49,0,0,0-2.49,4.27h0a21.9,21.9,0,0,0-.89,6.65h0q0,6.09,2.06,9h0A6.28,6.28,0,0,0,166,99.92h0a5.25,5.25,0,0,0,3.67-1.49h0a9.68,9.68,0,0,0,2.5-4.29h0a22.26,22.26,0,0,0,.89-6.65h0c0-4-.69-7-2.07-9h0a6.26,6.26,0,0,0-5.33-2.93Z" transform="translate(-126 -56)"/><path d="M399.54,452a5.92,5.92,0,0,0,2.62-11.23c-.59-.29,0-1,.49-.55a5.92,5.92,0,1,0-1.49-4c0,.57-.89.63-.89-.14a45.45,45.45,0,0,1,1.79-8.9,10.44,10.44,0,0,1-5.05,0c.63,1.23,1.8,7.68,1.8,8.9,0,.77-.88.71-.89.14a5.92,5.92,0,1,0-1.49,4c.43-.49,1.08.26.49.55A5.92,5.92,0,0,0,399.54,452Z" transform="translate(-126 -56)"/><path class="cls-2" d="M411.19,500.14V479.83h0a3.81,3.81,0,0,0-1-3.09h0a5.79,5.79,0,0,0-3.58-.84h0v-1h0q5.19.19,6.63.19h0q1.34,0,6.24-.14h0l1.15-.05v1h0a6.81,6.81,0,0,0-3.82.86h0a3.44,3.44,0,0,0-1.27,3.07h0v11.62h0a8.86,8.86,0,0,0,.48,3.38h0a2.53,2.53,0,0,0,1.61,1.44h0a12.33,12.33,0,0,0,3.48.36h0v1.06h0a29.85,29.85,0,0,0-5.79.62h0A11.36,11.36,0,0,0,411.19,500.14Zm-20.26.14h0a11.57,11.57,0,0,1-6-1.56h0a10.73,10.73,0,0,1-4.12-4.44h0a14.13,14.13,0,0,1-1.49-6.62h0a15.14,15.14,0,0,1,1.53-6.89h0a12,12,0,0,1,4.3-4.8h0a11.49,11.49,0,0,1,6.31-1.75h0a11.46,11.46,0,0,1,6,1.56h0a11,11,0,0,1,4.16,4.44h0a14.23,14.23,0,0,1,1.51,6.67h0a15.27,15.27,0,0,1-1.51,6.84h0a11.79,11.79,0,0,1-4.28,4.8h0A11.59,11.59,0,0,1,390.93,500.28Zm.44-.86h0A5.29,5.29,0,0,0,395,498h0a9.49,9.49,0,0,0,2.49-4.27h0a21.9,21.9,0,0,0,.89-6.65h0q0-6.09-2.06-9h0a6.28,6.28,0,0,0-5.33-2.93h0a5.25,5.25,0,0,0-3.67,1.49h0a9.68,9.68,0,0,0-2.5,4.29h0a22.26,22.26,0,0,0-.89,6.65h0c0,4,.69,7,2.07,9h0a6.26,6.26,0,0,0,5.33,2.93Z" transform="translate(-126 -56)"/><path d="M210,118a10.1,10.1,0,0,0-4.47,19.16c1,.49-.09,1.78-.83.94a10.09,10.09,0,1,0,2.54,6.83c0-1,1.52-1.08,1.52.23,0,2.08-2,13.09-3.06,15.19a17.43,17.43,0,0,1,8.61,0c-1.06-2.1-3.06-13.11-3.06-15.19,0-1.31,1.5-1.21,1.51-.23a10.12,10.12,0,1,0,2.55-6.83c-.74.84-1.84-.45-.83-.94A10.1,10.1,0,0,0,210,118Z" transform="translate(-126 -56)"/><path d="M210,217a10.1,10.1,0,0,0-4.47,19.16c1,.49-.09,1.78-.83.94a10.09,10.09,0,1,0,2.54,6.83c0-1,1.52-1.08,1.52.23,0,2.08-2,13.09-3.06,15.19a17.43,17.43,0,0,1,8.61,0c-1.06-2.1-3.06-13.11-3.06-15.19,0-1.31,1.5-1.21,1.51-.23a10.12,10.12,0,1,0,2.55-6.83c-.74.84-1.84-.45-.83-.94A10.1,10.1,0,0,0,210,217Z" transform="translate(-126 -56)"/><path d="M210,457.35a10.1,10.1,0,0,0,4.48-19.16c-1-.49.09-1.78.83-.95a10.08,10.08,0,1,0-2.55-6.82c0,1-1.51,1.08-1.51-.24,0-2.07,2-13.08,3.06-15.18a17.43,17.43,0,0,1-8.61,0c1.06,2.1,3.06,13.11,3.06,15.18,0,1.32-1.51,1.22-1.52.24a10.11,10.11,0,1,0-2.54,6.82c.74-.83,1.84.46.83.95A10.1,10.1,0,0,0,210,457.35Z" transform="translate(-126 -56)"/><path d="M210,358.35a10.1,10.1,0,0,0,4.48-19.16c-1-.49.09-1.78.83-.95a10.08,10.08,0,1,0-2.55-6.82c0,1-1.51,1.08-1.51-.24,0-2.07,2-13.08,3.06-15.18a17.43,17.43,0,0,1-8.61,0c1.06,2.1,3.06,13.11,3.06,15.18,0,1.32-1.51,1.22-1.52.24a10.11,10.11,0,1,0-2.54,6.82c.74-.83,1.84.46.83.95A10.1,10.1,0,0,0,210,358.35Z" transform="translate(-126 -56)"/><path d="M280,175a10.1,10.1,0,0,0-4.47,19.16c1,.49-.09,1.78-.83.94a10.09,10.09,0,1,0,2.54,6.83c0-1,1.52-1.08,1.52.23,0,2.08-2,13.09-3.06,15.19a17.43,17.43,0,0,1,8.61,0c-1.06-2.1-3.06-13.11-3.06-15.19,0-1.31,1.5-1.21,1.51-.23a10.12,10.12,0,1,0,2.55-6.83c-.74.84-1.84-.45-.83-.94A10.1,10.1,0,0,0,280,175Z" transform="translate(-126 -56)"/><path d="M280,401a10.1,10.1,0,0,0,4.47-19.16c-1-.49.09-1.78.83-.94a10.09,10.09,0,1,0-2.54-6.83c0,1-1.52,1.08-1.52-.23,0-2.08,2-13.09,3.06-15.19a17.43,17.43,0,0,1-8.61,0c1.06,2.1,3.06,13.11,3.06,15.19,0,1.31-1.5,1.21-1.51.23a10.12,10.12,0,1,0-2.55,6.83c.74-.84,1.84.45.83.94A10.1,10.1,0,0,0,280,401Z" transform="translate(-126 -56)"/><path d="M347,118a10.1,10.1,0,0,0-4.47,19.16c1,.49-.09,1.78-.83.94a10.09,10.09,0,1,0,2.54,6.83c0-1,1.52-1.08,1.52.23,0,2.08-2,13.09-3.06,15.19a17.43,17.43,0,0,1,8.61,0c-1.06-2.1-3.06-13.11-3.06-15.19,0-1.31,1.5-1.21,1.51-.23a10.12,10.12,0,1,0,2.55-6.83c-.74.84-1.84-.45-.83-.94A10.1,10.1,0,0,0,347,118Z" transform="translate(-126 -56)"/><path d="M347,217a10.1,10.1,0,0,0-4.47,19.16c1,.49-.09,1.78-.83.94a10.09,10.09,0,1,0,2.54,6.83c0-1,1.52-1.08,1.52.23,0,2.08-2,13.09-3.06,15.19a17.43,17.43,0,0,1,8.61,0c-1.06-2.1-3.06-13.11-3.06-15.19,0-1.31,1.5-1.21,1.51-.23a10.12,10.12,0,1,0,2.55-6.83c-.74.84-1.84-.45-.83-.94A10.1,10.1,0,0,0,347,217Z" transform="translate(-126 -56)"/><path d="M347,457.35a10.1,10.1,0,0,0,4.48-19.16c-1-.49.09-1.78.83-.95a10.08,10.08,0,1,0-2.55-6.82c0,1-1.51,1.08-1.51-.24,0-2.07,2-13.08,3.06-15.18a17.43,17.43,0,0,1-8.61,0c1.06,2.1,3.06,13.11,3.06,15.18,0,1.32-1.51,1.22-1.52.24a10.11,10.11,0,1,0-2.54,6.82c.74-.83,1.84.46.83.95A10.1,10.1,0,0,0,347,457.35Z" transform="translate(-126 -56)"/><path d="M347,358.35a10.1,10.1,0,0,0,4.48-19.16c-1-.49.09-1.78.83-.95a10.08,10.08,0,1,0-2.55-6.82c0,1-1.51,1.08-1.51-.24,0-2.07,2-13.08,3.06-15.18a17.43,17.43,0,0,1-8.61,0c1.06,2.1,3.06,13.11,3.06,15.18,0,1.32-1.51,1.22-1.52.24a10.11,10.11,0,1,0-2.54,6.82c.74-.83,1.84.46.83.95A10.1,10.1,0,0,0,347,358.35Z" transform="translate(-126 -56)"/></svg>