<?xml version="1.0" encoding="utf-8"?>
<!-- Generator: Adobe Illustrator 23.0.3, SVG Export Plug-In . SVG Version: 6.00 Build 0)  -->
<svg version="1.1" id="Layer_1" xmlns="http://www.w3.org/2000/svg" xmlns:xlink="http://www.w3.org/1999/xlink" x="0px" y="0px"
	 viewBox="0 0 305 463" style="enable-background:new 0 0 305 463;" xml:space="preserve">
<style type="text/css">
	.st0{fill:#FFFFFF;stroke:#000000;stroke-width:2;stroke-linecap:round;}
	.st1{enable-background:new    ;}
</style>
<title>10</title>
<path class="st0" d="M24.1,1h257c12.7,0,23,10.2,23,22.9c0,0,0,0,0,0.1v415c0,12.7-10.3,23-23,23c0,0,0,0-0.1,0H24
	c-12.7,0-23-10.2-23-22.9c0,0,0,0,0-0.1V24C1,11.3,11.3,1,24.1,1C24,1,24,1,24.1,1L24.1,1z"/>
<g id="layer1">
	<path id="path3211" d="M31.5,67c-3.3,0-5.9,2.6-5.9,5.9c0,2.3,1.3,4.3,3.3,5.3c0.6,0.3-0.1,1-0.5,0.6c-2.2-2.4-5.9-2.7-8.4-0.5
		c-2.4,2.2-2.7,5.9-0.5,8.4s5.9,2.7,8.4,0.5c1.2-1.1,2-2.7,2-4.4c0-0.6,0.9-0.6,0.9,0.1c-0.3,3-0.9,6-1.8,8.9c1.7-0.4,3.4-0.4,5.1,0
		c-0.6-1.2-1.8-7.7-1.8-8.9c0-0.8,0.9-0.7,0.9-0.1c0,3.3,2.7,5.9,6,5.8c3.3,0,5.9-2.7,5.8-6s-2.7-5.9-6-5.8c-1.7,0-3.3,0.7-4.4,2
		c-0.4,0.5-1.1-0.3-0.5-0.6c2.9-1.4,4.1-5,2.7-7.9C35.8,68.3,33.7,67,31.5,67z"/>
</g>
<path d="M273.5,396c3.3,0,5.9-2.6,5.9-5.9c0-2.3-1.3-4.3-3.3-5.3c-0.6-0.3,0-1,0.5-0.5c2.2,2.4,5.9,2.7,8.4,0.5
	c2.4-2.2,2.7-5.9,0.5-8.4s-5.9-2.7-8.4-0.5c-1.2,1.1-2,2.7-2,4.4c0,0.6-0.9,0.6-0.9-0.1c0.3-3,0.9-6,1.8-8.9c-1.7,0.4-3.4,0.4-5,0
	c0.6,1.2,1.8,7.7,1.8,8.9c0,0.8-0.9,0.7-0.9,0.1c0-3.3-2.7-5.9-6-5.8c-3.3,0-5.9,2.7-5.8,6c0,3.3,2.7,5.9,6,5.8c1.7,0,3.3-0.7,4.4-2
	c0.4-0.5,1.1,0.3,0.5,0.5c-2.9,1.4-4.1,5-2.7,7.9C269.2,394.7,271.3,396,273.5,396z"/>
<path d="M84,62c-5.6,0-10.1,4.5-10.1,10.1c0,3.8,2.2,7.4,5.6,9.1c1,0.5-0.1,1.8-0.8,0.9c-3.7-4.2-10.1-4.6-14.2-0.9
	c-4.2,3.7-4.6,10.1-0.9,14.2c3.7,4.2,10.1,4.6,14.2,0.9c2.1-1.9,3.4-4.6,3.4-7.4c0-1,1.5-1.1,1.5,0.2c0,2.1-2,13.1-3.1,15.2
	c2.8-0.7,5.8-0.7,8.6,0c-1.1-2.1-3.1-13.1-3.1-15.2c0-1.3,1.5-1.2,1.5-0.2c0.1,5.6,4.6,10.1,10.2,10s10.1-4.6,10-10.2
	s-4.6-10.1-10.2-10c-2.9,0-5.6,1.3-7.5,3.4c-0.7,0.8-1.8-0.4-0.8-0.9c5-2.5,7.1-8.5,4.6-13.5C91.4,64.2,87.9,62,84,62z"/>
<path d="M84,161c-5.6,0-10.1,4.5-10.1,10.1c0,3.8,2.2,7.4,5.6,9.1c1,0.5-0.1,1.8-0.8,0.9c-3.7-4.2-10.1-4.6-14.2-0.9
	c-4.2,3.7-4.6,10.1-0.9,14.2c3.7,4.2,10.1,4.6,14.2,0.9c2.1-1.9,3.4-4.6,3.4-7.4c0-1,1.5-1.1,1.5,0.2c0,2.1-2,13.1-3.1,15.2
	c2.8-0.7,5.8-0.7,8.6,0c-1.1-2.1-3.1-13.1-3.1-15.2c0-1.3,1.5-1.2,1.5-0.2c0.1,5.6,4.6,10.1,10.2,10s10.1-4.6,10-10.2
	s-4.6-10.1-10.2-10c-2.9,0-5.6,1.3-7.5,3.4c-0.7,0.8-1.8-0.4-0.8-0.9c5-2.5,7.1-8.5,4.6-13.5C91.4,163.2,87.9,161,84,161z"/>
<path d="M84,401.4c5.6,0,10.1-4.5,10.1-10.1c0-3.9-2.2-7.4-5.6-9.1c-1-0.5,0.1-1.8,0.8-1c3.7,4.2,10.1,4.5,14.2,0.8
	c4.2-3.7,4.5-10.1,0.8-14.2c-3.7-4.2-10.1-4.5-14.2-0.8c-2.1,1.9-3.3,4.6-3.4,7.4c0,1-1.5,1.1-1.5-0.2c0-2.1,2-13.1,3.1-15.2
	c-2.8,0.7-5.8,0.7-8.6,0c1.1,2.1,3.1,13.1,3.1,15.2c0,1.3-1.5,1.2-1.5,0.2c-0.1-5.6-4.6-10.1-10.2-10s-10.1,4.6-10,10.2
	s4.6,10.1,10.2,10c2.9,0,5.6-1.3,7.5-3.4c0.7-0.8,1.8,0.5,0.8,1c-5,2.5-7.1,8.5-4.6,13.5C76.6,399.2,80.2,401.4,84,401.4z"/>
<path d="M84,302.4c5.6,0,10.1-4.5,10.1-10.1c0-3.9-2.2-7.4-5.6-9.1c-1-0.5,0.1-1.8,0.8-1c3.7,4.2,10.1,4.5,14.2,0.8
	c4.2-3.7,4.5-10.1,0.8-14.2c-3.7-4.2-10.1-4.5-14.2-0.8c-2.1,1.9-3.3,4.6-3.4,7.4c0,1-1.5,1.1-1.5-0.2c0-2.1,2-13.1,3.1-15.2
	c-2.8,0.7-5.8,0.7-8.6,0c1.1,2.1,3.1,13.1,3.1,15.2c0,1.3-1.5,1.2-1.5,0.2c-0.1-5.6-4.6-10.1-10.2-10s-10.1,4.6-10,10.2
	s4.6,10.1,10.2,10c2.9,0,5.6-1.3,7.5-3.4c0.7-0.8,1.8,0.5,0.8,1c-5,2.5-7.1,8.5-4.6,13.5C76.6,300.2,80.2,302.4,84,302.4z"/>
<path d="M154,119c-5.6,0-10.1,4.5-10.1,10.1c0,3.8,2.2,7.4,5.6,9.1c1,0.5-0.1,1.8-0.8,0.9c-3.7-4.2-10.1-4.6-14.2-0.9
	c-4.2,3.7-4.6,10.1-0.9,14.2c3.7,4.2,10.1,4.6,14.2,0.9c2.1-1.9,3.4-4.6,3.4-7.4c0-1,1.5-1.1,1.5,0.2c0,2.1-2,13.1-3.1,15.2
	c2.8-0.7,5.8-0.7,8.6,0c-1.1-2.1-3.1-13.1-3.1-15.2c0-1.3,1.5-1.2,1.5-0.2c0.1,5.6,4.6,10.1,10.2,10c5.6-0.1,10.1-4.6,10-10.2
	s-4.6-10.1-10.2-10c-2.9,0-5.6,1.3-7.5,3.4c-0.7,0.8-1.8-0.4-0.8-0.9c5-2.5,7.1-8.5,4.6-13.5C161.4,121.2,157.9,119,154,119z"/>
<path d="M154,345c5.6,0,10.1-4.5,10.1-10.1c0-3.8-2.2-7.4-5.6-9.1c-1-0.5,0.1-1.8,0.8-0.9c3.7,4.2,10.1,4.6,14.2,0.9
	c4.2-3.7,4.6-10.1,0.9-14.2s-10.1-4.6-14.2-0.9c-2.1,1.9-3.4,4.6-3.4,7.4c0,1-1.5,1.1-1.5-0.2c0-2.1,2-13.1,3.1-15.2
	c-2.8,0.7-5.8,0.7-8.6,0c1.1,2.1,3.1,13.1,3.1,15.2c0,1.3-1.5,1.2-1.5,0.2c-0.1-5.6-4.6-10.1-10.2-10s-10.1,4.6-10,10.2
	s4.6,10.1,10.2,10c2.9,0,5.6-1.3,7.5-3.4c0.7-0.8,1.8,0.5,0.8,0.9c-5,2.5-7.1,8.5-4.6,13.5C146.6,342.8,150.1,345,154,345z"/>
<path d="M221,62c-5.6,0-10.1,4.5-10.1,10.1c0,3.8,2.2,7.4,5.6,9.1c1,0.5-0.1,1.8-0.8,0.9c-3.7-4.2-10.1-4.6-14.2-0.9
	c-4.2,3.7-4.6,10.1-0.9,14.2c3.7,4.2,10.1,4.6,14.2,0.9c2.1-1.9,3.4-4.6,3.4-7.4c0-1,1.5-1.1,1.5,0.2c0,2.1-2,13.1-3.1,15.2
	c2.8-0.7,5.8-0.7,8.6,0c-1.1-2.1-3.1-13.1-3.1-15.2c0-1.3,1.5-1.2,1.5-0.2c0.1,5.6,4.6,10.1,10.2,10c5.6-0.1,10.1-4.6,10-10.2
	s-4.6-10.1-10.2-10c-2.9,0-5.6,1.3-7.5,3.4c-0.7,0.8-1.8-0.4-0.8-0.9c5-2.5,7.1-8.5,4.6-13.5C228.4,64.2,224.9,62,221,62z"/>
<path d="M221,161c-5.6,0-10.1,4.5-10.1,10.1c0,3.8,2.2,7.4,5.6,9.1c1,0.5-0.1,1.8-0.8,0.9c-3.7-4.2-10.1-4.6-14.2-0.9
	c-4.2,3.7-4.6,10.1-0.9,14.2c3.7,4.2,10.1,4.6,14.2,0.9c2.1-1.9,3.4-4.6,3.4-7.4c0-1,1.5-1.1,1.5,0.2c0,2.1-2,13.1-3.1,15.2
	c2.8-0.7,5.8-0.7,8.6,0c-1.1-2.1-3.1-13.1-3.1-15.2c0-1.3,1.5-1.2,1.5-0.2c0.1,5.6,4.6,10.1,10.2,10c5.6-0.1,10.1-4.6,10-10.2
	s-4.6-10.1-10.2-10c-2.9,0-5.6,1.3-7.5,3.4c-0.7,0.8-1.8-0.4-0.8-0.9c5-2.5,7.1-8.5,4.6-13.5C228.4,163.2,224.9,161,221,161z"/>
<path d="M221,401.4c5.6,0,10.1-4.5,10.1-10.1c0-3.9-2.2-7.4-5.6-9.1c-1-0.5,0.1-1.8,0.8-1c3.7,4.2,10.1,4.5,14.2,0.8
	c4.2-3.7,4.5-10.1,0.8-14.2c-3.7-4.2-10.1-4.5-14.2-0.8c-2.1,1.9-3.3,4.6-3.4,7.4c0,1-1.5,1.1-1.5-0.2c0-2.1,2-13.1,3.1-15.2
	c-2.8,0.7-5.8,0.7-8.6,0c1.1,2.1,3.1,13.1,3.1,15.2c0,1.3-1.5,1.2-1.5,0.2c-0.1-5.6-4.6-10.1-10.2-10c-5.6,0.1-10.1,4.6-10,10.2
	s4.6,10.1,10.2,10c2.9,0,5.6-1.3,7.5-3.4c0.7-0.8,1.8,0.5,0.8,1c-5,2.5-7.1,8.5-4.6,13.5C213.6,399.2,217.2,401.4,221,401.4z"/>
<path d="M221,302.4c5.6,0,10.1-4.5,10.1-10.1c0-3.9-2.2-7.4-5.6-9.1c-1-0.5,0.1-1.8,0.8-1c3.7,4.2,10.1,4.5,14.2,0.8
	c4.2-3.7,4.5-10.1,0.8-14.2c-3.7-4.2-10.1-4.5-14.2-0.8c-2.1,1.9-3.3,4.6-3.4,7.4c0,1-1.5,1.1-1.5-0.2c0-2.1,2-13.1,3.1-15.2
	c-2.8,0.7-5.8,0.7-8.6,0c1.1,2.1,3.1,13.1,3.1,15.2c0,1.3-1.5,1.2-1.5,0.2c-0.1-5.6-4.6-10.1-10.2-10c-5.6,0.1-10.1,4.6-10,10.2
	s4.6,10.1,10.2,10c2.9,0,5.6-1.3,7.5-3.4c0.7-0.8,1.8,0.5,0.8,1c-5,2.5-7.1,8.5-4.6,13.5C213.6,300.2,217.2,302.4,221,302.4z"/>
<g class="st1">
	<path d="M13.7,57.4V26l-5.4,3.2v-4.9l9.7-5h0.2v35.9l-4.2,2.2H13.7z"/>
	<path d="M28.2,44.9V31.8c0-3.5,1-6.3,3-8.5c2.1-2.3,4.9-3.5,8.2-3.5s6.1,1.2,8.2,3.5c2,2.2,3,5,3,8.5v13.2c0,3.5-1,6.3-3,8.5
		c-2.1,2.3-4.9,3.5-8.2,3.5s-6.1-1.2-8.2-3.5C29.2,51.2,28.2,48.4,28.2,44.9z M32.6,44.9c0,2.1,0.5,3.9,1.6,5.2
		c1.3,1.6,3.1,2.5,5.2,2.5s3.9-0.8,5.2-2.5c1.1-1.3,1.6-3.1,1.6-5.2V31.8c0-2.1-0.5-3.9-1.6-5.2c-1.3-1.6-3.1-2.5-5.2-2.5
		s-3.9,0.8-5.2,2.5c-1.1,1.3-1.6,3.1-1.6,5.2V44.9z"/>
</g>
<g class="st1">
	<path d="M291.3,405.7v31.4l5.4-3.2v4.9l-9.7,5h-0.2v-35.9l4.2-2.2H291.3z"/>
	<path d="M276.8,418.1v13.2c0,3.5-1,6.3-3,8.5c-2.1,2.3-4.9,3.5-8.2,3.5s-6.1-1.2-8.2-3.5c-2-2.2-3-5-3-8.5v-13.2c0-3.5,1-6.3,3-8.5
		c2.1-2.3,4.9-3.5,8.2-3.5s6.1,1.2,8.2,3.5C275.8,411.8,276.8,414.6,276.8,418.1z M272.4,418.1c0-2.1-0.5-3.9-1.6-5.2
		c-1.3-1.6-3.1-2.5-5.2-2.5s-3.9,0.8-5.2,2.5c-1.1,1.3-1.6,3.1-1.6,5.2v13.2c0,2.1,0.5,3.9,1.6,5.2c1.3,1.6,3.1,2.5,5.2,2.5
		s3.9-0.8,5.2-2.5c1.1-1.3,1.6-3.1,1.6-5.2V418.1z"/>
</g>
</svg>
