<?xml version="1.0" encoding="utf-8"?>
<!-- Generator: Adobe Illustrator 23.0.3, SVG Export Plug-In . SVG Version: 6.00 Build 0)  -->
<svg version="1.1" id="Layer_1" xmlns="http://www.w3.org/2000/svg" xmlns:xlink="http://www.w3.org/1999/xlink" x="0px" y="0px"
	 viewBox="0 0 305 463" style="enable-background:new 0 0 305 463;" xml:space="preserve">
<style type="text/css">
	.st0{fill:#FFFFFF;stroke:#000000;stroke-width:2;stroke-linecap:round;}
	.st1{enable-background:new    ;}
</style>
<title>2</title>
<path class="st0" d="M24,1h257c6.1-0.1,12,2.3,16.3,6.8c4.4,4.3,6.8,10.2,6.7,16.3v415c0,12.7-10.3,23-23,23H24
	c-6.1,0.1-12-2.3-16.3-6.8C3.4,451,0.9,445.1,1,439V24C0.9,17.9,3.3,12,7.8,7.8C12,3.3,17.9,0.9,24,1z"/>
<g id="layer1">
	<path id="path3211" d="M31.5,67c-3.3,0-5.9,2.6-5.9,5.9c0,2.3,1.3,4.3,3.3,5.3c0.6,0.3,0,1-0.5,0.6c-2.2-2.4-5.9-2.7-8.4-0.5
		c-2.4,2.2-2.7,5.9-0.5,8.4c2.2,2.4,5.9,2.7,8.4,0.5c1.2-1.1,2-2.7,2-4.4c0-0.6,0.9-0.6,0.9,0.1c0,1.2-1.2,7.7-1.8,8.9
		c0.8-0.2,1.7-0.3,2.5-0.3s1.7,0.1,2.5,0.3c-0.9-2.9-1.5-5.9-1.8-8.9c0-0.8,0.9-0.7,0.9-0.1c0,3.3,2.7,5.9,6,5.8
		c3.3,0,5.9-2.7,5.8-6c0-3.3-2.7-5.9-6-5.8c-1.7,0-3.3,0.7-4.4,2c-0.4,0.5-1.1-0.3-0.5-0.6c2.9-1.4,4.1-5,2.7-7.9
		C35.8,68.3,33.7,67,31.5,67z"/>
</g>
<path d="M273.5,396c3.3,0,5.9-2.6,5.9-5.9c0-2.3-1.3-4.3-3.3-5.3c-0.6-0.3,0.1-1,0.5-0.5c2.2,2.4,5.9,2.7,8.4,0.5
	c2.4-2.2,2.7-5.9,0.5-8.4s-5.9-2.7-8.4-0.5c-1.2,1.1-2,2.7-2,4.4c0,0.6-0.9,0.6-0.9-0.1c0-1.2,1.2-7.7,1.8-8.9c-1.7,0.4-3.4,0.4-5,0
	c0.9,2.9,1.5,5.9,1.8,8.9c0,0.8-0.9,0.7-0.9,0.1c0-3.3-2.7-5.9-6-5.8c-3.3,0-5.9,2.7-5.8,6c0,3.3,2.7,5.9,6,5.8c1.7,0,3.3-0.7,4.4-2
	c0.4-0.5,1.1,0.3,0.5,0.5c-2.9,1.4-4.1,5-2.7,7.9C269.2,394.7,271.3,396,273.5,396z"/>
<path d="M153,327c5.6,0,10.1-4.5,10.1-10.1c0-3.8-2.2-7.4-5.6-9.1c-1-0.5,0.1-1.8,0.8-0.9c3.7,4.2,10.1,4.6,14.2,0.9
	c4.2-3.7,4.6-10.1,0.9-14.2s-10.1-4.6-14.2-0.9c-2.1,1.9-3.4,4.6-3.4,7.4c0,1-1.5,1.1-1.5-0.2c0-2.1,2-13.1,3.1-15.2
	c-2.8,0.7-5.8,0.7-8.6,0c1.1,2.1,3.1,13.1,3.1,15.2c0,1.3-1.5,1.2-1.5,0.2c-0.1-5.6-4.7-10-10.2-10c-5.6,0.1-10,4.7-10,10.2
	s4.7,10,10.2,10c2.8,0,5.5-1.3,7.4-3.4c0.7-0.8,1.8,0.5,0.8,0.9c-5,2.5-7.1,8.5-4.6,13.5C145.7,324.8,149.2,327,153,327z"/>
<path d="M153,136c-5.6,0-10.1,4.5-10.1,10.1c0,3.8,2.2,7.4,5.6,9.1c1,0.5-0.1,1.8-0.8,0.9c-3.7-4.2-10.1-4.6-14.2-0.9
	c-4.2,3.7-4.6,10.1-0.9,14.2c3.7,4.2,10.1,4.6,14.2,0.9c2.1-1.9,3.4-4.6,3.4-7.4c0-1,1.5-1.1,1.5,0.2c0,2.1-2,13.1-3.1,15.2
	c2.8-0.7,5.8-0.7,8.6,0c-1.1-2.1-3.1-13.1-3.1-15.2c0-1.3,1.5-1.2,1.5-0.2c0.1,5.6,4.7,10,10.2,10c5.6-0.1,10-4.7,10-10.2
	c-0.1-5.6-4.7-10-10.2-10c-2.8,0-5.5,1.3-7.4,3.4c-0.7,0.8-1.8-0.4-0.8-0.9c5-2.5,7.1-8.5,4.6-13.5C160.4,138.2,156.8,136,153,136z"
	/>
<g class="st1">
	<path d="M20,56.4v-0.2l1.8-4.1L32.4,41c3.8-3.7,5.6-6.9,5.6-9.5c0-2-0.5-3.6-1.5-4.9c-1.3-1.6-3-2.5-5.2-2.5
		c-2.1,0-3.8,0.8-5.2,2.5c-1.1,1.3-1.6,2.9-1.6,4.8c0,1.1,0.3,2.1,0.9,3.2l-3.7,1.9h-0.2c-0.9-1.7-1.4-3.6-1.4-5.7
		c0-2.7,1-5.3,3-7.5c2-2.3,4.8-3.5,8.2-3.5s6.2,1.2,8.2,3.5c2,2.3,3,5,3,8.3c0,3.6-2,7.4-6,11.3l-9.5,9.1h15.6v0.2l-1.8,4.1H20z"/>
</g>
<g class="st1">
	<path d="M285,406.6v0.2l-1.8,4.1l-10.7,11.1c-3.8,3.7-5.6,6.9-5.6,9.5c0,2,0.5,3.6,1.5,4.9c1.3,1.6,3,2.5,5.2,2.5
		c2.1,0,3.8-0.8,5.2-2.5c1.1-1.3,1.6-2.9,1.6-4.8c0-1.1-0.3-2.1-0.9-3.2l3.7-1.9h0.2c0.9,1.7,1.4,3.6,1.4,5.7c0,2.7-1,5.3-3,7.5
		c-2,2.3-4.8,3.5-8.2,3.5s-6.2-1.2-8.2-3.5c-2-2.3-3-5-3-8.3c0-3.6,2-7.4,6-11.3l9.5-9.1h-15.6v-0.2l1.8-4.1H285z"/>
</g>
</svg>
