<?xml version="1.0" encoding="utf-8"?>
<!-- Generator: Adobe Illustrator 23.0.3, SVG Export Plug-In . SVG Version: 6.00 Build 0)  -->
<svg version="1.1" id="Layer_1" xmlns="http://www.w3.org/2000/svg" xmlns:xlink="http://www.w3.org/1999/xlink" x="0px" y="0px"
	 viewBox="0 0 305 463" style="enable-background:new 0 0 305 463;" xml:space="preserve">
<style type="text/css">
	.st0{fill:#FFFFFF;stroke:#000000;stroke-width:2;stroke-linecap:round;}
	.st1{enable-background:new    ;}
</style>
<title>3</title>
<path class="st0" d="M24.1,1h257c12.7,0,23,10.2,23,22.9c0,0,0,0,0,0.1v415c0,12.7-10.3,23-23,23c0,0,0,0-0.1,0H24
	c-12.7,0-23-10.2-23-22.9c0,0,0,0,0-0.1V24C1,11.3,11.3,1,24.1,1C24,1,24,1,24.1,1L24.1,1z"/>
<g id="layer1">
	<path id="path3211" d="M31.5,67c-3.3,0-5.9,2.6-5.9,5.9c0,2.3,1.3,4.3,3.3,5.3c0.6,0.3-0.1,1-0.5,0.6c-2.2-2.4-5.9-2.7-8.4-0.5
		c-2.4,2.2-2.7,5.9-0.5,8.4s5.9,2.7,8.4,0.5c1.2-1.1,2-2.7,2-4.4c0-0.6,0.9-0.6,0.9,0.1c-0.3,3-0.9,6-1.8,8.9c1.7-0.4,3.4-0.4,5.1,0
		c-0.6-1.2-1.8-7.7-1.8-8.9c0-0.8,0.9-0.7,0.9-0.1c0,3.3,2.7,5.9,6,5.8c3.3,0,5.9-2.7,5.8-6s-2.7-5.9-6-5.8c-1.7,0-3.3,0.7-4.4,2
		c-0.4,0.5-1.1-0.3-0.5-0.6c2.9-1.4,4.1-5,2.7-7.9C35.8,68.3,33.7,67,31.5,67z"/>
</g>
<path d="M273.5,396c3.3,0,5.9-2.6,5.9-5.9c0-2.3-1.3-4.3-3.3-5.3c-0.6-0.3,0-1,0.5-0.5c2.2,2.4,5.9,2.7,8.4,0.5
	c2.4-2.2,2.7-5.9,0.5-8.4s-5.9-2.7-8.4-0.5c-1.2,1.1-2,2.7-2,4.4c0,0.6-0.9,0.6-0.9-0.1c0.3-3,0.9-6,1.8-8.9c-1.7,0.4-3.4,0.4-5,0
	c0.6,1.2,1.8,7.7,1.8,8.9c0,0.8-0.9,0.7-0.9,0.1c0-3.3-2.7-5.9-6-5.8c-3.3,0-5.9,2.7-5.8,6c0,3.3,2.7,5.9,6,5.8c1.7,0,3.3-0.7,4.4-2
	c0.4-0.5,1.1,0.3,0.5,0.5c-2.9,1.4-4.1,5-2.7,7.9C269.2,394.7,271.3,396,273.5,396z"/>
<path d="M153,62c-5.6,0-10.1,4.5-10.1,10.1c0,3.8,2.2,7.4,5.6,9.1c1,0.5-0.1,1.8-0.8,0.9c-3.7-4.2-10.1-4.6-14.2-0.9
	c-4.2,3.7-4.6,10.1-0.9,14.2c3.7,4.2,10.1,4.6,14.2,0.9c2.1-1.9,3.4-4.6,3.4-7.4c0-1,1.5-1.1,1.5,0.2c0,2.1-2,13.1-3.1,15.2
	c2.8-0.7,5.8-0.7,8.6,0c-1.1-2.1-3.1-13.1-3.1-15.2c0-1.3,1.5-1.2,1.5-0.2c0.1,5.6,4.6,10.1,10.2,10c5.6-0.1,10.1-4.6,10-10.2
	s-4.6-10.1-10.2-10c-2.9,0-5.6,1.3-7.5,3.4c-0.7,0.8-1.8-0.4-0.8-0.9c5-2.5,7.1-8.5,4.6-13.5C160.4,64.2,156.9,62,153,62z"/>
<path d="M153,401c5.6,0,10.1-4.5,10.1-10.1c0-3.8-2.2-7.4-5.6-9.1c-1-0.5,0.1-1.8,0.8-0.9c3.7,4.2,10.1,4.6,14.2,0.9
	c4.2-3.7,4.6-10.1,0.9-14.2s-10.1-4.6-14.2-0.9c-2.1,1.9-3.4,4.6-3.4,7.4c0,1-1.5,1.1-1.5-0.2c0-2.1,2-13.1,3.1-15.2
	c-2.8,0.7-5.8,0.7-8.6,0c1.1,2.1,3.1,13.1,3.1,15.2c0,1.3-1.5,1.2-1.5,0.2c-0.1-5.6-4.6-10.1-10.2-10s-10.1,4.6-10,10.2
	s4.6,10.1,10.2,10c2.9,0,5.6-1.3,7.5-3.4c0.7-0.8,1.8,0.5,0.8,0.9c-5,2.5-7.1,8.5-4.6,13.5C145.6,398.8,149.1,401,153,401z"/>
<path d="M153,210c-5.6,0-10.1,4.5-10.1,10.1c0,3.8,2.2,7.4,5.6,9.1c1,0.5-0.1,1.8-0.8,0.9c-3.7-4.2-10.1-4.6-14.2-0.9
	c-4.2,3.7-4.6,10.1-0.9,14.2s10.1,4.6,14.2,0.9c2.1-1.9,3.4-4.6,3.4-7.4c0-1,1.5-1.1,1.5,0.2c0,2.1-2,13.1-3.1,15.2
	c2.8-0.7,5.8-0.7,8.6,0c-1.1-2.1-3.1-13.1-3.1-15.2c0-1.3,1.5-1.2,1.5-0.2c0.1,5.6,4.6,10.1,10.2,10s10.1-4.6,10-10.2
	s-4.6-10.1-10.2-10c-2.9,0-5.6,1.3-7.5,3.4c-0.7,0.8-1.8-0.5-0.8-0.9c5-2.5,7.1-8.5,4.6-13.5C160.4,212.2,156.9,210,153,210z"/>
<g class="st1">
	<path d="M20.2,44.9l4.2-2.2h0.2v2.2c0,2.1,0.5,3.8,1.6,5.2c1.3,1.6,3,2.5,5.2,2.5c2.1,0,3.9-0.8,5.2-2.5c1.1-1.3,1.6-2.9,1.6-5
		c0-1.9-0.4-3.4-1.3-4.5c-1.2-1.5-3-2.3-5.5-2.3c-2,0-3.7,0.4-4.9,1.1l7.4-14.9H22.2v-0.2l1.8-4.1h16.2l-7.1,14.4
		c2.6,0,4.8,0.9,6.5,2.5c2,1.9,3,4.6,3,8c0,3.3-1,6-3,8.3c-2,2.3-4.8,3.5-8.2,3.5c-3.5,0-6.2-1.2-8.2-3.5
		C21.2,51.2,20.2,48.3,20.2,44.9z"/>
</g>
<g class="st1">
	<path d="M284.8,418.1l-4.2,2.2h-0.2v-2.2c0-2.1-0.5-3.8-1.6-5.2c-1.3-1.6-3-2.5-5.2-2.5c-2.1,0-3.9,0.8-5.2,2.5
		c-1.1,1.3-1.6,2.9-1.6,5c0,1.9,0.4,3.4,1.3,4.5c1.2,1.5,3,2.3,5.5,2.3c2,0,3.7-0.4,4.9-1.1l-7.4,14.9h11.7v0.2l-1.8,4.1h-16.2
		l7.1-14.4c-2.6,0-4.8-0.9-6.5-2.5c-2-1.9-3-4.6-3-8c0-3.3,1-6,3-8.3c2-2.3,4.8-3.5,8.2-3.5s6.2,1.2,8.2,3.5
		C283.8,411.9,284.8,414.7,284.8,418.1z"/>
</g>
</svg>
