<?xml version="1.0" encoding="utf-8"?>
<!-- Generator: Adobe Illustrator 23.0.3, SVG Export Plug-In . SVG Version: 6.00 Build 0)  -->
<svg version="1.1" id="Layer_1" xmlns="http://www.w3.org/2000/svg" xmlns:xlink="http://www.w3.org/1999/xlink" x="0px" y="0px"
	 viewBox="0 0 305 463" style="enable-background:new 0 0 305 463;" xml:space="preserve">
<style type="text/css">
	.st0{fill:#FFFFFF;stroke:#000000;stroke-width:2;stroke-linecap:round;}
	.st1{enable-background:new    ;}
</style>
<title>4</title>
<path class="st0" d="M24,1h257c12.7,0,23,10.3,23,23l0,0v415c0,12.7-10.3,23-23,23H24c-12.7,0-23-10.2-23-22.9c0,0,0,0,0-0.1V24
	C1,11.3,11.3,1,24,1L24,1L24,1z"/>
<g id="layer1">
	<path id="path3211" d="M31.5,67c-3.3,0-5.9,2.6-5.9,5.9c0,2.3,1.3,4.3,3.3,5.3c0.6,0.3,0,1-0.5,0.6c-2.2-2.4-5.9-2.7-8.4-0.5
		c-2.4,2.2-2.7,5.9-0.5,8.4c2.2,2.4,5.9,2.7,8.4,0.5c1.2-1.1,2-2.7,2-4.4c0-0.6,0.9-0.6,0.9,0.1c-0.3,3-0.9,6-1.8,8.9
		c1.7-0.4,3.4-0.4,5,0c-0.6-1.2-1.8-7.7-1.8-8.9c0-0.8,0.9-0.7,0.9-0.1c0,3.3,2.7,5.9,6,5.8c3.3,0,5.9-2.7,5.8-6
		c0-3.3-2.7-5.9-6-5.8c-1.7,0-3.3,0.7-4.4,2c-0.4,0.5-1.1-0.3-0.5-0.6c2.9-1.4,4.1-5,2.7-7.9C35.8,68.3,33.7,67,31.5,67z"/>
</g>
<path d="M273.5,396c3.3,0,5.9-2.6,5.9-5.9c0-2.3-1.3-4.3-3.3-5.3c-0.6-0.3,0-1,0.5-0.5c2.2,2.4,5.9,2.7,8.4,0.5
	c2.4-2.2,2.7-5.9,0.5-8.4s-5.9-2.7-8.4-0.5c-1.2,1.1-2,2.7-2,4.4c0,0.6-0.9,0.6-0.9-0.1c0.3-3,0.9-6,1.8-8.9c-1.6,0.4-3.4,0.4-5,0
	c0.6,1.2,1.8,7.7,1.8,8.9c0,0.8-0.9,0.7-0.9,0.1c0-3.3-2.7-5.9-6-5.8c-3.3,0-5.9,2.7-5.8,6c0,3.3,2.7,5.9,6,5.8c1.7,0,3.3-0.7,4.4-2
	c0.4-0.5,1.1,0.3,0.5,0.5c-2.9,1.4-4.1,5-2.7,7.9C269.3,394.7,271.3,396,273.5,396z"/>
<path d="M84,327c5.6,0,10.1-4.5,10.1-10.1c0-3.8-2.2-7.4-5.6-9.1c-1-0.5,0.1-1.8,0.8-0.9c3.7,4.2,10.1,4.6,14.2,0.9
	c4.2-3.7,4.6-10.1,0.9-14.2s-10.1-4.6-14.2-0.9c-2.1,1.9-3.4,4.6-3.4,7.4c0,1-1.5,1.1-1.5-0.2c0-2.1,2-13.1,3.1-15.2
	c-2.8,0.7-5.8,0.7-8.6,0c1.1,2.1,3.1,13.1,3.1,15.2c0,1.3-1.5,1.2-1.5,0.2c-0.1-5.6-4.6-10.1-10.2-10s-10.1,4.6-10,10.2
	s4.6,10.1,10.2,10c2.9,0,5.6-1.3,7.5-3.4c0.7-0.8,1.8,0.5,0.8,0.9c-5,2.5-7.1,8.5-4.6,13.5C76.6,324.8,80.1,327,84,327z"/>
<path d="M221,136c-5.6,0-10.1,4.5-10.1,10.1c0,3.8,2.2,7.4,5.6,9.1c1,0.5-0.1,1.8-0.8,0.9c-3.7-4.2-10.1-4.6-14.2-0.9
	c-4.2,3.7-4.6,10.1-0.9,14.2c3.7,4.2,10.1,4.6,14.2,0.9c2.1-1.9,3.4-4.6,3.4-7.4c0-1,1.5-1.1,1.5,0.2c0,2.1-2,13.1-3.1,15.2
	c2.8-0.7,5.8-0.7,8.6,0c-1.1-2.1-3.1-13.1-3.1-15.2c0-1.3,1.5-1.2,1.5-0.2c0.1,5.6,4.6,10.1,10.2,10c5.6-0.1,10.1-4.6,10-10.2
	c-0.1-5.6-4.6-10.1-10.2-10c-2.9,0-5.6,1.3-7.5,3.4c-0.7,0.8-1.8-0.4-0.8-0.9c5-2.5,7.1-8.5,4.6-13.5C228.4,138.2,224.9,136,221,136
	z"/>
<path d="M84,136c-5.6,0-10.1,4.5-10.1,10.1c0,3.8,2.2,7.4,5.6,9.1c1,0.5-0.1,1.8-0.8,0.9c-3.7-4.2-10.1-4.6-14.2-0.9
	c-4.2,3.7-4.6,10.1-0.9,14.2c3.7,4.2,10.1,4.6,14.2,0.9c2.1-1.9,3.4-4.6,3.4-7.4c0-1,1.5-1.1,1.5,0.2c0,2.1-2,13.1-3.1,15.2
	c2.8-0.7,5.8-0.7,8.6,0c-1.1-2.1-3.1-13.1-3.1-15.2c0-1.3,1.5-1.2,1.5-0.2c0.1,5.6,4.6,10.1,10.2,10s10.1-4.6,10-10.2
	c-0.1-5.6-4.6-10.1-10.2-10c-2.9,0-5.6,1.3-7.5,3.4c-0.7,0.8-1.8-0.4-0.8-0.9c5-2.5,7.1-8.5,4.6-13.5C91.4,138.2,87.9,136,84,136z"
	/>
<path d="M221,327c5.6,0,10.1-4.5,10.1-10.1c0-3.8-2.2-7.4-5.6-9.1c-1-0.5,0.1-1.8,0.8-0.9c3.7,4.2,10.1,4.6,14.2,0.9
	c4.2-3.7,4.6-10.1,0.9-14.2s-10.1-4.6-14.2-0.9c-2.1,1.9-3.4,4.6-3.4,7.4c0,1-1.5,1.1-1.5-0.2c0-2.1,2-13.1,3.1-15.2
	c-2.8,0.7-5.8,0.7-8.6,0c1.1,2.1,3.1,13.1,3.1,15.2c0,1.3-1.5,1.2-1.5,0.2c-0.1-5.6-4.6-10.1-10.2-10s-10.1,4.6-10,10.2
	s4.6,10.1,10.2,10c2.9,0,5.6-1.3,7.5-3.4c0.7-0.8,1.8,0.5,0.8,0.9c-5,2.5-7.1,8.5-4.6,13.5C213.6,324.8,217.1,327,221,327z"/>
<g class="st1">
	<path d="M34.7,57.4v-9.5H18.3v-0.2l1.8-4.1l14.5-22l4.2-2.2h0.2v24.2h3.3v0.2l-1.8,4.1h-1.5v7.4l-4.2,2.2H34.7z M34.7,43.5V28
		L25,43.5H34.7z"/>
</g>
<g class="st1">
	<path d="M270.4,405.7v9.5h16.3v0.2l-1.8,4.1l-14.5,22l-4.2,2.2h-0.2v-24.2h-3.3v-0.2l1.8-4.1h1.5v-7.4l4.2-2.2H270.4z M270.4,419.5
		V435l9.7-15.5H270.4z"/>
</g>
</svg>
