<svg id="Layer_1" data-name="Layer 1" xmlns="http://www.w3.org/2000/svg" viewBox="0 0 305 463"><defs><style>.cls-1{fill:#fff;stroke-linecap:round;stroke-width:2px;}.cls-1,.cls-2{stroke:#000;}.cls-2{stroke-miterlimit:10;stroke-width:1.44px;}</style></defs><title>4</title><path class="cls-1" d="M261.05,91H518a23,23,0,0,1,23,23V529a23,23,0,0,1-23,23H261.05A23,23,0,0,1,238,529V114.05a23,23,0,0,1,23.05-23Z" transform="translate(-237 -90)"/><g id="layer1"><path id="path3211" d="M268.46,157a5.92,5.92,0,0,0-2.62,11.23c.59.29,0,1-.49.55a5.92,5.92,0,1,0,1.49,4c0-.57.89-.63.89.14a45.45,45.45,0,0,1-1.79,8.9,10.44,10.44,0,0,1,5.05,0c-.63-1.23-1.8-7.68-1.8-8.9,0-.77.88-.71.89-.14a5.92,5.92,0,1,0,1.49-4c-.43.49-1.08-.26-.49-.55A5.92,5.92,0,0,0,268.46,157Z" transform="translate(-237 -90)"/></g><path class="cls-2" d="M277.93,131.65h0c-.42-.09-2-.17-4.79-.24h0v9.34h-3.83v-9.34h-12.5v-1l15.56-21.74h.77v19.54h.57a6.27,6.27,0,0,0,1.94-.22h0a1.4,1.4,0,0,0,.89-.72h0a5.18,5.18,0,0,0,.38-1.5h.82Q277.74,129.79,277.93,131.65Zm-18.29-3.44h9.67v-13.7Z" transform="translate(-237 -90)"/><path d="M510.54,486a5.92,5.92,0,0,0,2.62-11.23c-.59-.29.05-1,.49-.55a5.92,5.92,0,1,0-1.49-4c0,.57-.89.63-.89-.14a45.45,45.45,0,0,1,1.79-8.9,10.44,10.44,0,0,1-5,0c.63,1.23,1.8,7.68,1.8,8.9,0,.77-.88.71-.89.14a5.92,5.92,0,1,0-1.49,4c.43-.49,1.08.26.49.55A5.92,5.92,0,0,0,510.54,486Z" transform="translate(-237 -90)"/><path class="cls-2" d="M501.07,511.35h0c.42.09,2,.17,4.79.24h0v-9.34h3.83v9.34h12.5v1l-15.56,21.74h-.77V514.79h-.57a6.27,6.27,0,0,0-1.94.22h0a1.4,1.4,0,0,0-.89.72h0a5.18,5.18,0,0,0-.38,1.5h-.82Q501.26,513.21,501.07,511.35Zm18.29,3.44h-9.67v13.7Z" transform="translate(-237 -90)"/><path d="M321,417a10.1,10.1,0,0,0,4.47-19.16c-1-.49.09-1.78.83-.94a10.09,10.09,0,1,0-2.54-6.83c0,1-1.52,1.08-1.52-.23,0-2.08,2-13.09,3.06-15.19a17.43,17.43,0,0,1-8.61,0c1.06,2.1,3.06,13.11,3.06,15.19,0,1.31-1.5,1.21-1.51.23a10.12,10.12,0,1,0-2.55,6.83c.74-.84,1.84.45.83.94A10.1,10.1,0,0,0,321,417Z" transform="translate(-237 -90)"/><path d="M458,226a10.1,10.1,0,0,0-4.47,19.16c1,.49-.09,1.78-.83.94a10.09,10.09,0,1,0,2.54,6.83c0-1,1.52-1.08,1.52.23,0,2.08-2,13.09-3.06,15.19a17.43,17.43,0,0,1,8.61,0c-1.06-2.1-3.06-13.11-3.06-15.19,0-1.31,1.5-1.21,1.51-.23a10.12,10.12,0,1,0,2.55-6.83c-.74.84-1.84-.45-.83-.94A10.1,10.1,0,0,0,458,226Z" transform="translate(-237 -90)"/><path d="M321,226a10.1,10.1,0,0,0-4.47,19.16c1,.49-.09,1.78-.83.94a10.09,10.09,0,1,0,2.54,6.83c0-1,1.52-1.08,1.52.23,0,2.08-2,13.09-3.06,15.19a17.43,17.43,0,0,1,8.61,0c-1.06-2.1-3.06-13.11-3.06-15.19,0-1.31,1.5-1.21,1.51-.23a10.12,10.12,0,1,0,2.55-6.83c-.74.84-1.84-.45-.83-.94A10.1,10.1,0,0,0,321,226Z" transform="translate(-237 -90)"/><path d="M458,417a10.1,10.1,0,0,0,4.47-19.16c-1-.49.09-1.78.83-.94a10.09,10.09,0,1,0-2.54-6.83c0,1-1.52,1.08-1.52-.23,0-2.08,2-13.09,3.06-15.19a17.43,17.43,0,0,1-8.61,0c1.06,2.1,3.06,13.11,3.06,15.19,0,1.31-1.5,1.21-1.51.23a10.12,10.12,0,1,0-2.55,6.83c.74-.84,1.84.45.83.94A10.1,10.1,0,0,0,458,417Z" transform="translate(-237 -90)"/></svg>