<svg id="Layer_1" data-name="Layer 1" xmlns="http://www.w3.org/2000/svg" viewBox="0 0 305 463"><defs><style>.cls-1{fill:#fff;stroke-linecap:round;stroke-width:2px;}.cls-1,.cls-2{stroke:#000;}.cls-2{stroke-miterlimit:10;stroke-width:1.44px;}</style></defs><title>6</title><path class="cls-1" d="M109.05,94H366a23,23,0,0,1,23.05,23V532A23,23,0,0,1,366,555H109.05a23,23,0,0,1-23-23V117.05a23,23,0,0,1,23-23Z" transform="translate(-85 -93)"/><g id="layer1"><path id="path3211" d="M116.46,160a5.92,5.92,0,0,0-2.62,11.23c.59.29,0,1-.49.55a5.92,5.92,0,1,0,1.49,4c0-.57.89-.63.89.14a45.45,45.45,0,0,1-1.79,8.9,10.44,10.44,0,0,1,5,0c-.63-1.23-1.8-7.68-1.8-8.9,0-.77.88-.71.89-.14a5.92,5.92,0,1,0,1.49-4c-.43.49-1.08-.26-.49-.55A5.92,5.92,0,0,0,116.46,160Z" transform="translate(-85 -93)"/></g><path class="cls-2" d="M118.13,116.09h0a7.74,7.74,0,0,1,4.27,1.25h0a9,9,0,0,1,3.17,3.62h0a12.25,12.25,0,0,1,1.2,5.59h0a12.19,12.19,0,0,1-1.42,6h0a9.57,9.57,0,0,1-3.81,3.86h0a10.88,10.88,0,0,1-5.33,1.32h0a8.38,8.38,0,0,1-7.2-3.6h0q-2.6-3.6-2.59-10h0a23.31,23.31,0,0,1,2.57-11.4h0a19.88,19.88,0,0,1,6.26-7.15h0a20.19,20.19,0,0,1,7.44-3.19h0l.19,1h0a19.78,19.78,0,0,0-5.25,2.59h0a13.77,13.77,0,0,0-4.11,5h0a24.07,24.07,0,0,0-2.25,9h0a6.8,6.8,0,0,1,3-3h0A8.74,8.74,0,0,1,118.13,116.09Zm-1.44,20.73h0a4.51,4.51,0,0,0,3.89-2.44h0c1-1.64,1.53-4.13,1.53-7.49h0q0-4.9-1.44-7.15h0a4.29,4.29,0,0,0-3.74-2.26h0a6.55,6.55,0,0,0-3.34,1h0a6,6,0,0,0-2.47,3.15h0c0,.51-.05,1.33-.05,2.45h0q0,6.9,1.64,9.84h0q1.62,2.92,4,2.92Z" transform="translate(-85 -93)"/><path d="M358.54,489a5.92,5.92,0,0,0,2.62-11.23c-.59-.29,0-1,.49-.55a5.92,5.92,0,1,0-1.49-4c0,.57-.89.63-.89-.14a45.45,45.45,0,0,1,1.79-8.9,10.44,10.44,0,0,1-5.05,0c.63,1.23,1.8,7.68,1.8,8.9,0,.77-.88.71-.89.14a5.92,5.92,0,1,0-1.49,4c.43-.49,1.08.26.49.55A5.92,5.92,0,0,0,358.54,489Z" transform="translate(-85 -93)"/><path class="cls-2" d="M356.87,532.91h0a7.74,7.74,0,0,1-4.27-1.25h0a9,9,0,0,1-3.17-3.62h0a12.25,12.25,0,0,1-1.2-5.59h0a12.19,12.19,0,0,1,1.42-6.05h0a9.57,9.57,0,0,1,3.81-3.86h0a10.88,10.88,0,0,1,5.33-1.32h0a8.38,8.38,0,0,1,7.2,3.6h0q2.6,3.6,2.59,10h0a23.31,23.31,0,0,1-2.57,11.4h0a19.88,19.88,0,0,1-6.26,7.15h0a20.19,20.19,0,0,1-7.44,3.19h0l-.19-1h0a19.78,19.78,0,0,0,5.25-2.59h0a13.77,13.77,0,0,0,4.11-5h0a24.07,24.07,0,0,0,2.25-9h0a6.8,6.8,0,0,1-3,3h0A8.74,8.74,0,0,1,356.87,532.91Zm1.44-20.73h0a4.51,4.51,0,0,0-3.89,2.44h0c-1,1.64-1.53,4.13-1.53,7.49h0q0,4.9,1.44,7.15h0a4.29,4.29,0,0,0,3.74,2.26h0a6.55,6.55,0,0,0,3.34-1h0a6,6,0,0,0,2.47-3.15h0c0-.51.05-1.33.05-2.45h0q0-6.9-1.64-9.84h0q-1.62-2.93-4-2.92Z" transform="translate(-85 -93)"/><path d="M169,155a10.1,10.1,0,0,0-4.47,19.16c1,.49-.09,1.78-.83.94a10.09,10.09,0,1,0,2.54,6.83c0-1,1.52-1.08,1.52.23,0,2.08-2,13.09-3.06,15.19a17.43,17.43,0,0,1,8.61,0c-1.06-2.1-3.06-13.11-3.06-15.19,0-1.31,1.5-1.21,1.51-.23a10.12,10.12,0,1,0,2.55-6.83c-.74.84-1.84-.45-.83-.94A10.1,10.1,0,0,0,169,155Z" transform="translate(-85 -93)"/><path d="M169,494.35a10.1,10.1,0,0,0,4.48-19.16c-1-.49.09-1.78.83-.95a10.08,10.08,0,1,0-2.55-6.82c0,1-1.51,1.08-1.51-.24,0-2.07,2-13.08,3.06-15.18a17.43,17.43,0,0,1-8.61,0c1.06,2.1,3.06,13.11,3.06,15.18,0,1.32-1.51,1.22-1.52.24a10.11,10.11,0,1,0-2.54,6.82c.74-.83,1.84.46.83.95A10.1,10.1,0,0,0,169,494.35Z" transform="translate(-85 -93)"/><path d="M169,303a10.1,10.1,0,0,0-4.47,19.16c1,.49-.09,1.78-.83.94a10.09,10.09,0,1,0,2.54,6.83c0-1,1.52-1.08,1.52.23,0,2.08-2,13.09-3.06,15.19a17.43,17.43,0,0,1,8.61,0c-1.06-2.1-3.06-13.11-3.06-15.19,0-1.31,1.5-1.21,1.51-.23a10.12,10.12,0,1,0,2.55-6.83c-.74.84-1.84-.45-.83-.94A10.1,10.1,0,0,0,169,303Z" transform="translate(-85 -93)"/><path d="M306,155a10.1,10.1,0,0,0-4.47,19.16c1,.49-.09,1.78-.83.94a10.09,10.09,0,1,0,2.54,6.83c0-1,1.52-1.08,1.52.23,0,2.08-2,13.09-3.06,15.19a17.43,17.43,0,0,1,8.61,0c-1.06-2.1-3.06-13.11-3.06-15.19,0-1.31,1.5-1.21,1.51-.23a10.12,10.12,0,1,0,2.55-6.83c-.74.84-1.84-.45-.83-.94A10.1,10.1,0,0,0,306,155Z" transform="translate(-85 -93)"/><path d="M306,494.35a10.1,10.1,0,0,0,4.48-19.16c-1-.49.09-1.78.83-.95a10.08,10.08,0,1,0-2.55-6.82c0,1-1.51,1.08-1.51-.24,0-2.07,2-13.08,3.06-15.18a17.43,17.43,0,0,1-8.61,0c1.06,2.1,3.06,13.11,3.06,15.18,0,1.32-1.51,1.22-1.52.24a10.11,10.11,0,1,0-2.54,6.82c.74-.83,1.84.46.83.95A10.1,10.1,0,0,0,306,494.35Z" transform="translate(-85 -93)"/><path d="M306,303a10.1,10.1,0,0,0-4.47,19.16c1,.49-.09,1.78-.83.94a10.09,10.09,0,1,0,2.54,6.83c0-1,1.52-1.08,1.52.23,0,2.08-2,13.09-3.06,15.19a17.43,17.43,0,0,1,8.61,0c-1.06-2.1-3.06-13.11-3.06-15.19,0-1.31,1.5-1.21,1.51-.23a10.12,10.12,0,1,0,2.55-6.83c-.74.84-1.84-.45-.83-.94A10.1,10.1,0,0,0,306,303Z" transform="translate(-85 -93)"/></svg>