<?xml version="1.0" encoding="utf-8"?>
<!-- Generator: Adobe Illustrator 23.0.3, SVG Export Plug-In . SVG Version: 6.00 Build 0)  -->
<svg version="1.1" id="Layer_1" xmlns="http://www.w3.org/2000/svg" xmlns:xlink="http://www.w3.org/1999/xlink" x="0px" y="0px"
	 viewBox="0 0 305 463" style="enable-background:new 0 0 305 463;" xml:space="preserve">
<style type="text/css">
	.st0{fill:#FFFFFF;stroke:#000000;stroke-width:2;stroke-linecap:round;}
	.st1{enable-background:new    ;}
</style>
<title>6</title>
<path class="st0" d="M24.1,1h257c12.7,0,23,10.2,23,22.9c0,0,0,0,0,0.1v415c0,12.7-10.3,23-23,23c0,0,0,0-0.1,0H24
	c-12.7,0-23-10.3-23-23V24C1.1,11.3,11.3,1.1,24.1,1L24.1,1L24.1,1z"/>
<g id="layer1">
	<path id="path3211" d="M31.5,67c-3.3,0-5.9,2.6-5.9,5.9c0,2.3,1.3,4.3,3.3,5.3c0.6,0.3,0,1-0.5,0.6c-2.2-2.4-5.9-2.7-8.4-0.5
		c-2.4,2.2-2.7,5.9-0.5,8.4c2.2,2.4,5.9,2.7,8.4,0.5c1.2-1.1,2-2.7,2-4.4c0-0.6,0.9-0.6,0.9,0.1c-0.3,3-0.9,6-1.8,8.9
		c1.6-0.4,3.4-0.4,5,0c-0.6-1.2-1.8-7.7-1.8-8.9c0-0.8,0.9-0.7,0.9-0.1c0,3.3,2.7,5.9,6,5.8s5.9-2.7,5.8-6c0-3.3-2.7-5.9-6-5.8
		c-1.7,0-3.3,0.7-4.4,2c-0.4,0.5-1.1-0.3-0.5-0.6c2.9-1.4,4.1-5,2.7-7.9C35.7,68.3,33.7,67,31.5,67z"/>
</g>
<path d="M273.5,396c3.3,0,5.9-2.6,5.9-5.9c0-2.3-1.3-4.3-3.3-5.3c-0.6-0.3,0-1,0.5-0.5c2.2,2.4,5.9,2.7,8.4,0.5
	c2.4-2.2,2.7-5.9,0.5-8.4s-5.9-2.7-8.4-0.5c-1.2,1.1-2,2.7-2,4.4c0,0.6-0.9,0.6-0.9-0.1c0.3-3,0.9-6,1.8-8.9c-1.7,0.4-3.4,0.4-5,0
	c0.6,1.2,1.8,7.7,1.8,8.9c0,0.8-0.9,0.7-0.9,0.1c0-3.3-2.7-5.9-6-5.8c-3.3,0-5.9,2.7-5.8,6c0,3.3,2.7,5.9,6,5.8c1.7,0,3.3-0.7,4.4-2
	c0.4-0.5,1.1,0.3,0.5,0.5c-2.9,1.4-4.1,5-2.7,7.9C269.2,394.7,271.3,396,273.5,396z"/>
<path d="M84,62c-5.6,0-10.1,4.5-10.1,10.1c0,3.8,2.2,7.4,5.6,9.1c1,0.5-0.1,1.8-0.8,0.9c-3.7-4.2-10.1-4.6-14.2-0.9
	c-4.2,3.7-4.6,10.1-0.9,14.2c3.7,4.2,10.1,4.6,14.2,0.9c2.1-1.9,3.4-4.6,3.4-7.4c0-1,1.5-1.1,1.5,0.2c0,2.1-2,13.1-3.1,15.2
	c2.8-0.7,5.8-0.7,8.6,0c-1.1-2.1-3.1-13.1-3.1-15.2c0-1.3,1.5-1.2,1.5-0.2c0.1,5.6,4.6,10.1,10.2,10s10.1-4.6,10-10.2
	s-4.6-10.1-10.2-10c-2.9,0-5.6,1.3-7.5,3.4c-0.7,0.8-1.8-0.4-0.8-0.9c5-2.5,7.1-8.5,4.6-13.5C91.4,64.2,87.9,62,84,62z"/>
<path d="M84,401.4c5.6,0,10.1-4.5,10.1-10.1c0-3.9-2.2-7.4-5.6-9.1c-1-0.5,0.1-1.8,0.8-1c3.7,4.2,10.1,4.5,14.2,0.8
	c4.2-3.7,4.5-10.1,0.8-14.2c-3.7-4.2-10.1-4.5-14.2-0.8c-2.1,1.9-3.3,4.6-3.4,7.4c0,1-1.5,1.1-1.5-0.2c0-2.1,2-13.1,3.1-15.2
	c-2.8,0.7-5.8,0.7-8.6,0c1.1,2.1,3.1,13.1,3.1,15.2c0,1.3-1.5,1.2-1.5,0.2c-0.1-5.6-4.6-10.1-10.2-10s-10.1,4.6-10,10.2
	s4.6,10.1,10.2,10c2.9,0,5.6-1.3,7.5-3.4c0.7-0.8,1.8,0.5,0.8,1c-5,2.5-7.1,8.5-4.6,13.5C76.6,399.2,80.2,401.4,84,401.4z"/>
<path d="M84,210c-5.6,0-10.1,4.5-10.1,10.1c0,3.8,2.2,7.4,5.6,9.1c1,0.5-0.1,1.8-0.8,0.9c-3.7-4.2-10.1-4.6-14.2-0.9
	c-4.2,3.7-4.6,10.1-0.9,14.2s10.1,4.6,14.2,0.9c2.1-1.9,3.4-4.6,3.4-7.4c0-1,1.5-1.1,1.5,0.2c0,2.1-2,13.1-3.1,15.2
	c2.8-0.7,5.8-0.7,8.6,0c-1.1-2.1-3.1-13.1-3.1-15.2c0-1.3,1.5-1.2,1.5-0.2c0.1,5.6,4.6,10.1,10.2,10s10.1-4.6,10-10.2
	s-4.6-10.1-10.2-10c-2.9,0-5.6,1.3-7.5,3.4c-0.7,0.8-1.8-0.5-0.8-0.9c5-2.5,7.1-8.5,4.6-13.5C91.4,212.2,87.9,210,84,210z"/>
<path d="M221,62c-5.6,0-10.1,4.5-10.1,10.1c0,3.8,2.2,7.4,5.6,9.1c1,0.5-0.1,1.8-0.8,0.9c-3.7-4.2-10.1-4.6-14.2-0.9
	c-4.2,3.7-4.6,10.1-0.9,14.2c3.7,4.2,10.1,4.6,14.2,0.9c2.1-1.9,3.4-4.6,3.4-7.4c0-1,1.5-1.1,1.5,0.2c0,2.1-2,13.1-3.1,15.2
	c2.8-0.7,5.8-0.7,8.6,0c-1.1-2.1-3.1-13.1-3.1-15.2c0-1.3,1.5-1.2,1.5-0.2c0.1,5.6,4.6,10.1,10.2,10c5.6-0.1,10.1-4.6,10-10.2
	s-4.6-10.1-10.2-10c-2.9,0-5.6,1.3-7.5,3.4c-0.7,0.8-1.8-0.4-0.8-0.9c5-2.5,7.1-8.5,4.6-13.5C228.4,64.2,224.9,62,221,62z"/>
<path d="M221,401.4c5.6,0,10.1-4.5,10.1-10.1c0-3.9-2.2-7.4-5.6-9.1c-1-0.5,0.1-1.8,0.8-1c3.7,4.2,10.1,4.5,14.2,0.8
	c4.2-3.7,4.5-10.1,0.8-14.2c-3.7-4.2-10.1-4.5-14.2-0.8c-2.1,1.9-3.3,4.6-3.4,7.4c0,1-1.5,1.1-1.5-0.2c0-2.1,2-13.1,3.1-15.2
	c-2.8,0.7-5.8,0.7-8.6,0c1.1,2.1,3.1,13.1,3.1,15.2c0,1.3-1.5,1.2-1.5,0.2c-0.1-5.6-4.6-10.1-10.2-10c-5.6,0.1-10.1,4.6-10,10.2
	s4.6,10.1,10.2,10c2.9,0,5.6-1.3,7.5-3.4c0.7-0.8,1.8,0.5,0.8,1c-5,2.5-7.1,8.5-4.6,13.5C213.6,399.2,217.2,401.4,221,401.4z"/>
<path d="M221,210c-5.6,0-10.1,4.5-10.1,10.1c0,3.8,2.2,7.4,5.6,9.1c1,0.5-0.1,1.8-0.8,0.9c-3.7-4.2-10.1-4.6-14.2-0.9
	c-4.2,3.7-4.6,10.1-0.9,14.2s10.1,4.6,14.2,0.9c2.1-1.9,3.4-4.6,3.4-7.4c0-1,1.5-1.1,1.5,0.2c0,2.1-2,13.1-3.1,15.2
	c2.8-0.7,5.8-0.7,8.6,0c-1.1-2.1-3.1-13.1-3.1-15.2c0-1.3,1.5-1.2,1.5-0.2c0.1,5.6,4.6,10.1,10.2,10s10.1-4.6,10-10.2
	s-4.6-10.1-10.2-10c-2.9,0-5.6,1.3-7.5,3.4c-0.7,0.8-1.8-0.5-0.8-0.9c5-2.5,7.1-8.5,4.6-13.5C228.4,212.2,224.9,210,221,210z"/>
<g class="st1">
	<path d="M42.1,29.7L38,31.8h-0.2c0-2.1-0.5-3.9-1.6-5.2c-1.3-1.6-2.9-2.5-4.7-2.5c-2.2,0-3.9,0.8-5.2,2.5c-1.1,1.3-1.6,3.1-1.6,5.2
		v4.5c1.9-1.9,4.2-2.8,6.8-2.8c3.5,0,6.2,1.2,8.2,3.5c2,2.3,3,5,3,8.3c0,3.3-1,6-3,8.3c-2,2.3-4.8,3.5-8.2,3.5s-6.2-1.2-8.2-3.5
		c-2-2.3-3-5-3-8.3V31.8c0-3.4,1-6.2,3-8.5c2-2.3,4.8-3.5,8.2-3.5c3.3,0,5.9,1.1,7.8,3.2C41.2,25.2,42.1,27.4,42.1,29.7z M31.5,37.7
		c-2.1,0-3.9,0.8-5.2,2.5c-1.1,1.3-1.6,3-1.6,5c0,2,0.5,3.6,1.6,5c1.3,1.6,3,2.5,5.2,2.5c2.1,0,3.8-0.8,5.2-2.5
		c1.1-1.3,1.6-2.9,1.6-5c0-2-0.5-3.7-1.6-5C35.3,38.5,33.6,37.7,31.5,37.7z"/>
</g>
<g class="st1">
	<path d="M262.9,433.4l4.1-2.1h0.2c0,2.1,0.5,3.9,1.6,5.2c1.3,1.6,2.9,2.5,4.7,2.5c2.2,0,3.9-0.8,5.2-2.5c1.1-1.3,1.6-3.1,1.6-5.2
		v-4.5c-1.9,1.9-4.2,2.8-6.8,2.8c-3.5,0-6.2-1.2-8.2-3.5c-2-2.3-3-5-3-8.3c0-3.3,1-6,3-8.3c2-2.3,4.8-3.5,8.2-3.5s6.2,1.2,8.2,3.5
		c2,2.3,3,5,3,8.3v13.4c0,3.4-1,6.2-3,8.5c-2,2.3-4.8,3.5-8.2,3.5c-3.3,0-5.9-1.1-7.8-3.2S262.9,435.7,262.9,433.4z M273.5,425.3
		c2.1,0,3.9-0.8,5.2-2.5c1.1-1.3,1.6-3,1.6-5c0-2-0.5-3.6-1.6-5c-1.3-1.6-3-2.5-5.2-2.5c-2.1,0-3.8,0.8-5.2,2.5
		c-1.1,1.3-1.6,2.9-1.6,5c0,2,0.5,3.7,1.6,5C269.7,424.5,271.4,425.3,273.5,425.3z"/>
</g>
</svg>
