<svg id="Layer_1" data-name="Layer 1" xmlns="http://www.w3.org/2000/svg" viewBox="0 0 305 463"><defs><style>.cls-1{fill:#fff;stroke-linecap:round;stroke-width:2px;}.cls-1,.cls-2{stroke:#000;}.cls-2{stroke-miterlimit:10;stroke-width:1.44px;}</style></defs><title>7</title><path class="cls-1" d="M104.05,61H361a23,23,0,0,1,23.05,23V499A23,23,0,0,1,361,522H104.05A23,23,0,0,1,81,499V84.05a23,23,0,0,1,23-23Z" transform="translate(-80 -60)"/><g id="layer1"><path id="path3211" d="M111.46,127a5.92,5.92,0,0,0-2.62,11.23c.59.29,0,1-.49.55a5.92,5.92,0,1,0,1.49,4c0-.57.89-.63.89.14a45.45,45.45,0,0,1-1.79,8.9,10.44,10.44,0,0,1,5,0c-.63-1.23-1.8-7.68-1.8-8.9,0-.77.88-.71.89-.14a5.92,5.92,0,1,0,1.49-4c-.43.49-1.08-.26-.49-.55A5.92,5.92,0,0,0,111.46,127Z" transform="translate(-80 -60)"/></g><path class="cls-2" d="M120.1,79.44v1h0q-.72,1.68-2.49,5.13h0c-1.25,2.4-2.26,4.48-3,6.22h0a35.81,35.81,0,0,0-2,6h0a30.26,30.26,0,0,0-.82,7.18h0c0,.64,0,1.4.1,2.3h0c.06.7.09,1.2.09,1.49h0a2.51,2.51,0,0,1-.62,1.77h0a2.13,2.13,0,0,1-1.63.68h0a1.86,1.86,0,0,1-1.61-.77h0a3.18,3.18,0,0,1-.55-1.92h0a24.32,24.32,0,0,1,1.12-7.3h0a40.75,40.75,0,0,1,2.74-6.65h0q1.61-3,4.2-7.32h0l2.26-3.79H106.52a6.31,6.31,0,0,0-1.94.22h0a1.38,1.38,0,0,0-.89.72h0a5.56,5.56,0,0,0-.39,1.51h-.81c0-3.17-.07-5.41-.19-6.72h0a55.59,55.59,0,0,0,7.15.24H120.1Z" transform="translate(-80 -60)"/><path d="M353.54,456a5.92,5.92,0,0,0,2.62-11.23c-.59-.29,0-1,.49-.55a5.92,5.92,0,1,0-1.49-4c0,.57-.89.63-.89-.14a45.45,45.45,0,0,1,1.79-8.9,10.44,10.44,0,0,1-5.05,0c.63,1.23,1.8,7.68,1.8,8.9,0,.77-.88.71-.89.14a5.92,5.92,0,1,0-1.49,4c.43-.49,1.08.26.49.55A5.92,5.92,0,0,0,353.54,456Z" transform="translate(-80 -60)"/><path class="cls-2" d="M344.9,503.56v-1h0q.72-1.68,2.49-5.13h0c1.25-2.4,2.26-4.48,3-6.22h0a35.81,35.81,0,0,0,2-6h0a30.26,30.26,0,0,0,.82-7.18h0c0-.64,0-1.4-.1-2.3h0c-.06-.7-.09-1.2-.09-1.49h0a2.51,2.51,0,0,1,.62-1.77h0a2.13,2.13,0,0,1,1.63-.68h0a1.86,1.86,0,0,1,1.61.77h0a3.18,3.18,0,0,1,.55,1.92h0a24.32,24.32,0,0,1-1.12,7.3h0a40.75,40.75,0,0,1-2.74,6.65h0q-1.6,3-4.2,7.32h0l-2.26,3.79h11.38a6.31,6.31,0,0,0,1.94-.22h0a1.38,1.38,0,0,0,.89-.72h0a5.56,5.56,0,0,0,.39-1.51h.81c0,3.17.07,5.41.19,6.72h0a55.59,55.59,0,0,0-7.15-.24H344.9Z" transform="translate(-80 -60)"/><path d="M164,122a10.1,10.1,0,0,0-4.47,19.16c1,.49-.09,1.78-.83.94a10.09,10.09,0,1,0,2.54,6.83c0-1,1.52-1.08,1.52.23,0,2.08-2,13.09-3.06,15.19a17.43,17.43,0,0,1,8.61,0c-1.06-2.1-3.06-13.11-3.06-15.19,0-1.31,1.5-1.21,1.51-.23a10.12,10.12,0,1,0,2.55-6.83c-.74.84-1.84-.45-.83-.94A10.1,10.1,0,0,0,164,122Z" transform="translate(-80 -60)"/><path d="M164,461.35a10.1,10.1,0,0,0,4.48-19.16c-1-.49.09-1.78.83-.95a10.08,10.08,0,1,0-2.55-6.82c0,1-1.51,1.08-1.51-.24,0-2.07,2-13.08,3.06-15.18a17.43,17.43,0,0,1-8.61,0c1.06,2.1,3.06,13.11,3.06,15.18,0,1.32-1.51,1.22-1.52.24a10.11,10.11,0,1,0-2.54,6.82c.74-.83,1.84.46.83.95A10.1,10.1,0,0,0,164,461.35Z" transform="translate(-80 -60)"/><path d="M164,270a10.1,10.1,0,0,0-4.47,19.16c1,.49-.09,1.78-.83.94a10.09,10.09,0,1,0,2.54,6.83c0-1,1.52-1.08,1.52.23,0,2.08-2,13.09-3.06,15.19a17.43,17.43,0,0,1,8.61,0c-1.06-2.1-3.06-13.11-3.06-15.19,0-1.31,1.5-1.21,1.51-.23a10.12,10.12,0,1,0,2.55-6.83c-.74.84-1.84-.45-.83-.94A10.1,10.1,0,0,0,164,270Z" transform="translate(-80 -60)"/><path d="M301,122a10.1,10.1,0,0,0-4.47,19.16c1,.49-.09,1.78-.83.94a10.09,10.09,0,1,0,2.54,6.83c0-1,1.52-1.08,1.52.23,0,2.08-2,13.09-3.06,15.19a17.43,17.43,0,0,1,8.61,0c-1.06-2.1-3.06-13.11-3.06-15.19,0-1.31,1.5-1.21,1.51-.23a10.12,10.12,0,1,0,2.55-6.83c-.74.84-1.84-.45-.83-.94A10.1,10.1,0,0,0,301,122Z" transform="translate(-80 -60)"/><path d="M301,461.35a10.1,10.1,0,0,0,4.48-19.16c-1-.49.09-1.78.83-.95a10.08,10.08,0,1,0-2.55-6.82c0,1-1.51,1.08-1.51-.24,0-2.07,2-13.08,3.06-15.18a17.43,17.43,0,0,1-8.61,0c1.06,2.1,3.06,13.11,3.06,15.18,0,1.32-1.51,1.22-1.52.24a10.11,10.11,0,1,0-2.54,6.82c.74-.83,1.84.46.83.95A10.1,10.1,0,0,0,301,461.35Z" transform="translate(-80 -60)"/><path d="M301,270a10.1,10.1,0,0,0-4.47,19.16c1,.49-.09,1.78-.83.94a10.09,10.09,0,1,0,2.54,6.83c0-1,1.52-1.08,1.52.23,0,2.08-2,13.09-3.06,15.19a17.43,17.43,0,0,1,8.61,0c-1.06-2.1-3.06-13.11-3.06-15.19,0-1.31,1.5-1.21,1.51-.23a10.12,10.12,0,1,0,2.55-6.83c-.74.84-1.84-.45-.83-.94A10.1,10.1,0,0,0,301,270Z" transform="translate(-80 -60)"/><path d="M233,196a10.1,10.1,0,0,0-4.47,19.16c1,.49-.09,1.78-.83.94a10.09,10.09,0,1,0,2.54,6.83c0-1,1.52-1.08,1.52.23,0,2.08-2,13.09-3.06,15.19a17.43,17.43,0,0,1,8.61,0c-1.06-2.1-3.06-13.11-3.06-15.19,0-1.31,1.5-1.21,1.51-.23a10.12,10.12,0,1,0,2.55-6.83c-.74.84-1.84-.45-.83-.94A10.1,10.1,0,0,0,233,196Z" transform="translate(-80 -60)"/></svg>