<svg id="Layer_1" data-name="Layer 1" xmlns="http://www.w3.org/2000/svg" viewBox="0 0 305 463"><defs><style>.cls-1{fill:#fff;stroke-linecap:round;stroke-width:2px;}.cls-1,.cls-2{stroke:#000;}.cls-2{stroke-miterlimit:10;stroke-width:1.44px;}</style></defs><title>Ace</title><path class="cls-1" d="M166.05,64H423a23,23,0,0,1,23.05,23V502A23,23,0,0,1,423,525H166.05A23,23,0,0,1,143,502V87.05a23,23,0,0,1,23.05-23Z" transform="translate(-142 -63)"/><g id="layer1"><path id="path3211" d="M173.46,130a5.92,5.92,0,0,0-2.62,11.23c.59.29-.05,1-.49.55a5.92,5.92,0,1,0,1.49,4c0-.57.89-.63.89.14a45.45,45.45,0,0,1-1.79,8.9,10.44,10.44,0,0,1,5.05,0c-.63-1.23-1.8-7.68-1.8-8.9,0-.77.88-.71.89-.14a5.92,5.92,0,1,0,1.49-4c-.43.49-1.08-.26-.49-.55A5.92,5.92,0,0,0,173.46,130Z" transform="translate(-142 -63)"/></g><path class="cls-2" d="M184.66,103.08h0c.77,2,1.87,3,3.31,3.07h0v1h0c-1.28-.09-3-.14-5.13-.14h0c-2.76,0-4.8,0-6.15.14h0v-1h0a7.8,7.8,0,0,0,2.62-.45h0a1.32,1.32,0,0,0,.79-1.32h0a6.47,6.47,0,0,0-.58-2.26h0l-2.92-7.87H165l-2,5.09h0a12.52,12.52,0,0,0-1,3.93h0a2.41,2.41,0,0,0,1,2.16h0a6.1,6.1,0,0,0,3.15.72h0v1h0c-1.83-.09-3.67-.14-5.52-.14h0c-1.44,0-2.64,0-3.6.14h0v-1h0q2.4-.57,3.79-4.17h0l11.28-29.09H173Zm-19.3-9.79h10.85l-5.37-14.35Z" transform="translate(-142 -63)"/><path d="M415.54,459a5.92,5.92,0,0,0,2.62-11.23c-.59-.29,0-1,.49-.55a5.92,5.92,0,1,0-1.49-4c0,.57-.89.63-.89-.14a45.45,45.45,0,0,1,1.79-8.9,10.44,10.44,0,0,1-5.05,0c.63,1.23,1.8,7.68,1.8,8.9,0,.77-.88.71-.89.14a5.92,5.92,0,1,0-1.49,4c.43-.49,1.08.26.49.55A5.92,5.92,0,0,0,415.54,459Z" transform="translate(-142 -63)"/><path class="cls-2" d="M404.34,485.92h0c-.77-2-1.87-3-3.31-3.07h0v-1h0c1.28.09,3,.14,5.13.14h0c2.76,0,4.8,0,6.15-.14h0v1h0a7.8,7.8,0,0,0-2.62.45h0a1.32,1.32,0,0,0-.79,1.32h0a6.47,6.47,0,0,0,.58,2.26h0l2.92,7.87H424l2-5.09h0a12.52,12.52,0,0,0,1-3.93h0a2.41,2.41,0,0,0-1-2.16h0a6.1,6.1,0,0,0-3.15-.72h0v-1h0c1.83.09,3.67.14,5.52.14h0c1.44,0,2.64,0,3.6-.14h0v1h0q-2.4.57-3.79,4.17h0l-11.28,29.09h-.77Zm19.3,9.79H412.79l5.37,14.35Z" transform="translate(-142 -63)"/><path d="M295.26,218a36.62,36.62,0,0,0-16.21,69.46c3.64,1.8-.34,6.45-3,3.43a36.58,36.58,0,1,0,9.22,24.74c0-3.55,5.48-3.91,5.48.86,0,7.52-7.23,47.44-11.1,55.06a76.92,76.92,0,0,1,15.62-1.95,76.93,76.93,0,0,1,15.63,1.95c-3.87-7.62-11.1-47.54-11.1-55.06,0-4.77,5.44-4.41,5.48-.86a36.67,36.67,0,1,0,9.22-24.74c-2.68,3-6.65-1.63-3-3.43A36.62,36.62,0,0,0,295.26,218Z" transform="translate(-142 -63)"/></svg>