<?xml version="1.0" encoding="utf-8"?>
<!-- Generator: Adobe Illustrator 23.0.3, SVG Export Plug-In . SVG Version: 6.00 Build 0)  -->
<svg version="1.1" id="Layer_1" xmlns="http://www.w3.org/2000/svg" xmlns:xlink="http://www.w3.org/1999/xlink" x="0px" y="0px"
	 viewBox="0 0 305 463" style="enable-background:new 0 0 305 463;" xml:space="preserve">
<style type="text/css">
	.st0{fill:#FFFFFF;stroke:#000000;stroke-width:2;stroke-linecap:round;}
	.st1{enable-background:new    ;}
</style>
<title>Ace</title>
<path class="st0" d="M24.1,1h257c12.7,0,23,10.2,23,22.9c0,0,0,0,0,0.1v415c0,12.7-10.3,23-23,23c0,0,0,0-0.1,0H24
	c-12.7,0-23-10.2-23-22.9c0,0,0,0,0-0.1V24C1,11.3,11.3,1,24.1,1C24,1,24,1,24.1,1L24.1,1z"/>
<g id="layer1">
	<path id="path3211" d="M31.5,67c-3.3,0-5.9,2.6-5.9,5.9c0,2.3,1.3,4.3,3.3,5.3c0.6,0.3-0.1,1-0.5,0.6c-2.2-2.4-5.9-2.7-8.4-0.5
		c-2.4,2.2-2.7,5.9-0.5,8.4s5.9,2.7,8.4,0.5c1.2-1.1,2-2.7,2-4.4c0-0.6,0.9-0.6,0.9,0.1c-0.3,3-0.9,6-1.8,8.9c1.7-0.4,3.4-0.4,5.1,0
		c-0.6-1.2-1.8-7.7-1.8-8.9c0-0.8,0.9-0.7,0.9-0.1c0,3.3,2.7,5.9,6,5.8c3.3,0,5.9-2.7,5.8-6s-2.7-5.9-6-5.8c-1.7,0-3.3,0.7-4.4,2
		c-0.4,0.5-1.1-0.3-0.5-0.6c2.9-1.4,4.1-5,2.7-7.9C35.8,68.3,33.7,67,31.5,67z"/>
</g>
<path d="M273.5,396c3.3,0,5.9-2.6,5.9-5.9c0-2.3-1.3-4.3-3.3-5.3c-0.6-0.3,0-1,0.5-0.5c2.2,2.4,5.9,2.7,8.4,0.5
	c2.4-2.2,2.7-5.9,0.5-8.4s-5.9-2.7-8.4-0.5c-1.2,1.1-2,2.7-2,4.4c0,0.6-0.9,0.6-0.9-0.1c0.3-3,0.9-6,1.8-8.9c-1.7,0.4-3.4,0.4-5,0
	c0.6,1.2,1.8,7.7,1.8,8.9c0,0.8-0.9,0.7-0.9,0.1c0-3.3-2.7-5.9-6-5.8c-3.3,0-5.9,2.7-5.8,6c0,3.3,2.7,5.9,6,5.8c1.7,0,3.3-0.7,4.4-2
	c0.4-0.5,1.1,0.3,0.5,0.5c-2.9,1.4-4.1,5-2.7,7.9C269.2,394.7,271.3,396,273.5,396z"/>
<path d="M153.3,155c-20.2,0-36.6,16.4-36.6,36.6c0,13.9,7.9,26.7,20.4,32.8c3.6,1.8-0.3,6.5-3,3.4c-13.4-15.1-36.5-16.5-51.6-3.1
	s-16.5,36.5-3.1,51.6c13.4,15.1,36.5,16.5,51.6,3.1c7.7-6.8,12.2-16.6,12.3-26.9c0-3.5,5.5-3.9,5.5,0.9c0,7.5-7.2,47.4-11.1,55.1
	c5.1-1.2,10.4-1.8,15.6-2c5.3,0.1,10.5,0.8,15.6,2c-3.9-7.6-11.1-47.5-11.1-55.1c0-4.8,5.4-4.4,5.5-0.9
	c0.2,20.3,16.8,36.5,37.1,36.2c20.3-0.2,36.5-16.8,36.2-37.1c-0.2-20.3-16.8-36.5-37.1-36.2c-10.3,0.1-20.2,4.6-27,12.4
	c-2.7,3-6.6-1.6-3-3.4c18.1-8.9,25.6-30.9,16.6-49C180,162.9,167.2,155,153.3,155z"/>
<g class="st1">
	<path d="M20.2,57.4V31.8c0-3.4,1-6.3,3-8.5c2.1-2.3,4.9-3.5,8.2-3.5c3.3,0,6.1,1.2,8.2,3.5c2,2.1,3,5,3,8.5v23.5l-4.2,2.2h-0.2
		V40.5H24.7v14.7l-4.2,2.2H20.2z M24.7,36.2h13.6v-4.4c0-2.1-0.5-3.9-1.6-5.2c-1.3-1.6-3.1-2.5-5.2-2.5s-3.9,0.8-5.2,2.5
		c-1.1,1.3-1.6,3.1-1.6,5.2V36.2z"/>
</g>
<g class="st1">
	<path d="M284.8,405.7v25.6c0,3.4-1,6.3-3,8.5c-2.1,2.3-4.9,3.5-8.2,3.5c-3.3,0-6.1-1.2-8.2-3.5c-2-2.1-3-5-3-8.5v-23.5l4.2-2.2h0.2
		v16.9h13.6v-14.7l4.2-2.2H284.8z M280.3,426.9h-13.6v4.4c0,2.1,0.5,3.9,1.6,5.2c1.3,1.6,3.1,2.5,5.2,2.5s3.9-0.8,5.2-2.5
		c1.1-1.3,1.6-3.1,1.6-5.2V426.9z"/>
</g>
</svg>
