<svg id="Layer_1" data-name="Layer 1" xmlns="http://www.w3.org/2000/svg" viewBox="0 0 305 463"><defs><style>.cls-1{fill:#fff;stroke-linecap:round;stroke-width:2px;}.cls-1,.cls-2,.cls-3{stroke:#000;}.cls-2,.cls-3{stroke-miterlimit:10;}.cls-2{stroke-width:1.44px;}.cls-3{stroke-width:3.42px;}</style></defs><title>Jack</title><path class="cls-1" d="M164.05,71H421a23,23,0,0,1,23.05,23V509A23,23,0,0,1,421,532H164.05A23,23,0,0,1,141,509V94.05a23,23,0,0,1,23.05-23Z" transform="translate(-140 -70)"/><g id="layer1"><path id="path3211" d="M171.46,137a5.92,5.92,0,0,0-2.62,11.23c.59.29-.05,1-.49.55a5.92,5.92,0,1,0,1.49,4c0-.57.89-.63.89.14a45.45,45.45,0,0,1-1.79,8.9,10.44,10.44,0,0,1,5.05,0c-.63-1.23-1.8-7.68-1.8-8.9,0-.77.88-.71.89-.14a5.92,5.92,0,1,0,1.49-4c-.43.49-1.08-.26-.49-.55A5.92,5.92,0,0,0,171.46,137Z" transform="translate(-140 -70)"/></g><path class="cls-2" d="M162.26,123.14v-.92h0a5.76,5.76,0,0,0,5-2.49h0c1.07-1.6,1.61-4.31,1.61-8.11h0V85.22h0a8.68,8.68,0,0,0-.29-2.64h0a1.71,1.71,0,0,0-1.08-1.11h0a9.54,9.54,0,0,0-2.52-.38h0v-1h0q2,.14,6.05.14h0c2.62,0,4.69,0,6.19-.14h0v1h0a9.54,9.54,0,0,0-2.52.38h0a1.71,1.71,0,0,0-1.08,1.11h0a8.68,8.68,0,0,0-.29,2.64h0v17.56h0q0,4.08-.14,7.23h0a28.72,28.72,0,0,1-.67,5.3h0A10.28,10.28,0,0,1,169,121h0a10.3,10.3,0,0,1-6.7,2.16Z" transform="translate(-140 -70)"/><path d="M413.54,466a5.92,5.92,0,0,0,2.62-11.23c-.59-.29,0-1,.49-.55a5.92,5.92,0,1,0-1.49-4c0,.57-.89.63-.89-.14a45.45,45.45,0,0,1,1.79-8.9,10.44,10.44,0,0,1-5.05,0c.63,1.23,1.8,7.68,1.8,8.9,0,.77-.88.71-.89.14a5.92,5.92,0,1,0-1.49,4c.43-.49,1.08.26.49.55A5.92,5.92,0,0,0,413.54,466Z" transform="translate(-140 -70)"/><path class="cls-2" d="M422.74,479.86v.92h0a5.76,5.76,0,0,0-5,2.49h0c-1.07,1.6-1.61,4.31-1.61,8.11h0v26.4h0a8.68,8.68,0,0,0,.29,2.64h0a1.71,1.71,0,0,0,1.08,1.11h0a9.54,9.54,0,0,0,2.52.38h0v1h0q-2-.14-6.05-.14h0c-2.62,0-4.69,0-6.19.14h0v-1h0a9.54,9.54,0,0,0,2.52-.38h0a1.71,1.71,0,0,0,1.08-1.11h0a8.68,8.68,0,0,0,.29-2.64h0V500.22h0q0-4.08.14-7.23h0a28.72,28.72,0,0,1,.67-5.3h0A10.28,10.28,0,0,1,416,482h0a10.3,10.3,0,0,1,6.7-2.16Z" transform="translate(-140 -70)"/><path class="cls-3" d="M271.5,274.41v-2.17h0q8-.23,11.79-5.92h0q3.81-5.69,3.81-19.24h0V184.45h0a20.79,20.79,0,0,0-.68-6.27h0a4.08,4.08,0,0,0-2.56-2.61h0a22.85,22.85,0,0,0-6-.92h0v-2.27h0q4.78.33,14.35.34h0q9.33,0,14.69-.34h0v2.27h0a22.7,22.7,0,0,0-6,.92h0a4.07,4.07,0,0,0-2.57,2.61h0a20.79,20.79,0,0,0-.68,6.27h0v41.68h0q0,9.68-.34,17.13h0a67.52,67.52,0,0,1-1.59,12.59h0a24.26,24.26,0,0,1-8.37,13.43h0q-6.33,5.13-15.89,5.13Z" transform="translate(-140 -70)"/><path class="cls-3" d="M313.5,328.59v2.17h0q-8,.23-11.79,5.92h0q-3.81,5.69-3.81,19.24h0v62.63h0a20.79,20.79,0,0,0,.68,6.27h0a4.08,4.08,0,0,0,2.56,2.61h0a22.85,22.85,0,0,0,6,.92h0v2.27h0q-4.78-.33-14.35-.34h0q-9.33,0-14.69.34h0v-2.27h0a22.7,22.7,0,0,0,6-.92h0a4.07,4.07,0,0,0,2.57-2.61h0a20.79,20.79,0,0,0,.68-6.27h0V376.87h0q0-9.67.34-17.13h0a67.52,67.52,0,0,1,1.59-12.59h0a24.26,24.26,0,0,1,8.37-13.43h0q6.33-5.13,15.89-5.13Z" transform="translate(-140 -70)"/></svg>