<svg id="Layer_1" data-name="Layer 1" xmlns="http://www.w3.org/2000/svg" viewBox="0 0 305 463"><defs><style>.cls-1{fill:#fff;stroke-linecap:round;stroke-width:2px;}.cls-1,.cls-2,.cls-3{stroke:#000;}.cls-2,.cls-3{stroke-miterlimit:10;}.cls-2{stroke-width:1.46px;}.cls-3{stroke-width:3.42px;}</style></defs><title>King</title><path class="cls-1" d="M171.05,56H428a23,23,0,0,1,23.05,23V494A23,23,0,0,1,428,517H171.05A23,23,0,0,1,148,494V79.05a23,23,0,0,1,23.05-23Z" transform="translate(-147 -55)"/><g id="layer1"><path id="path3211" d="M178.46,122a5.92,5.92,0,0,0-2.62,11.23c.59.29-.05,1-.49.55a5.92,5.92,0,1,0,1.49,4c0-.57.89-.63.89.14a45.45,45.45,0,0,1-1.79,8.9,10.44,10.44,0,0,1,5.05,0c-.63-1.23-1.8-7.68-1.8-8.9,0-.77.88-.71.89-.14a5.92,5.92,0,1,0,1.49-4c-.43.49-1.08-.26-.49-.55A5.92,5.92,0,0,0,178.46,122Z" transform="translate(-147 -55)"/></g><path class="cls-2" d="M190,95.16h0a7.39,7.39,0,0,0,1.83,1.93h0a6.93,6.93,0,0,0,2.46,1h0v1h0Q192,99,188.48,99h0c-1.76,0-3.43.05-5,.15h0v-1h0a4.84,4.84,0,0,0,1.7-.3h0a.77.77,0,0,0,.54-.73h0a2.14,2.14,0,0,0-.49-1.17h0l-7.12-10.72h0a10.48,10.48,0,0,0-2.39-2.81h0a5.44,5.44,0,0,0-2.73-.75h0V93.94h0a8.55,8.55,0,0,0,.3,2.68h0a1.75,1.75,0,0,0,1.09,1.13h0a10.19,10.19,0,0,0,2.56.39h0v1h0c-1.49-.1-3.56-.15-6.19-.15h0q-4.18,0-6.24.15h0v-1h0a10.11,10.11,0,0,0,2.56-.39h0a1.77,1.77,0,0,0,1.1-1.13h0a8.94,8.94,0,0,0,.29-2.68h0V69.76h0a9,9,0,0,0-.29-2.68h0a1.78,1.78,0,0,0-1.1-1.12h0a10.11,10.11,0,0,0-2.56-.39h0v-1h0q2.06.14,6.24.14h0c2.6,0,4.67,0,6.19-.14h0v1h0a10.19,10.19,0,0,0-2.56.39h0a1.76,1.76,0,0,0-1.09,1.12h0a8.6,8.6,0,0,0-.3,2.68h0V80.68h0A7,7,0,0,0,178.53,78h0L183.21,72h0q2.49-3.08,2.49-4.68h0c0-1.14-1-1.73-3-1.76h0v-1h0c1.85.09,3.72.14,5.6.14h0c1.79,0,3.17,0,4.15-.14h0v1h0a8.61,8.61,0,0,0-3,1.05h0a9.55,9.55,0,0,0-2.73,2.51h0l-7.94,10.19Z" transform="translate(-147 -55)"/><path d="M420.54,451a5.92,5.92,0,0,0,2.62-11.23c-.59-.29,0-1,.49-.55a5.92,5.92,0,1,0-1.49-4c0,.57-.89.63-.89-.14a45.45,45.45,0,0,1,1.79-8.9,10.44,10.44,0,0,1-5.05,0c.63,1.23,1.8,7.68,1.8,8.9,0,.77-.88.71-.89.14a5.92,5.92,0,1,0-1.49,4c.43-.49,1.08.26.49.55A5.92,5.92,0,0,0,420.54,451Z" transform="translate(-147 -55)"/><path class="cls-2" d="M409,477.84h0a7.39,7.39,0,0,0-1.83-1.93h0a6.93,6.93,0,0,0-2.46-1.05h0v-1h0q2.34.15,5.85.15h0c1.76,0,3.43-.05,5-.15h0v1h0a4.84,4.84,0,0,0-1.7.3h0a.77.77,0,0,0-.54.73h0a2.14,2.14,0,0,0,.49,1.17h0l7.12,10.72h0a10.48,10.48,0,0,0,2.39,2.81h0a5.44,5.44,0,0,0,2.73.75h0V479.06h0a8.55,8.55,0,0,0-.3-2.68h0a1.75,1.75,0,0,0-1.09-1.13h0a10.19,10.19,0,0,0-2.56-.39h0v-1h0c1.49.1,3.56.15,6.19.15h0q4.19,0,6.24-.15h0v1h0a10.11,10.11,0,0,0-2.56.39h0a1.77,1.77,0,0,0-1.1,1.13h0a8.94,8.94,0,0,0-.29,2.68h0v24.18h0a9,9,0,0,0,.29,2.68h0A1.78,1.78,0,0,0,432,507h0a10.11,10.11,0,0,0,2.56.39h0v1h0q-2.06-.13-6.24-.14h0c-2.6,0-4.67.05-6.19.14h0v-1h0a10.19,10.19,0,0,0,2.56-.39h0a1.76,1.76,0,0,0,1.09-1.12h0a8.6,8.6,0,0,0,.3-2.68h0V492.32h0a7,7,0,0,0-5.56,2.73h0L415.79,501h0q-2.49,3.08-2.49,4.68h0c0,1.14,1,1.73,3,1.76h0v1h0c-1.85-.09-3.72-.14-5.6-.14h0c-1.79,0-3.17.05-4.15.14h0v-1h0a8.61,8.61,0,0,0,3-1.05h0a9.55,9.55,0,0,0,2.73-2.51h0l7.94-10.19Z" transform="translate(-147 -55)"/><path class="cls-3" d="M326.34,228.78h0a17.56,17.56,0,0,0,4.27,4.49h0a16.33,16.33,0,0,0,5.75,2.45h0V238h0q-5.46-.34-13.66-.34h0q-6.15,0-11.73.34h0v-2.28h0a11.26,11.26,0,0,0,4-.68h0a1.83,1.83,0,0,0,1.26-1.71h0a5,5,0,0,0-1.14-2.73h0l-16.63-25h0q-3.3-5-5.58-6.55h0a12.52,12.52,0,0,0-6.37-1.77h0v28.7h0a20.44,20.44,0,0,0,.68,6.26h0a4.08,4.08,0,0,0,2.56,2.62h0a22.44,22.44,0,0,0,6,.91h0V238h0q-5.23-.34-14.46-.34h0q-9.79,0-14.58.34h0v-2.28h0a22.44,22.44,0,0,0,6-.91h0a4.08,4.08,0,0,0,2.56-2.62h0a20.37,20.37,0,0,0,.69-6.26h0V169.45h0a20.4,20.4,0,0,0-.69-6.27h0a4.06,4.06,0,0,0-2.56-2.61h0a22.78,22.78,0,0,0-6-.92h0v-2.27h0q4.79.33,14.58.34h0q9.11,0,14.46-.34h0v2.27h0a22.78,22.78,0,0,0-6,.92h0a4.06,4.06,0,0,0-2.56,2.61h0a20.47,20.47,0,0,0-.68,6.27h0V195h0q8.31-.35,13-6.38h0l10.93-13.89h0q5.81-7.19,5.81-10.94h0c0-2.65-2.36-4-7.06-4.1h0v-2.27h0q6.48.33,13.09.34h0c4.18,0,7.4-.12,9.68-.34h0v2.27h0a20.4,20.4,0,0,0-7.06,2.45h0a22.09,22.09,0,0,0-6.38,5.87h0l-18.56,23.8Z" transform="translate(-147 -55)"/><path class="cls-3" d="M272.66,344.22h0a17.56,17.56,0,0,0-4.27-4.49h0a16.33,16.33,0,0,0-5.75-2.45h0V335h0q5.46.35,13.66.34h0q6.15,0,11.73-.34h0v2.28h0a11.26,11.26,0,0,0-4,.68h0a1.83,1.83,0,0,0-1.26,1.71h0a5,5,0,0,0,1.14,2.73h0l16.63,25.05h0q3.3,5,5.58,6.55h0a12.52,12.52,0,0,0,6.37,1.77h0v-28.7h0a20.44,20.44,0,0,0-.68-6.26h0a4.08,4.08,0,0,0-2.56-2.62h0a22.44,22.44,0,0,0-6-.91h0V335h0q5.23.35,14.46.34h0q9.79,0,14.58-.34h0v2.28h0a22.44,22.44,0,0,0-6,.91h0a4.08,4.08,0,0,0-2.56,2.62h0a20.37,20.37,0,0,0-.69,6.26h0v56.48h0a20.4,20.4,0,0,0,.69,6.27h0a4.06,4.06,0,0,0,2.56,2.61h0a22.78,22.78,0,0,0,6,.92h0v2.27h0q-4.79-.33-14.58-.34h0q-9.11,0-14.46.34h0v-2.27h0a22.78,22.78,0,0,0,6-.92h0a4.06,4.06,0,0,0,2.56-2.61h0a20.47,20.47,0,0,0,.68-6.27h0V378h0q-8.31.34-13,6.38h0L288.6,398.31h0q-5.81,7.19-5.81,10.94h0c0,2.65,2.36,4,7.06,4.1h0v2.27h0q-6.48-.33-13.09-.34h0c-4.18,0-7.4.12-9.68.34h0v-2.27h0a20.4,20.4,0,0,0,7.06-2.45h0a22.09,22.09,0,0,0,6.38-5.87h0l18.56-23.8Z" transform="translate(-147 -55)"/></svg>