<svg id="Layer_1" data-name="Layer 1" xmlns="http://www.w3.org/2000/svg" viewBox="0 0 305 463"><defs><style>.cls-1{fill:#fff;stroke-linecap:round;stroke-width:2px;}.cls-1,.cls-2,.cls-3{stroke:#000;}.cls-2,.cls-3{stroke-miterlimit:10;}.cls-2{stroke-width:1.44px;}.cls-3{stroke-width:3.42px;}</style></defs><title>Queen</title><path class="cls-1" d="M154.05,56H411a23,23,0,0,1,23.05,23V494A23,23,0,0,1,411,517H154.05A23,23,0,0,1,131,494V79.05a23,23,0,0,1,23.05-23Z" transform="translate(-130 -55)"/><g id="layer1"><path id="path3211" d="M161.46,122a5.92,5.92,0,0,0-2.62,11.23c.59.29-.05,1-.49.55a5.92,5.92,0,1,0,1.49,4c0-.57.89-.63.89.14a45.45,45.45,0,0,1-1.79,8.9,10.44,10.44,0,0,1,5.05,0c-.63-1.23-1.8-7.68-1.8-8.9,0-.77.88-.71.89-.14a5.92,5.92,0,1,0,1.49-4c-.43.49-1.08-.26-.49-.55A5.92,5.92,0,0,0,161.46,122Z" transform="translate(-130 -55)"/></g><path class="cls-2" d="M179.13,100.22l.72.28h0a11.83,11.83,0,0,1-3,5.48h0a9.22,9.22,0,0,1-6.48,2.16h0a14.13,14.13,0,0,1-4.32-.68h0a51.24,51.24,0,0,1-5.33-2.11h0c-2.36-1-4.3-1.79-5.8-2.3h0l-1.16-.34h0a12,12,0,0,1-4,.72h0c-1.47,0-2.21-.32-2.21-1h0c0-.67.87-1,2.59-1h0a18.13,18.13,0,0,1,3.6.39h0a25.88,25.88,0,0,0,3.56-1.35h0c.83-.38,1.45-.65,1.87-.81h0a14.18,14.18,0,0,1-7.08-2.55h0a14.14,14.14,0,0,1-4.66-5.92h0a21.84,21.84,0,0,1-1.65-8.81h0a21.46,21.46,0,0,1,1.94-9.36h0a15.14,15.14,0,0,1,5.42-6.34h0a14.25,14.25,0,0,1,7.9-2.25h0a15.16,15.16,0,0,1,8,2.06h0a13.77,13.77,0,0,1,5.33,6h0a21.24,21.24,0,0,1,1.9,9.33h0a21.89,21.89,0,0,1-1.73,8.91h0A15.42,15.42,0,0,1,169.67,97h0a14,14,0,0,1-7.15,2.71h0v0h0a11.43,11.43,0,0,0-2,.4h0c-.56.18-1.31.46-2.24.84h0a23.44,23.44,0,0,1-2.88,1.11h0c3.56.7,6.57,1.26,9.05,1.68h0a39.29,39.29,0,0,0,6.17.62h0a12.44,12.44,0,0,0,5.4-1h0A6.86,6.86,0,0,0,179.13,100.22Zm-28.56-18h0A25.15,25.15,0,0,0,152,91h0a14.07,14.07,0,0,0,3.82,5.86h0a8.05,8.05,0,0,0,5.37,2.06h0a7.71,7.71,0,0,0,5.4-2.14h0a13.61,13.61,0,0,0,3.6-6h0A27.86,27.86,0,0,0,171.45,82h0A25.14,25.14,0,0,0,170,73.24h0a14,14,0,0,0-3.82-5.86h0a8.05,8.05,0,0,0-5.37-2.06h0a7.71,7.71,0,0,0-5.4,2.14h0a13.8,13.8,0,0,0-3.6,6h0a27.87,27.87,0,0,0-1.27,8.79Z" transform="translate(-130 -55)"/><path d="M403.54,451a5.92,5.92,0,0,0,2.62-11.23c-.59-.29,0-1,.49-.55a5.92,5.92,0,1,0-1.49-4c0,.57-.89.63-.89-.14a45.45,45.45,0,0,1,1.79-8.9,10.44,10.44,0,0,1-5.05,0c.63,1.23,1.8,7.68,1.8,8.9,0,.77-.88.71-.89.14a5.92,5.92,0,1,0-1.49,4c.43-.49,1.08.26.49.55A5.92,5.92,0,0,0,403.54,451Z" transform="translate(-130 -55)"/><path class="cls-2" d="M385.87,472.78l-.72-.28h0a11.83,11.83,0,0,1,3-5.48h0a9.22,9.22,0,0,1,6.48-2.16h0a14.13,14.13,0,0,1,4.32.68h0a51.24,51.24,0,0,1,5.33,2.11h0c2.36,1,4.3,1.79,5.8,2.3h0l1.16.34h0a12,12,0,0,1,4-.72h0c1.47,0,2.21.32,2.21,1h0c0,.67-.87,1-2.59,1h0a18.13,18.13,0,0,1-3.6-.39h0a25.88,25.88,0,0,0-3.56,1.35h0c-.83.38-1.45.65-1.87.81h0a14.18,14.18,0,0,1,7.08,2.55h0a14.14,14.14,0,0,1,4.66,5.92h0a21.84,21.84,0,0,1,1.65,8.81h0a21.46,21.46,0,0,1-1.94,9.36h0a15.14,15.14,0,0,1-5.42,6.34h0a14.25,14.25,0,0,1-7.9,2.25h0a15.16,15.16,0,0,1-8-2.06h0a13.77,13.77,0,0,1-5.33-6h0a21.24,21.24,0,0,1-1.9-9.33h0a21.89,21.89,0,0,1,1.73-8.91h0a15.42,15.42,0,0,1,4.85-6.24h0a14,14,0,0,1,7.15-2.71h0v-.05h0a11.43,11.43,0,0,0,2-.4h0c.56-.18,1.31-.46,2.24-.84h0a23.44,23.44,0,0,1,2.88-1.11h0c-3.56-.7-6.57-1.26-9-1.68h0a39.29,39.29,0,0,0-6.17-.62h0a12.44,12.44,0,0,0-5.4,1h0A6.86,6.86,0,0,0,385.87,472.78Zm28.56,18h0A25.15,25.15,0,0,0,413,482h0a14.07,14.07,0,0,0-3.82-5.86h0a8.05,8.05,0,0,0-5.37-2.06h0a7.71,7.71,0,0,0-5.4,2.14h0a13.61,13.61,0,0,0-3.6,6h0a27.86,27.86,0,0,0-1.28,8.79h0a25.14,25.14,0,0,0,1.42,8.78h0a14,14,0,0,0,3.82,5.86h0a8.05,8.05,0,0,0,5.37,2.06h0a7.71,7.71,0,0,0,5.4-2.14h0a13.8,13.8,0,0,0,3.6-6h0a27.87,27.87,0,0,0,1.27-8.79Z" transform="translate(-130 -55)"/><path class="cls-3" d="M324.51,240.62l1.71.68h0q-2.5,8.65-7.17,13h0q-5.58,5.13-15.38,5.13h0a33.41,33.41,0,0,1-10.25-1.6h0a124.38,124.38,0,0,1-12.64-5h0q-8.41-3.65-13.78-5.46h0l-2.73-.8h0a28.57,28.57,0,0,1-9.45,1.71h0q-5.23,0-5.24-2.28h0q0-2.39,6.15-2.39h0a43.38,43.38,0,0,1,8.54.91h0a61,61,0,0,0,8.43-3.19h0q3-1.37,4.44-1.93h0a33.58,33.58,0,0,1-16.8-6h0a33.5,33.5,0,0,1-11-14.06h0a51.58,51.58,0,0,1-3.93-20.9h0a51.07,51.07,0,0,1,4.61-22.2h0a35.74,35.74,0,0,1,12.87-15h0a33.74,33.74,0,0,1,18.73-5.35h0a36,36,0,0,1,19,4.9h0a32.65,32.65,0,0,1,12.64,14.18h0q4.5,9.27,4.5,22.15h0a51.84,51.84,0,0,1-4.1,21.12h0a36.32,36.32,0,0,1-11.5,14.8h0a33.11,33.11,0,0,1-17,6.44h0v.11h0a26.91,26.91,0,0,0-4.72,1h0q-2,.63-5.3,2h0a55.39,55.39,0,0,1-6.83,2.62h0q12.63,2.5,21.46,4h0a92.46,92.46,0,0,0,14.64,1.48h0q8.08,0,12.81-2.34h0A16.12,16.12,0,0,0,324.51,240.62Zm-67.75-42.7h0a59.43,59.43,0,0,0,3.36,20.84h0q3.36,9,9.05,13.89h0a19.07,19.07,0,0,0,12.75,4.89h0a18.35,18.35,0,0,0,12.81-5.06h0q5.53-5.07,8.54-14.18h0a65.94,65.94,0,0,0,3-20.84h0a59.43,59.43,0,0,0-3.36-20.84h0q-3.36-9-9.05-13.89h0a19.05,19.05,0,0,0-12.75-4.9h0a18.4,18.4,0,0,0-12.82,5.07h0q-5.52,5.07-8.54,14.18h0a66.24,66.24,0,0,0-3,20.84Z" transform="translate(-130 -55)"/><path class="cls-3" d="M240.49,332.38l-1.71-.68h0q2.5-8.65,7.17-13h0q5.58-5.13,15.38-5.13h0a33.41,33.41,0,0,1,10.25,1.6h0a124.38,124.38,0,0,1,12.64,5h0q8.41,3.65,13.78,5.46h0l2.73.8h0a28.57,28.57,0,0,1,9.45-1.71h0q5.24,0,5.24,2.28h0q0,2.39-6.15,2.39h0a43.38,43.38,0,0,1-8.54-.91h0a61,61,0,0,0-8.43,3.19h0q-3,1.37-4.44,1.93h0a33.58,33.58,0,0,1,16.8,6h0a33.5,33.5,0,0,1,11,14.06h0a51.58,51.58,0,0,1,3.93,20.9h0a51.07,51.07,0,0,1-4.61,22.2h0a35.74,35.74,0,0,1-12.87,15h0a33.74,33.74,0,0,1-18.73,5.35h0a36,36,0,0,1-19-4.9h0a32.65,32.65,0,0,1-12.64-14.18h0q-4.5-9.27-4.5-22.15h0a51.84,51.84,0,0,1,4.1-21.12h0a36.32,36.32,0,0,1,11.5-14.8h0a33.11,33.11,0,0,1,17-6.44h0v-.11h0a26.91,26.91,0,0,0,4.72-1h0q2-.63,5.3-2h0a55.39,55.39,0,0,1,6.83-2.62h0q-12.63-2.51-21.46-4h0a92.46,92.46,0,0,0-14.64-1.48h0q-8.08,0-12.81,2.34h0A16.12,16.12,0,0,0,240.49,332.38Zm67.75,42.7h0a59.43,59.43,0,0,0-3.36-20.84h0q-3.36-9-9.05-13.89h0a19.07,19.07,0,0,0-12.75-4.89h0a18.35,18.35,0,0,0-12.81,5.06h0q-5.53,5.07-8.54,14.18h0a65.94,65.94,0,0,0-3,20.84h0a59.43,59.43,0,0,0,3.36,20.84h0q3.36,9,9.05,13.89h0a19.05,19.05,0,0,0,12.75,4.9h0a18.4,18.4,0,0,0,12.82-5.07h0q5.52-5.07,8.54-14.18h0a66.24,66.24,0,0,0,3-20.84Z" transform="translate(-130 -55)"/></svg>