<svg id="Layer_1" data-name="Layer 1" xmlns="http://www.w3.org/2000/svg" viewBox="0 0 305 463"><defs><style>.cls-1{fill:#fff;stroke:#000;stroke-linecap:round;stroke-width:2px;}.cls-2,.cls-3{fill:red;}.cls-2{stroke:red;stroke-miterlimit:10;stroke-width:1.47px;}</style></defs><title>2</title><path class="cls-1" d="M65.05,37H322a23,23,0,0,1,23.05,23V475A23,23,0,0,1,322,498H65.05A23,23,0,0,1,42,475V60.05a23,23,0,0,1,23-23Z" transform="translate(-41 -36)"/><path class="cls-2" d="M71.93,54.15h0a8.15,8.15,0,0,1,5.37,1.61h0a5.54,5.54,0,0,1,2,4.54h0a7.9,7.9,0,0,1-1.05,3.89h0a16.77,16.77,0,0,1-2.55,3.44h0c-1,1.05-2.3,2.3-3.93,3.77h0c-1.34,1.24-2.33,2.17-3,2.81h0a15.34,15.34,0,0,0-1.76,2h9.92a6.91,6.91,0,0,0,2-.22h0a1.42,1.42,0,0,0,.9-.74h0a5.32,5.32,0,0,0,.4-1.54H81q0,4.5.19,6.5h0A56.93,56.93,0,0,0,73.93,80H62.49v-.83h0c.56-.59,1.5-1.52,2.84-2.79h0c1.85-1.72,3.4-3.28,4.64-4.66h0A21.88,21.88,0,0,0,73.17,67h0a12.16,12.16,0,0,0,1.35-5.62h0q0-5.28-4.89-5.28h0c-2.67,0-4.86,1.53-6.55,4.59h0l-.78-.44h0a11.68,11.68,0,0,1,3.61-4.37h0a9.85,9.85,0,0,1,6-1.73Z" transform="translate(-41 -36)"/><path class="cls-2" d="M315.07,480.85h0a8.15,8.15,0,0,1-5.37-1.61h0a5.54,5.54,0,0,1-2-4.54h0a7.9,7.9,0,0,1,1.05-3.89h0a16.77,16.77,0,0,1,2.55-3.44h0c1-1.05,2.3-2.3,3.93-3.77h0c1.34-1.24,2.33-2.17,3-2.81h0a15.34,15.34,0,0,0,1.76-2h-9.92a6.91,6.91,0,0,0-2,.22h0a1.42,1.42,0,0,0-.9.74h0a5.32,5.32,0,0,0-.4,1.54H306q0-4.5-.19-6.5h0a56.93,56.93,0,0,0,7.28.24h11.44v.83h0c-.56.59-1.5,1.52-2.84,2.79h0c-1.85,1.72-3.4,3.28-4.64,4.66h0a21.88,21.88,0,0,0-3.2,4.72h0a12.16,12.16,0,0,0-1.35,5.62h0q0,5.28,4.89,5.28h0c2.67,0,4.86-1.53,6.55-4.59h0l.78.44h0a11.68,11.68,0,0,1-3.61,4.37h0a9.85,9.85,0,0,1-6,1.73Z" transform="translate(-41 -36)"/><g id="layer1"><path id="path5878" class="cls-3" d="M71.29,130.78c-1.27-2.13-5.42-7.86-8.49-11.69-1.54-1.93-2.8-3.58-2.8-3.66a12.1,12.1,0,0,1,1.26-1.67A138.41,138.41,0,0,0,71,100.52c.57-.93,1.1-1.62,1.19-1.52s.88,1.31,1.78,2.68c2,3,6.23,8.74,8.66,11.63l1.76,2.09-1.76,2.1a138.15,138.15,0,0,0-10.12,13.94l-.42.69Z" transform="translate(-41 -36)"/></g><path class="cls-3" d="M314.29,434.78c-1.27-2.13-5.42-7.86-8.49-11.69-1.54-1.93-2.8-3.58-2.8-3.66a12.1,12.1,0,0,1,1.26-1.67A138.41,138.41,0,0,0,314,404.52c.57-.93,1.1-1.62,1.19-1.52s.88,1.31,1.78,2.68c2,3,6.23,8.74,8.66,11.63l1.76,2.09-1.76,2.1a138.15,138.15,0,0,0-10.12,13.94l-.42.69Z" transform="translate(-41 -36)"/><path class="cls-3" d="M192.21,216.45c-1.92-3.25-8.26-12-12.94-17.82-2.35-2.94-4.27-5.45-4.27-5.58a18.2,18.2,0,0,1,1.93-2.55,210.67,210.67,0,0,0,14.84-20.18c.87-1.43,1.68-2.47,1.81-2.32s1.36,2,2.72,4.09c3,4.59,9.5,13.33,13.2,17.73l2.68,3.19-2.68,3.19a213.24,213.24,0,0,0-15.43,21.27l-.64,1.05Z" transform="translate(-41 -36)"/><path class="cls-3" d="M192.21,365.45c-1.92-3.25-8.26-12-12.94-17.82-2.35-2.94-4.27-5.45-4.27-5.58a18.2,18.2,0,0,1,1.93-2.55,210.67,210.67,0,0,0,14.84-20.18c.87-1.43,1.68-2.47,1.81-2.32s1.36,2,2.72,4.09c3,4.59,9.5,13.33,13.2,17.73l2.68,3.19-2.68,3.19a213.24,213.24,0,0,0-15.43,21.27l-.64,1Z" transform="translate(-41 -36)"/></svg>