<?xml version="1.0" encoding="utf-8"?>
<!-- Generator: Adobe Illustrator 23.0.3, SVG Export Plug-In . SVG Version: 6.00 Build 0)  -->
<svg version="1.1" id="Layer_1" xmlns="http://www.w3.org/2000/svg" xmlns:xlink="http://www.w3.org/1999/xlink" x="0px" y="0px"
	 viewBox="0 0 305 463" style="enable-background:new 0 0 305 463;" xml:space="preserve">
<style type="text/css">
	.st0{fill:#FFFFFF;stroke:#000000;stroke-width:2;stroke-linecap:round;}
	.st1{fill:#FF0000;}
	.st2{enable-background:new    ;}
</style>
<title>2</title>
<path class="st0" d="M24.1,1h257c12.7,0,23,10.2,23,22.9c0,0,0,0,0,0.1v415c0,12.7-10.3,23-23,23c0,0,0,0-0.1,0H24
	c-12.7,0-23-10.2-23-22.9c0,0,0,0,0-0.1V24C1,11.3,11.3,1,24.1,1L24.1,1z"/>
<g id="layer1">
	<path id="path5878" class="st1" d="M30.3,94.8c-1.3-2.1-5.4-7.9-8.5-11.7c-1.5-1.9-2.8-3.6-2.8-3.7c0.4-0.6,0.8-1.2,1.3-1.7
		c3.5-4.2,6.8-8.6,9.7-13.2c0.6-0.9,1.1-1.6,1.2-1.5s0.9,1.3,1.8,2.7c2,3,6.2,8.7,8.7,11.6l1.8,2.1l-1.8,2.1
		c-3.7,4.4-7,9.1-10.1,13.9l-0.4,0.7L30.3,94.8z"/>
</g>
<path class="st1" d="M273.3,398.8c-1.3-2.1-5.4-7.9-8.5-11.7c-1.5-1.9-2.8-3.6-2.8-3.7c0.4-0.6,0.8-1.2,1.3-1.7
	c3.5-4.2,6.8-8.6,9.7-13.2c0.6-0.9,1.1-1.6,1.2-1.5s0.9,1.3,1.8,2.7c2,3,6.2,8.7,8.7,11.6l1.8,2.1l-1.8,2.1
	c-3.7,4.4-7,9.1-10.1,13.9l-0.4,0.7L273.3,398.8z"/>
<path class="st1" d="M151.2,180.4c-1.9-3.3-8.3-12-12.9-17.8c-2.4-2.9-4.3-5.4-4.3-5.6c0.6-0.9,1.2-1.8,1.9-2.6
	c5.3-6.4,10.3-13.2,14.8-20.2c0.9-1.4,1.7-2.5,1.8-2.3s1.4,2,2.7,4.1c3,4.6,9.5,13.3,13.2,17.7l2.7,3.2l-2.7,3.2
	c-5.6,6.8-10.7,13.9-15.4,21.3l-0.6,1.1L151.2,180.4z"/>
<path class="st1" d="M151.2,329.5c-1.9-3.3-8.3-12-12.9-17.8c-2.4-2.9-4.3-5.5-4.3-5.6c0.6-0.9,1.2-1.8,1.9-2.5
	c5.3-6.4,10.3-13.2,14.8-20.2c0.9-1.4,1.7-2.5,1.8-2.3s1.4,2,2.7,4.1c3,4.6,9.5,13.3,13.2,17.7l2.7,3.2l-2.7,3.2
	c-5.6,6.8-10.7,13.9-15.4,21.3l-0.6,1L151.2,329.5z"/>
<g class="st2">
	<path class="st1" d="M20,56.4v-0.2l1.8-4.1L32.4,41c3.8-3.7,5.6-6.9,5.6-9.5c0-2-0.5-3.6-1.5-4.9c-1.3-1.6-3-2.5-5.2-2.5
		c-2.1,0-3.8,0.8-5.2,2.5c-1.1,1.3-1.6,2.9-1.6,4.8c0,1.1,0.3,2.1,0.9,3.2l-3.7,1.9h-0.2c-0.9-1.7-1.4-3.6-1.4-5.7
		c0-2.7,1-5.3,3-7.5c2-2.3,4.8-3.5,8.2-3.5s6.2,1.2,8.2,3.5c2,2.3,3,5,3,8.3c0,3.6-2,7.4-6,11.3l-9.5,9.1h15.6v0.2l-1.8,4.1H20z"/>
</g>
<g class="st2">
	<path class="st1" d="M285,406.6v0.2l-1.8,4.1l-10.7,11.1c-3.8,3.7-5.6,6.9-5.6,9.5c0,2,0.5,3.6,1.5,4.9c1.3,1.6,3,2.5,5.2,2.5
		c2.1,0,3.8-0.8,5.2-2.5c1.1-1.3,1.6-2.9,1.6-4.8c0-1.1-0.3-2.1-0.9-3.2l3.7-1.9h0.2c0.9,1.7,1.4,3.6,1.4,5.7c0,2.7-1,5.3-3,7.5
		c-2,2.3-4.8,3.5-8.2,3.5s-6.2-1.2-8.2-3.5c-2-2.3-3-5-3-8.3c0-3.6,2-7.4,6-11.3l9.5-9.1h-15.6v-0.2l1.8-4.1H285z"/>
</g>
</svg>
