<svg id="Layer_1" data-name="Layer 1" xmlns="http://www.w3.org/2000/svg" viewBox="0 0 305 463"><defs><style>.cls-1{fill:#fff;stroke:#000;stroke-linecap:round;stroke-width:2px;}.cls-2,.cls-3{fill:red;}.cls-2{stroke:red;stroke-miterlimit:10;stroke-width:1.47px;}</style></defs><title>3</title><path class="cls-1" d="M87.05,27H344a22.2,22.2,0,0,1,16.3,6.75A22.2,22.2,0,0,1,367,50.05V465A23,23,0,0,1,344,488H87.05A23,23,0,0,1,64,465V50.05a22.2,22.2,0,0,1,6.75-16.3A22.2,22.2,0,0,1,87.05,27Z" transform="translate(-63 -26)"/><path class="cls-2" d="M94.59,44.15h0a8.08,8.08,0,0,1,5.06,1.51h0a4.85,4.85,0,0,1,2,4.06h0a6.76,6.76,0,0,1-2.12,4.84h0a13.57,13.57,0,0,1-5.16,3.22h0a11.12,11.12,0,0,1,6.4,2h0a6.28,6.28,0,0,1,2.64,5.42h0a8.81,8.81,0,0,1-2.71,6.31h0a18.42,18.42,0,0,1-6.89,4.32h0a24.28,24.28,0,0,1-8.48,1.54h0V76.5h0a17.51,17.51,0,0,0,6.55-1.44h0a12.29,12.29,0,0,0,5-3.86h0a9.66,9.66,0,0,0,1.91-6h0a7.7,7.7,0,0,0-1.42-4.77h0a5,5,0,0,0-3.76-2.07h0l-1,.41h0a3.84,3.84,0,0,1-1.3.32h0q-.78,0-.78-.63h0a.77.77,0,0,1,.37-.69h0a1.59,1.59,0,0,1,.9-.24h0a5.86,5.86,0,0,1,.81.07h0l.9.12h0a10,10,0,0,0,2.84-3.27h0a8.26,8.26,0,0,0,.92-3.77h0a4.41,4.41,0,0,0-1.12-3.32h0A4.32,4.32,0,0,0,93,46.3h0a6.52,6.52,0,0,0-3.71,1.1h0a8.43,8.43,0,0,0-2.79,3.25h0l-.83-.4h0q2.84-6.11,8.94-6.1Z" transform="translate(-63 -26)"/><path class="cls-2" d="M336.41,470.85h0a8.08,8.08,0,0,1-5.06-1.51h0a4.85,4.85,0,0,1-2-4.06h0a6.76,6.76,0,0,1,2.12-4.84h0a13.57,13.57,0,0,1,5.16-3.22h0a11.12,11.12,0,0,1-6.4-2h0a6.28,6.28,0,0,1-2.64-5.42h0a8.81,8.81,0,0,1,2.71-6.31h0a18.42,18.42,0,0,1,6.89-4.32h0a24.28,24.28,0,0,1,8.48-1.54h0v.88h0a17.51,17.51,0,0,0-6.55,1.44h0a12.29,12.29,0,0,0-5,3.86h0a9.66,9.66,0,0,0-1.91,6h0a7.7,7.7,0,0,0,1.42,4.77h0a5,5,0,0,0,3.76,2.07h0l1-.41h0a3.84,3.84,0,0,1,1.3-.32h0q.78,0,.78.63h0a.77.77,0,0,1-.37.69h0a1.59,1.59,0,0,1-.9.24h0a5.86,5.86,0,0,1-.81-.07h0l-.9-.12h0a10,10,0,0,0-2.84,3.27h0a8.26,8.26,0,0,0-.92,3.77h0a4.41,4.41,0,0,0,1.12,3.32h0A4.32,4.32,0,0,0,338,468.7h0a6.52,6.52,0,0,0,3.71-1.1h0a8.43,8.43,0,0,0,2.79-3.25h0l.83.4h0q-2.84,6.11-8.94,6.1Z" transform="translate(-63 -26)"/><g id="layer1"><path id="path5878" class="cls-3" d="M93.29,120.78c-1.27-2.13-5.42-7.86-8.49-11.69-1.54-1.93-2.8-3.58-2.8-3.66a12.1,12.1,0,0,1,1.26-1.67A138.41,138.41,0,0,0,93,90.52c.57-.93,1.1-1.62,1.19-1.52s.88,1.31,1.78,2.68c2,3,6.23,8.74,8.66,11.63l1.76,2.09-1.76,2.1a138.15,138.15,0,0,0-10.12,13.94l-.42.69Z" transform="translate(-63 -26)"/></g><path class="cls-3" d="M336.29,424.78c-1.27-2.13-5.42-7.86-8.49-11.69-1.54-1.93-2.8-3.58-2.8-3.66a12.1,12.1,0,0,1,1.26-1.67A138.41,138.41,0,0,0,336,394.52c.57-.93,1.1-1.62,1.19-1.52s.88,1.31,1.78,2.68c2,3,6.23,8.74,8.66,11.63l1.76,2.09-1.76,2.1a138.15,138.15,0,0,0-10.12,13.94l-.42.69Z" transform="translate(-63 -26)"/><path class="cls-3" d="M214.21,280.45c-1.92-3.25-8.26-12-12.94-17.82-2.35-2.94-4.27-5.45-4.27-5.58a18.2,18.2,0,0,1,1.93-2.55,210.67,210.67,0,0,0,14.84-20.18c.87-1.43,1.68-2.47,1.81-2.32s1.36,2,2.72,4.09c3,4.59,9.5,13.33,13.2,17.73l2.68,3.19-2.68,3.19a213.24,213.24,0,0,0-15.43,21.27l-.64,1Z" transform="translate(-63 -26)"/><path class="cls-3" d="M214.21,132.45c-1.92-3.25-8.26-12-12.94-17.82-2.35-2.94-4.27-5.45-4.27-5.58a18.2,18.2,0,0,1,1.93-2.55,210.67,210.67,0,0,0,14.84-20.18c.87-1.43,1.68-2.47,1.81-2.32s1.36,2,2.72,4.09c3,4.59,9.5,13.33,13.2,17.73l2.68,3.19-2.68,3.19a213.24,213.24,0,0,0-15.43,21.27l-.64,1.05Z" transform="translate(-63 -26)"/><path class="cls-3" d="M214.21,429.45c-1.92-3.25-8.26-12-12.94-17.82-2.35-2.94-4.27-5.45-4.27-5.58a18.2,18.2,0,0,1,1.93-2.55,210.67,210.67,0,0,0,14.84-20.18c.87-1.43,1.68-2.47,1.81-2.32s1.36,2,2.72,4.09c3,4.59,9.5,13.33,13.2,17.73l2.68,3.19-2.68,3.19a213.24,213.24,0,0,0-15.43,21.27l-.64,1Z" transform="translate(-63 -26)"/></svg>