<svg id="Layer_1" data-name="Layer 1" xmlns="http://www.w3.org/2000/svg" viewBox="0 0 305 463"><defs><style>.cls-1{fill:#fff;stroke:#000;stroke-linecap:round;stroke-width:2px;}.cls-2,.cls-3{fill:red;}.cls-2{stroke:red;stroke-miterlimit:10;stroke-width:1.46px;}</style></defs><title>4</title><path class="cls-1" d="M54.05,41H311a23,23,0,0,1,23.05,23V479A23,23,0,0,1,311,502H54.05A23,23,0,0,1,31,479V64.05a23,23,0,0,1,23-23Z" transform="translate(-30 -40)"/><path class="cls-2" d="M71.33,81.61h0a43.64,43.64,0,0,0-4.88-.24h0v9.5h-3.9v-9.5H49.83v-1L65.67,58.21h.78V78.1H67a6.53,6.53,0,0,0,2-.22h0a1.41,1.41,0,0,0,.9-.73h0a5.07,5.07,0,0,0,.39-1.53h.83C71.13,78.35,71.2,80.34,71.33,81.61ZM52.7,78.1h9.85V64.16Z" transform="translate(-30 -40)"/><path class="cls-2" d="M293.67,461.39h0a43.64,43.64,0,0,0,4.88.24h0v-9.5h3.9v9.5h12.72v1l-15.84,22.13h-.78V464.9H298a6.53,6.53,0,0,0-2,.22h0a1.41,1.41,0,0,0-.9.73h0a5.07,5.07,0,0,0-.39,1.53h-.83C293.87,464.65,293.8,462.66,293.67,461.39Zm18.63,3.51h-9.85v13.94Z" transform="translate(-30 -40)"/><g id="layer1"><path id="path5878" class="cls-3" d="M60.29,134.78c-1.27-2.13-5.42-7.86-8.49-11.69-1.54-1.93-2.8-3.58-2.8-3.66a12.1,12.1,0,0,1,1.26-1.67A138.41,138.41,0,0,0,60,104.52c.57-.93,1.1-1.62,1.19-1.52s.88,1.31,1.78,2.68c2,3,6.23,8.74,8.66,11.63l1.76,2.09-1.76,2.1a138.15,138.15,0,0,0-10.12,13.94l-.42.69Z" transform="translate(-30 -40)"/></g><path class="cls-3" d="M303.29,438.78c-1.27-2.13-5.42-7.86-8.49-11.69-1.54-1.93-2.8-3.58-2.8-3.66a12.1,12.1,0,0,1,1.26-1.67A138.41,138.41,0,0,0,303,408.52c.57-.93,1.1-1.62,1.19-1.52s.88,1.31,1.78,2.68c2,3,6.23,8.74,8.66,11.63l1.76,2.09-1.76,2.1a138.15,138.15,0,0,0-10.12,13.94l-.42.69Z" transform="translate(-30 -40)"/><path class="cls-3" d="M112.21,220.45c-1.92-3.25-8.26-12-12.94-17.82-2.35-2.94-4.27-5.45-4.27-5.58a18.2,18.2,0,0,1,1.93-2.55,210.67,210.67,0,0,0,14.84-20.18c.87-1.43,1.68-2.47,1.81-2.32s1.36,2,2.72,4.09c3,4.59,9.5,13.33,13.2,17.73l2.68,3.19-2.68,3.19a213.24,213.24,0,0,0-15.43,21.27l-.64,1.05Z" transform="translate(-30 -40)"/><path class="cls-3" d="M112.21,369.45c-1.92-3.25-8.26-12-12.94-17.82-2.35-2.94-4.27-5.45-4.27-5.58a18.2,18.2,0,0,1,1.93-2.55,210.67,210.67,0,0,0,14.84-20.18c.87-1.43,1.68-2.47,1.81-2.32s1.36,2,2.72,4.09c3,4.59,9.5,13.33,13.2,17.73l2.68,3.19-2.68,3.19a213.24,213.24,0,0,0-15.43,21.27l-.64,1Z" transform="translate(-30 -40)"/><path class="cls-3" d="M249.21,220.45c-1.92-3.25-8.26-12-12.94-17.82-2.35-2.94-4.27-5.45-4.27-5.58a18.2,18.2,0,0,1,1.93-2.55,210.67,210.67,0,0,0,14.84-20.18c.87-1.43,1.68-2.47,1.81-2.32s1.36,2,2.72,4.09c3,4.59,9.5,13.33,13.2,17.73l2.68,3.19-2.68,3.19a213.24,213.24,0,0,0-15.43,21.27l-.64,1.05Z" transform="translate(-30 -40)"/><path class="cls-3" d="M249.21,369.45c-1.92-3.25-8.26-12-12.94-17.82-2.35-2.94-4.27-5.45-4.27-5.58a18.2,18.2,0,0,1,1.93-2.55,210.67,210.67,0,0,0,14.84-20.18c.87-1.43,1.68-2.47,1.81-2.32s1.36,2,2.72,4.09c3,4.59,9.5,13.33,13.2,17.73l2.68,3.19-2.68,3.19a213.24,213.24,0,0,0-15.43,21.27l-.64,1Z" transform="translate(-30 -40)"/></svg>