<svg id="Layer_1" data-name="Layer 1" xmlns="http://www.w3.org/2000/svg" viewBox="0 0 305 463"><defs><style>.cls-1{fill:#fff;stroke:#000;stroke-linecap:round;stroke-width:2px;}.cls-2,.cls-3{fill:red;}.cls-2{stroke:red;stroke-miterlimit:10;stroke-width:1.44px;}</style></defs><title>6</title><path class="cls-1" d="M53.05,27H310a22.2,22.2,0,0,1,16.3,6.75A22.2,22.2,0,0,1,333,50.05V465A23,23,0,0,1,310,488H53.05A23,23,0,0,1,30,465V50.05a22.2,22.2,0,0,1,6.75-16.3A22.2,22.2,0,0,1,53.05,27Z" transform="translate(-29 -26)"/><path class="cls-2" d="M61.81,48.28h0a7.82,7.82,0,0,1,4.27,1.25h0a9,9,0,0,1,3.16,3.61h0a12.34,12.34,0,0,1,1.19,5.58h0a12.22,12.22,0,0,1-1.41,6h0a9.54,9.54,0,0,1-3.81,3.85h0a10.78,10.78,0,0,1-5.31,1.32h0a8.36,8.36,0,0,1-7.18-3.59h0q-2.59-3.59-2.59-10h0A23.47,23.47,0,0,1,52.69,45h0a19.79,19.79,0,0,1,6.25-7.13h0a20.32,20.32,0,0,1,7.42-3.18h0l.19,1h0a19.86,19.86,0,0,0-5.24,2.59h0a13.61,13.61,0,0,0-4.09,5h0A24,24,0,0,0,55,52.16h0a6.85,6.85,0,0,1,3-2.95h0A8.73,8.73,0,0,1,61.81,48.28ZM60.38,69h0a4.51,4.51,0,0,0,3.88-2.44h0q1.53-2.44,1.53-7.47h0q0-4.87-1.44-7.13h0a4.29,4.29,0,0,0-3.73-2.25h0a6.49,6.49,0,0,0-3.33,1h0a5.94,5.94,0,0,0-2.47,3.14h0c0,.51,0,1.32,0,2.44h0c0,4.59.54,7.87,1.62,9.81h0C57.49,68,58.81,69,60.38,69Z" transform="translate(-29 -26)"/><path class="cls-2" d="M301.19,466.72h0a7.82,7.82,0,0,1-4.27-1.25h0a9,9,0,0,1-3.16-3.61h0a12.34,12.34,0,0,1-1.19-5.58h0a12.22,12.22,0,0,1,1.41-6h0a9.54,9.54,0,0,1,3.81-3.85h0a10.78,10.78,0,0,1,5.31-1.32h0a8.36,8.36,0,0,1,7.18,3.59h0q2.6,3.58,2.59,10h0a23.47,23.47,0,0,1-2.56,11.37h0a19.79,19.79,0,0,1-6.25,7.13h0a20.32,20.32,0,0,1-7.42,3.18h0l-.19-.95h0a19.86,19.86,0,0,0,5.24-2.59h0a13.61,13.61,0,0,0,4.09-5h0a24,24,0,0,0,2.25-9h0a6.85,6.85,0,0,1-3,3h0A8.73,8.73,0,0,1,301.19,466.72ZM302.62,446h0a4.51,4.51,0,0,0-3.88,2.44h0q-1.53,2.44-1.53,7.47h0q0,4.88,1.44,7.13h0a4.29,4.29,0,0,0,3.73,2.25h0a6.49,6.49,0,0,0,3.33-1h0a5.94,5.94,0,0,0,2.47-3.14h0c0-.51,0-1.32,0-2.44h0c0-4.59-.54-7.87-1.62-9.81h0c-1.09-1.95-2.41-2.92-4-2.92Z" transform="translate(-29 -26)"/><g id="layer1"><path id="path5878" class="cls-3" d="M59.29,120.78c-1.27-2.13-5.42-7.86-8.49-11.69-1.54-1.93-2.8-3.58-2.8-3.66a12.1,12.1,0,0,1,1.26-1.67A138.41,138.41,0,0,0,59,90.52c.57-.93,1.1-1.62,1.19-1.52s.88,1.31,1.78,2.68c2,3,6.23,8.74,8.66,11.63l1.76,2.09-1.76,2.1a138.15,138.15,0,0,0-10.12,13.94l-.42.69Z" transform="translate(-29 -26)"/></g><path class="cls-3" d="M302.29,424.78c-1.27-2.13-5.42-7.86-8.49-11.69-1.54-1.93-2.8-3.58-2.8-3.66a12.1,12.1,0,0,1,1.26-1.67A138.41,138.41,0,0,0,302,394.52c.57-.93,1.1-1.62,1.19-1.52s.88,1.31,1.78,2.68c2,3,6.23,8.74,8.66,11.63l1.76,2.09-1.76,2.1a138.15,138.15,0,0,0-10.12,13.94l-.42.69Z" transform="translate(-29 -26)"/><path class="cls-3" d="M111.21,132.45c-1.92-3.25-8.26-12-12.94-17.82-2.35-2.94-4.27-5.45-4.27-5.58a18.2,18.2,0,0,1,1.93-2.55,210.67,210.67,0,0,0,14.84-20.18c.87-1.43,1.68-2.47,1.81-2.32s1.36,2,2.72,4.09c3,4.59,9.5,13.33,13.2,17.73l2.68,3.19-2.68,3.19a213.24,213.24,0,0,0-15.43,21.27l-.64,1.05Z" transform="translate(-29 -26)"/><path class="cls-3" d="M111.21,280.45c-1.92-3.25-8.26-12-12.94-17.82-2.35-2.94-4.27-5.45-4.27-5.58a18.2,18.2,0,0,1,1.93-2.55,210.67,210.67,0,0,0,14.84-20.18c.87-1.43,1.68-2.47,1.81-2.32s1.36,2,2.72,4.09c3,4.59,9.5,13.33,13.2,17.73l2.68,3.19-2.68,3.19a213.24,213.24,0,0,0-15.43,21.27l-.64,1Z" transform="translate(-29 -26)"/><path class="cls-3" d="M111.21,429.45c-1.92-3.25-8.26-12-12.94-17.82-2.35-2.94-4.27-5.45-4.27-5.58a18.2,18.2,0,0,1,1.93-2.55,210.67,210.67,0,0,0,14.84-20.18c.87-1.43,1.68-2.47,1.81-2.32s1.36,2,2.72,4.09c3,4.59,9.5,13.33,13.2,17.73l2.68,3.19-2.68,3.19a213.24,213.24,0,0,0-15.43,21.27l-.64,1Z" transform="translate(-29 -26)"/><path class="cls-3" d="M248.21,429.45c-1.92-3.25-8.26-12-12.94-17.82-2.35-2.94-4.27-5.45-4.27-5.58a18.2,18.2,0,0,1,1.93-2.55,210.67,210.67,0,0,0,14.84-20.18c.87-1.43,1.68-2.47,1.81-2.32s1.36,2,2.72,4.09c3,4.59,9.5,13.33,13.2,17.73l2.68,3.19-2.68,3.19a213.24,213.24,0,0,0-15.43,21.27l-.64,1Z" transform="translate(-29 -26)"/><path class="cls-3" d="M248.21,280.45c-1.92-3.25-8.26-12-12.94-17.82-2.35-2.94-4.27-5.45-4.27-5.58a18.2,18.2,0,0,1,1.93-2.55,210.67,210.67,0,0,0,14.84-20.18c.87-1.43,1.68-2.47,1.81-2.32s1.36,2,2.72,4.09c3,4.59,9.5,13.33,13.2,17.73l2.68,3.19-2.68,3.19a213.24,213.24,0,0,0-15.43,21.27l-.64,1Z" transform="translate(-29 -26)"/><path class="cls-3" d="M248.21,132.45c-1.92-3.25-8.26-12-12.94-17.82-2.35-2.94-4.27-5.45-4.27-5.58a18.2,18.2,0,0,1,1.93-2.55,210.67,210.67,0,0,0,14.84-20.18c.87-1.43,1.68-2.47,1.81-2.32s1.36,2,2.72,4.09c3,4.59,9.5,13.33,13.2,17.73l2.68,3.19-2.68,3.19a213.24,213.24,0,0,0-15.43,21.27l-.64,1.05Z" transform="translate(-29 -26)"/></svg>