<?xml version="1.0" encoding="utf-8"?>
<!-- Generator: Adobe Illustrator 23.0.2, SVG Export Plug-In . SVG Version: 6.00 Build 0)  -->
<svg version="1.1" id="Layer_1" xmlns="http://www.w3.org/2000/svg" xmlns:xlink="http://www.w3.org/1999/xlink" x="0px" y="0px"
	 viewBox="0 0 305 463" style="enable-background:new 0 0 305 463;" xml:space="preserve">
<style type="text/css">
	.st0{fill:#FFFFFF;stroke:#000000;stroke-width:2;stroke-linecap:round;}
	.st1{fill:#FF0000;stroke:#FF0000;stroke-width:1.44;stroke-miterlimit:10;}
	.st2{fill:#FF0000;}
</style>
<title>8</title>
<path class="st0" d="M24.1,1h257c12.7,0,23,10.2,23,22.9c0,0,0,0,0,0.1v415c0,12.7-10.3,23-23,23c0,0,0,0-0.1,0h-257
	c-12.7,0-23-10.2-23-22.9c0,0,0,0,0-0.1V24C1,11.3,11.3,1,24.1,1L24.1,1z"/>
<path class="st1" d="M33.2,25.1L33.2,25.1c1.8,1.3,3.2,2.4,4.2,3.3l0,0c1,0.9,1.9,2,2.6,3.2l0,0c0.7,1.3,1.1,2.8,1.1,4.3l0,0
	c0,1.7-0.4,3.3-1.3,4.8l0,0c-0.9,1.4-2.2,2.5-3.7,3.2l0,0c-1.7,0.8-3.5,1.2-5.3,1.2l0,0c-2.4,0.1-4.9-0.6-6.8-2.1l0,0
	c-1.9-1.4-2.9-3.7-2.8-6l0,0c0-2.1,0.7-4.2,2.1-5.8l0,0c1.5-1.8,3.4-3.3,5.6-4.3l0,0c-1.7-1.3-3.2-2.9-4.5-4.5l0,0
	c-1.1-1.4-1.6-3.2-1.6-5l0,0c0-1.4,0.4-2.7,1.2-3.9l0,0c0.8-1.2,1.9-2.1,3.2-2.6l0,0c1.4-0.6,2.9-1,4.4-0.9l0,0c2-0.1,4,0.5,5.7,1.7
	l0,0c1.5,1.1,2.3,2.9,2.3,4.8l0,0c0,1.7-0.6,3.4-1.6,4.8l0,0C36.4,22.6,34.9,24,33.2,25.1z M30.8,10.5L30.8,10.5
	c-1.2,0-2.4,0.5-3.2,1.4l0,0c-0.9,1-1.3,2.4-1.3,3.7l0,0c0,1.7,0.5,3.3,1.6,4.7l0,0c1.3,1.6,2.9,3,4.6,4.2l0,0c2-2,3.1-4.8,3-7.7
	l0,0c0.1-1.6-0.3-3.2-1.2-4.6l0,0C33.5,11.1,32.2,10.5,30.8,10.5z M30.9,44.1L30.9,44.1c1.6,0,3.1-0.6,4.3-1.7l0,0
	c1.2-1.2,1.8-2.9,1.7-4.6l0,0c0-1.4-0.3-2.8-1-4.1l0,0c-0.6-1.2-1.5-2.2-2.4-3.1l0,0c-0.9-0.9-2.3-2-4-3.4l0,0c-2.8,2-4.2,5-4.2,8.9
	l0,0c-0.1,2,0.4,3.9,1.4,5.7l0,0C27.6,43.3,29.2,44.2,30.9,44.1L30.9,44.1z"/>
<path class="st1" d="M271.9,438L271.9,438c-1.8-1.3-3.2-2.4-4.2-3.3l0,0c-1-0.9-1.9-2-2.6-3.2l0,0c-0.7-1.3-1.1-2.8-1.1-4.3l0,0
	c0-1.7,0.4-3.3,1.3-4.8l0,0c0.9-1.4,2.2-2.5,3.7-3.2l0,0c1.7-0.8,3.5-1.2,5.3-1.1l0,0c2.4-0.1,4.9,0.6,6.8,2.1l0,0
	c1.9,1.4,2.9,3.7,2.8,6l0,0c0,2.1-0.7,4.2-2.1,5.8l0,0c-1.5,1.8-3.4,3.3-5.5,4.3l0,0c1.7,1.3,3.2,2.9,4.5,4.5l0,0
	c1.1,1.4,1.6,3.2,1.6,5l0,0c0,1.4-0.4,2.7-1.1,3.9l0,0c-0.8,1.2-1.9,2.1-3.2,2.6l0,0c-1.4,0.6-2.9,1-4.5,0.9l0,0
	c-2,0.1-4-0.5-5.6-1.7l0,0c-1.5-1.1-2.3-2.9-2.3-4.8l0,0c0-1.7,0.5-3.4,1.6-4.7l0,0C268.6,440.4,270.1,439.1,271.9,438z
	 M274.2,452.5L274.2,452.5c1.2,0,2.4-0.5,3.2-1.4l0,0c0.9-1,1.3-2.4,1.3-3.7l0,0c0-1.7-0.5-3.3-1.6-4.7l0,0c-1.3-1.6-2.9-3-4.6-4.2
	l0,0c-2,2-3.1,4.8-3,7.7l0,0c-0.1,1.6,0.3,3.2,1.2,4.6l0,0C271.5,451.9,272.8,452.5,274.2,452.5L274.2,452.5z M274.1,419L274.1,419
	c-1.6,0-3.1,0.6-4.3,1.7l0,0c-1.2,1.2-1.8,2.9-1.7,4.6l0,0c0,1.4,0.3,2.8,1,4l0,0c0.6,1.2,1.5,2.2,2.4,3.1l0,0c0.9,0.9,2.3,2,4,3.4
	l0,0c2.8-2,4.2-5,4.2-8.9l0,0c0.1-2-0.4-3.9-1.4-5.6l0,0C277.4,419.7,275.8,418.9,274.1,419L274.1,419z"/>
<g id="layer1">
	<path id="path5878" class="st2" d="M30.3,94.8c-1.3-2.1-5.4-7.9-8.5-11.7c-1.5-1.9-2.8-3.6-2.8-3.7c0.4-0.6,0.8-1.2,1.3-1.7
		c3.5-4.2,6.8-8.6,9.7-13.2c0.6-0.9,1.1-1.6,1.2-1.5s0.9,1.3,1.8,2.7c2,3,6.2,8.7,8.7,11.6l1.8,2.1l-1.8,2.1
		c-3.7,4.4-7,9.1-10.1,13.9l-0.4,0.7L30.3,94.8z"/>
</g>
<path class="st2" d="M273.3,398.8c-1.3-2.1-5.4-7.9-8.5-11.7c-1.5-1.9-2.8-3.6-2.8-3.7c0.4-0.6,0.8-1.2,1.3-1.7
	c3.5-4.2,6.8-8.6,9.7-13.2c0.6-0.9,1.1-1.6,1.2-1.5s0.9,1.3,1.8,2.7c2,3,6.2,8.7,8.7,11.6l1.8,2.1l-1.8,2.1
	c-3.7,4.4-7,9.1-10.1,13.9l-0.4,0.7L273.3,398.8z"/>
<path class="st2" d="M82.2,106.4c-1.9-3.3-8.3-12-12.9-17.8C66.9,85.7,65,83.2,65,83c0.6-0.9,1.2-1.8,1.9-2.6
	c5.3-6.4,10.3-13.2,14.8-20.2c0.9-1.4,1.7-2.5,1.8-2.3s1.4,2,2.7,4.1c3,4.6,9.5,13.3,13.2,17.7l2.7,3.2l-2.7,3.2
	c-5.6,6.8-10.7,13.9-15.4,21.3l-0.6,1.1L82.2,106.4z"/>
<path class="st2" d="M82.2,205.4c-1.9-3.3-8.3-12-12.9-17.8c-2.3-2.9-4.3-5.4-4.3-5.6c0.6-0.9,1.2-1.8,1.9-2.6
	c5.3-6.4,10.3-13.2,14.8-20.2c0.9-1.4,1.7-2.5,1.8-2.3s1.4,2,2.7,4.1c3,4.6,9.5,13.3,13.2,17.7l2.7,3.2l-2.7,3.2
	c-5.6,6.8-10.7,13.9-15.4,21.3l-0.6,1.1L82.2,205.4z"/>
<path class="st2" d="M82.2,304.5c-1.9-3.3-8.3-12-12.9-17.8c-2.3-2.9-4.3-5.5-4.3-5.6c0.6-0.9,1.2-1.8,1.9-2.5
	c5.3-6.4,10.3-13.2,14.8-20.2c0.9-1.4,1.7-2.5,1.8-2.3s1.4,2,2.7,4.1c3,4.6,9.5,13.3,13.2,17.7l2.7,3.2l-2.7,3.2
	c-5.6,6.8-10.7,13.9-15.4,21.3l-0.6,1L82.2,304.5z"/>
<path class="st2" d="M82.2,403.5c-1.9-3.3-8.3-12-12.9-17.8c-2.3-2.9-4.3-5.5-4.3-5.6c0.6-0.9,1.2-1.8,1.9-2.5
	c5.3-6.4,10.3-13.2,14.8-20.2c0.9-1.4,1.7-2.5,1.8-2.3s1.4,2,2.7,4.1c3,4.6,9.5,13.3,13.2,17.7l2.7,3.2l-2.7,3.2
	c-5.6,6.8-10.7,13.9-15.4,21.3l-0.6,1L82.2,403.5z"/>
<path class="st2" d="M219.2,106.4c-1.9-3.3-8.3-12-12.9-17.8c-2.4-2.9-4.3-5.4-4.3-5.6c0.6-0.9,1.2-1.8,1.9-2.6
	c5.3-6.4,10.3-13.2,14.8-20.2c0.9-1.4,1.7-2.5,1.8-2.3s1.4,2,2.7,4.1c3,4.6,9.5,13.3,13.2,17.7l2.7,3.2l-2.7,3.2
	c-5.6,6.8-10.7,13.9-15.4,21.3l-0.6,1.1L219.2,106.4z"/>
<path class="st2" d="M219.2,205.4c-1.9-3.3-8.3-12-12.9-17.8c-2.4-2.9-4.3-5.4-4.3-5.6c0.6-0.9,1.2-1.8,1.9-2.6
	c5.3-6.4,10.3-13.2,14.8-20.2c0.9-1.4,1.7-2.5,1.8-2.3s1.4,2,2.7,4.1c3,4.6,9.5,13.3,13.2,17.7l2.7,3.2l-2.7,3.2
	c-5.6,6.8-10.7,13.9-15.4,21.3l-0.6,1.1L219.2,205.4z"/>
<path class="st2" d="M219.2,304.5c-1.9-3.3-8.3-12-12.9-17.8c-2.4-2.9-4.3-5.5-4.3-5.6c0.6-0.9,1.2-1.8,1.9-2.5
	c5.3-6.4,10.3-13.2,14.8-20.2c0.9-1.4,1.7-2.5,1.8-2.3s1.4,2,2.7,4.1c3,4.6,9.5,13.3,13.2,17.7l2.7,3.2l-2.7,3.2
	c-5.6,6.8-10.7,13.9-15.4,21.3l-0.6,1L219.2,304.5z"/>
<path class="st2" d="M219.2,403.5c-1.9-3.3-8.3-12-12.9-17.8c-2.4-2.9-4.3-5.5-4.3-5.6c0.6-0.9,1.2-1.8,1.9-2.5
	c5.3-6.4,10.3-13.2,14.8-20.2c0.9-1.4,1.7-2.5,1.8-2.3s1.4,2,2.7,4.1c3,4.6,9.5,13.3,13.2,17.7l2.7,3.2l-2.7,3.2
	c-5.6,6.8-10.7,13.9-15.4,21.3l-0.6,1L219.2,403.5z"/>
</svg>
