<?xml version="1.0" encoding="utf-8"?>
<!-- Generator: Adobe Illustrator 23.0.2, SVG Export Plug-In . SVG Version: 6.00 Build 0)  -->
<svg version="1.1" id="Layer_1" xmlns="http://www.w3.org/2000/svg" xmlns:xlink="http://www.w3.org/1999/xlink" x="0px" y="0px"
	 viewBox="0 0 305 463" style="enable-background:new 0 0 305 463;" xml:space="preserve">
<style type="text/css">
	.st0{fill:#FFFFFF;stroke:#000000;stroke-width:2;stroke-linecap:round;}
	.st1{fill:#FF0000;stroke:#FF0000;stroke-width:1.44;stroke-miterlimit:10;}
	.st2{fill:#FF0000;}
</style>
<title>9</title>
<path class="st0" d="M24,1h257c12.7,0,23,10.2,23,22.9c0,0,0,0,0,0.1v415c0,12.7-10.3,23-23,23H24c-12.7,0-23-10.2-23-22.9
	c0,0,0,0,0,0V24C1,11.3,11.3,1,24,1L24,1z"/>
<path class="st1" d="M30.8,18.9L30.8,18.9c2.8-0.1,5.5,1.1,7.2,3.3l0,0c1.7,2.2,2.6,5.3,2.6,9.3l0,0c0.1,3.6-0.8,7.2-2.6,10.3l0,0
	c-1.5,2.7-3.7,4.9-6.3,6.5l0,0c-2.3,1.4-4.8,2.4-7.4,2.9l0,0l-0.2-1l0,0c2.8-0.7,5.3-2.2,7.4-4.1l0,0c2-1.9,3.3-5,4-9.2l0,0
	c-0.7,1.2-1.7,2.2-3,2.7l0,0c-1.2,0.5-2.4,0.8-3.7,0.8l0,0c-1.5,0-3-0.4-4.3-1.2l0,0c-1.4-0.9-2.5-2.1-3.2-3.6l0,0
	c-0.8-1.7-1.3-3.6-1.2-5.6l0,0c0-2.1,0.4-4.2,1.4-6l0,0c0.9-1.6,2.2-3,3.8-3.9l0,0C27.1,19.3,28.9,18.9,30.8,18.9z M30.1,39.2
	L30.1,39.2c1.1,0,2.3-0.3,3.2-0.9l0,0c1.1-0.7,2-1.7,2.4-2.9l0,0c0.1-1.2,0.2-2.5,0.2-3.7l0,0c0-4.3-0.5-7.3-1.6-9.1l0,0
	c-1.1-1.8-2.4-2.7-4-2.7l0,0c-1.6,0-3.1,1-3.9,2.4l0,0c-1,1.6-1.5,4.1-1.5,7.5l0,0c0,3.3,0.5,5.6,1.4,7.1l0,0
	C27.1,38.3,28.5,39.2,30.1,39.2L30.1,39.2z"/>
<path class="st1" d="M274.2,444.1L274.2,444.1c-2.8,0.1-5.5-1.1-7.2-3.3l0,0c-1.7-2.2-2.6-5.3-2.6-9.3l0,0
	c-0.1-3.6,0.8-7.2,2.6-10.3l0,0c1.5-2.7,3.7-4.9,6.3-6.5l0,0c2.3-1.4,4.8-2.4,7.4-2.9l0,0l0.2,1l0,0c-2.8,0.7-5.3,2.2-7.4,4.1l0,0
	c-2,1.9-3.3,5-4,9.2l0,0c0.7-1.2,1.7-2.2,3-2.7l0,0c1.2-0.5,2.4-0.8,3.7-0.8l0,0c1.5,0,3,0.4,4.3,1.2l0,0c1.4,0.9,2.5,2.1,3.2,3.6
	l0,0c0.8,1.7,1.3,3.6,1.2,5.6l0,0c0,2.1-0.4,4.2-1.4,6l0,0c-0.9,1.6-2.2,3-3.8,3.9l0,0C277.9,443.7,276.1,444.1,274.2,444.1z
	 M274.9,423.8L274.9,423.8c-1.1,0-2.3,0.3-3.2,0.9l0,0c-1.1,0.7-2,1.7-2.4,2.9l0,0c-0.1,1.2-0.2,2.5-0.2,3.7l0,0
	c0,4.3,0.5,7.3,1.6,9.1l0,0c1.1,1.8,2.4,2.7,4,2.7l0,0c1.6,0,3.1-1,3.9-2.4l0,0c1-1.6,1.5-4.1,1.5-7.5l0,0c0-3.3-0.5-5.6-1.4-7.1
	l0,0C277.9,424.7,276.5,423.8,274.9,423.8L274.9,423.8z"/>
<path class="st2" d="M30.3,94.8c-1.3-2.1-5.4-7.9-8.5-11.7c-1.5-1.9-2.8-3.6-2.8-3.7c0.4-0.6,0.8-1.2,1.3-1.7
	c3.5-4.2,6.8-8.6,9.7-13.2c0.6-0.9,1.1-1.6,1.2-1.5s0.9,1.3,1.8,2.7c2,3,6.2,8.7,8.7,11.6l1.8,2.1l-1.8,2.1
	c-3.7,4.4-7,9.1-10.1,13.9l-0.4,0.7L30.3,94.8z"/>
<path class="st2" d="M273.3,398.8c-1.3-2.1-5.4-7.9-8.5-11.7c-1.5-1.9-2.8-3.6-2.8-3.7c0.4-0.6,0.8-1.2,1.3-1.7
	c3.5-4.2,6.8-8.6,9.7-13.2c0.6-0.9,1.1-1.6,1.2-1.5s0.9,1.3,1.8,2.7c2,3,6.2,8.7,8.7,11.6l1.8,2.1l-1.8,2.1
	c-3.7,4.4-7,9.1-10.1,13.9l-0.4,0.7L273.3,398.8z"/>
<path class="st2" d="M82.2,106.4c-4-6.2-8.3-12.1-12.9-17.8c-2.3-2.9-4.3-5.4-4.3-5.6c0.6-0.9,1.2-1.8,1.9-2.6
	c5.3-6.4,10.3-13.2,14.8-20.2c0.9-1.4,1.7-2.5,1.8-2.3s1.4,2,2.7,4.1c3,4.6,9.5,13.3,13.2,17.7l2.7,3.2l-2.7,3.2
	c-5.6,6.8-10.7,13.9-15.4,21.3l-0.6,1L82.2,106.4z"/>
<path class="st2" d="M82.2,205.4c-4-6.2-8.3-12.1-12.9-17.8c-2.3-2.9-4.3-5.4-4.3-5.6c0.6-0.9,1.2-1.8,1.9-2.6
	c5.3-6.4,10.3-13.2,14.8-20.2c0.9-1.4,1.7-2.5,1.8-2.3s1.4,2,2.7,4.1c3,4.6,9.5,13.3,13.2,17.7l2.7,3.2l-2.7,3.2
	c-5.6,6.8-10.7,13.9-15.4,21.3l-0.6,1.1L82.2,205.4z"/>
<path class="st2" d="M82.2,304.5c-4-6.2-8.3-12.1-12.9-17.8c-2.3-2.9-4.3-5.5-4.3-5.6c0.6-0.9,1.2-1.8,1.9-2.5
	c5.3-6.4,10.3-13.2,14.8-20.2c0.9-1.4,1.7-2.5,1.8-2.3s1.4,2,2.7,4.1c3,4.6,9.5,13.3,13.2,17.7l2.7,3.2l-2.7,3.2
	c-5.6,6.8-10.7,13.9-15.4,21.3l-0.6,1L82.2,304.5z"/>
<path class="st2" d="M82.2,403.5c-4-6.2-8.3-12.1-12.9-17.8c-2.3-2.9-4.3-5.5-4.3-5.6c0.6-0.9,1.2-1.8,1.9-2.5
	c5.3-6.4,10.3-13.2,14.8-20.2c0.9-1.4,1.7-2.5,1.8-2.3s1.4,2,2.7,4.1c3,4.6,9.5,13.3,13.2,17.7l2.7,3.2l-2.7,3.2
	c-5.6,6.8-10.7,13.9-15.4,21.3l-0.6,1L82.2,403.5z"/>
<path class="st2" d="M151.2,253.4c-4-6.2-8.3-12.1-12.9-17.8c-2.4-2.9-4.3-5.4-4.3-5.6c0.6-0.9,1.2-1.8,1.9-2.6
	c5.3-6.4,10.3-13.2,14.8-20.2c0.9-1.4,1.7-2.5,1.8-2.3s1.4,2,2.7,4.1c3,4.6,9.5,13.3,13.2,17.7l2.7,3.2l-2.7,3.2
	c-5.6,6.8-10.7,13.9-15.4,21.3l-0.6,1L151.2,253.4z"/>
<path class="st2" d="M219.2,106.4c-4-6.2-8.3-12.1-12.9-17.8c-2.4-2.9-4.3-5.4-4.3-5.6c0.6-0.9,1.2-1.8,1.9-2.6
	c5.3-6.4,10.3-13.2,14.8-20.2c0.9-1.4,1.7-2.5,1.8-2.3s1.4,2,2.7,4.1c3,4.6,9.5,13.3,13.2,17.7l2.7,3.2l-2.7,3.2
	c-5.6,6.8-10.7,13.9-15.4,21.3l-0.6,1L219.2,106.4z"/>
<path class="st2" d="M219.2,205.4c-4-6.2-8.3-12.1-12.9-17.8c-2.4-2.9-4.3-5.4-4.3-5.6c0.6-0.9,1.2-1.8,1.9-2.6
	c5.3-6.4,10.3-13.2,14.8-20.2c0.9-1.4,1.7-2.5,1.8-2.3s1.4,2,2.7,4.1c3,4.6,9.5,13.3,13.2,17.7l2.7,3.2l-2.7,3.2
	c-5.6,6.8-10.7,13.9-15.4,21.3l-0.6,1.1L219.2,205.4z"/>
<path class="st2" d="M219.2,304.5c-4-6.2-8.3-12.1-12.9-17.8c-2.4-2.9-4.3-5.5-4.3-5.6c0.6-0.9,1.2-1.8,1.9-2.5
	c5.3-6.4,10.3-13.2,14.8-20.2c0.9-1.4,1.7-2.5,1.8-2.3s1.4,2,2.7,4.1c3,4.6,9.5,13.3,13.2,17.7l2.7,3.2l-2.7,3.2
	c-5.6,6.8-10.7,13.9-15.4,21.3l-0.6,1L219.2,304.5z"/>
<path class="st2" d="M219.2,403.5c-4-6.2-8.3-12.1-12.9-17.8c-2.4-2.9-4.3-5.5-4.3-5.6c0.6-0.9,1.2-1.8,1.9-2.5
	c5.3-6.4,10.3-13.2,14.8-20.2c0.9-1.4,1.7-2.5,1.8-2.3s1.4,2,2.7,4.1c3,4.6,9.5,13.3,13.2,17.7l2.7,3.2l-2.7,3.2
	c-5.6,6.8-10.7,13.9-15.4,21.3l-0.6,1L219.2,403.5z"/>
</svg>
