<?xml version="1.0" encoding="utf-8"?>
<!-- Generator: Adobe Illustrator 23.0.3, SVG Export Plug-In . SVG Version: 6.00 Build 0)  -->
<svg version="1.1" id="Layer_1" xmlns="http://www.w3.org/2000/svg" xmlns:xlink="http://www.w3.org/1999/xlink" x="0px" y="0px"
	 viewBox="0 0 305 463" style="enable-background:new 0 0 305 463;" xml:space="preserve">
<style type="text/css">
	.st0{fill:#FFFFFF;stroke:#000000;stroke-width:2;stroke-linecap:round;}
	.st1{fill:#FF0000;}
	.st2{enable-background:new    ;}
</style>
<title>9</title>
<path class="st0" d="M24,1h257c12.7,0,23,10.2,23,22.9c0,0,0,0,0,0.1v415c0,12.7-10.3,23-23,23H24c-12.7,0-23-10.2-23-22.9l0,0V24
	C1,11.3,11.3,1,24,1L24,1z"/>
<path class="st1" d="M30.3,94.8c-1.3-2.1-5.4-7.9-8.5-11.7c-1.5-1.9-2.8-3.6-2.8-3.7c0.4-0.6,0.8-1.2,1.3-1.7
	c3.5-4.2,6.8-8.6,9.7-13.2c0.6-0.9,1.1-1.6,1.2-1.5s0.9,1.3,1.8,2.7c2,3,6.2,8.7,8.7,11.6l1.8,2.1l-1.8,2.1
	c-3.7,4.4-7,9.1-10.1,13.9l-0.4,0.7L30.3,94.8z"/>
<path class="st1" d="M273.3,398.8c-1.3-2.1-5.4-7.9-8.5-11.7c-1.5-1.9-2.8-3.6-2.8-3.7c0.4-0.6,0.8-1.2,1.3-1.7
	c3.5-4.2,6.8-8.6,9.7-13.2c0.6-0.9,1.1-1.6,1.2-1.5s0.9,1.3,1.8,2.7c2,3,6.2,8.7,8.7,11.6l1.8,2.1l-1.8,2.1
	c-3.7,4.4-7,9.1-10.1,13.9l-0.4,0.7L273.3,398.8z"/>
<path class="st1" d="M82.2,106.4c-4-6.2-8.3-12.1-12.9-17.8C67,85.7,65,83.2,65,83c0.6-0.9,1.2-1.8,1.9-2.6
	c5.3-6.4,10.3-13.2,14.8-20.2c0.9-1.4,1.7-2.5,1.8-2.3s1.4,2,2.7,4.1c3,4.6,9.5,13.3,13.2,17.7l2.7,3.2l-2.7,3.2
	C93.8,92.9,88.7,100,84,107.4l-0.6,1L82.2,106.4z"/>
<path class="st1" d="M82.2,205.4c-4-6.2-8.3-12.1-12.9-17.8c-2.3-2.9-4.3-5.4-4.3-5.6c0.6-0.9,1.2-1.8,1.9-2.6
	c5.3-6.4,10.3-13.2,14.8-20.2c0.9-1.4,1.7-2.5,1.8-2.3s1.4,2,2.7,4.1c3,4.6,9.5,13.3,13.2,17.7l2.7,3.2l-2.7,3.2
	c-5.6,6.8-10.7,13.9-15.4,21.3l-0.6,1.1L82.2,205.4z"/>
<path class="st1" d="M82.2,304.5c-4-6.2-8.3-12.1-12.9-17.8c-2.3-2.9-4.3-5.5-4.3-5.6c0.6-0.9,1.2-1.8,1.9-2.5
	c5.3-6.4,10.3-13.2,14.8-20.2c0.9-1.4,1.7-2.5,1.8-2.3s1.4,2,2.7,4.1c3,4.6,9.5,13.3,13.2,17.7l2.7,3.2l-2.7,3.2
	c-5.6,6.8-10.7,13.9-15.4,21.3l-0.6,1L82.2,304.5z"/>
<path class="st1" d="M82.2,403.5c-4-6.2-8.3-12.1-12.9-17.8c-2.3-2.9-4.3-5.5-4.3-5.6c0.6-0.9,1.2-1.8,1.9-2.5
	c5.3-6.4,10.3-13.2,14.8-20.2c0.9-1.4,1.7-2.5,1.8-2.3s1.4,2,2.7,4.1c3,4.6,9.5,13.3,13.2,17.7l2.7,3.2l-2.7,3.2
	c-5.6,6.8-10.7,13.9-15.4,21.3l-0.6,1L82.2,403.5z"/>
<path class="st1" d="M151.2,253.4c-4-6.2-8.3-12.1-12.9-17.8c-2.4-2.9-4.3-5.4-4.3-5.6c0.6-0.9,1.2-1.8,1.9-2.6
	c5.3-6.4,10.3-13.2,14.8-20.2c0.9-1.4,1.7-2.5,1.8-2.3s1.4,2,2.7,4.1c3,4.6,9.5,13.3,13.2,17.7l2.7,3.2l-2.7,3.2
	c-5.6,6.8-10.7,13.9-15.4,21.3l-0.6,1L151.2,253.4z"/>
<path class="st1" d="M219.2,106.4c-4-6.2-8.3-12.1-12.9-17.8c-2.4-2.9-4.3-5.4-4.3-5.6c0.6-0.9,1.2-1.8,1.9-2.6
	c5.3-6.4,10.3-13.2,14.8-20.2c0.9-1.4,1.7-2.5,1.8-2.3s1.4,2,2.7,4.1c3,4.6,9.5,13.3,13.2,17.7l2.7,3.2l-2.7,3.2
	c-5.6,6.8-10.7,13.9-15.4,21.3l-0.6,1L219.2,106.4z"/>
<path class="st1" d="M219.2,205.4c-4-6.2-8.3-12.1-12.9-17.8c-2.4-2.9-4.3-5.4-4.3-5.6c0.6-0.9,1.2-1.8,1.9-2.6
	c5.3-6.4,10.3-13.2,14.8-20.2c0.9-1.4,1.7-2.5,1.8-2.3s1.4,2,2.7,4.1c3,4.6,9.5,13.3,13.2,17.7l2.7,3.2l-2.7,3.2
	c-5.6,6.8-10.7,13.9-15.4,21.3l-0.6,1.1L219.2,205.4z"/>
<path class="st1" d="M219.2,304.5c-4-6.2-8.3-12.1-12.9-17.8c-2.4-2.9-4.3-5.5-4.3-5.6c0.6-0.9,1.2-1.8,1.9-2.5
	c5.3-6.4,10.3-13.2,14.8-20.2c0.9-1.4,1.7-2.5,1.8-2.3s1.4,2,2.7,4.1c3,4.6,9.5,13.3,13.2,17.7l2.7,3.2l-2.7,3.2
	c-5.6,6.8-10.7,13.9-15.4,21.3l-0.6,1L219.2,304.5z"/>
<path class="st1" d="M219.2,403.5c-4-6.2-8.3-12.1-12.9-17.8c-2.4-2.9-4.3-5.5-4.3-5.6c0.6-0.9,1.2-1.8,1.9-2.5
	c5.3-6.4,10.3-13.2,14.8-20.2c0.9-1.4,1.7-2.5,1.8-2.3s1.4,2,2.7,4.1c3,4.6,9.5,13.3,13.2,17.7l2.7,3.2l-2.7,3.2
	c-5.6,6.8-10.7,13.9-15.4,21.3l-0.6,1L219.2,403.5z"/>
<g class="st2">
	<path class="st1" d="M20.3,47l4.1-2.1h0.2c0,2.1,0.5,3.9,1.6,5.2c1.3,1.6,3.1,2.5,5.2,2.5c2.2,0,3.9-0.8,5.2-2.5
		c1.1-1.3,1.6-3.1,1.6-5.2v-4.5c-1.9,1.9-4.1,2.8-6.8,2.8c-3.5,0-6.2-1.2-8.2-3.5c-2-2.3-3-5-3-8.3c0-3.3,1-6,3-8.3
		c2-2.3,4.8-3.5,8.2-3.5s6.2,1.2,8.2,3.5c2,2.3,3,5,3,8.3v13.4c0,3.4-1,6.2-3,8.5c-2,2.3-4.8,3.5-8.2,3.5c-3.6,0-6.3-1.1-8.2-3.2
		C21.3,51.5,20.3,49.3,20.3,47z M31.5,39c2.1,0,3.9-0.8,5.2-2.5c1.1-1.3,1.6-3,1.6-5c0-2-0.5-3.6-1.6-5c-1.3-1.6-3-2.5-5.2-2.5
		c-2.1,0-3.8,0.8-5.2,2.5c-1.1,1.3-1.6,2.9-1.6,5c0,2,0.5,3.7,1.6,5C27.6,38.2,29.3,39,31.5,39z"/>
</g>
<g class="st2">
	<path class="st1" d="M284.7,416l-4.1,2.1h-0.2c0-2.1-0.5-3.9-1.6-5.2c-1.3-1.6-3.1-2.5-5.2-2.5c-2.2,0-3.9,0.8-5.2,2.5
		c-1.1,1.3-1.6,3.1-1.6,5.2v4.5c1.9-1.9,4.1-2.8,6.8-2.8c3.5,0,6.2,1.2,8.2,3.5c2,2.3,3,5,3,8.3c0,3.3-1,6-3,8.3
		c-2,2.3-4.8,3.5-8.2,3.5s-6.2-1.2-8.2-3.5c-2-2.3-3-5-3-8.3v-13.4c0-3.4,1-6.2,3-8.5c2-2.3,4.8-3.5,8.2-3.5c3.6,0,6.3,1.1,8.2,3.2
		C283.7,411.5,284.7,413.7,284.7,416z M273.5,424.1c-2.1,0-3.9,0.8-5.2,2.5c-1.1,1.3-1.6,3-1.6,5c0,2,0.5,3.6,1.6,5
		c1.3,1.6,3,2.5,5.2,2.5c2.1,0,3.8-0.8,5.2-2.5c1.1-1.3,1.6-2.9,1.6-5c0-2-0.5-3.7-1.6-5C277.4,424.9,275.7,424.1,273.5,424.1z"/>
</g>
</svg>
