<?xml version="1.0" encoding="utf-8"?>
<!-- Generator: Adobe Illustrator 23.0.3, SVG Export Plug-In . SVG Version: 6.00 Build 0)  -->
<svg version="1.1" id="Layer_1" xmlns="http://www.w3.org/2000/svg" xmlns:xlink="http://www.w3.org/1999/xlink" x="0px" y="0px"
	 viewBox="0 0 305 463" style="enable-background:new 0 0 305 463;" xml:space="preserve">
<style type="text/css">
	.st0{fill:#FFFFFF;stroke:#000000;stroke-width:2;stroke-linecap:round;}
	.st1{fill:#FF0000;}
	.st2{enable-background:new    ;}
</style>
<title>Ace</title>
<path class="st0" d="M24,1h257c6.1-0.1,12,2.3,16.3,6.8c4.4,4.3,6.8,10.2,6.7,16.3v415c0,12.7-10.3,23-23,23H24
	c-6.1,0.1-12-2.3-16.3-6.8C3.4,451,0.9,445.1,1,439V24C0.9,17.9,3.3,12,7.8,7.8C12,3.3,17.9,0.9,24,1z"/>
<g id="layer1">
	<path id="path5878" class="st1" d="M30.3,94.8c-1.3-2.1-5.4-7.9-8.5-11.7c-1.5-1.9-2.8-3.6-2.8-3.7c0.4-0.6,0.8-1.2,1.3-1.7
		c3.5-4.2,6.8-8.6,9.7-13.2c0.6-0.9,1.1-1.6,1.2-1.5s0.9,1.3,1.8,2.7c2,3,6.2,8.7,8.7,11.6l1.8,2.1l-1.8,2.1
		c-3.7,4.4-7,9.1-10.1,13.9l-0.4,0.7L30.3,94.8z"/>
</g>
<path class="st1" d="M273.3,398.8c-1.3-2.1-5.4-7.9-8.5-11.7c-1.5-1.9-2.8-3.6-2.8-3.7c0.4-0.6,0.8-1.2,1.3-1.7
	c3.5-4.2,6.8-8.6,9.7-13.2c0.6-0.9,1.1-1.6,1.2-1.5s0.9,1.3,1.8,2.7c2,3,6.2,8.7,8.7,11.6l1.8,2.1l-1.8,2.1
	c-3.7,4.4-7,9.1-10.1,13.9l-0.4,0.7L273.3,398.8z"/>
<path class="st1" d="M148.1,308.9c-6.4-10.8-27.4-39.8-42.9-59.2C97.4,240,91,231.6,91,231.2s2.9-4.3,6.4-8.5
	c17-20.4,40-51.5,49.3-67c2.9-4.8,5.6-8.2,6-7.7s4.5,6.6,9.1,13.6c9.9,15.2,31.5,44.2,43.8,58.9l8.9,10.6l-8.9,10.6
	c-16.2,19.2-39.2,51-51.2,70.6l-2.1,3.5L148.1,308.9z"/>
<g class="st2">
	<path class="st1" d="M20.2,57.4V31.8c0-3.4,1-6.3,3-8.5c2.1-2.3,4.9-3.5,8.2-3.5c3.3,0,6.1,1.2,8.2,3.5c2,2.1,3,5,3,8.5v23.5
		l-4.2,2.2h-0.2V40.5H24.7v14.7l-4.2,2.2H20.2z M24.7,36.2h13.6v-4.4c0-2.1-0.5-3.9-1.6-5.2c-1.3-1.6-3.1-2.5-5.2-2.5
		s-3.9,0.8-5.2,2.5c-1.1,1.3-1.6,3.1-1.6,5.2V36.2z"/>
</g>
<g class="st2">
	<path class="st1" d="M284.8,405.7v25.6c0,3.4-1,6.3-3,8.5c-2.1,2.3-4.9,3.5-8.2,3.5c-3.3,0-6.1-1.2-8.2-3.5c-2-2.1-3-5-3-8.5v-23.5
		l4.2-2.2h0.2v16.9h13.6v-14.7l4.2-2.2H284.8z M280.3,426.9h-13.6v4.4c0,2.1,0.5,3.9,1.6,5.2c1.3,1.6,3.1,2.5,5.2,2.5
		s3.9-0.8,5.2-2.5c1.1-1.3,1.6-3.1,1.6-5.2V426.9z"/>
</g>
</svg>
