<?xml version="1.0" encoding="utf-8"?>
<!-- Generator: Adobe Illustrator 23.0.2, SVG Export Plug-In . SVG Version: 6.00 Build 0)  -->
<svg version="1.1" id="Layer_1" xmlns="http://www.w3.org/2000/svg" xmlns:xlink="http://www.w3.org/1999/xlink" x="0px" y="0px"
	 viewBox="0 0 305 463" style="enable-background:new 0 0 305 463;" xml:space="preserve">
<style type="text/css">
	.st0{fill:#FFFFFF;stroke:#000000;stroke-width:2;stroke-linecap:round;}
	.st1{fill:#FF0000;stroke:#FF0000;stroke-width:1.44;stroke-miterlimit:10;}
	.st2{fill:#FF0000;}
</style>
<title>Ace</title>
<path class="st0" d="M24,1h257c6.1-0.1,12,2.3,16.3,6.8c4.4,4.3,6.8,10.2,6.7,16.3v415c0,12.7-10.3,23-23,23H24
	c-6.1,0.1-12-2.3-16.3-6.8C3.4,451,0.9,445.1,1,439V24C0.9,17.9,3.3,12,7.8,7.8C12,3.3,17.9,0.9,24,1z"/>
<path class="st1" d="M43.2,40L43.2,40c0.8,2,1.9,3,3.3,3.1l0,0v1l0,0c-1.3-0.1-3-0.1-5.1-0.1l0,0c-2.8,0-4.8,0-6.1,0.1l0,0V43l0,0
	c0.9,0,1.8-0.2,2.6-0.4l0,0c0.5-0.2,0.8-0.8,0.8-1.3l0,0c-0.1-0.8-0.3-1.5-0.6-2.2l0,0l-2.9-7.8H23.5l-2,5.1l0,0
	c-0.5,1.3-0.8,2.6-1,3.9l0,0c-0.1,0.8,0.3,1.7,1,2.2l0,0c1,0.5,2,0.8,3.1,0.7l0,0v1l0,0c-1.8-0.1-3.7-0.1-5.5-0.1l0,0
	c-1.4,0-2.6,0-3.6,0.1l0,0v-1l0,0c1.6-0.4,2.9-1.8,3.8-4.2l0,0l11.3-29h0.8L43.2,40z M23.9,30.2h10.8l-5.4-14.3L23.9,30.2z"/>
<path class="st1" d="M261.9,423L261.9,423c-0.8-2-1.9-3-3.3-3.1l0,0v-1l0,0c1.3,0.1,3,0.1,5.1,0.1l0,0c2.8,0,4.8,0,6.1-0.1l0,0v1
	l0,0c-0.9,0-1.8,0.2-2.6,0.5l0,0c-0.5,0.2-0.8,0.8-0.8,1.3l0,0c0.1,0.8,0.3,1.6,0.6,2.3l0,0l2.9,7.9h11.6l2-5.1l0,0
	c0.5-1.3,0.8-2.6,1-3.9l0,0c0.1-0.8-0.3-1.7-1-2.1l0,0c-1-0.5-2-0.8-3.1-0.7l0,0v-1l0,0c1.8,0.1,3.6,0.1,5.5,0.1l0,0
	c1.4,0,2.6,0,3.6-0.1l0,0v1l0,0c-1.6,0.4-2.9,1.8-3.8,4.2l0,0l-11.3,29h-0.8L261.9,423z M281.1,432.8h-10.8l5.4,14.3L281.1,432.8z"
	/>
<g id="layer1">
	<path id="path5878" class="st2" d="M30.3,94.8c-1.3-2.1-5.4-7.9-8.5-11.7c-1.5-1.9-2.8-3.6-2.8-3.7c0.4-0.6,0.8-1.2,1.3-1.7
		c3.5-4.2,6.8-8.6,9.7-13.2c0.6-0.9,1.1-1.6,1.2-1.5s0.9,1.3,1.8,2.7c2,3,6.2,8.7,8.7,11.6l1.8,2.1l-1.8,2.1
		c-3.7,4.4-7,9.1-10.1,13.9l-0.4,0.7L30.3,94.8z"/>
</g>
<path class="st2" d="M273.3,398.8c-1.3-2.1-5.4-7.9-8.5-11.7c-1.5-1.9-2.8-3.6-2.8-3.7c0.4-0.6,0.8-1.2,1.3-1.7
	c3.5-4.2,6.8-8.6,9.7-13.2c0.6-0.9,1.1-1.6,1.2-1.5s0.9,1.3,1.8,2.7c2,3,6.2,8.7,8.7,11.6l1.8,2.1l-1.8,2.1
	c-3.7,4.4-7,9.1-10.1,13.9l-0.4,0.7L273.3,398.8z"/>
<path class="st2" d="M148.1,308.9c-6.4-10.8-27.4-39.8-42.9-59.2C97.4,240,91,231.6,91,231.2s2.9-4.3,6.4-8.5
	c17-20.4,40-51.5,49.3-67c2.9-4.8,5.6-8.2,6-7.7s4.5,6.6,9.1,13.6c9.9,15.2,31.5,44.2,43.8,58.9l8.9,10.6l-8.9,10.6
	c-16.2,19.2-39.2,51-51.2,70.6l-2.1,3.5L148.1,308.9z"/>
</svg>
