<?xml version="1.0" encoding="utf-8"?>
<!-- Generator: Adobe Illustrator 23.0.2, SVG Export Plug-In . SVG Version: 6.00 Build 0)  -->
<svg version="1.1" id="Layer_1" xmlns="http://www.w3.org/2000/svg" xmlns:xlink="http://www.w3.org/1999/xlink" x="0px" y="0px"
	 viewBox="0 0 305 463" style="enable-background:new 0 0 305 463;" xml:space="preserve">
<style type="text/css">
	.st0{fill:#FFFFFF;stroke:#000000;stroke-width:2;stroke-linecap:round;}
	.st1{fill:#FF0000;stroke:#FF0000;stroke-width:1.44;stroke-miterlimit:10;}
	.st2{fill:#FF0000;stroke:#FF0000;stroke-width:3.42;stroke-miterlimit:10;}
	.st3{fill:#FF0000;}
</style>
<title>Jack</title>
<path class="st0" d="M24,1h257c6.1-0.1,12,2.3,16.3,6.8c4.4,4.3,6.8,10.2,6.7,16.3v415c0,12.7-10.3,23-23,23H24
	c-12.7,0-23-10.2-23-22.9c0,0,0,0,0-0.1V24C0.9,17.9,3.3,12,7.8,7.8C12,3.3,17.9,0.9,24,1z"/>
<path class="st1" d="M22,53v-0.9l0,0c2,0.1,3.9-0.9,5-2.5l0,0c1.1-1.6,1.6-4.3,1.6-8.1l0,0V15.2l0,0c0-0.9-0.1-1.8-0.3-2.6l0,0
	c-0.2-0.5-0.6-0.9-1.1-1.1l0,0c-0.8-0.2-1.7-0.4-2.5-0.4l0,0v-1l0,0c1.3,0.1,3.3,0.2,6,0.2l0,0c2.6,0,4.7,0,6.2-0.2l0,0v1l0,0
	c-0.8,0-1.7,0.1-2.5,0.4l0,0c-0.5,0.2-0.9,0.6-1.1,1.1l0,0c-0.2,0.9-0.3,1.7-0.3,2.6l0,0v17.5l0,0c0,2.7,0,5.1-0.1,7.2l0,0
	c-0.1,1.8-0.3,3.6-0.7,5.3l0,0c-0.5,2.2-1.7,4.2-3.5,5.7l0,0C26.8,52.3,24.4,53.1,22,53z"/>
<path class="st1" d="M283,410v0.9l0,0c-2-0.1-3.9,0.9-5,2.5l0,0c-1.1,1.6-1.6,4.3-1.6,8.1l0,0v26.3l0,0c0,0.9,0.1,1.8,0.3,2.6l0,0
	c0.2,0.5,0.6,0.9,1.1,1.1l0,0c0.8,0.2,1.7,0.4,2.5,0.4l0,0v1l0,0c-1.3-0.1-3.3-0.2-6-0.1l0,0c-2.6,0-4.7,0-6.2,0.1l0,0v-1l0,0
	c0.8,0,1.7-0.1,2.5-0.4l0,0c0.5-0.2,0.9-0.6,1.1-1.1l0,0c0.2-0.9,0.3-1.7,0.3-2.6l0,0v-17.5l0,0c0-2.7,0-5.1,0.1-7.2l0,0
	c0.1-1.8,0.3-3.6,0.7-5.3l0,0c0.5-2.2,1.7-4.2,3.5-5.6l0,0C278.2,410.7,280.6,409.9,283,410z"/>
<path class="st2" d="M130.7,204.4v-2.2l0,0c5.3-0.2,9.3-2.1,11.8-5.9l0,0c2.5-3.8,3.8-10.2,3.8-19.2l0,0v-62.6l0,0
	c0.1-2.1-0.1-4.2-0.7-6.3l0,0c-0.4-1.2-1.3-2.2-2.6-2.6l0,0c-1.9-0.6-4-0.9-6-0.9l0,0v-2.3l0,0c3.2,0.2,8,0.3,14.4,0.3l0,0
	c6.2,0,11.1-0.1,14.7-0.3l0,0v2.3l0,0c-2,0-4.1,0.3-6,0.9l0,0c-1.2,0.4-2.2,1.4-2.6,2.6l0,0c-0.6,2-0.8,4.2-0.7,6.3l0,0v41.7l0,0
	c0,6.5-0.1,12.2-0.3,17.1l0,0c-0.1,4.2-0.6,8.5-1.5,12.6l0,0c-1.2,5.3-4.2,10-8.4,13.4l0,0C142.4,202.7,137.1,204.4,130.7,204.4
	L130.7,204.4z"/>
<path class="st2" d="M174.3,258.6v2.2l0,0c-5.3,0.2-9.3,2.1-11.8,5.9l0,0c-2.5,3.8-3.8,10.2-3.8,19.2l0,0v62.6l0,0
	c-0.1,2.1,0.1,4.2,0.7,6.3l0,0c0.4,1.2,1.3,2.2,2.6,2.6l0,0c1.9,0.6,4,0.9,6,0.9l0,0v2.3l0,0c-3.2-0.2-8-0.3-14.4-0.3l0,0
	c-6.2,0-11.1,0.1-14.7,0.3l0,0v-2.3l0,0c2,0,4.1-0.3,6-0.9l0,0c1.2-0.4,2.2-1.4,2.6-2.6l0,0c0.6-2,0.8-4.2,0.7-6.3l0,0v-41.7l0,0
	c0-6.4,0.1-12.2,0.3-17.1l0,0c0.1-4.2,0.6-8.5,1.5-12.6l0,0c1.2-5.3,4.2-10,8.4-13.4l0,0C162.6,260.3,167.9,258.6,174.3,258.6
	L174.3,258.6z"/>
<g id="layer1">
	<path id="path5878" class="st3" d="M30.3,94.8c-1.3-2.1-5.4-7.9-8.5-11.7c-1.5-1.9-2.8-3.6-2.8-3.7c0.4-0.6,0.8-1.2,1.3-1.7
		c3.5-4.2,6.8-8.6,9.7-13.2c0.6-0.9,1.1-1.6,1.2-1.5s0.9,1.3,1.8,2.7c2,3,6.2,8.7,8.7,11.6l1.8,2.1l-1.8,2.1
		c-3.7,4.4-7,9.1-10.1,13.9l-0.4,0.7L30.3,94.8z"/>
</g>
<path class="st3" d="M273.3,398.8c-1.3-2.1-5.4-7.9-8.5-11.7c-1.5-1.9-2.8-3.6-2.8-3.7c0.4-0.6,0.8-1.2,1.3-1.7
	c3.5-4.2,6.8-8.6,9.7-13.2c0.6-0.9,1.1-1.6,1.2-1.5s0.9,1.3,1.8,2.7c2,3,6.2,8.7,8.7,11.6l1.8,2.1l-1.8,2.1
	c-3.7,4.4-7,9.1-10.1,13.9l-0.4,0.7L273.3,398.8z"/>
</svg>
