<?xml version="1.0" encoding="utf-8"?>
<!-- Generator: Adobe Illustrator 23.0.2, SVG Export Plug-In . SVG Version: 6.00 Build 0)  -->
<svg version="1.1" id="Layer_1" xmlns="http://www.w3.org/2000/svg" xmlns:xlink="http://www.w3.org/1999/xlink" x="0px" y="0px"
	 viewBox="0 0 305 463" style="enable-background:new 0 0 305 463;" xml:space="preserve">
<style type="text/css">
	.st0{fill:#FFFFFF;stroke:#000000;stroke-width:2;stroke-linecap:round;}
	.st1{fill:#FF0000;stroke:#FF0000;stroke-width:1.44;stroke-miterlimit:10;}
	.st2{fill:#FF0000;stroke:#FF0000;stroke-width:3.42;stroke-miterlimit:10;}
	.st3{fill:#FF0000;}
</style>
<title>King</title>
<path class="st0" d="M24,1h257c6.1-0.1,12,2.3,16.3,6.8c4.4,4.3,6.8,10.2,6.7,16.3v415c0,12.7-10.3,23-23,23H24
	c-6.1,0.1-12-2.3-16.3-6.8C3.4,451,0.9,445.1,1,439V24C0.9,17.9,3.3,12,7.8,7.8C12,3.3,17.9,0.9,24,1z"/>
<path class="st1" d="M42.1,40.1L42.1,40.1c0.5,0.7,1.1,1.4,1.8,1.9l0,0c0.7,0.5,1.6,0.8,2.4,1l0,0v1l0,0c-1.5-0.1-3.5-0.1-5.7-0.1
	l0,0c-1.7,0-3.4,0-4.9,0.1l0,0v-1l0,0c0.6,0,1.1-0.1,1.7-0.3l0,0c0.3-0.1,0.5-0.4,0.5-0.7l0,0c0-0.4-0.2-0.8-0.5-1.2l0,0l-7-10.5
	l0,0c-0.6-1-1.4-2-2.4-2.7l0,0c-0.8-0.5-1.7-0.7-2.7-0.7l0,0v12.1l0,0c0,0.9,0.1,1.8,0.3,2.6l0,0c0.2,0.5,0.6,0.9,1.1,1.1l0,0
	c0.8,0.2,1.7,0.4,2.5,0.4l0,0v1l0,0c-1.5-0.1-3.5-0.1-6.1-0.1l0,0c-2.8,0-4.8,0-6.1,0.1l0,0v-1l0,0c0.9,0,1.7-0.1,2.5-0.4l0,0
	c0.5-0.2,0.9-0.6,1.1-1.1l0,0c0.2-0.9,0.3-1.7,0.3-2.6l0,0V15.2l0,0c0-0.9-0.1-1.8-0.3-2.6l0,0c-0.2-0.5-0.6-0.9-1.1-1.1l0,0
	c-0.8-0.2-1.7-0.4-2.5-0.4l0,0v-1l0,0c1.3,0.1,3.4,0.1,6.1,0.1l0,0c2.5,0,4.6-0.1,6.1-0.1l0,0v1l0,0c-0.8,0-1.7,0.1-2.5,0.4l0,0
	c-0.5,0.2-0.9,0.6-1.1,1.1l0,0c-0.2,0.9-0.3,1.7-0.3,2.6l0,0v10.7l0,0c2.1,0,4.2-1,5.5-2.7l0,0l4.6-5.8l0,0c1.6-2,2.5-3.5,2.5-4.6
	l0,0c0-1.1-1-1.7-3-1.7l0,0v-1l0,0c1.8,0.1,3.7,0.1,5.5,0.1l0,0c1.8,0,3.1,0,4.1-0.1l0,0v1l0,0c-1.1,0.1-2.1,0.5-3,1l0,0
	c-1,0.6-2,1.5-2.7,2.5l0,0l-7.8,10L42.1,40.1z"/>
<path class="st1" d="M262.9,422.9L262.9,422.9c-0.5-0.7-1.1-1.4-1.8-1.9l0,0c-0.7-0.5-1.6-0.8-2.4-1l0,0v-1l0,0
	c1.5,0.1,3.5,0.1,5.7,0.1l0,0c1.7,0,3.4,0,4.9-0.1l0,0v1l0,0c-0.6,0-1.1,0.1-1.7,0.3l0,0c-0.3,0.1-0.5,0.4-0.5,0.7l0,0
	c0,0.4,0.2,0.8,0.5,1.1l0,0l7,10.5l0,0c0.6,1,1.4,2,2.4,2.7l0,0c0.8,0.5,1.7,0.7,2.7,0.7l0,0v-12.1l0,0c0-0.9-0.1-1.8-0.3-2.6l0,0
	c-0.2-0.5-0.6-0.9-1.1-1.1l0,0c-0.8-0.2-1.7-0.4-2.5-0.4l0,0v-1l0,0c1.5,0.1,3.5,0.1,6.1,0.1l0,0c2.8,0,4.8,0,6.1-0.1l0,0v1l0,0
	c-0.9,0-1.7,0.1-2.5,0.4l0,0c-0.5,0.2-0.9,0.6-1.1,1.1l0,0c-0.2,0.9-0.3,1.7-0.3,2.6l0,0v23.8l0,0c0,0.9,0.1,1.8,0.3,2.6l0,0
	c0.2,0.5,0.6,0.9,1.1,1.1l0,0c0.8,0.2,1.7,0.4,2.5,0.4l0,0v1l0,0c-1.3-0.1-3.4-0.1-6.1-0.1l0,0c-2.6,0-4.6,0-6.1,0.1l0,0v-1l0,0
	c0.8,0,1.7-0.1,2.5-0.4l0,0c0.5-0.2,0.9-0.6,1.1-1.1l0,0c0.2-0.9,0.3-1.7,0.3-2.6l0,0v-10.7l0,0c-2.1,0-4.2,1-5.5,2.7l0,0l-4.6,5.8
	l0,0c-1.6,2-2.4,3.5-2.5,4.6l0,0c0,1.1,1,1.7,3,1.7l0,0v1l0,0c-1.8-0.1-3.6-0.1-5.5-0.1l0,0c-1.8,0-3.1,0-4.1,0.1l0,0v-1l0,0
	c1.1-0.1,2.1-0.5,3-1l0,0c1-0.6,2-1.5,2.7-2.5l0,0l7.8-10L262.9,422.9z"/>
<path class="st2" d="M179.4,173.8L179.4,173.8c1.1,1.7,2.6,3.3,4.3,4.5l0,0c1.7,1.2,3.7,2,5.8,2.4l0,0v2.3l0,0
	c-3.6-0.2-8.2-0.3-13.7-0.3l0,0c-4.1,0-8,0.1-11.7,0.3l0,0v-2.3l0,0c1.4,0,2.7-0.2,4-0.7l0,0c0.7-0.2,1.2-0.9,1.3-1.7l0,0
	c-0.1-1-0.5-2-1.1-2.7l0,0l-16.6-25l0,0c-2.2-3.3-4.1-5.5-5.6-6.6l0,0c-1.9-1.2-4.1-1.8-6.4-1.8l0,0V171l0,0
	c-0.1,2.1,0.1,4.2,0.7,6.3l0,0c0.4,1.2,1.3,2.2,2.6,2.6l0,0c1.9,0.6,4,0.9,6,0.9l0,0v2.2l0,0c-3.5-0.2-8.3-0.3-14.5-0.3l0,0
	c-6.5,0-11.4,0.1-14.6,0.3l0,0v-2.3l0,0c2,0,4.1-0.3,6-0.9l0,0c1.2-0.4,2.2-1.4,2.6-2.6l0,0c0.6-2,0.8-4.2,0.7-6.3l0,0v-56.5l0,0
	c0.1-2.1-0.1-4.2-0.7-6.3l0,0c-0.4-1.2-1.3-2.2-2.6-2.6l0,0c-1.9-0.6-4-0.9-6-0.9l0,0v-2.3l0,0c3.2,0.2,8,0.3,14.6,0.3l0,0
	c6.1,0,10.9-0.1,14.5-0.3l0,0v2.3l0,0c-2,0-4,0.3-6,0.9l0,0c-1.2,0.4-2.2,1.4-2.6,2.6l0,0c-0.5,2-0.8,4.2-0.7,6.3l0,0V140l0,0
	c5.5-0.2,9.9-2.4,13-6.4l0,0l10.9-13.9l0,0c3.9-4.8,5.8-8.4,5.8-10.9l0,0c0-2.7-2.4-4-7.1-4.1l0,0v-2.3l0,0
	c4.3,0.2,8.7,0.3,13.1,0.3l0,0c4.2,0,7.4-0.1,9.7-0.3l0,0v2.3l0,0c-2.5,0.4-4.9,1.2-7.1,2.4l0,0c-2.5,1.5-4.7,3.5-6.4,5.9l0,0
	L153,136.8L179.4,173.8z"/>
<path class="st2" d="M125.6,289.2L125.6,289.2c-1.1-1.7-2.6-3.3-4.3-4.5l0,0c-1.7-1.2-3.7-2-5.8-2.5l0,0V280l0,0
	c3.6,0.2,8.2,0.3,13.7,0.3l0,0c4.1,0,8-0.1,11.7-0.3l0,0v2.3l0,0c-1.4,0-2.7,0.2-4,0.7l0,0c-0.7,0.2-1.2,0.9-1.3,1.7l0,0
	c0.1,1,0.5,2,1.1,2.7l0,0l16.6,25l0,0c2.2,3.3,4.1,5.5,5.6,6.5l0,0c1.9,1.2,4.1,1.8,6.4,1.8l0,0v-28.7l0,0c0.1-2.1-0.1-4.2-0.7-6.3
	l0,0c-0.4-1.2-1.3-2.2-2.6-2.6l0,0c-1.9-0.6-4-0.9-6-0.9l0,0V280l0,0c3.5,0.2,8.3,0.3,14.5,0.3l0,0c6.5,0,11.4-0.1,14.6-0.3l0,0v2.3
	l0,0c-2,0-4.1,0.3-6,0.9l0,0c-1.2,0.4-2.2,1.4-2.6,2.6l0,0c-0.6,2-0.8,4.2-0.7,6.3l0,0v56.5l0,0c-0.1,2.1,0.1,4.2,0.7,6.3l0,0
	c0.4,1.2,1.3,2.2,2.6,2.6l0,0c1.9,0.6,4,0.9,6,0.9l0,0v2.3l0,0c-3.2-0.2-8-0.3-14.6-0.3l0,0c-6.1,0-10.9,0.1-14.5,0.3l0,0v-2.3l0,0
	c2,0,4-0.3,6-0.9l0,0c1.2-0.4,2.2-1.4,2.6-2.6l0,0c0.5-2,0.8-4.2,0.7-6.3l0,0V323l0,0c-5.5,0.2-9.9,2.4-13,6.4l0,0l-10.9,13.9l0,0
	c-3.9,4.8-5.8,8.4-5.8,10.9l0,0c0,2.6,2.4,4,7.1,4.1l0,0v2.3l0,0c-4.3-0.2-8.7-0.3-13.1-0.3l0,0c-4.2,0-7.4,0.1-9.7,0.3l0,0v-2.3
	l0,0c2.5-0.4,4.9-1.2,7.1-2.4l0,0c2.5-1.5,4.7-3.5,6.4-5.9l0,0l18.6-23.8L125.6,289.2z"/>
<g id="layer1">
	<path id="path5878" class="st3" d="M273.3,398.8c-1.3-2.1-5.4-7.9-8.5-11.7c-1.5-1.9-2.8-3.6-2.8-3.7c0.4-0.6,0.8-1.2,1.3-1.7
		c3.5-4.2,6.8-8.6,9.7-13.2c0.6-0.9,1.1-1.6,1.2-1.5s0.9,1.3,1.8,2.7c2,3,6.2,8.7,8.7,11.6l1.8,2.1l-1.8,2.1
		c-3.7,4.4-7,9.1-10.1,13.9l-0.4,0.7L273.3,398.8z"/>
</g>
<path class="st3" d="M30.3,94.8c-1.3-2.1-5.4-7.9-8.5-11.7c-1.5-1.9-2.8-3.6-2.8-3.7c0.4-0.6,0.8-1.2,1.3-1.7
	c3.5-4.2,6.8-8.6,9.7-13.2c0.6-0.9,1.1-1.6,1.2-1.5s0.9,1.3,1.8,2.7c2,3,6.2,8.7,8.7,11.6l1.8,2.1l-1.8,2.1
	c-3.7,4.4-7,9.1-10.1,13.9l-0.4,0.7L30.3,94.8z"/>
</svg>
