<?xml version="1.0" encoding="utf-8"?>
<!-- Generator: Adobe Illustrator 23.0.3, SVG Export Plug-In . SVG Version: 6.00 Build 0)  -->
<svg version="1.1" id="Layer_1" xmlns="http://www.w3.org/2000/svg" xmlns:xlink="http://www.w3.org/1999/xlink" x="0px" y="0px"
	 viewBox="0 0 305 463" style="enable-background:new 0 0 305 463;" xml:space="preserve">
<style type="text/css">
	.st0{fill:#FFFFFF;stroke:#000000;stroke-width:2;stroke-linecap:round;}
	.st1{fill:#FF0000;}
	.st2{enable-background:new    ;}
</style>
<title>King</title>
<path class="st0" d="M24,1h257c6.1-0.1,12,2.3,16.3,6.8c4.4,4.3,6.8,10.2,6.7,16.3v415c0,12.7-10.3,23-23,23H24
	c-6.1,0.1-12-2.3-16.3-6.8C3.4,451,0.9,445.1,1,439V24C0.9,17.9,3.3,12,7.8,7.8C12,3.3,17.9,0.9,24,1z"/>
<g id="layer1">
	<path id="path5878" class="st1" d="M273.3,398.8c-1.3-2.1-5.4-7.9-8.5-11.7c-1.5-1.9-2.8-3.6-2.8-3.7c0.4-0.6,0.8-1.2,1.3-1.7
		c3.5-4.2,6.8-8.6,9.7-13.2c0.6-0.9,1.1-1.6,1.2-1.5s0.9,1.3,1.8,2.7c2,3,6.2,8.7,8.7,11.6l1.8,2.1l-1.8,2.1
		c-3.7,4.4-7,9.1-10.1,13.9l-0.4,0.7L273.3,398.8z"/>
</g>
<path class="st1" d="M30.3,94.8c-1.3-2.1-5.4-7.9-8.5-11.7c-1.5-1.9-2.8-3.6-2.8-3.7c0.4-0.6,0.8-1.2,1.3-1.7
	c3.5-4.2,6.8-8.6,9.7-13.2c0.6-0.9,1.1-1.6,1.2-1.5s0.9,1.3,1.8,2.7c2,3,6.2,8.7,8.7,11.6l1.8,2.1l-1.8,2.1
	c-3.7,4.4-7,9.1-10.1,13.9l-0.4,0.7L30.3,94.8z"/>
<g class="st2">
	<path class="st1" d="M20.6,57.4V21.5l4.2-2.2H25v18l12.1-18h0.2l3.9,2l-9.9,14.2c3.4,0.1,6.1,1.1,8.1,3.2c2,2.1,3,4.9,3,8.5v8
		l-4.2,2.2H38V47.2c0-2.1-0.5-3.9-1.6-5.2c-1.3-1.6-2.9-2.5-4.9-2.5c-1.9,0-3.6,0.8-4.9,2.5c-1.1,1.4-1.6,3.1-1.6,5.2v8l-4.2,2.2
		H20.6z"/>
</g>
<g class="st2">
	<path class="st1" d="M284.2,405.7v35.9l-4.2,2.2h-0.2v-18l-12.1,18h-0.2l-3.9-2l9.9-14.2c-3.4-0.1-6.1-1.2-8.1-3.2
		c-2-2.1-3-4.9-3-8.5v-8l4.2-2.2h0.2v10.2c0,2.1,0.5,3.9,1.6,5.2c1.3,1.6,2.9,2.5,4.9,2.5c1.9,0,3.6-0.8,4.9-2.5
		c1.1-1.4,1.6-3.1,1.6-5.2v-8l4.2-2.2L284.2,405.7L284.2,405.7z"/>
</g>
<g class="st2">
	<path class="st1" d="M119.8,210.8v-108l12.7-6.5h0.7v54.2l36.4-54.2h0.7l11.8,6l-30,42.7c10.3,0.2,18.3,3.5,24.2,9.6
		c6,6.3,9,14.9,9,25.6v24.1l-12.7,6.5h-0.7v-30.5c0-6.4-1.6-11.6-4.8-15.6c-4-4.9-8.8-7.4-14.6-7.4s-10.7,2.5-14.6,7.4
		c-3.2,4.1-4.8,9.3-4.8,15.6v24.1l-12.7,6.5h-0.6C119.8,210.9,119.8,210.8,119.8,210.8z"/>
</g>
<g class="st2">
	<path class="st1" d="M185.3,250.1v108l-12.7,6.5h-0.7v-54.2l-36.4,54.2h-0.7l-11.8-6l29.9-42.8c-10.3-0.2-18.3-3.5-24.2-9.6
		c-6-6.3-9-14.9-9-25.6v-24.1l12.7-6.5h0.7v30.5c0,6.4,1.6,11.6,4.8,15.6c4,4.9,8.8,7.4,14.6,7.4s10.7-2.5,14.6-7.4
		c3.2-4.1,4.8-9.3,4.8-15.6v-24.1l12.7-6.5h0.7V250.1z"/>
</g>
</svg>
