<?xml version="1.0" encoding="utf-8"?>
<!-- Generator: Adobe Illustrator 23.0.3, SVG Export Plug-In . SVG Version: 6.00 Build 0)  -->
<svg version="1.1" id="Layer_1" xmlns="http://www.w3.org/2000/svg" xmlns:xlink="http://www.w3.org/1999/xlink" x="0px" y="0px"
	 viewBox="0 0 305 463" style="enable-background:new 0 0 305 463;" xml:space="preserve">
<style type="text/css">
	.st0{fill:#FFFFFF;stroke:#000000;stroke-width:2;stroke-linecap:round;}
	.st1{fill:#FF0000;}
	.st2{enable-background:new    ;}
</style>
<title>Queen</title>
<path class="st0" d="M24,1h257c6.1-0.1,12,2.3,16.3,6.8c4.4,4.3,6.8,10.2,6.7,16.3v415c0,12.7-10.3,23-23,23H24
	c-12.7,0-23-10.2-23-22.9c0,0,0,0,0-0.1V24C0.9,17.9,3.3,12,7.8,7.8C12,3.3,17.9,0.9,24,1z"/>
<g id="layer1">
	<path id="path5878" class="st1" d="M30.3,94.8c-1.3-2.1-5.4-7.9-8.5-11.7c-1.5-1.9-2.8-3.6-2.8-3.7c0.4-0.6,0.8-1.2,1.3-1.7
		c3.5-4.2,6.8-8.6,9.7-13.2c0.6-0.9,1.1-1.6,1.2-1.5s0.9,1.3,1.8,2.7c2,3,6.2,8.7,8.7,11.6l1.8,2.1l-1.8,2.1
		c-3.7,4.4-7,9.1-10.1,13.9l-0.4,0.7L30.3,94.8z"/>
</g>
<path class="st1" d="M273.3,398.8c-1.3-2.1-5.4-7.9-8.5-11.7c-1.5-1.9-2.8-3.6-2.8-3.7c0.4-0.6,0.8-1.2,1.3-1.7
	c3.5-4.2,6.8-8.6,9.7-13.2c0.6-0.9,1.1-1.6,1.2-1.5s0.9,1.3,1.8,2.7c2,3,6.2,8.7,8.7,11.6l1.8,2.1l-1.8,2.1
	c-3.7,4.4-7,9.1-10.1,13.9l-0.4,0.7L273.3,398.8z"/>
<g class="st2">
	<path class="st1" d="M20.2,44.9V31.8c0-3.5,1-6.3,3-8.5c2.1-2.3,4.9-3.5,8.2-3.5s6.1,1.2,8.2,3.5c2,2.2,3,5,3,8.5v13.2
		c0,3.2-0.9,5.9-2.6,8l1.6,2.4l-3.9,2h-0.2l-1-1.6c-1.5,0.7-3.2,1.1-5,1.1c-3.4,0-6.1-1.2-8.2-3.5C21.2,51.2,20.2,48.4,20.2,44.9z
		 M24.7,44.9c0,2.1,0.5,3.9,1.6,5.2c1.3,1.6,3,2.5,5.2,2.5c0.9,0,1.8-0.2,2.6-0.5l-4.3-6.6l3.9-2l0.2,0l3.5,5.3
		c0.6-1.1,0.8-2.4,0.8-4V31.8c0-2.1-0.5-3.9-1.6-5.2c-1.3-1.6-3.1-2.5-5.2-2.5s-3.9,0.8-5.2,2.5c-1.1,1.3-1.6,3.1-1.6,5.2V44.9z"/>
</g>
<g class="st2">
	<path class="st1" d="M284.8,418.1v13.2c0,3.5-1,6.3-3,8.5c-2.1,2.3-4.9,3.5-8.2,3.5s-6.1-1.2-8.2-3.5c-2-2.2-3-5-3-8.5v-13.2
		c0-3.2,0.9-5.9,2.6-8l-1.6-2.4l3.9-2h0.2l1,1.6c1.5-0.7,3.2-1.1,5-1.1c3.4,0,6.1,1.2,8.2,3.5C283.8,411.8,284.8,414.6,284.8,418.1z
		 M280.3,418.1c0-2.1-0.5-3.9-1.6-5.2c-1.3-1.6-3-2.5-5.2-2.5c-1,0-1.8,0.2-2.6,0.5l4.3,6.6l-3.9,2l-0.2,0l-3.5-5.3
		c-0.6,1.1-0.8,2.4-0.8,4v13.2c0,2.1,0.5,3.9,1.6,5.2c1.3,1.6,3.1,2.5,5.2,2.5s3.9-0.8,5.2-2.5c1.1-1.3,1.6-3.1,1.6-5.2V418.1z"/>
</g>
<g class="st2">
	<path class="st1" d="M118.7,172.7v-39.6c0-10.4,3-18.9,9-25.6c6.3-7,14.6-10.4,24.8-10.4s18.4,3.5,24.8,10.4c6,6.6,9,15.1,9,25.6
		v39.6c0,9.7-2.6,17.8-7.9,24.2l4.7,7.3l-11.8,6h-0.6l-3-4.7c-4.5,2.1-9.5,3.2-15.2,3.2c-10.2,0-18.4-3.5-24.8-10.4
		C121.7,191.6,118.7,183.1,118.7,172.7z M132.1,172.7c0,6.4,1.6,11.6,4.8,15.6c4,4.9,9.2,7.4,15.6,7.4c2.9,0,5.5-0.5,7.9-1.5
		l-12.8-19.8l11.8-6h0.7l10.4,16.1c1.7-3.3,2.5-7.3,2.5-11.9V133c0-6.4-1.6-11.6-4.8-15.6c-4-4.9-9.2-7.4-15.6-7.4
		s-11.6,2.5-15.6,7.4c-3.2,4-4.8,9.2-4.8,15.6L132.1,172.7L132.1,172.7z"/>
</g>
<g class="st2">
	<path class="st1" d="M186.3,288.3v39.6c0,10.4-3,18.9-9,25.6c-6.3,7-14.6,10.4-24.8,10.4s-18.4-3.5-24.8-10.4c-6-6.6-9-15.1-9-25.6
		v-39.6c0-9.7,2.6-17.8,7.9-24.2l-4.7-7.3l11.8-6h0.7l3,4.7c4.5-2.1,9.5-3.2,15.2-3.2c10.2,0,18.4,3.5,24.8,10.4
		C183.3,269.4,186.3,277.9,186.3,288.3z M172.9,288.3c0-6.4-1.6-11.6-4.8-15.6c-4-4.9-9.2-7.4-15.6-7.4c-2.9,0-5.5,0.5-7.9,1.5
		l12.8,19.8l-11.8,6h-0.7l-10.4-16.1c-1.7,3.3-2.5,7.3-2.5,11.9V328c0,6.4,1.6,11.6,4.8,15.6c4,4.9,9.2,7.4,15.6,7.4
		c6.4,0,11.6-2.5,15.6-7.4c3.2-4,4.8-9.2,4.8-15.6L172.9,288.3L172.9,288.3z"/>
</g>
</svg>
